<svg width="55" height="60" viewBox="0 0 55 60" fill="none" xmlns="http://www.w3.org/2000/svg">
<path fill-rule="evenodd" clip-rule="evenodd" d="M54.7549 29.8152C54.7549 25.0857 49.2937 21.9326 38.3713 15.6266L24.9528 7.87945C14.0304 1.5734 8.56924 -1.57963 4.47334 0.78514C0.377441 3.14991 0.377441 9.45595 0.377441 22.068V28.3794C0.57818 35.0652 5.73863 35.1485 8.78421 34.609C10.1875 34.3605 11.1974 33.2252 11.5663 31.8487C11.7551 31.1438 11.3368 30.4192 10.6319 30.2304L10.5267 30.2022C8.47523 29.6525 8.11246 26.8969 9.95172 25.835L13.4144 23.8358C14.6653 23.1136 16.1519 22.9179 17.547 23.2918C18.1766 23.4605 18.8417 23.3971 19.4339 23.1248C25.2714 20.4407 35.8855 16.6741 37.9879 20.3155C40.1068 23.9855 31.4755 31.8161 26.2951 35.7481C25.8442 36.0904 25.5181 36.5672 25.3716 37.1139C25.0293 38.3911 24.1938 39.4801 23.0487 40.1412L19.9942 41.9047C18.2386 42.9183 16.1338 41.3033 16.6585 39.3451C16.8537 38.6168 16.4214 37.8681 15.6931 37.673L14.8034 37.4346C13.3795 37.053 11.8462 37.1703 10.6041 37.9642C3.20048 42.6965 -1.53503 52.2362 3.24963 57.853L3.22073 57.8738C3.58861 58.2517 4.0041 58.5743 4.47334 58.8453C8.56923 61.21 14.0304 58.057 24.9528 51.751L24.9528 51.751L38.3713 44.0038C49.2937 37.6978 54.7549 34.5447 54.7549 29.8152Z" fill="url(#paint0_radial_37_111)"/>
<defs>
<radialGradient id="paint0_radial_37_111" cx="0" cy="0" r="1" gradientUnits="userSpaceOnUse" gradientTransform="translate(41 17.5) rotate(143.807) scale(50.8035 46.0643)">
<stop stop-color="#4DA6FF"/>
<stop offset="1" stop-color="#0067F2"/>
</radialGradient>
</defs>
</svg>
