<svg width="1747" height="496" viewBox="0 0 1747 496" fill="none" xmlns="http://www.w3.org/2000/svg">
<path d="M115.607 200.315H165.509V241.129L244.52 243.211V14.5762C244.52 12.0772 243.273 9.99512 241.194 9.99512H168.836C166.756 9.99512 165.509 11.6611 165.509 14.5762V122.855H115.607V14.5762C115.607 12.0772 114.359 9.99512 112.28 9.99512H40.7537C38.6744 9.99512 37.4269 11.6611 37.4269 14.5762V238.213L115.607 240.296V200.315Z" fill="#B3B3B3"/>
<path d="M427.494 13.7431C426.662 11.2442 425.415 10.4112 423.751 10.4112H345.987C344.323 10.4112 343.076 11.2442 342.244 13.7431L276.124 244.044L493.614 249.874L427.494 13.7431ZM363.868 207.395L384.245 77.0445L404.205 207.395H363.868Z" fill="#B3B3B3"/>
<path d="M799.265 246.542L833.78 196.151L859.978 259.036L941.07 261.119L881.188 127.436L958.117 14.9922C960.195 12.0771 958.95 9.57819 956.04 9.57819H874.536C872.871 9.57819 871.205 10.8281 870.793 12.0771L799.68 126.603V14.1592C799.68 11.6611 798.433 9.57819 796.353 9.57819H729.818C727.738 9.57819 726.49 11.2442 726.49 14.1592V255.288L799.68 257.37L799.265 246.542Z" fill="#B3B3B3"/>
<path d="M1183.51 218.639C1183.51 98.7005 1048.77 141.595 1048.77 94.1195C1048.77 80.3764 1060.42 74.5455 1075.8 74.5455C1094.1 74.5455 1112.4 82.8746 1130.28 101.616C1131.12 102.865 1132.77 103.282 1134.03 102.449C1134.44 102.032 1134.86 101.616 1134.86 101.199L1171.45 50.3913C1172.7 48.7253 1172.7 45.8103 1171.03 44.1443C1145.67 13.7431 1115.31 0 1078.71 0C1028.81 0 975.173 24.5711 975.173 103.282C975.173 229.051 1111.57 179.076 1111.57 230.717C1111.57 246.542 1098.68 254.455 1080.38 254.455C1057.51 254.455 1034.63 242.794 1011.77 211.56C1010.51 209.894 1008.44 209.477 1007.19 211.56L971.431 262.368L1173.94 267.782C1180.6 251.956 1183.51 235.298 1183.51 218.639Z" fill="#B3B3B3"/>
<path d="M1349.43 13.7431C1348.6 11.2442 1347.35 10.4112 1345.69 10.4112H1267.52C1265.85 10.4112 1264.6 11.2442 1263.77 13.7431L1191 267.782L1422.21 273.612L1349.43 13.7431ZM1285.81 207.395L1306.6 77.0445L1326.56 207.395H1285.81Z" fill="#B3B3B3"/>
<path d="M1566.92 147.842L1587.3 278.193L1671.71 280.275L1745.74 14.9922C1746.57 12.0772 1745.32 9.99512 1743.24 9.99512H1673.8C1671.71 9.99512 1670.47 11.2442 1670.06 14.1593L1633.04 168.248L1603.1 14.1593C1602.69 12.0772 1601.44 9.99512 1599.36 9.99512H1534.49C1532.41 9.99512 1531.16 11.6611 1530.75 14.1593L1500.8 168.248L1463.79 14.1593C1463.37 11.6611 1462.13 9.99512 1460.05 9.99512H1390.6C1388.52 9.99512 1387.28 11.6611 1388.11 14.9922L1460.46 274.862L1546.54 276.944L1566.92 147.842Z" fill="#B3B3B3"/>
<path d="M692.391 230.3C692.391 229.884 691.975 229.051 691.559 229.051C691.144 229.051 690.727 229.051 690.312 229.467C680.331 244.043 664.113 252.789 646.231 252.373C607.973 252.373 589.676 214.058 589.676 163.251C589.676 117.025 604.646 76.2114 647.063 76.2114C664.529 75.3785 680.747 84.1244 690.312 98.2836C690.727 98.7005 691.559 99.1166 691.975 98.7005C692.391 98.2836 692.391 98.2836 692.391 97.8675V12.9101C692.391 10.828 691.144 9.16202 689.48 8.32903C674.925 3.33191 659.123 0.832947 643.736 0.832947C558.903 0.832947 504.427 75.3785 504.427 169.498C504.01 197.4 509.416 224.886 520.229 250.29L692.391 254.872V230.3Z" fill="#B3B3B3"/>
<path d="M128.081 327.751C128.081 330.25 129.329 331.916 131.408 331.916H203.351C205.43 331.916 206.677 330.25 206.677 327.751V255.705L127.666 253.622L128.081 327.751Z" fill="#B3B3B3"/>
<path d="M3.3268 331.916H74.853C76.9323 331.916 78.5957 330.25 78.5957 327.751V251.956L0 250.291V327.751C0 330.25 1.24755 331.916 3.3268 331.916Z" fill="#B3B3B3"/>
<path d="M221.232 331.916H293.174C295.253 331.916 296.502 330.25 296.917 328.584L306.066 288.605H386.741L395.889 328.584C396.306 330.666 397.968 331.916 399.632 331.916H471.574C474.069 331.916 474.901 329.834 474.069 326.502L455.772 261.535L238.282 255.705L217.906 326.085C217.489 329.834 218.737 331.916 221.232 331.916Z" fill="#B3B3B3"/>
<path d="M846.252 329.001C846.673 330.666 848.338 331.916 849.995 331.916H925.267C927.765 331.916 929.009 329.834 927.765 326.502L903.644 273.196L822.552 271.114L846.252 329.001Z" fill="#B3B3B3"/>
<path d="M691.975 331.916H758.511C760.591 331.916 761.838 330.25 761.838 327.751V269.864L688.648 267.782V327.335C688.648 330.25 689.896 331.916 691.975 331.916Z" fill="#B3B3B3"/>
<path d="M928.597 288.605C954.375 322.337 994.299 342.327 1036.71 342.327C1079.55 342.327 1119.47 321.504 1136.94 279.859L934.417 274.445L928.597 282.774C927.344 284.44 927.344 286.939 928.597 288.605Z" fill="#B3B3B3"/>
<path d="M1143.17 331.916H1215.11C1217.2 331.916 1218.85 330.25 1219.27 328.584L1228.42 288.605H1309.1L1318.25 328.584C1318.66 330.667 1320.32 331.916 1322.4 331.916H1393.93C1396.43 331.916 1397.26 329.834 1396.43 326.502L1384.78 285.689L1153.57 279.859L1140.26 326.502C1139.43 329.834 1141.09 331.916 1143.17 331.916Z" fill="#B3B3B3"/>
<path d="M1556.11 328.168C1556.53 330.25 1557.77 331.916 1559.86 331.916H1620.98C1623.06 331.916 1624.31 330.667 1624.73 328.168L1634.71 292.353L1550.29 290.271L1556.11 328.168Z" fill="#B3B3B3"/>
<path d="M1438.43 331.916H1499.56C1501.63 331.916 1502.89 330.25 1503.3 328.168L1509.54 289.437L1423.46 287.355L1435.1 328.584C1435.1 330.666 1436.34 331.916 1438.43 331.916Z" fill="#B3B3B3"/>
<path d="M607.558 343.993C622.528 343.993 637.499 341.911 651.638 337.33C653.717 336.497 654.964 334.831 654.964 332.749V266.949L482.802 262.368C504.843 312.342 548.507 343.993 607.558 343.993Z" fill="#B3B3B3"/>
<path d="M108.121 432.282H81.0912V419.789C81.0912 417.706 79.8435 416.457 77.3483 416.457H71.9423C69.4472 416.457 68.1997 417.706 68.1997 419.789V475.177C68.1997 477.259 69.4472 478.509 71.9423 478.509H77.7642C80.2593 478.509 81.5066 477.259 81.5066 475.177V458.935H73.6057V442.277H108.121V477.259C108.121 489.753 100.636 496 85.2492 496H63.2094C47.823 496 40.3376 489.753 40.3376 477.259V417.706C40.3376 405.212 47.823 398.965 63.2094 398.965H85.2492C100.636 398.965 108.121 405.212 108.121 417.706V432.282Z" fill="white"/>
<path d="M398.385 495.583L395.058 481.007H370.939L367.611 495.583H340.582L366.364 398.965H399.632L425.415 495.583H398.385ZM375.513 462.267H391.315L383.83 427.285L375.513 462.267Z" fill="white"/>
<path d="M684.906 495.583H660.37V398.965H689.896L706.529 450.606L722.748 398.965H752.273V495.583H728.154V434.364L715.679 475.177H696.965L684.489 434.781L684.906 495.583Z" fill="white"/>
<path d="M993.466 398.965H1020.91V495.583H993.466V398.965Z" fill="white"/>
<path d="M1307.43 398.965H1332.38V495.583H1309.1L1286.64 444.776V495.583H1261.69V398.965H1284.98L1307.43 450.606V398.965Z" fill="white"/>
<path d="M1640.53 432.282H1613.5V419.789C1613.5 417.706 1612.25 416.457 1609.76 416.457H1603.94C1601.44 416.457 1600.19 417.706 1600.19 419.789V475.177C1600.19 477.259 1601.44 478.509 1603.94 478.509H1609.34C1611.83 478.509 1613.09 477.259 1613.09 475.177V458.935H1605.18V442.277H1640.53V477.259C1640.53 489.753 1633.04 496 1617.66 496H1595.62C1580.23 496 1572.74 489.753 1572.74 477.259V417.706C1572.74 405.212 1580.23 398.965 1595.62 398.965H1617.66C1633.04 398.965 1640.53 405.212 1640.53 417.706V432.282Z" fill="white"/>
</svg>
