<?xml version="1.0" encoding="utf-8"?>
<!-- Generator: Adobe Illustrator 16.0.0, SVG Export Plug-In . SVG Version: 6.00 Build 0)  -->
<!DOCTYPE svg PUBLIC "-//W3C//DTD SVG 1.1//EN" "http://www.w3.org/Graphics/SVG/1.1/DTD/svg11.dtd">
<svg version="1.1" id="Слой_1" xmlns="http://www.w3.org/2000/svg" xmlns:xlink="http://www.w3.org/1999/xlink" x="0px" y="0px"
	 width="100px" height="36px" viewBox="0 0 100 36" enable-background="new 0 0 100 36" xml:space="preserve">
<title>D2911447-9B38-449D-A4F7-03C6B9E07C96</title>
<desc>Created with sketchtool.</desc>
<g>
	<path fill="#FFFE00" d="M73,13.7c-0.3,0-0.6,0-0.9,0c-0.399,0-0.399,0-0.399-0.4c-0.101-0.6-0.3-1.1-0.601-1.5
		c-0.399-0.6-1.1-0.9-1.8-1c-0.7-0.1-1.399,0-2,0.3c-0.8,0.4-1.3,1.1-1.399,2c-0.101,0.6-0.101,0.6-0.7,0.6c-0.601,0-1.101,0-1.7,0
		c-0.2,0-0.3-0.1-0.3-0.3c-0.101-0.7-0.4-1.4-1-2c-0.7-0.6-1.5-0.8-2.4-0.7c-1.5,0.2-2.3,1.1-2.5,2.5c-0.1,0.4-0.1,0.4-0.5,0.4
		c-0.6,0-1.2,0-1.899,0c-0.2,0-0.301-0.1-0.2-0.3c0.2-0.9,0.399-1.8,0.899-2.6c0.601-1,1.4-1.8,2.5-2.2C59.4,8,60.7,7.9,61.9,8.4
		c0.8,0.3,1.399,0.8,2,1.4c0.199,0.2,0.3,0.4,0.5,0.5c0.1,0.2,0.199,0.1,0.399,0c0.5-0.6,1-1.1,1.601-1.5c1-0.6,2-0.8,3.1-0.7
		c0.7,0.1,1.3,0.2,1.9,0.5c0.899,0.4,1.6,1.1,2.1,2c0.5,0.8,0.7,1.8,0.9,2.7c0,0.2,0,0.3-0.301,0.3C73.7,13.7,73.4,13.7,73,13.7
		L73,13.7z"/>
	<path fill="#FFFE00" d="M22.7,14.5c0.3,0,0.7,0,1,0c0.2,0,0.3,0.1,0.3,0.3c0,0.5,0.1,1.1,0.2,1.6c0.3,1.3,1.7,2.4,3,2.4
		c0.8,0,1.6,0,2.3-0.3c1-0.4,1.7-1.1,2.1-2.1c0.2-0.5,0.2-1,0.2-1.6c0-0.2,0-0.3,0.3-0.3c0.7,0,1.3,0,2,0c0.2,0,0.2,0.1,0.3,0.3
		c0.1,1.5-0.3,2.9-1.1,4.2c-0.7,1.1-1.7,1.8-3,2.1c-1.8,0.5-3.6,0.5-5.4-0.3c-1.1-0.5-1.9-1.3-2.5-2.3c-0.7-1.1-1-2.4-0.9-3.7
		c0-0.2,0.1-0.3,0.3-0.3C22,14.5,22.4,14.4,22.7,14.5C22.7,14.4,22.7,14.4,22.7,14.5z"/>
	<path fill="#FFFE00" d="M33.1,13.7c-0.3,0-0.6,0-0.9,0c-0.2,0-0.4-0.1-0.4-0.3c-0.1-0.7-0.5-1.3-1-1.8c-0.5-0.4-1-0.6-1.6-0.8
		c-1-0.2-2.1-0.2-3.1,0.2s-1.7,1.2-2,2.3c-0.1,0.3-0.2,0.4-0.5,0.4c-0.6,0-1.3,0-1.9,0c-0.2,0-0.3-0.1-0.2-0.3
		c0.2-0.8,0.4-1.7,0.9-2.4c0.6-1,1.4-1.8,2.5-2.2c1.2-0.5,2.5-0.7,3.8-0.6c1.4,0.1,2.7,0.5,3.7,1.5c0.6,0.6,1.2,1.3,1.5,2.1
		c0.2,0.5,0.3,1.1,0.5,1.6c0.1,0.3,0,0.3-0.3,0.3C33.7,13.7,33.4,13.7,33.1,13.7z"/>
	<path fill="#FFFE00" d="M11.2,8.3c0.8,0,1.6,0,2.4,0c1.4,0.1,2.6,0.6,3.6,1.5c1.1,1,1.5,2.2,1.6,3.6c0,0.2-0.1,0.3-0.3,0.3
		c-0.7,0-1.3,0-2,0c-0.2,0-0.3-0.1-0.3-0.3c-0.1-0.8-0.3-1.5-1-2c-0.4-0.3-0.9-0.5-1.4-0.6c-0.9,0-1.8,0-2.7,0
		c-0.2,0-0.3,0.1-0.3,0.3c0,0.7,0,1.5,0,2.2c0,0.4,0,0.4-0.4,0.4c-0.6,0-1.2,0-1.9,0c-0.2,0-0.3-0.1-0.3-0.3c0-1.6,0-3.2,0-4.8
		c0-0.3,0.1-0.4,0.3-0.4C9.5,8.3,10.4,8.3,11.2,8.3L11.2,8.3z"/>
	<path fill="#FFFE00" d="M41.2,21.3c-1.2,0-2.4,0-3.6,0c-0.4,0-0.4,0-0.4-0.399c0-2.101,0-4.101,0-6.2c0-0.2,0.1-0.3,0.3-0.3
		c0.7,0,1.4,0,2,0c0.2,0,0.2,0.1,0.2,0.2c0,1.2,0,2.4,0,3.7c0,0.4,0,0.4,0.4,0.4c1.6,0,3.1,0,4.7,0c0.2,0,0.3,0.1,0.3,0.3
		c0,0.7,0,1.4,0,2c0,0.2-0.1,0.3-0.3,0.3C43.7,21.3,42.4,21.3,41.2,21.3L41.2,21.3z"/>
	<path fill="#FFFE00" d="M87.3,8.2c1.3,0,2.7,0,4,0c0.2,0,0.3,0.1,0.2,0.3c0,0.7,0,1.4,0,2.1c0,0.2-0.1,0.3-0.3,0.3
		c-0.8,0-1.601,0-2.4,0c-0.2,0-0.3,0.1-0.3,0.3c0,0.7,0,1.5,0,2.2c0,0.4,0,0.4-0.4,0.4c-0.6,0-1.199,0-1.899,0
		c-0.2,0-0.3-0.1-0.3-0.3c0-0.8,0-1.6,0-2.4c0-0.2,0-0.3-0.301-0.3c-0.8,0-1.699,0-2.5,0c-0.199,0-0.3-0.1-0.3-0.3
		c0-0.6,0-1.3,0-1.9c0-0.4,0-0.4,0.4-0.4C84.7,8.2,86,8.2,87.3,8.2L87.3,8.2z"/>
	<path fill="#FFFE00" d="M86,17.9c0-1,0-2.1,0-3.1c0-0.3,0.1-0.4,0.3-0.4c0.7,0,1.3,0,2,0c0.2,0,0.3,0.1,0.3,0.3c0,2.1,0,4.2,0,6.3
		c0,0.2-0.1,0.3-0.3,0.3c-0.6,0-1.3,0-1.899,0c-0.2,0-0.301-0.1-0.301-0.3C86,20,86,18.9,86,17.9z"/>
	<path fill="#FFFE00" d="M48.5,17.9c0-1,0-2,0-3.1c0-0.3,0.1-0.4,0.4-0.4c0.6,0,1.3,0,1.9,0c0.2,0,0.3,0.1,0.3,0.3
		c0,2.1,0,4.2,0,6.3c0,0.2-0.1,0.3-0.3,0.3c-0.6,0-1.3,0-1.9,0c-0.3,0-0.3-0.1-0.3-0.3C48.5,19.9,48.5,18.9,48.5,17.9L48.5,17.9z"/>
	<path fill="#FFFE00" d="M54.6,17.9c0-1.1,0-2.1,0-3.2c0-0.2,0.101-0.3,0.301-0.3c0.699,0,1.399,0,2,0c0.199,0,0.199,0.1,0.199,0.2
		c0,0.2,0,0.5,0,0.7c0,1.8,0,3.5,0,5.3c0,0.101,0,0.301,0,0.4c0,0.2-0.1,0.2-0.3,0.2c-0.7,0-1.3,0-2,0c-0.2,0-0.3-0.101-0.3-0.3
		C54.6,20,54.6,18.9,54.6,17.9z"/>
	<path fill="#FFFE00" d="M77.5,17.9c0-1.1,0-2.1,0-3.2c0-0.2,0-0.3,0.3-0.3c0.7,0,1.4,0,2.101,0c0.199,0,0.199,0.1,0.199,0.2
		c0,0.2,0,0.4,0,0.7c0,1.9,0,3.8,0,5.7c0,0.3-0.1,0.3-0.3,0.3c-0.6,0-1.3,0-1.899,0c-0.2,0-0.301-0.1-0.301-0.3
		C77.5,20,77.5,18.9,77.5,17.9z"/>
	<path fill="#FFFE00" d="M63.2,17.9c0-1,0-2.1,0-3.1c0-0.3,0.1-0.3,0.3-0.3c0.7,0,1.3,0,2,0c0.2,0,0.3,0.1,0.3,0.3
		c0,0.4,0,0.7,0,1.1c0,1.7,0,3.4,0,5.1c0,0.3,0,0.4-0.399,0.4c-0.601,0-1.2,0-1.801,0C63.3,21.4,63.2,21.3,63.2,21
		C63.2,19.9,63.2,18.9,63.2,17.9L63.2,17.9z"/>
	<path fill="#FFFE00" d="M74.3,17.8c0,1.101,0,2.101,0,3.2c0,0.3-0.1,0.3-0.3,0.3c-0.6,0-1.3,0-1.9,0c-0.199,0-0.3-0.1-0.3-0.3
		c0-1.9,0-3.8,0-5.7c0-0.2,0-0.4,0-0.6c0-0.2,0.101-0.2,0.2-0.2c0.7,0,1.4,0,2.1,0c0.2,0,0.2,0.1,0.2,0.3
		C74.3,15.7,74.3,16.8,74.3,17.8L74.3,17.8z"/>
	<path fill="#FFFE00" d="M16.2,17.9c0-1,0-2,0-3c0-0.2,0.1-0.3,0.3-0.3c0.6,0,1.3,0,1.9,0c0.2,0,0.3,0.1,0.3,0.3c0,2,0,4,0,6
		c0,0.5,0.1,0.6-0.6,0.6c-0.6,0-1.1,0-1.7,0c-0.2,0-0.3-0.1-0.3-0.3C16.3,20,16.2,18.9,16.2,17.9L16.2,17.9z"/>
	<path fill="#FFFE00" d="M10.9,17.9c0,1,0,2,0,3.1c0,0.3-0.1,0.3-0.3,0.3c-0.6,0-1.3,0-1.9,0c-0.3,0-0.3-0.1-0.3-0.399
		c0-2.101,0-4.101,0-6.2c0-0.2,0.1-0.3,0.3-0.3c0.6,0,1.3,0,1.9,0c0.3,0,0.3,0.1,0.3,0.4C10.9,15.8,10.9,16.8,10.9,17.9L10.9,17.9z"
		/>
	<path fill="#FFFE00" d="M48.5,11c0-0.8,0-1.6,0-2.5c0-0.2,0.1-0.3,0.3-0.3c0.7,0,1.3,0,2,0c0.2,0,0.3,0.1,0.3,0.3c0,1.7,0,3.3,0,5
		c0,0.2-0.1,0.3-0.3,0.3c-0.7,0-1.4,0-2.1,0c-0.2,0-0.2-0.1-0.2-0.3C48.5,12.6,48.5,11.8,48.5,11L48.5,11z"/>
	<path fill="#FFFE00" d="M77.5,10.9c0-0.8,0-1.6,0-2.4c0-0.2,0.1-0.3,0.3-0.3c0.601,0,1.3,0,1.9,0C80,8.2,80.1,8.3,80.1,8.5
		c0,1.4,0,2.8,0,4.2c0,0.2,0,0.5,0,0.7c0,0.2-0.1,0.3-0.3,0.3c-0.7,0-1.3,0-2,0c-0.2,0-0.3-0.1-0.3-0.3
		C77.5,12.6,77.5,11.8,77.5,10.9L77.5,10.9z"/>
	<path fill="#FFFE00" d="M37.2,11c0-0.8,0-1.7,0-2.5c0-0.2,0.1-0.3,0.3-0.3c0.7,0,1.4,0,2,0c0.2,0,0.2,0.1,0.2,0.2c0,1.7,0,3.3,0,5
		c0,0.2-0.1,0.3-0.3,0.3c-0.7,0-1.3,0-2,0c-0.2,0-0.3-0.1-0.3-0.3C37.2,12.6,37.2,11.8,37.2,11L37.2,11z"/>
	<path fill="#FFFFFF" d="M29.4,29.4c0,0.199,0,0.399,0,0.6c0,0.1-0.1,0.1-0.1,0.1C28.5,30.3,27.7,30.4,27,29.9
		c-0.3-0.2-0.5-0.601-0.6-0.9c-0.3-0.9-0.3-1.8,0.3-2.6c0.3-0.5,0.8-0.7,1.4-0.801c0.5-0.1,1,0,1.4,0.2h0.1c0.2,0.3-0.1,0.5-0.1,0.7
		c0,0-0.2,0.1-0.3,0.1c-0.3,0-0.6-0.199-0.8-0.199c-0.5,0-0.9,0.399-1,0.899s-0.1,1,0.1,1.5c0.1,0.3,0.5,0.601,0.8,0.601
		C28.5,29.5,28.9,29.5,29.4,29.4z"/>
	<path fill="#FFFFFF" d="M70.9,27.6C71,27.4,71.1,27.3,71.1,27.2c0.2-0.4,0.4-0.8,0.601-1.2c0.1-0.1,0.2-0.2,0.3-0.2
		c0.2,0,0.4,0,0.6,0c0.2,0,0.2,0.101,0.101,0.2c-0.4,0.7-0.8,1.5-1.2,2.2c-0.1,0.2-0.2,0.399-0.2,0.7c0,0.399,0,0.8,0,1.1
		c0,0.2-0.1,0.3-0.3,0.3c-0.7,0-0.7,0-0.7-0.7c0.101-0.8-0.1-1.399-0.5-2.1c-0.3-0.5-0.6-1-0.8-1.5c-0.1-0.2-0.1-0.3,0.2-0.3h0.1
		c0.601-0.101,0.8,0.2,1,0.7c0.101,0.3,0.3,0.6,0.5,0.899C70.7,27.4,70.8,27.5,70.9,27.6z"/>
	<path fill="#FFFFFF" d="M55.4,28.4c0-0.5,0-1.101,0-1.601c0-0.2-0.101-0.2-0.2-0.2c-0.2,0-0.5,0-0.7,0s-0.3,0-0.3-0.199
		c0-0.601-0.101-0.601,0.6-0.601c0.9,0,1.7,0,2.601,0c0.199,0,0.3,0.101,0.3,0.3c0,0.5,0,0.5-0.5,0.5c-0.7,0-0.7,0-0.7,0.7
		c0,0.9,0,1.9,0,2.8c0,0.2-0.1,0.2-0.2,0.2c-0.1,0-0.1,0-0.2,0c-0.5,0-0.5,0-0.5-0.5C55.4,29.3,55.4,28.9,55.4,28.4z"/>
	<path fill="#FFFFFF" d="M42.4,28c0,0.7,0,1.3,0,2c0,0.2-0.1,0.3-0.3,0.3c-0.8,0-0.7,0.101-0.7-0.7c0-1.199,0-2.399,0-3.6
		c0-0.2,0.1-0.2,0.2-0.2s0.2,0,0.4,0c0.4,0,0.4,0,0.4,0.4C42.4,26.8,42.4,27.4,42.4,28L42.4,28z"/>
</g>
<path fill="none" d="M-142.7-168"/>
</svg>
