<?xml version="1.0" encoding="utf-8"?>
<!-- Generator: Adobe Illustrator 16.0.0, SVG Export Plug-In . SVG Version: 6.00 Build 0)  -->
<!DOCTYPE svg PUBLIC "-//W3C//DTD SVG 1.1//EN" "http://www.w3.org/Graphics/SVG/1.1/DTD/svg11.dtd">
<svg version="1.1" id="Слой_1" xmlns="http://www.w3.org/2000/svg" xmlns:xlink="http://www.w3.org/1999/xlink" x="0px" y="0px"
	 width="100.1px" height="26.3px" viewBox="0 0 100.1 26.3" enable-background="new 0 0 100.1 26.3" xml:space="preserve">
<title>D2911447-9B38-449D-A4F7-03C6B9E07C96</title>
<desc>Created with sketchtool.</desc>
<g id="b4QJxq_1_" enable-background="new    ">
	<g>
		<path fill="#720000" d="M13,13c1,0.6,2,1.201,3,1.8c1,0.699,2.1,1.3,3,2.1c0.8,0.7,1.2,1.801,1.2,2.9c0,2.1-2,3.4-3.9,2.6
			c-0.1-0.1-0.3-0.1-0.4-0.199c-0.399,0.899-0.8,1.699-1.8,2c-1.8,0.6-3.5-0.5-4.1-2.601c-0.4-1.399,0-2.8,0.399-4.101
			C10.7,16.6,10.9,15.701,11.2,14.8c-0.101,0-0.101,0-0.2-0.1C10.7,15.6,10.3,16.5,10,17.4c-0.7,2.1-1.4,4.2-2,6.301
			C7.8,24.3,7.9,25,7.8,25.6c0,0.601-0.3,0.7-0.8,0.7S6.4,26,6.4,25.5c0-2.1,0.7-3.899,1.7-5.699c0.9-1.6,1.8-3.301,2.7-4.9
			c1.1-2.1,0.2-3.7-1.6-4.4c-0.9-0.4-1.9-0.7-2.801-1C5.5,9.2,4.6,8.9,3.5,8.5c1.8-2.6,3.1-5.3,4-8.5C10.1,1.8,12.9,3.2,16,4
			c-1.5,2.2-2.8,4.4-3.3,6.9c0.1-0.1,0.3-0.3,0.399-0.4C14,9,15,7.4,15.9,5.9c0.7-1,1.601-1.7,2.801-2c2.1-0.5,4.199,1,3.6,3.7
			c0.5-0.2,0.5-0.2,1.5-2.5c0.3,0.7,0.6,1.4,0.8,2.1c0.3,0.7,0.5,1.3,0.8,2C24.5,8.9,23.7,8.6,22.8,8.3c0.5,0.8,1,1.4,1.3,2
			c0.4,1.2-0.2,2.6-1.2,3.2c-1.6,1-3.3,0.9-5,0.4C16.4,13.5,15,13.1,13.5,12.6C13,12.9,13,13,13,13z"/>
		<path fill="#720000" d="M57.7,5.7c0,2,0,4,0,6C57.2,10.4,57,8.9,55,9.1c0,1.5,0,2.9,0,4.4c0,0.201,0.5,0.6,0.8,0.6
			c2.4,0.2,4.2-0.2,5-2.8c0-0.1,0.1-0.1,0.3-0.2c-0.2,1.2-0.3,2.3-0.5,3.5c-3.3,0-6.7,0-10.2,0c0.5-0.101,0.801-0.101,1-0.2
			c0.301-0.3,0.7-0.6,0.7-1c0.101-3.1,0-6.1,0-9.2c0-0.7-0.399-0.9-1-1c-0.2,0-0.399,0-0.6-0.2c3.2,0,6.399,0,9.7,0
			c0,1.1,0,2.2,0,3.3c-0.4-1-0.7-2.1-1.9-2.4c-1-0.3-2.2-0.3-3.3-0.5c0,1.8,0,3.4,0,5.1c0.8,0.1,1.5-0.1,1.899-0.8
			C57.2,7.1,57.4,6.3,57.7,5.7L57.7,5.7z"/>
		<path fill="#720000" d="M95,7.8c1.2,1.8,2.3,3.4,3.5,5.1c0.5,0.6,1.1,1.2,1.5,1.7c-1.7,0-3.5,0-5.3,0c0-0.101,0-0.101,0.1-0.101
			c1.1-0.399,1.1-0.5,0.5-1.5c-0.6-1-1.3-1.9-2.1-3.1c-0.9,1.2-1.7,2.3-2.5,3.4c-0.301,0.5,0.1,0.8,0.399,0.901
			C91.4,14.4,91.7,14.4,92.3,14.6c-1.6,0-3,0-4.5,0c0.5-0.3,1.2-0.5,1.5-1c1.2-1.3,2.3-2.6,3.4-3.9c0.1-0.1,0.1-0.4,0-0.6
			c-1.2-1.8-2.4-3.6-3.601-5.3C88.9,3.5,88.5,3.3,88,3c2,0,3.8,0,5.7,0v0.1C92.3,3.3,92.4,3.8,93,4.7c0.6,0.8,1.1,1.7,1.7,2.6
			C95.3,6.5,96,5.7,96.6,4.9C97.3,4,97,3.4,95.9,3.2c-0.1,0-0.1-0.1-0.3-0.2c1.5,0,2.9,0,4.3,0c-1.199,0.3-1.8,1.2-2.5,2
			C96.6,5.9,95.8,6.8,95,7.8z"/>
		<path fill="#720000" d="M5.5,12.2C6.4,11.5,7.4,11.3,8.3,12c0.8,0.6,1,1.3,0.9,2.201C9,15.5,8,15.9,6.8,16
			c0.3,1.5-0.1,2.4-1.1,2.9C4.9,19.3,3.8,19.201,3.1,18.5c-0.7-0.699-0.8-1.799-0.2-3C2.3,15.8,2.3,15.8,1.3,17.8
			c-0.4-1.2-0.8-2.301-1.3-3.6C0.9,14.701,1.6,15.3,2.8,15c-1.3-0.6-1.9-1.399-1.6-2.7c0.199-0.9,1-1.6,1.8-1.7
			C4.2,10.4,4.8,10.9,5.5,12.2z"/>
		<path fill="#720000" d="M41.9,8.4c1.7,0.2,2.2-0.1,3-2.6c0,2.1,0,4,0,5.9c-0.3-0.6-0.5-1.4-1-1.9c-0.5-0.6-1.3-0.8-2.1-0.6
			c0,1.5,0,3,0,4.5c0,0.5,0.5,0.799,1.5,1c-2,0-3.9,0-5.9,0c0,0,0,0,0-0.101c0.2,0,0.4-0.101,0.601-0.101c0.6-0.1,1-0.5,1-1.2
			c0-2.9,0-5.8,0-8.7c0-1.1-0.3-1.3-1.4-1.4c-0.1,0-0.2,0-0.3-0.2c3.3,0,6.5,0,9.8,0c0,1.1,0,2.1,0,3.2c-0.8-2.9-2.899-2.7-5.3-2.6
			C41.9,5.2,41.9,6.8,41.9,8.4z"/>
		<path fill="#720000" d="M64.6,3c2,0,4.101,0,6.101,0v0.1c-0.101,0-0.301,0.1-0.4,0.1c-1,0.1-1.3,0.4-1.4,1.4c0,2.8,0,5.6,0,8.3
			c0,0.7,0.301,1.2,1.101,1.1c0.8,0,1.6,0,2.399-0.1c1.2-0.199,1.801-1.1,2.301-2.1c0.199-0.4,0.3-0.9,0.5-1.3
			c0.1,0,0.1,0,0.199,0.1c-0.1,1.3-0.3,2.6-0.399,4c-3.5,0-6.9,0-10.3,0V14.5c1.399-0.299,1.5-0.399,1.5-1.799c0-2.4,0-4.8,0-7.2
			C66.3,3.6,66.3,3.6,64.6,3z"/>
		<path fill="#720000" d="M84.9,3c-1.8,0.6-1.8,0.6-1.8,2.6c0,2.4,0,4.8,0,7.2c0,1.3,0.2,1.5,1.5,1.901c-0.899,0-1.899,0-2.8,0
			c-1,0-1.9,0-2.9,0c0.4-0.201,1-0.4,1.2-0.701c0.3-0.399,0.2-1,0.2-1.5c0-2.4,0-4.9,0-7.3c0-1.6-0.1-1.7-1.6-2.1
			C80.8,3,82.8,3,84.9,3z"/>
		<path fill="#720000" d="M65.1,23.1c0.7-1.601,1.3-3.101,1.8-4.5c0.2-0.399,0.4-0.601,0.801-0.5c0.699,0,1.5,0,2.3,0.101
			c-1,0-0.9,0.6-0.9,1.199c0,1.7,0,3.4,0,5c0,0.5,0.101,0.9,0.7,1.1c-1,0-2,0-2.9,0c0.101-0.299,0.4-0.699,0.4-1.1
			c0-1.8,0-3.6-0.1-5.5c-0.9,2.2-1.801,4.301-2.801,6.7c-1-2.3-1.899-4.5-3-6.8c-0.1,0.4-0.1,0.6-0.1,0.699c0,1.601,0,3.101,0,4.701
			c0,0.6,0.1,1.1,0.8,1.299c-0.6,0-1.2,0-2,0c0.7-0.299,0.9-0.699,0.9-1.299C61,22.6,61,21,61,19.5c0-1-0.101-1-1-1.299
			c0.899,0,1.8,0,2.8,0c0.2,0,0.3,0.399,0.4,0.6C63.8,20.1,64.4,21.5,65.1,23.1z"/>
		<path fill="#720000" d="M44.7,18c0,0.801,0,1.601,0,2.5c-0.4-0.5-0.601-1-1-1.399c-0.7-0.8-1.601-1-2.601-0.8
			c-1,0.3-1.399,1.1-1.6,2c-0.2,1.1-0.2,2.3,0.1,3.4c0.5,1.5,1.7,1.699,2.9,1.5c0.2,0,0.399-0.301,0.399-0.5
			c0.101-0.4,0-0.801,0-1.201c0-0.6-0.199-0.899-0.699-1c1.1,0,2.1,0,3.199,0C44.8,22.701,44.7,23.1,44.7,23.6
			c0,1.601,0,1.7-1.601,2c-1.3,0.2-2.6,0.3-3.899-0.399C37.8,24.4,37,22.8,37.4,21.3c0.4-1.801,1.801-3.2,3.4-3.2
			c0.9,0,1.7,0.101,2.6,0.3C43.9,18.4,44.3,18.6,44.7,18z"/>
		<path fill="#720000" d="M99.4,18.201c0,0.6,0,1.399,0,2.299C99.2,20.1,99.1,19.9,98.9,19.6c-0.6-1-1.5-1.5-2.699-1.399
			c-0.9,0.1-1.601,0.699-1.801,1.5c-0.3,1.1-0.3,2.199-0.3,3.199c0,0.5,0.2,1,0.4,1.4c0.5,1,1.8,1.4,2.8,0.9
			c0.1,0,0.2-0.101,0.3-0.101c0.5-0.5,0-2.3-0.899-2.601c1.199,0,2.3,0,3.399,0C99.5,22.6,99.4,23.1,99.4,23.6
			c0,1.5,0,1.601-1.5,1.899C96.5,25.8,95,25.8,93.7,24.9c-1.301-0.9-1.9-2.5-1.5-4.199C92.5,19.3,94,18,95.4,17.9
			c0.9,0,1.9,0.2,2.801,0.301C98.5,18.3,98.9,18.201,99.4,18.201z"/>
		<path fill="#720000" d="M81,25.5c0.6-0.199,0.8-0.5,0.8-1.1c0-1.699,0-3.4,0-5c0-0.699-0.4-1-0.9-1.199c0.7,0,1.5,0,2.2,0
			c0.2,0,0.5,0.299,0.7,0.5C84.9,20,85.9,21.4,87.1,22.9c0-1.4,0-2.6,0-3.9c0-0.299-0.5-0.6-0.7-0.799c0.601,0,1.301,0,2,0
			C87.6,18.3,87.5,18.9,87.5,19.6c0,2,0,4.101-0.2,6.2c-1.7-2.1-3.3-4.1-5-6.2c-0.1,0-0.1,0-0.2,0c0,0.601,0,1.2,0,1.8
			c0,0.9,0,1.801,0,2.6c0,0.601,0,1.301,0.9,1.4C82.3,25.5,81.6,25.5,81,25.5z"/>
		<path fill="#720000" d="M53.4,25.5C54,25.3,54,25,53.8,24.5c-0.3-0.899-0.7-1.199-1.6-1.1c-0.2,0-0.5,0-0.801,0
			c-0.699-0.1-1,0.2-1.199,0.801C50,25,50,25.201,50.9,25.5c-0.699,0-1.399,0-1.899,0c0.3-0.5,0.7-1,1-1.6c0.899-2,1.8-3.9,2.7-6
			c1.3,2.6,2.1,5.301,3.5,7.6C55.4,25.5,54.4,25.5,53.4,25.5z M50.8,23c0.9,0,1.6,0,2.4,0C52.8,22.1,52.4,21.3,52,20.3
			C51.5,21.3,51.2,22.1,50.8,23z"/>
		<path fill="#720000" d="M30.8,2.1c0.1,0.1,0.3,0.3,0.4,0.4c0.1,0.1,0,0.2,0,0.4c0,7.6,0,15.2,0,22.801c0,0.199,0,0.299,0,0.5
			C30.5,26.5,30.6,26,30.6,25.701c0-2.601,0-5.101,0-7.701c0-5,0-10.1,0-15.1c0-0.2,0-0.5,0-0.7C30.7,2.2,30.7,2.2,30.8,2.1z"/>
		<path fill="#720000" d="M73.8,25.5c0.6-0.1,0.8-0.6,0.7-1.1c0-1.699,0-3.4,0-5.1c0-0.6-0.101-1.1-0.9-1.1c1.101,0,2.2,0,3.3,0
			C76.1,18.3,76.2,18.9,76.2,19.4c0,1.7,0,3.4,0,5.1c0,0.4,0.3,0.701,0.399,1C75.9,25.5,74.9,25.5,73.8,25.5z"/>
	</g>
</g>
<path fill="none" d="M-23.4-91.2"/>
</svg>
