<?xml version="1.0" encoding="utf-8"?>
<!-- Generator: Adobe Illustrator 23.1.0, SVG Export Plug-In . SVG Version: 6.00 Build 0)  -->
<svg version="1.1" id="Слой_1" xmlns="http://www.w3.org/2000/svg" xmlns:xlink="http://www.w3.org/1999/xlink" x="0px" y="0px"
	 viewBox="0 0 60.5 32.4" style="enable-background:new 0 0 60.5 32.4;" xml:space="preserve">
<style type="text/css">
	.st0{fill:#FFFFFF;}
	.st1{fill:#EF7D0F;}
</style>
<desc>Created with sketchtool.</desc>
<g>
	<g>
		<path class="st0" d="M2.5,27.7c0.1,0,0.2-0.1,0.1-0.2c0-0.1,0-0.2,0-0.2c0-0.1,0-0.2,0-0.3s0-0.2-0.1-0.2c-1-0.5-1.6-1.4-1.6-2.4
			c0-0.7,0.3-1.4,0.9-2c0.6-0.6,1.4-0.8,2.3-0.8c0.7,0,1.3,0.2,1.8,0.4H6l2-0.4c0.1,0,0.2,0.1,0.2,0.2l0.1,1.6
			c0,0.1-0.1,0.2-0.2,0.2l-0.7,0.2c-0.1,0-0.2,0.1-0.2,0.2c0,0.2,0,0.3,0,0.4c0,0.7-0.3,1.3-0.8,1.9c-0.5,0.5-1.1,0.8-2,0.8
			c-0.1,0-0.2,0.1-0.2,0.2l0,0v0.1c0,0.1,0.1,0.2,0.2,0.2c1,0.1,1.8,0.3,2.4,0.7c0.7,0.4,1,1,1,1.7c0,0.8-0.3,1.4-1.1,1.8
			c-0.7,0.4-1.6,0.6-2.8,0.6c-1.1,0-2-0.2-2.8-0.6C0.4,31.4,0,30.8,0,30C0.3,28.8,1.1,28.1,2.5,27.7z M4.1,30.4
			c1.1,0,1.6-0.2,1.6-0.5s-0.5-0.5-1.6-0.5s-1.6,0.2-1.6,0.5C2.5,30.3,3.1,30.4,4.1,30.4z M5.1,24.4c0-0.5-0.3-0.8-1-0.8
			c-1.2-0.1-1.3,1.7,0,1.6C4.7,25.2,5.1,24.9,5.1,24.4z"/>
		<path class="st0" d="M9.5,22.5c0-0.1,0-0.2,0.1-0.2c0.7-0.3,1.6-0.6,2.5-0.6c2.1,0,3,1,3,3.1v4.1c0,0.1-0.1,0.2-0.2,0.2h-1.7
			c-0.1,0-0.2-0.1-0.2-0.2l0,0c0-0.2-0.2-0.2-0.3-0.2c-0.4,0.3-0.9,0.4-1.6,0.4c-1.3,0-2.3-0.8-2.3-2.3c0-1.6,1.1-2.4,2.6-2.4
			c0.4,0,0.8,0.1,1.1,0.2c0.1,0.1,0.3,0,0.3-0.2c-0.1-0.6-0.4-0.9-1-0.9c-0.4,0-1,0.1-1.7,0.4c-0.1,0-0.2,0-0.2-0.1L9.5,22.5z
			 M12.9,26.7v-0.3c0-0.1,0-0.1-0.1-0.2C12.6,26.1,12.3,26,12,26c-0.4,0-0.7,0.2-0.7,0.6c0,0.3,0.3,0.5,0.7,0.5S12.7,27,12.9,26.7
			C12.9,26.8,12.9,26.7,12.9,26.7z"/>
		<path class="st0" d="M27.7,29h-2c-0.1,0-0.2-0.1-0.2-0.2v-3.9c0-0.7-0.3-1-0.9-1c-0.5,0-0.9,0.2-1.1,0.6v0.1v4.2
			c0,0.1-0.1,0.2-0.2,0.2h-2c-0.1,0-0.2-0.1-0.2-0.2v-3.9c0-0.7-0.3-1-0.8-1s-0.8,0.2-1.1,0.5v0.1v4.3c0,0.1-0.1,0.2-0.2,0.2h-2
			c-0.1,0-0.2-0.1-0.2-0.2v-6.9c0-0.1,0.1-0.2,0.2-0.2h2c0.1,0,0.2,0.1,0.2,0.2V22c0,0.2,0.2,0.2,0.3,0.2c0.5-0.4,1.1-0.6,1.8-0.6
			c0.9,0,1.6,0.3,1.9,0.8c0.1,0.1,0.2,0.1,0.3,0c0.6-0.6,1.3-0.9,2.1-0.9c1.5,0,2.3,0.9,2.3,2.6v4.5C27.9,28.9,27.8,29,27.7,29z"/>
		<path class="st0" d="M35.8,28.3c0,0.1,0,0.2-0.1,0.2C35,29,34.1,29.2,33,29.2c-1.2,0-2.1-0.3-2.9-1.1c-0.7-0.7-1.1-1.6-1.1-2.8
			c0-1.1,0.3-2,1.1-2.7c0.7-0.7,1.7-1.1,2.9-1.1c1,0,1.8,0.3,2.5,1c0.7,0.6,1,1.5,1,2.4c0,0.4,0,0.8-0.1,1.1c0,0.1-0.1,0.2-0.2,0.2
			h-4.3c-0.2,0-0.2,0.2-0.2,0.3c0.3,0.5,0.8,0.7,1.6,0.7c0.7,0,1.2-0.2,1.7-0.4c0.1-0.1,0.2,0,0.2,0.1L35.8,28.3z M31.8,24.6h2.1
			c0.1,0,0.2-0.1,0.2-0.2C34,24,33.6,23.6,33,23.6s-1.1,0.2-1.3,0.7C31.6,24.5,31.7,24.6,31.8,24.6z"/>
		<path class="st0" d="M40,26.3c-1.1-0.2-2.5-0.7-2.5-2.3c0-1.5,1.2-2.4,2.8-2.4c1.2,0,2.2,0.3,2.9,0.9c0.1,0.1,0.1,0.2,0.1,0.2
			l-0.7,1.4c-0.1,0.1-0.2,0.1-0.2,0.1c-0.6-0.4-1.2-0.6-1.8-0.6c-0.3,0-0.6,0.2-0.6,0.3c0,0.7,3.8,0.3,3.8,2.9
			c0,1.5-1.2,2.4-3.1,2.4c-0.7,0-1.4-0.2-2-0.4c-0.6-0.3-0.9-0.5-1.1-0.8c-0.1-0.1-0.1-0.2,0-0.2l0.9-1.3c0.1-0.1,0.2-0.1,0.3,0
			c0.2,0.2,0.5,0.3,0.9,0.5c0.5,0.2,0.9,0.3,1.2,0.3c0.4,0,0.6-0.1,0.6-0.3C41.3,26.6,40.7,26.4,40,26.3z"/>
	</g>
	<path class="st1" d="M2,6.4L1.9,7C1.8,7.8,2.4,8.5,3.2,8.5h7.9l-9.1,3c-0.5,0.2-0.8,0.6-0.9,1.1L0.7,15l-0.1,0.9
		c-0.2,0.8,0.4,1.5,1.2,1.5h8.7c0.7,0,1.2-0.5,1.3-1.1l0.1-0.6c0.1-0.8-0.5-1.5-1.3-1.5H3.3l8.6-2.8c0.5-0.2,0.8-0.6,0.9-1.1
		l0.4-2.4l0.2-1.1c0.1-0.8-0.5-1.5-1.3-1.5H3.4C2.6,5.2,2,5.7,2,6.4z M14.8,6.4l-1.4,9.5c-0.1,0.8,0.5,1.5,1.3,1.5h0.6
		c0.7,0,1.2-0.5,1.3-1.1L18,6.8c0.1-0.8-0.5-1.5-1.3-1.5h-0.6C15.4,5.2,14.9,5.7,14.8,6.4z M17.2,1.4h-0.6c-0.6,0-1.2,0.4-1.2,1.1
		l0,0C15.3,3.3,15.9,4,16.7,4h0.6c0.7,0,1.2-0.5,1.3-1.1l0,0C18.6,2.1,18,1.4,17.2,1.4z M31.1,1.4h-0.6c-0.7,0-1.2,0.5-1.3,1.1l0,0
		C29.1,3.3,29.7,4,30.5,4h0.6c0.7,0,1.2-0.5,1.3-1.1l0,0C32.6,2.1,31.9,1.4,31.1,1.4z M28.5,17.4h0.6c0.7,0,1.2-0.5,1.3-1.1l1.4-9.5
		c0.1-0.8-0.5-1.5-1.3-1.5h-0.6c-0.7,0-1.2,0.5-1.3,1.1l-1.4,9.5C27.1,16.6,27.8,17.4,28.5,17.4z M33.8,6.4l-1.4,9.4
		c-0.1,0.8,0.5,1.5,1.3,1.5h9.5c0.7,0,1.2-0.5,1.3-1.1l1.4-9.5c0.1-0.8-0.5-1.5-1.3-1.5h-9.5C34.5,5.2,33.9,5.7,33.8,6.4z
		 M41.4,14.1H36c-0.1,0-0.2-0.1-0.2-0.2l0.8-5.4c0-0.1,0.1-0.1,0.2-0.1h5.4c0.1,0,0.2,0.1,0.2,0.2L41.6,14
		C41.6,14.1,41.5,14.1,41.4,14.1z M20.2,1.1L18,15.8c-0.1,0.8,0.5,1.5,1.3,1.5h0.6c0.7,0,1.2-0.5,1.3-1.1l2.2-14.7
		C23.5,0.7,22.9,0,22.1,0h-0.6C20.9,0,20.3,0.5,20.2,1.1z M24.8,1.1l-2.2,14.7c-0.1,0.8,0.5,1.5,1.3,1.5h0.6c0.7,0,1.2-0.5,1.3-1.1
		L28,1.5C28.1,0.7,27.5,0,26.7,0h-0.6C25.4,0,24.9,0.5,24.8,1.1z M57.1,6.3l-1.4,9l-1.8-9.1c-0.1-0.6-0.7-1.1-1.3-1.1h-3.8
		c-0.7,0-1.2,0.5-1.3,1.1l-1.4,9.6c-0.1,0.8,0.5,1.6,1.3,1.6h0.8c0.7,0,1.2-0.5,1.3-1.1l1.3-8.4l1.7,8.5c0.1,0.6,0.7,1.1,1.3,1.1h4
		c0.7,0,1.2-0.5,1.3-1.1l1.4-9.6C60.6,6,60,5.3,59.2,5.3h-0.8C57.8,5.2,57.2,5.7,57.1,6.3z"/>
</g>
</svg>
