<svg width="1021" height="158" viewBox="0 0 1021 158" fill="none" xmlns="http://www.w3.org/2000/svg">
<path d="M254.112 65.6079H277.551V105.216H292.488V65.6079H315.661V52.4162H254.112V65.6079Z" fill="#27BDBE"/>
<path d="M445.126 65.6079H468.565V105.216H483.468V65.6079H506.674V52.4162H445.126V65.6079Z" fill="#27BDBE"/>
<path d="M791.577 65.6079H815.016V105.216H829.92V65.6079H853.126V52.4162H791.577V65.6079Z" fill="#27BDBE"/>
<path d="M205.7 52.4162C201.799 52.4162 198.465 52.9171 195.698 53.919C192.964 54.9209 190.73 56.3236 189.03 58.127C187.329 59.9305 186.096 62.1347 185.329 64.7396C184.562 67.3111 184.162 70.2167 184.162 73.4228V84.3101C184.162 87.5162 184.528 90.3883 185.329 92.9932C186.096 95.5982 187.329 97.769 189.03 99.6058C190.73 101.409 192.931 102.845 195.698 103.814C198.465 104.816 201.799 105.317 205.7 105.317H247.044V91.5906H207.034C204.1 91.5906 202.033 90.956 200.866 89.6536C199.699 88.3845 199.132 86.1469 199.132 83.0076V74.1575C199.132 70.918 199.732 68.6804 200.899 67.4781C202.066 66.2758 204.133 65.6413 207.034 65.6413H247.044V52.4496H205.7V52.4162Z" fill="#27BDBE"/>
<path d="M744.632 52.4162C740.731 52.4162 737.397 52.9171 734.63 53.919C731.896 54.9209 729.662 56.3236 727.962 58.127C726.261 59.9305 725.028 62.1347 724.261 64.7396C723.494 67.3111 723.094 70.2167 723.094 73.4228V84.3101C723.094 87.5162 723.461 90.3883 724.261 92.9932C725.028 95.5982 726.261 97.769 727.962 99.6058C729.662 101.409 731.863 102.845 734.63 103.814C737.397 104.816 740.731 105.317 744.632 105.317H785.976V91.5906H745.966C743.032 91.5906 740.965 90.956 739.798 89.6536C738.631 88.3845 738.064 86.1469 738.064 83.0076V74.1575C738.064 70.918 738.664 68.6804 739.831 67.4781C740.998 66.2758 743.065 65.6413 745.966 65.6413H785.976V52.4496H744.632V52.4162Z" fill="#27BDBE"/>
<path d="M119.513 121.481L86.0044 155.044C82.0701 158.985 75.6352 158.985 71.7009 155.044L2.95072 86.1469C-0.983574 82.2061 -0.983574 75.7605 2.95072 71.8197L21.922 52.8504H38.8929C58.0309 52.8504 66.7997 48.275 69.8671 36.5193H41.4268H38.1593L71.7009 2.95561C75.6352 -0.985204 82.0701 -0.985204 86.0044 2.95561L119.513 36.5193H102.008C77.0022 36.5193 69.7004 44.234 69.7004 65.6413V92.2919C69.7004 113.699 77.0355 121.447 102.008 121.447H119.513V121.481Z" fill="#27BDBE"/>
<path d="M154.755 71.8531L135.783 52.8838H102.875C91.3057 52.8838 88.4384 56.2568 88.4384 66.71V91.624C88.4384 102.211 91.3057 105.317 102.975 105.317H135.65L154.721 86.2137C158.689 82.2061 158.689 75.7939 154.755 71.8531ZM120.146 89.353H115.778V75.0926H120.146V89.353ZM120.146 71.2854H115.778V67.0106H120.146V71.2854Z" fill="#27BDBE"/>
<path d="M343.768 105.216V52.5832H358.638V105.25H343.768V105.216Z" fill="#27BDBE"/>
<path d="M529.28 91.4236H574.557V105.083H514.276L514.409 52.4496L574.324 52.4162L574.391 65.3741L529.313 65.6079V73.189H553.786V83.9093L529.28 83.8759V91.4236Z" fill="#27BDBE"/>
<path d="M975.756 91.4236H1021V105.083H960.719L960.852 52.4496L1020.77 52.4162L1020.83 65.3741L975.756 65.6079V73.189H1000.23V83.9093L975.722 83.8759L975.756 91.4236Z" fill="#27BDBE"/>
<path d="M598.03 86.1803V105.25H583.159L583.259 52.5832H626.27C629.537 52.5832 632.305 52.9839 634.572 53.7521C636.839 54.5202 638.673 55.6557 640.073 57.1251C641.474 58.5946 642.474 60.3646 643.107 62.4352C643.741 64.5058 644.041 66.8436 644.041 69.4485V73.189C644.041 75.7605 643.741 78.0315 643.107 80.0687C642.474 82.1059 641.474 83.8091 640.107 85.2452C638.74 86.6813 636.973 87.75 634.805 88.5515C632.638 89.3196 630.004 89.7204 626.87 89.7204H625.37C624.636 89.7204 623.469 89.7204 623.469 89.7204V90.1545C624.103 90.7223 645.041 104.682 645.041 104.682V105.25H625.67L598.03 86.1803ZM597.996 65.7415L598.03 78.4657H623.603C625.57 78.4657 626.97 78.0649 627.837 77.2968C628.671 76.5286 629.104 75.0592 629.104 72.8884V71.085C629.104 69.0478 628.671 67.6785 627.837 66.877C627.003 66.1089 625.57 65.7081 623.603 65.7081H597.996V65.7415Z" fill="#27BDBE"/>
<path d="M858.727 105.216V52.5832H873.597V105.25H858.727V105.216Z" fill="#27BDBE"/>
<path d="M938.413 52.5832H955.684V53.1509L928.477 104.949L906.205 105.016L879.199 53.1843V52.6166H896.736L916.074 92.1917H918.875L938.413 52.5832Z" fill="#27BDBE"/>
<path d="M721.96 105.016H671.848L679.75 91.4236H699.255L686.251 69.1146H684.351L663.446 105.016H648.642L679.05 52.2826H691.519L721.96 105.016Z" fill="#27BDBE"/>
<path d="M422.92 91.5238H421.253L393.046 52.316H371.641V104.983H386.345V66.0087H387.945L415.718 104.983H437.657V52.316H422.92V91.5238Z" fill="#27BDBE"/>
</svg>
