<?xml version="1.0" encoding="utf-8"?>
<!-- Generator: Adobe Illustrator 24.1.3, SVG Export Plug-In . SVG Version: 6.00 Build 0)  -->
<svg version="1.1" id="Слой_1" xmlns="http://www.w3.org/2000/svg" xmlns:xlink="http://www.w3.org/1999/xlink" x="0px" y="0px"
	 viewBox="0 0 100 35.6" style="enable-background:new 0 0 100 35.6;" xml:space="preserve">
<style type="text/css">
	.st0{fill:#FFFFFF;}
	.st1{fill:#FFBD19;}
</style>
<desc>Created with sketchtool.</desc>
<path class="st0" d="M9.4,34.4c0-5.2,0-10.3,0-15.5c0.2,0,0.3,0,0.5,0c2.9,0,5.8,0,8.7,0c0.4,0,0.6,0.1,0.7,0.4
	c0.2,0.7,0.5,1.5,0.5,2.2c0.1,2.6,0,5.1,0,7.7c0,2.9-2.5,5.3-5.2,5.2C12.9,34.4,11.2,34.4,9.4,34.4z M12.9,20c0,3.7,0,7.3,0,10.9
	c0.6,0,1.1,0,1.6,0c1.1,0,1.8-0.7,1.8-1.8c0-1.3,0-2.6,0-3.9c0-1.2,0-2.3,0-3.5c0-1-0.6-1.7-1.4-1.8C14.3,20,13.6,20,12.9,20z"/>
<path class="st0" d="M9.4,2c0.2,0,0.3,0,0.5,0c1.4,0,2.9,0,4.3,0c2.7,0,4.8,1.8,5.3,4.5c0,0.2,0,0.4,0,0.6c0,2.6,0,5.2,0,7.8
	c0,0.9-0.3,1.7-0.7,2.5c-0.1,0.1-0.3,0.3-0.4,0.3c-3,0-5.9,0-8.9,0c0,0-0.1,0-0.2-0.1C9.4,12.4,9.4,7.2,9.4,2z M12.9,16.5
	c0.6,0,1.2,0,1.8-0.1c0.7-0.1,1.3-0.8,1.3-1.6c0-2.5,0-5,0-7.6c0-0.8-0.5-1.5-1.3-1.7c-0.4-0.1-0.8,0-1.2-0.1S12.9,5.5,12.9,6
	c0,3.3,0,6.6,0,9.8C12.9,16.1,12.9,16.2,12.9,16.5z"/>
<path class="st1" d="M69.4,17.5c-1.2,0-2.2,0-3.4,0c0-0.2,0-0.4,0-0.6c0-3.1,0-6.2,0-9.3c0-1.3-0.7-2.1-1.8-2.1
	c-0.9,0-1.7,0.7-1.7,1.6s0,1.8,0,2.6c0,2.4,0,4.7,0,7.1c0,0.2,0,0.4,0,0.6c-1.2,0-2.3,0-3.5,0c0-0.2,0-0.4,0-0.6
	c0-3.2-0.1-6.3,0-9.5c0.1-2.3,1.4-4.3,3.7-5c2.6-0.8,5.3,0.5,6.3,3c0.3,0.6,0.4,1.3,0.4,2c0,3.2,0,6.5,0,9.7
	C69.5,17.1,69.4,17.3,69.4,17.5z"/>
<path class="st1" d="M69.5,18.9c0,2.1,0,4,0,5.9c0,1.8,0.1,3.6-0.1,5.3C69.2,32,68,33.4,66.3,34c-2.3,0.9-4.7,0.4-6.3-1.9
	c-0.7-0.9-1-2-1-3.1c0-3.1,0-6.3,0-9.4c0-0.8,0-0.8,0.8-0.8c0.6,0,1.3,0,1.9,0c0.7,0,0.7,0,0.7,0.7c0,3.1,0,6.3,0,9.4
	c0,0.5,0.1,1,0.5,1.5c0.6,0.6,1.4,0.6,2,0.3c0.6-0.2,1-0.8,1-1.5c0-0.8,0-1.5,0-2.3c0-2.5,0-5,0-7.5c0-0.5,0.1-0.6,0.6-0.6
	C67.5,18.9,68.5,18.9,69.5,18.9z"/>
<path class="st1" d="M49.7,19c0.5,0,0.8-0.1,1.2-0.1c1.3,0,2.7,0,4,0c0.4,0,0.6,0.1,0.8,0.4c0.8,1.2,1.2,2.5,1.3,3.9c0,2,0,4,0,6.1
	c0.1,2.1-1.8,4.4-3.7,4.9c-1.2,0.3-2.4,0.3-3.5-0.1c-1.1-0.4-1.9-1.2-2.6-2.3c-0.5-0.9-0.7-1.8-0.7-2.8c0-0.6,0-1.2,0-1.8
	c0-0.3,0.1-0.5,0.4-0.5c0.9,0,1.7,0,2.6,0c0.4,0,0.5,0.2,0.5,0.5c0,0.7-0.1,1.4,0,2.1c0.1,1.1,0.9,1.6,1.7,1.6
	c1.2,0,1.8-0.7,1.8-1.7c0.1-1.7,0-3.3-0.1-5s-1-3.1-2.3-4.1C50.7,19.7,50.2,19.4,49.7,19z"/>
<path class="st1" d="M53.6,17.5c-0.5,0-1,0-1.5,0c-1.2,0-2.5,0-3.7,0c-0.2,0-0.4-0.1-0.5-0.3c-0.9-1.3-1.4-2.8-1.4-4.5c0-2,0-4,0-6
	c0-1.6,1.4-3.6,2.9-4.2C50.5,2,51.6,1.8,52.8,2C55.1,2.6,57,4.6,57,6.9c0,0.8,0,1.6,0,2.4c0,0.1-0.2,0.4-0.4,0.4c-0.9,0-1.9,0-2.8,0
	c-0.1,0-0.2,0-0.3-0.1c0-0.8,0-1.6,0-2.5c-0.1-1-0.7-1.6-1.8-1.6C50.9,5.5,50,6.2,50,7c0,1.3,0,2.6,0,3.9c0,0.9,0.1,1.9,0.4,2.7
	c0.3,1.2,1.2,2,2.1,2.8c0.4,0.3,0.8,0.6,1.1,0.9C53.7,17.5,53.6,17.5,53.6,17.5z"/>
<path class="st0" d="M22.5,18.9c3,0,6,0,9.1,0c0,0.4,0,0.7,0,1.1c-1.8,0-3.7,0-5.5,0c0,3.7,0,7.3,0,10.9c1.8,0,3.7,0,5.5,0
	c0,1.2,0,2.3,0,3.5c-3,0-6,0-9.1,0C22.5,29.3,22.5,24.1,22.5,18.9z"/>
<path class="st1" d="M81.1,5.5c-1.8,0-3.4,0-5.1,0c-0.5,0-0.6,0.1-0.6,0.6c0,3.3,0,6.6,0,9.9c0,0.4,0.1,0.5,0.5,0.5
	c1.7,0,3.4,0,5.1,0c0,0.1,0.1,0.1,0.1,0.1c0.1,0.9,0.1,0.9-0.8,0.9c-2.8,0-5.5,0-8.3,0c0-0.2,0-0.4,0-0.6c0-4.8,0-9.6,0-14.4
	C72,2.1,72.1,2,72.5,2c2.7,0,5.4,0,8.1,0c0.6,0,0.6,0,0.6,0.6C81,3.6,81.1,4.5,81.1,5.5z"/>
<path class="st0" d="M22.5,2c3,0,6,0,9,0c0,1.2,0,2.3,0,3.5c-1.8,0-3.7,0-5.5,0c0,3.6,0,7.2,0,10.9c1.8,0,3.7,0,5.5,0
	c0,0.4,0,0.7,0,1.1c-3,0-6,0-9.1,0C22.5,12.4,22.5,7.2,22.5,2z"/>
<path class="st1" d="M92.5,2c0,1.1,0,2.3,0,3.5c-0.8,0-1.6,0-2.4,0s-0.8,0-0.8,0.8c0,3.2,0,6.4,0,9.6c0,0.5,0,1.1,0,1.6
	c-1.2,0-2.3,0-3.5,0c0-4,0-7.9,0-12c-1.2,0-2.3,0-3.5,0c0-0.4,0-0.8,0-1.2c0-0.6,0-1.2,0-1.8c0-0.4,0.1-0.6,0.5-0.6
	c1.4,0,2.8,0,4.1,0c1.7,0,3.5,0,5.2,0C92.3,2,92.4,2,92.5,2z"/>
<path class="st0" d="M37.5,17.5c0-0.2,0-0.4,0-0.7c0-3.6,0-7.2,0-10.8c0-0.4-0.1-0.5-0.5-0.5c-1,0-1.9,0-2.9,0c0-1.2,0-2.3,0-3.5
	c3.3,0,6.7,0,10,0c0,1.1,0,2.3,0,3.5c-1,0-2,0-3.1,0c0,4,0,8,0,12C39.8,17.5,38.7,17.5,37.5,17.5z"/>
<path class="st1" d="M71.9,19c3.1,0,6.1,0,9.2,0c0,0.3,0,0.7,0,1.1c-0.4,0-0.7,0-1,0c-1.4,0-2.8,0-4.1,0c-0.4,0-0.5,0.1-0.5,0.5
	c0,4.4,0,8.7,0,13.1c0,0.8,0,0.8-0.8,0.8c-0.7,0-1.3,0-2,0c-0.2,0-0.4,0-0.7-0.1C71.9,29.2,71.9,24.1,71.9,19z"/>
<path class="st0" d="M37.5,18.9c1.2,0,2.3,0,3.4,0c0,5.2,0,10.3,0,15.5c-1.1,0-2.3,0-3.4,0C37.5,29.3,37.5,24.1,37.5,18.9z"/>
<path class="st1" d="M89.3,34.4c-0.6,0-1.1,0-1.6,0c-0.4,0-0.9,0-1.3,0s-0.5-0.1-0.5-0.5c0-1.9,0-3.8,0-5.7c0-2.9,0-5.7,0-8.6
	c0-0.5,0.1-0.7,0.6-0.6c0.8,0,1.5,0,2.3,0c0.2,0,0.3,0.1,0.5,0.1C89.3,24.1,89.3,29.2,89.3,34.4z"/>
<path class="st1" d="M0,24.2c0-4,0-7.9,0-12c0.4,0.4,0.8,0.7,1.2,1.1c1.6,1.5,3.1,3.1,4.7,4.6c0.2,0.2,0.4,0.4,0.1,0.6
	c-1.9,1.8-3.8,3.7-5.7,5.5C0.2,24.1,0.1,24.1,0,24.2z"/>
<path class="st1" d="M100,24.2c-1.4-1.3-2.7-2.6-4-3.9c-0.6-0.6-1.2-1.2-1.8-1.7c-0.3-0.3-0.4-0.4,0-0.7c1.1-1,2.1-2,3.1-3
	c0.7-0.7,1.4-1.4,2.1-2.1c0.1-0.1,0.3-0.2,0.5-0.4C100,16.3,100,20.2,100,24.2z"/>
</svg>
