<?xml version="1.0" encoding="utf-8"?>
<!-- Generator: Adobe Illustrator 16.0.0, SVG Export Plug-In . SVG Version: 6.00 Build 0)  -->
<!DOCTYPE svg PUBLIC "-//W3C//DTD SVG 1.1//EN" "http://www.w3.org/Graphics/SVG/1.1/DTD/svg11.dtd">
<svg version="1.1" id="Слой_1" xmlns="http://www.w3.org/2000/svg" xmlns:xlink="http://www.w3.org/1999/xlink" x="0px" y="0px"
	 width="100px" height="31px" viewBox="0 0 100 31" enable-background="new 0 0 100 31" xml:space="preserve">
<title>A3A4862D-750E-4D27-A209-94F884C594BA</title>
<desc>Created with sketchtool.</desc>
<g id="Icons">
	<g id="Artboard" transform="translate(-88.000000, -254.000000)">
		<g id="Group-5" transform="translate(88.000000, 254.000000)">
			<path id="Shape" fill="#FFFFFF" d="M12.5,14.706H5.743l-1.014,3.185c-0.337,0.67-0.506,1.34-0.506,1.676
				c0,0.334,0.169,0.67,0.338,0.838c0.337,0.168,0.844,0.334,1.689,0.502v0.504H0.845v-0.504c0.676-0.168,1.182-0.334,1.351-0.67
				c0.507-0.502,1.014-1.342,1.521-2.85L9.628,0.962h0.507l5.912,16.593c0.338,1.34,0.845,2.178,1.182,2.682
				c0.507,0.334,1.014,0.502,1.689,0.67v0.503h-6.757v-0.503c0.676-0.168,1.183-0.168,1.352-0.502
				c0.338-0.168,0.338-0.504,0.338-0.838c0-0.336-0.169-1.006-0.507-2.012L12.5,14.706z M11.993,13.7L9.122,5.655L6.25,13.7H11.993z
				 M27.027,6.326l4.054,11.061l3.885-11.061h4.223v0.502c-0.506,0-0.844,0.167-1.013,0.167c-0.338,0.168-0.507,0.335-0.676,0.67
				c-0.169,0.168-0.169,0.503-0.169,0.838v10.558c0,0.336,0,0.672,0.169,0.838c0.169,0.336,0.338,0.504,0.507,0.672
				c0.338,0.166,0.676,0.166,1.182,0.166v0.672h-5.912v-0.672c0.507,0,0.845,0,1.014-0.166c0.169-0.168,0.338-0.504,0.507-0.672
				c0.169-0.334,0.169-0.67,0.169-1.006V8.504l-4.392,12.905h-0.507L25.845,9.175h-0.169v9.05c0,0.67,0,1.006,0.169,1.342
				c0,0.334,0.169,0.67,0.338,0.838s0.338,0.168,0.675,0.334h1.014v0.672h-4.898v-0.672c0.506,0,0.844,0,1.182-0.166l0.507-0.504
				c0.169-0.334,0.169-0.502,0.169-0.838v-8.882V8.839c0-0.503,0-0.838-0.169-1.173c-0.169-0.167-0.338-0.502-0.507-0.67
				c-0.338,0-0.676-0.167-1.182-0.167V6.326H27.027z M43.75,21.409v-0.671h0.507c0.169,0,0.338-0.168,0.507-0.334
				c0.169-0.168,0.338-0.504,0.507-0.838c0.168-0.336,0.506-0.84,0.675-1.51l4.223-12.235h0.338l4.729,13.073
				c0.168,0.504,0.338,0.838,0.507,1.006c0.169,0.336,0.338,0.504,0.507,0.67c0.169,0,0.338,0.168,0.507,0.168h0.507v0.671h-5.236
				v-0.671h0.677l0.338-0.334c0,0,0.168-0.168,0.168-0.336s0-0.502-0.168-0.67c0-0.168-0.17-0.504-0.17-0.672l-0.845-2.011h-4.561
				l-0.676,2.011c0,0.168-0.169,0.336-0.169,0.504v0.502c0,0.168,0,0.336,0.169,0.504c0,0.168,0.169,0.334,0.338,0.334
				c0,0,0.169,0.168,0.338,0.168h0.338v0.671H43.75z M47.804,15.711h3.885l-2.027-5.531L47.804,15.711z M70.607,6.326l0.17,3.52
				H70.27c0-0.503-0.168-1.006-0.168-1.341c-0.17-0.335-0.338-0.503-0.508-0.838C69.256,7.5,69.087,7.5,68.918,7.332h-2.872v10.895
				c0,0.336,0,0.67,0.17,1.006c0,0.336,0,0.67,0.168,0.838c0.171,0.168,0.339,0.336,0.677,0.502
				c0.168,0.168,0.506,0.168,1.014,0.168v0.671h-6.25V20.74c0.507,0,0.845,0,1.183-0.168l0.507-0.502
				c0.17-0.168,0.17-0.502,0.17-0.838c0.168-0.336,0.168-0.67,0.168-1.006V7.331h-1.857c-0.508,0-0.846,0-1.184,0.167
				c-0.338,0-0.506,0.167-0.676,0.503c-0.168,0.167-0.338,0.503-0.338,0.838c-0.168,0.335-0.168,0.67-0.168,1.006h-0.508l0.17-3.52
				L70.607,6.326L70.607,6.326z M81.926,21.409h-6.08v-0.671c0.506,0,0.844,0,1.012-0.168c0.338,0,0.509-0.166,0.509-0.502
				c0.168-0.168,0.338-0.336,0.338-0.67V9.342V8.504c0-0.335,0-0.67-0.17-0.838c-0.168-0.335-0.339-0.502-0.507-0.67
				c-0.338,0-0.676-0.167-1.182-0.167V6.326h6.08v0.502c-0.507,0-0.845,0.167-1.183,0.167c-0.169,0.168-0.339,0.335-0.507,0.67
				c-0.17,0.168-0.17,0.503-0.17,0.838v10.894c0,0.336,0.17,0.502,0.17,0.67c0.168,0.336,0.338,0.504,0.676,0.504
				c0.169,0.166,0.507,0.166,1.014,0.166V21.409z M99.662,11.186h-0.508c0-0.168-0.168-0.335-0.168-0.671
				c0-0.167-0.17-0.335-0.338-0.67c0-0.168-0.17-0.335-0.338-0.67c0-0.168-0.168-0.335-0.338-0.67
				c-0.339-0.168-0.507-0.503-0.845-0.67c-0.338-0.168-0.508-0.503-0.846-0.503L95.27,6.829h-1.015
				c-0.507,0-1.183,0.167-1.688,0.503c-0.508,0.335-1.014,0.67-1.352,1.341c-0.508,0.67-0.846,1.341-1.014,2.179
				c-0.17,0.838-0.338,1.844-0.338,2.849c0,1.006,0.168,1.844,0.338,2.681c0,0.671,0.338,1.343,0.506,1.845
				c0.338,0.502,0.508,0.838,0.846,1.174c0.338,0.334,0.676,0.67,1.014,0.838s0.676,0.334,1.014,0.334
				c0.338,0.168,0.676,0.168,1.014,0.168c0.508,0,1.014,0,1.521-0.334c0.506-0.168,1.182-0.504,1.689-1.006
				c0.168-0.168,0.338-0.504,0.506-0.672c0.168-0.166,0.168-0.334,0.338-0.502c0.168-0.336,0.338-0.502,0.338-0.67
				c0.168-0.336,0.168-0.504,0.338-0.838l0.507,0.334c-0.169,0.168-0.169,0.504-0.338,0.672l-0.507,1.004
				c-0.17,0.336-0.338,0.672-0.676,1.006c-0.338,0.504-0.677,0.672-1.015,1.006c-0.506,0.336-1.014,0.504-1.521,0.671
				c-0.506,0.335-1.014,0.335-1.688,0.335c-1.014,0-1.688-0.168-2.532-0.502c-0.847-0.504-1.521-1.006-2.197-1.676
				c-0.506-0.672-1.014-1.51-1.521-2.348c-0.338-1.006-0.507-2.012-0.507-3.185c0-1.173,0.169-2.179,0.507-3.184
				s0.845-1.844,1.521-2.682c0.508-0.67,1.352-1.173,2.026-1.676c0.845-0.335,1.689-0.67,2.703-0.67
				c0.677,0,1.183,0.167,1.688,0.335l1.015,0.503c0.168,0,0.338,0.167,0.506,0.167c0.17,0.167,0.338,0.167,0.338,0.167h0.171
				l0.168,0.168c0,0,0-0.168,0.17-0.168c0,0,0.168,0,0.168-0.167c0.168,0,0.168-0.167,0.168-0.335c0.17-0.167,0.17-0.335,0.17-0.67
				h0.506L99.662,11.186z M0.169,25.936h0.845v4.859H0.169V25.936z M10.135,25.936h0.507l1.182,3.352v-0.335v-0.336v-0.335v-2.346
				H12.5v4.859h-0.676l-1.182-3.018v0.504c0.169,0.166,0.169,0.334,0.169,0.502v2.012h-0.676V25.936z M21.622,25.936h0.676
				c0.169,0,0.338,0,0.507,0.166h0.338c0,0,0.169,0,0.337,0.168c0,0,0.169,0.168,0.169,0.336c0.169,0,0.169,0.168,0.338,0.334v2.851
				c-0.169,0.336-0.169,0.503-0.338,0.503c0,0.167-0.169,0.335-0.169,0.335c-0.168,0-0.337,0.168-0.337,0.168h-1.521V25.936z
				 M22.466,30.292h0.338c0.169,0,0.169-0.167,0.338-0.167v-0.336v-2.012v-0.67v-0.336c-0.169,0-0.169-0.166-0.338-0.166h-0.507
				v3.687H22.466z M32.939,25.936h0.676v4.021c0,0.168,0.169,0.168,0.169,0.168c0,0.167,0,0.167,0.169,0.167h0.338l0.169-0.167
				v-0.168v-4.021h0.845v3.52c0,0.167-0.169,0.335-0.169,0.503s0,0.335-0.169,0.502c0,0,0,0.168-0.169,0.168
				c0,0.168-0.169,0.168-0.169,0.168c-0.169,0-0.169,0.168-0.338,0.168h-0.507l-0.169-0.168c-0.169,0-0.169,0-0.338-0.168
				l-0.169-0.168c0-0.167-0.169-0.334-0.169-0.502V25.936z M44.088,29.957v-0.336c0-0.167,0.169-0.167,0.169-0.335h0.507v0.671
				l0.169,0.168c0,0.167,0,0.167,0.169,0.167h0.506c0-0.167,0.169-0.167,0.169-0.335s0-0.168-0.169-0.336v-0.167v-0.168
				c-0.169,0-0.169-0.167-0.169-0.167l-0.844-1.006c-0.169-0.168-0.169-0.336-0.338-0.504c0-0.166-0.169-0.334-0.169-0.502
				s0.169-0.336,0.169-0.502c0-0.168,0.169-0.168,0.169-0.336c0.169-0.168,0.169-0.168,0.338-0.168
				c0.169-0.168,0.338-0.168,0.507-0.168c0.168,0,0.337,0,0.506,0.168c0.169,0,0.338,0.168,0.338,0.168
				c0.169,0.168,0.169,0.168,0.169,0.336c0.169,0.166,0.169,0.334,0.169,0.334v0.336c-0.169,0.168-0.169,0.168-0.169,0.334h-0.507
				v-0.334c0-0.168,0-0.336-0.169-0.504c0-0.166-0.169-0.166-0.337-0.166h-0.338v0.838c0.169,0,0.169,0.166,0.169,0.166l0.844,1.006
				c0.169,0.168,0.338,0.336,0.338,0.504c0.169,0.335,0.169,0.502,0.169,0.67s0,0.336-0.169,0.503c0,0.167,0,0.167-0.169,0.335
				c-0.169,0-0.169,0.168-0.338,0.168c-0.169,0.168-0.338,0.168-0.506,0.168c-0.169,0-0.338,0-0.507-0.168
				c-0.169,0-0.338-0.168-0.338-0.168c-0.169-0.168-0.169-0.168-0.169-0.335C44.088,30.125,44.088,29.957,44.088,29.957z
				 M55.743,26.605h-0.677v-0.672h2.197v0.672h-0.677v4.188h-0.845L55.743,26.605L55.743,26.605z M66.047,25.936h0.846
				c0.168,0,0.168,0,0.338,0.166h0.338c0,0,0.168,0,0.338,0.168c0,0,0.169,0,0.169,0.168c0.169,0.168,0.169,0.168,0.169,0.336
				c0.169,0.166,0.169,0.334,0.169,0.67c0,0.502,0,0.67-0.169,1.006l-0.508,0.503l0.846,1.844h-0.846l-0.676-1.676h-0.168v1.676
				h-0.846V25.936L66.047,25.936z M66.893,28.447h0.338c0.168,0,0.168,0,0.338-0.166v-0.168v-0.838v-0.336v-0.168
				c-0.17-0.166-0.17-0.166-0.338-0.166h-0.338V28.447z M77.365,25.936h0.676v4.859h-0.676V25.936z M87.162,25.936h1.857v0.67
				h-1.014v1.508h0.846v0.503h-0.846v1.677h1.014v0.503h-1.857V25.936z M97.635,29.957c0-0.168,0-0.336,0.17-0.336v-0.335h0.506
				v0.671l0.17,0.168c0,0.167,0,0.167,0.168,0.167h0.508c0-0.167,0.169-0.167,0.169-0.335v-0.336c0,0-0.169,0-0.169-0.167v-0.168
				c-0.17,0-0.17-0.167-0.17-0.167l-0.844-1.006c-0.17-0.168-0.17-0.336-0.338-0.504v-0.502v-0.502c0-0.168,0.168-0.168,0.168-0.336
				c0.17-0.168,0.338-0.168,0.338-0.168c0.17-0.168,0.338-0.168,0.508-0.168c0.168,0,0.507,0,0.507,0.168
				c0.169,0,0.338,0.168,0.338,0.168L100,26.605v0.67c0,0.168-0.169,0.168-0.169,0.334h-0.507v-0.334c0-0.168,0-0.336-0.17-0.504
				c0-0.166-0.168-0.166-0.338-0.166h-0.338v0.838c0.17,0,0.17,0.166,0.17,0.166l0.845,1.006c0.169,0.168,0.338,0.336,0.338,0.504
				C100,29.454,100,29.621,100,29.789v0.503l-0.338,0.335c0,0-0.169,0.168-0.338,0.168c-0.17,0.168-0.338,0.168-0.508,0.168
				c-0.168,0-0.338,0-0.506-0.168c-0.168,0-0.338-0.168-0.338-0.168c-0.168-0.168-0.168-0.168-0.168-0.335
				S97.635,29.957,97.635,29.957z M0,23.253h100v0.671H0V23.253z"/>
		</g>
	</g>
</g>
</svg>
