<?xml version="1.0" encoding="utf-8"?>
<!-- Generator: Adobe Illustrator 16.0.0, SVG Export Plug-In . SVG Version: 6.00 Build 0)  -->
<!DOCTYPE svg PUBLIC "-//W3C//DTD SVG 1.1//EN" "http://www.w3.org/Graphics/SVG/1.1/DTD/svg11.dtd">
<svg version="1.1" id="Слой_1" xmlns="http://www.w3.org/2000/svg" xmlns:xlink="http://www.w3.org/1999/xlink" x="0px" y="0px"
	 width="100px" height="65px" viewBox="0 0 100 65" enable-background="new 0 0 100 65" xml:space="preserve">
<path fill="#FFFFFF" d="M20.357,61.65c0,0.508-0.015,1.018,0.006,1.525c0.012,0.287-0.1,0.485-0.318,0.649
	c-1.945,1.465-4.632,1.485-6.269,0.473c-1.552-0.962-2.167-2.388-2.134-4.159c0.057-3.066,2.796-4.896,5.494-4.548
	c0.956,0.124,1.824,0.399,2.603,0.962c0.26,0.188,0.319,0.379,0.077,0.621c-0.08,0.08-0.142,0.178-0.219,0.26
	c-0.27,0.285-0.425,0.737-0.808,0.842c-0.373,0.104-0.632-0.31-0.957-0.467c-1.071-0.518-2.339-0.387-3.104,0.346
	c-0.938,0.898-1.187,2.256-0.629,3.43c0.496,1.041,1.506,1.594,2.725,1.49c0.4-0.033,0.787-0.115,1.151-0.289
	c0.215-0.104,0.356-0.237,0.39-0.502c0.095-0.75-0.011-0.884-0.772-0.901c-1.484-0.034-1.233,0.265-1.26-1.331
	c-0.005-0.33,0.039-0.529,0.451-0.52c1.024,0.023,2.049,0.018,3.073,0.005c0.37-0.005,0.507,0.146,0.497,0.505
	c-0.016,0.535-0.004,1.072-0.004,1.609H20.357z M33.214,61.608c0,0.509-0.014,1.019,0.005,1.526c0.012,0.316-0.118,0.52-0.361,0.713
	c-1.634,1.293-4.304,1.528-6.134,0.525c-1.8-0.988-2.706-3.288-2.105-5.35c0.681-2.339,2.842-3.732,5.296-3.447
	c0.955,0.111,1.826,0.396,2.609,0.956c0.302,0.216,0.341,0.423,0.076,0.687c-0.081,0.08-0.145,0.176-0.22,0.26
	c-0.244,0.274-0.441,0.653-0.748,0.793c-0.365,0.166-0.618-0.294-0.939-0.445c-1.125-0.525-2.553-0.451-3.407,0.621
	c-0.879,1.104-0.883,2.652,0.031,3.758c0.727,0.878,2.363,1.158,3.458,0.592c0.36-0.187,0.559-0.876,0.362-1.25
	c-0.058-0.111-0.153-0.16-0.27-0.166c-0.17-0.009-0.343,0.006-0.511-0.016c-0.382-0.048-0.91,0.207-1.117-0.152
	c-0.23-0.398-0.075-0.938-0.068-1.418c0.002-0.171,0.129-0.244,0.285-0.246c1.139-0.006,2.277-0.009,3.416-0.012
	c0.25,0,0.347,0.137,0.345,0.375c-0.005,0.566-0.001,1.131-0.001,1.696H33.214z M78.318,55.623c1.129-0.055,2.086,0.272,2.973,0.818
	c0.457,0.281,0.463,0.332,0.137,0.789c-0.244,0.342-0.396,0.84-0.779,0.971c-0.361,0.121-0.679-0.332-1.057-0.445
	c-0.325-0.098-0.643-0.225-0.973-0.307c-0.373-0.093-0.742-0.027-1.07,0.164c-0.521,0.301-0.528,0.934,0.006,1.216
	c0.346,0.183,0.74,0.28,1.12,0.396c0.706,0.213,1.425,0.383,2.079,0.745c0.893,0.495,1.25,1.235,1.216,2.239
	c-0.034,1.018-0.406,1.824-1.325,2.294c-1.381,0.708-2.805,0.582-4.213,0.065c-0.533-0.195-1.026-0.48-1.478-0.832
	c-0.225-0.174-0.27-0.342-0.047-0.553c0.122-0.117,0.223-0.256,0.337-0.382c0.209-0.229,0.382-0.538,0.643-0.66
	c0.336-0.157,0.51,0.271,0.772,0.411c0.64,0.34,1.299,0.563,2.03,0.555c0.26-0.002,0.512-0.035,0.744-0.154
	c0.588-0.3,0.626-0.922,0.059-1.26c-0.49-0.293-1.06-0.396-1.6-0.567c-0.432-0.137-0.879-0.237-1.297-0.407
	c-0.92-0.371-1.465-1.027-1.519-2.052c-0.058-1.1,0.267-2.003,1.261-2.589C76.97,55.705,77.659,55.574,78.318,55.623z M0,56.242
	c0.668-0.139,1.349-0.033,2.022-0.07c0.323-0.019,0.429,0.239,0.558,0.451c0.456,0.749,0.902,1.023,1.354,1.775
	c0.145,0.24,0.298,0.477,0.442,0.705c0.286-0.002,0.328-0.226,0.423-0.379c0.523-0.841,1.053-1.678,1.546-2.537
	c0.19-0.33,0.399-0.514,0.797-0.5c0.563,0.021,1.128,0.006,1.66,0.006c0.165,0.297-0.026,0.436-0.123,0.588
	c-0.899,1.406-1.794,2.816-2.715,4.209c-0.308,0.467-0.48,0.934-0.451,1.502c0.038,0.732,0.017,1.469,0.009,2.203
	c-0.007,0.618-0.015,0.618-0.601,0.641c-1.471,0.06-1.559,0.053-1.448-1.363c0.12-1.524-0.292-2.319-1.203-3.528
	c-0.73-0.97-1.331-2.036-1.98-3.065C0.174,56.693-0.003,56.528,0,56.242z M93.339,60.194c0-1.271-0.005-2.542,0.002-3.813
	c0.003-0.67,0.013-0.67,0.638-0.685c1.439-0.036,1.439-0.036,1.439,1.411c0.002,1.723,0,3.445,0.006,5.168
	c0.003,0.651,0.012,0.659,0.643,0.663c1.109,0.006,2.218-0.006,3.328,0.003c0.592,0.005,0.607,0.016,0.604,0.621
	c-0.011,1.532,0.164,1.263-1.235,1.274c-1.593,0.014-3.185,0.007-4.778,0c-0.638-0.002-0.649-0.012-0.654-0.662
	c-0.008-1.326-0.002-2.654-0.002-3.981H93.339z M88.494,60.254c0.001,1.301,0.006,2.602-0.001,3.902
	c-0.003,0.67-0.012,0.67-0.636,0.686c-1.476,0.035-1.479,0.035-1.482-1.459c-0.004-2.29-0.004-4.58-0.002-6.87
	c0.001-0.808,0.006-0.808,0.77-0.816c1.352-0.015,1.352-0.015,1.352,1.335C88.494,58.105,88.494,59.18,88.494,60.254z
	 M55.293,59.947c0.51-0.191,0.812-0.689,0.77-1.191c-0.042-0.508-0.34-0.873-0.853-1.039c-0.437-0.144-0.89-0.16-1.343-0.151
	c-1.479,0.026-1.243-0.212-1.267,1.146c0,0.393-0.002,0.702,0.001,1.012c0.002,0.176,0.035,0.369,0.253,0.364
	C53.67,60.072,54.5,60.246,55.293,59.947z M56.316,61.664c0.711,1.033,1.393,2.025,2.184,3.176c-0.863,0-1.532-0.008-2.199,0.004
	c-0.283,0.005-0.391-0.188-0.519-0.373c-0.446-0.656-0.892-1.313-1.343-1.965c-0.327-0.473-1.146-0.71-1.639-0.49
	c-0.195,0.088-0.197,0.258-0.197,0.424c-0.004,0.623-0.02,1.245,0.006,1.866c0.016,0.401-0.121,0.571-0.537,0.541
	c-0.367-0.026-0.74-0.024-1.109-0.001c-0.389,0.025-0.48-0.158-0.479-0.504c0.007-2.713,0.005-5.428,0.002-8.142
	c0-0.274,0.009-0.519,0.388-0.509c1.507,0.041,3.021-0.105,4.521,0.082c1.571,0.195,2.454,0.932,2.718,2.273
	c0.271,1.39-0.205,2.738-1.49,3.395C56.55,61.479,56.487,61.539,56.316,61.664z M43.983,60.556c0.122-1.475-0.778-2.651-2.253-2.917
	c-0.333-0.06-0.679-0.067-1.019-0.068c-0.968-0.004-0.941-0.137-0.94,0.885c0.001,1.131-0.005,2.26,0.003,3.391
	c0.009,1.223-0.16,1.088,1.075,1.096c0.171,0,0.342,0.006,0.512-0.002C42.85,62.875,43.869,61.947,43.983,60.556z M42.257,55.805
	c3.535,0.582,5.112,4.417,2.965,7.262c-0.895,1.186-2.188,1.67-3.638,1.764c-0.567,0.037-1.138,0.006-1.708,0.006v0.004
	c-0.541,0-1.083-0.017-1.623,0.005c-0.38,0.015-0.57-0.075-0.568-0.509c0.013-2.715,0.005-5.428,0-8.142
	c0-0.276,0.019-0.515,0.393-0.501C39.472,55.742,40.871,55.578,42.257,55.805z M65.485,60.941h2.189
	c-0.296-0.894-0.624-1.703-1.082-2.65C66.199,59.234,65.867,60.028,65.485,60.941z M71.217,64.117
	c0.086,0.203,0.236,0.393,0.15,0.719c-0.568,0-1.158-0.007-1.747,0.004c-0.292,0.004-0.386-0.194-0.474-0.406
	c-0.162-0.393-0.33-0.781-0.477-1.179c-0.115-0.307-0.313-0.435-0.646-0.431c-0.938,0.012-1.879,0.018-2.817-0.004
	c-0.381-0.009-0.572,0.161-0.696,0.486c-0.14,0.371-0.314,0.729-0.444,1.102c-0.106,0.309-0.277,0.456-0.623,0.439
	c-0.509-0.021-1.02-0.006-1.568-0.006c-0.056-0.336,0.092-0.576,0.197-0.822c1.104-2.572,2.219-5.139,3.303-7.72
	c0.203-0.483,0.459-0.695,1.006-0.665c1.339,0.076,1.098-0.253,1.668,1.074C69.107,59.178,70.162,61.647,71.217,64.117z"/>
<path fill="#E6642B" d="M43.2,9.563c-0.432-1.217-0.852-2.414-1.19-3.637c-0.347-1.256-0.606-2.53-0.801-3.816
	c-0.108-0.716-0.092-0.737,0.6-0.977c1.401-0.484,2.83-0.864,4.297-1.087c0.679-0.103,0.713-0.081,0.805,0.61
	c0.388,2.91,1.209,5.692,2.458,8.351c0.142,0.301,0.218,0.791,0.543,0.807c0.414,0.02,0.467-0.5,0.617-0.814
	c1.243-2.629,2.061-5.384,2.436-8.267c0.102-0.778,0.124-0.797,0.913-0.681c1.47,0.217,2.892,0.629,4.293,1.104
	c0.639,0.216,0.626,0.243,0.526,0.931c-0.336,2.303-0.938,4.538-1.733,6.725c-0.089,0.246-0.362,0.539-0.095,0.771
	c0.211,0.183,0.479-0.054,0.706-0.148c2.29-0.945,4.294-2.316,6.059-4.039c0.081-0.08,0.161-0.16,0.242-0.239
	c0.646-0.636,0.644-0.633,1.365-0.036c1.073,0.888,2.103,1.821,3.003,2.885c0.454,0.538,0.449,0.546-0.021,1.035
	c-3.435,3.571-7.582,5.916-12.406,7.092c-0.222,0.054-0.446,0.095-0.664,0.16c-0.521,0.157-0.558,0.268-0.159,0.673
	c1.32,1.337,2.777,2.511,4.347,3.547c0.489,0.323,0.507,0.31,1.079-0.22c2.413-2.24,5.137-4.021,8.141-5.375
	c0.88-0.397,1.787-0.737,2.693-1.071c0.615-0.226,0.718-0.173,0.972,0.434c0.567,1.36,1.053,2.748,1.364,4.19
	c0.139,0.648,0.131,0.68-0.534,0.913c-1.454,0.51-2.851,1.138-4.185,1.908c-0.862,0.498-1.693,1.043-2.494,1.633
	c-0.221,0.163-0.576,0.297-0.539,0.6c0.045,0.378,0.475,0.351,0.752,0.438c2.043,0.642,4.134,1.045,6.271,1.208
	c1.609,0.123,1.297,0.072,1.169,1.428c-0.118,1.267-0.367,2.517-0.729,3.74c-0.192,0.652-0.211,0.677-0.892,0.627
	c-2.335-0.169-4.628-0.584-6.876-1.239c-5.691-1.658-10.613-4.598-14.809-8.753c-0.82-0.813-0.669-0.902-1.55-0.021
	c-4.454,4.456-9.745,7.48-15.862,9.066c-1.848,0.479-3.729,0.795-5.633,0.939c-0.878,0.067-0.866,0.043-1.113-0.772
	c-0.396-1.306-0.593-2.647-0.747-3.996c-0.103-0.899-0.085-0.929,0.873-0.995c2.082-0.145,4.125-0.488,6.125-1.082
	c0.354-0.105,0.706-0.22,1.055-0.342c0.301-0.106,0.335-0.304,0.102-0.5c-0.325-0.274-0.666-0.531-1.018-0.771
	c-1.887-1.285-3.89-2.348-6.056-3.097c-0.753-0.261-0.76-0.272-0.582-1.022c0.327-1.378,0.746-2.727,1.327-4.023
	c0.323-0.721,0.335-0.74,1.075-0.486c2.461,0.845,4.771,1.993,6.94,3.424c1.379,0.91,2.662,1.938,3.888,3.039
	c0.544,0.489,0.543,0.48,1.148,0.08c1.401-0.929,2.7-1.98,3.894-3.161c0.141-0.14,0.287-0.276,0.413-0.428
	c0.201-0.242,0.11-0.416-0.16-0.513c-0.16-0.058-0.329-0.09-0.495-0.128c-4.904-1.121-9.104-3.481-12.612-7.061
	c-0.08-0.081-0.158-0.164-0.238-0.244c-0.212-0.212-0.252-0.428-0.038-0.668c1.118-1.25,2.315-2.416,3.641-3.45
	c0.273-0.213,0.46-0.089,0.658,0.113c0.675,0.69,1.374,1.353,2.135,1.951c1.439,1.131,3.002,2.045,4.708,2.719
	C42.753,9.608,42.909,9.704,43.2,9.563z M49.87,47.842c-0.711,0-1.424,0.029-2.133-0.009c-0.628-0.034-0.717-0.15-0.719-0.788
	c-0.007-2.147-0.026-4.295,0.009-6.442c0.012-0.693-0.189-1.233-0.615-1.778c-2.358-3.008-4.687-6.039-7.019-9.067
	c-0.597-0.774-0.586-0.78,0.323-1.214c1.18-0.564,2.337-1.169,3.447-1.862c0.841-0.523,0.846-0.513,1.427,0.24
	c1.574,2.04,3.148,4.08,4.724,6.119c0.63,0.815,0.647,0.813,1.258,0.021c1.608-2.086,3.217-4.172,4.827-6.256
	c0.492-0.637,0.503-0.645,1.157-0.236c1.254,0.784,2.563,1.466,3.9,2.096c0.582,0.273,0.6,0.361,0.209,0.869
	c-2.416,3.143-4.828,6.289-7.27,9.414c-0.374,0.479-0.539,0.949-0.533,1.547c0.023,2.146,0.011,4.295,0.008,6.441
	c-0.002,0.775-0.027,0.84-0.785,0.891c-0.735,0.049-1.478,0.01-2.216,0.01V47.842z"/>
</svg>
