<?xml version="1.0" encoding="utf-8"?>
<!-- Generator: Adobe Illustrator 24.2.1, SVG Export Plug-In . SVG Version: 6.00 Build 0)  -->
<svg version="1.1" id="Layer_1" xmlns="http://www.w3.org/2000/svg" xmlns:xlink="http://www.w3.org/1999/xlink" x="0px" y="0px"
	 viewBox="0 0 122 30" style="enable-background:new 0 0 122 30;" xml:space="preserve">
<style type="text/css">
	.st0{fill:url(#SVGID_1_);}
	.st1{fill:url(#SVGID_2_);}
	.st2{fill:url(#SVGID_3_);}
	.st3{fill:url(#SVGID_4_);}
	.st4{fill:url(#SVGID_5_);}
	.st5{fill:url(#SVGID_6_);}
	.st6{fill:url(#SVGID_7_);}
	.st7{fill:url(#SVGID_8_);}
	.st8{fill:url(#SVGID_9_);}
	.st9{fill:url(#SVGID_10_);}
	.st10{fill:url(#SVGID_11_);}
</style>
<linearGradient id="SVGID_1_" gradientUnits="userSpaceOnUse" x1="107.9379" y1="-812.3517" x2="109.5587" y2="-783.0315" gradientTransform="matrix(1 0 0 -1 0 -781.9373)">
	<stop  offset="0" style="stop-color:#FFFFFF"/>
	<stop  offset="0.5045" style="stop-color:#D6DADD"/>
	<stop  offset="1" style="stop-color:#FFFFFF"/>
</linearGradient>
<path class="st0" d="M116.719,0H97.397l-1.408,8.787l0.274,1.239l1.525-8.245l2.855,12.039l-3.012,14.593l-1.604-9.252l-0.313,1.819
	L97.201,30h19.675L122,13.819L116.719,0z M105.024,1.935l6.337,4.103l-1.486-4.103h4.224l3.403,9.252h-3.716l-6.454-4.297
	l1.252,4.258h-4.459l-2.581-9.213C101.544,1.935,105.024,1.935,105.024,1.935z M116.367,29.303h-18.11l3.168-15.445h19.831
	L116.367,29.303z"/>
<linearGradient id="SVGID_2_" gradientUnits="userSpaceOnUse" x1="108.3431" y1="-810.6078" x2="110.3867" y2="-800.127" gradientTransform="matrix(1 0 0 -1 0 -781.9373)">
	<stop  offset="0" style="stop-color:#FEFE00"/>
	<stop  offset="1" style="stop-color:#F8AD00"/>
</linearGradient>
<path class="st1" d="M113.16,16.336l-1.408,4.839l-3.794-4.839h-3.833l-2.425,10.568h4.303l1.213-4.645l3.794,4.645h3.52
	l3.207-10.568C117.737,16.336,113.16,16.336,113.16,16.336z"/>
<linearGradient id="SVGID_3_" gradientUnits="userSpaceOnUse" x1="85.5785" y1="-811.7705" x2="85.3389" y2="-782.5174" gradientTransform="matrix(1 0 0 -1 0 -781.9373)">
	<stop  offset="0" style="stop-color:#FFFFFF"/>
	<stop  offset="0.5045" style="stop-color:#D6DADD"/>
	<stop  offset="1" style="stop-color:#FFFFFF"/>
</linearGradient>
<path class="st2" d="M93.876,0.155h-19.4l-0.313,10.761l0.664-7.123l0.509,9.987l-0.352,10.761l-0.821-6L74.749,30h19.166
	l2.855-16.181L93.876,0.155z M86.757,2.013l1.369,9.136h-4.498l-1.213-9.097L86.757,2.013z M93.329,29.264H75.61l0.509-15.445h19.91
	L93.329,29.264z"/>
<linearGradient id="SVGID_4_" gradientUnits="userSpaceOnUse" x1="84.8326" y1="-810.5205" x2="85.8251" y2="-800.0148" gradientTransform="matrix(1 0 0 -1 0 -781.9373)">
	<stop  offset="0" style="stop-color:#FEFE00"/>
	<stop  offset="1" style="stop-color:#F8AD00"/>
</linearGradient>
<path class="st3" d="M82.65,27.213h4.342l1.291-10.684h-4.577L82.65,27.213z"/>
<linearGradient id="SVGID_5_" gradientUnits="userSpaceOnUse" x1="60.124" y1="-812.2053" x2="60.8612" y2="-780.1968" gradientTransform="matrix(1 0 0 -1 0 -781.9373)">
	<stop  offset="0" style="stop-color:#FFFFFF"/>
	<stop  offset="0.5045" style="stop-color:#D6DADD"/>
	<stop  offset="1" style="stop-color:#FFFFFF"/>
</linearGradient>
<path class="st4" d="M51.593,0.155l-1.917,13.742L51.749,30h19.206l0.157-16.452L70.955,0.155H51.593z M55.622,2.09h7.197
	c0,0,4.655,0.348,4.694,3.29c0.039,2.942-5.398,3.445-5.398,3.445h-2.738l-0.235,2.361h-4.615L55.622,2.09z M70.173,29.303H52.336
	L50.38,13.974l19.949,0.039L70.173,29.303z"/>
<linearGradient id="SVGID_6_" gradientUnits="userSpaceOnUse" x1="61.1833" y1="-812.4782" x2="61.2984" y2="-781.0955" gradientTransform="matrix(1 0 0 -1 0 -781.9373)">
	<stop  offset="0" style="stop-color:#FFFFFF"/>
	<stop  offset="0.5045" style="stop-color:#D6DADD"/>
	<stop  offset="1" style="stop-color:#FFFFFF"/>
</linearGradient>
<path class="st5" d="M63.014,5.303c0-1.006-1.252-1.006-1.252-1.006H59.69l-0.156,2.206h2.19
	C61.724,6.465,63.014,6.271,63.014,5.303z"/>
<linearGradient id="SVGID_7_" gradientUnits="userSpaceOnUse" x1="60.9074" y1="-811.0754" x2="60.6492" y2="-800.1686" gradientTransform="matrix(1 0 0 -1 0 -781.9373)">
	<stop  offset="0" style="stop-color:#FEFE00"/>
	<stop  offset="1" style="stop-color:#F8AD00"/>
</linearGradient>
<path class="st6" d="M56.052,27.058h3.599L61.02,22.8l1.76,4.258h3.52l3.168-10.568h-3.911l-1.252,4.8l-2.034-4.8h-3.09
	l-1.604,4.684l-1.525-4.684h-4.264h-0.039L56.052,27.058z"/>
<linearGradient id="SVGID_8_" gradientUnits="userSpaceOnUse" x1="36.8435" y1="-812.4001" x2="37.0235" y2="-781.6729" gradientTransform="matrix(1 0 0 -1 0 -781.9373)">
	<stop  offset="0" style="stop-color:#FFFFFF"/>
	<stop  offset="0.5045" style="stop-color:#D6DADD"/>
	<stop  offset="1" style="stop-color:#FFFFFF"/>
</linearGradient>
<path class="st7" d="M45.217,16.336l2.112-13.007l1.956,8.903L47.721,0.155H28.085l-3.872,16.181l4.772,13.355l19.284-0.194
	l1.369-12.852L47.76,28.026L45.217,16.336z M33.522,8.594c-0.86-0.271-2.308-0.968-2.308-2.284s1.056-2.439,1.682-2.826
	s2.23-1.277,5.085-1.277c2.855,0,4.85,0.929,4.85,0.929l-1.76,2.516c0,0-0.313-0.116-0.665-0.271
	c-0.352-0.116-1.447-0.503-2.934-0.542c-1.525-0.04-1.799,0.58-1.799,0.696c-0.039,0.116-0.117,0.503,1.682,0.735
	c1.76,0.232,3.051,0.619,3.638,0.852c0.587,0.271,1.369,1.084,1.369,1.935c0,0.852-0.195,1.51-1.095,2.4
	c-0.9,0.89-2.464,1.703-5.985,1.742c-3.52,0.039-5.554-1.006-5.554-1.006s2.034-2.671,2.073-2.671c0,0,0.43,0.232,1.173,0.542
	c0.743,0.31,2.386,0.542,2.894,0.542c0.509,0,1.76-0.039,1.995-0.735C38.059,9.174,34.382,8.865,33.522,8.594z M29.532,28.994
	l-4.537-12.581l19.44-0.077L47.173,28.8L29.532,28.994z"/>
<linearGradient id="SVGID_9_" gradientUnits="userSpaceOnUse" x1="39.0145" y1="-811.9683" x2="36.4609" y2="-802.4874" gradientTransform="matrix(1 0 0 -1 0 -781.9373)">
	<stop  offset="0" style="stop-color:#FEFE00"/>
	<stop  offset="1" style="stop-color:#F8AD00"/>
</linearGradient>
<path class="st8" d="M43.692,23.574h-1.643l-0.391-1.355h-4.185l0.274,1.355l-1.643-0.039l3.638-4.994h-4.694l-4.068,5.497
	l0.626,1.858l6.728,0.039l0.43,1.471h4.225l-0.352-1.51h1.682L43.692,23.574z"/>
<linearGradient id="SVGID_10_" gradientUnits="userSpaceOnUse" x1="13.8768" y1="-811.085" x2="14.4013" y2="-783.4212" gradientTransform="matrix(1 0 0 -1 0 -781.9373)">
	<stop  offset="0" style="stop-color:#FEFE00"/>
	<stop  offset="0.2698" style="stop-color:#F8AD00"/>
	<stop  offset="0.799" style="stop-color:#F9BE00"/>
	<stop  offset="1" style="stop-color:#FDF400"/>
</linearGradient>
<path class="st9" d="M27.459,26.168l-0.391,1.819l-6.259-6.31l2.777-19.548l2.738,4.297l0.235-0.968l-2.934-4.606L3.247,1.045
	L0,21.639l8.644,6.813l19.01,0.194l0.274-1.2L27.459,26.168z M9.309,4.026l0.039-0.039h6.728L14.276,17.69H9.661l1.409-10.18H8.8
	L9.309,4.026z M8.918,27.678l-7.706-6.039h18.541l6.219,6.271L8.918,27.678z"/>
<linearGradient id="SVGID_11_" gradientUnits="userSpaceOnUse" x1="14.157" y1="-810.5059" x2="11.4929" y2="-782.3918" gradientTransform="matrix(1 0 0 -1 0 -781.9373)">
	<stop  offset="0" style="stop-color:#FEFE00"/>
	<stop  offset="0.3763" style="stop-color:#F8AD00"/>
	<stop  offset="0.799" style="stop-color:#F9BE00"/>
	<stop  offset="1" style="stop-color:#FDF400"/>
</linearGradient>
<path class="st10" d="M15.92,24.155l-4.342-1.587l-0.743,1.587l-4.381,0.31l4.811,1.316l1.213,1.587l3.559-0.736l5.085,0.774
	l-2.269-1.665l2.23-1.277L15.92,24.155z"/>
</svg>
