<svg width="1695" height="661" viewBox="0 0 1695 661" fill="none" xmlns="http://www.w3.org/2000/svg">
<path d="M689.658 257.644C689.658 266.055 699.305 270.231 709.069 270.231C718.186 270.231 727.832 266.055 727.832 258.703C727.832 246.998 714.186 246.468 705.245 245.939C682.835 244.527 660.425 235.587 660.425 210.059C660.425 183.473 683.012 169.944 708.069 169.944C731.714 169.944 755.712 183.414 755.183 210.059H725.244C725.067 201.648 717.186 198.177 708.598 198.177C701.422 198.177 691.952 200.118 691.952 209.412C691.952 217.647 698.952 219.588 710.716 220.823C736.831 223.117 759.595 229.234 759.595 258.997C759.595 284.76 734.537 298.229 709.539 298.229C683.6 298.229 658.778 285.289 659.307 257.762H689.658V257.644Z" fill="black"/>
<path d="M887.527 172.414H898.938V295.347H866.881V238.763L840.765 266.055H837.06L810.944 238.763V295.347H778.887V172.414H790.298L839.001 225.47L887.527 172.414Z" fill="black"/>
<path d="M950.346 280.054L943.346 295.288H909.878V290.936L966.11 171.532H980.814L1036.52 290.936V295.288H1003.4L996.225 280.054H950.346ZM960.698 253.291H986.108L973.344 223.705L960.698 253.291Z" fill="black"/>
<path d="M1151.74 290.583V295.112H1117.75L1096.75 256.762H1079.93V295.112H1047.87V172.591C1066.1 172.591 1083.75 172.415 1101.81 172.591C1131.39 172.591 1145.92 194.472 1145.92 216C1145.74 229.999 1139.8 243.468 1127.69 251.703L1151.74 290.583ZM1101.63 230.705C1110.57 230.705 1114.92 222.999 1114.92 215.294C1114.92 207.589 1110.75 200.413 1101.63 200.413H1079.4V230.705H1101.63Z" fill="black"/>
<path d="M1158.04 200.765V172.767H1249.09V200.765H1219.15V295.347H1188.15V200.765H1158.04Z" fill="black"/>
<path d="M1289.85 257.644C1289.85 266.055 1299.5 270.231 1309.26 270.231C1318.38 270.231 1328.03 266.055 1328.03 258.703C1328.03 246.998 1314.38 246.468 1305.44 245.939C1283.03 244.527 1260.62 235.587 1260.62 210.059C1260.62 183.473 1283.21 169.944 1308.26 169.944C1331.91 169.944 1355.91 183.414 1355.38 210.059H1325.44C1325.26 201.648 1317.38 198.178 1308.79 198.178C1301.62 198.178 1292.15 200.119 1292.15 209.412C1292.15 217.647 1299.15 219.588 1310.91 220.823C1337.03 223.117 1359.79 229.234 1359.79 258.997C1359.79 284.76 1334.73 298.229 1309.73 298.229C1283.79 298.229 1258.97 285.289 1259.5 257.762H1289.85V257.644Z" fill="black"/>
<path d="M1435.37 297.582C1402.96 297.582 1372.67 276.584 1372.67 233.999C1372.67 191.649 1404.02 170.238 1435.9 170.238C1467.25 170.238 1498.43 191.59 1498.43 233.999C1498.37 271.525 1472.49 297.582 1435.37 297.582ZM1435.55 267.29C1450.78 267.29 1466.37 255.879 1466.37 233.999C1466.37 212.118 1451.13 200.707 1435.9 200.707C1419.96 200.707 1404.73 211.588 1404.73 233.999C1404.73 255.938 1419.78 267.29 1435.55 267.29Z" fill="black"/>
<path d="M1589.42 255.762H1550.19V295.347H1518.13V172.767H1594.65V200.589H1550.19V227.705H1589.42V255.762Z" fill="black"/>
<path d="M1603.95 200.765V172.767H1695V200.765H1665.06V295.347H1634.06V200.765H1603.95Z" fill="black"/>
<path d="M722.068 364.048C746.066 364.048 769.535 375.283 776.534 400.81H762.182C755.712 383.106 740.478 377.342 722.068 377.342C693.54 377.342 675.659 399.046 675.659 426.868C675.659 455.395 693.54 476.393 722.068 476.393C747.301 476.393 765.3 462.924 767.594 436.279H724.009V423.868H781.122C781.652 435.102 780.416 445.925 776.417 455.748C767.3 478.335 746.831 490.04 722.126 490.04C687.482 490.04 661.013 464.806 661.013 426.809C661.013 388.811 687.893 364.048 722.068 364.048Z" fill="black"/>
<path d="M816.238 458.101L801.886 488.393H786.651V486.452L843.765 365.284H850.412L906.996 486.452V488.393H891.938L877.586 458.101H816.238ZM821.178 445.513H872.645L846.882 388.282L821.178 445.513Z" fill="black"/>
<path d="M1031.63 365.636H1037.22V488.393H1022.52V399.987L982.226 455.336H979.932L939.641 399.987V488.393H924.936V365.636H930.7L981.109 434.102L1031.63 365.636Z" fill="black"/>
<path d="M1117.04 476.688V488.393H1059.93V476.688H1081.1V377.4H1061.34V365.872H1115.63V377.4H1095.86V476.688H1117.04Z" fill="black"/>
<path d="M1153.1 395.752L1154.33 429.397V488.393H1139.8V365.46H1144.86L1224.74 458.277L1223.15 423.103V365.695H1237.86V488.628H1233.15L1153.1 395.752Z" fill="black"/>
<path d="M1324.03 364.048C1348.02 364.048 1371.49 375.283 1378.49 400.81H1364.14C1357.67 383.106 1342.44 377.342 1324.03 377.342C1295.5 377.342 1277.62 399.046 1277.62 426.868C1277.62 455.395 1295.5 476.393 1324.03 476.393C1349.26 476.393 1367.26 462.924 1369.55 436.279H1325.97V423.868H1383.08C1383.61 435.102 1382.37 445.925 1378.37 455.748C1369.26 478.335 1348.79 490.04 1324.08 490.04C1289.44 490.04 1262.97 464.806 1262.97 426.809C1262.97 388.811 1289.85 364.048 1324.03 364.048Z" fill="black"/>
<path d="M278.157 299.347C253.218 288.877 234.396 265.29 234.396 236.469C234.396 199.471 264.393 169.474 301.391 169.474C310.626 169.474 319.448 171.12 327.389 174.708C380.974 199.001 539.021 277.701 539.021 277.701C566.196 293.406 582.96 322.404 582.96 353.814V463.159C582.96 487.569 569.961 510.097 548.786 522.331L316.155 650.911C295.038 663.086 268.981 663.086 247.865 650.911L16.4107 514.861C10.8816 511.92 7.17603 506.156 7.17603 499.451C7.17603 495.686 8.41123 492.157 10.4111 489.275L9.94054 489.981C27.4099 463.512 58.5842 447.337 92.3466 450.748C105.463 452.042 117.757 455.983 128.226 462.453C150.343 476.158 213.926 521.684 280.51 521.684C342.388 521.684 382.209 486.981 382.209 486.981C404.737 469.512 419.265 435.926 419.265 405.222V405.339C419.265 376.459 401.56 351.755 376.386 341.462L278.157 299.347Z" fill="#ED1A3C"/>
<path d="M247.689 233.94C247.689 233.94 247.63 234.116 247.63 234.351C247.63 234.234 247.689 234.116 247.689 233.998C247.689 233.998 247.689 233.94 247.689 233.94Z" fill="url(#paint0_linear_203_8)"/>
<path d="M246.806 233.351C246.806 233.351 246.748 233.528 246.748 233.763C246.748 233.645 246.806 233.528 246.806 233.41V233.351Z" fill="url(#paint1_linear_203_8)"/>
<path d="M316.155 650.852C295.038 663.027 268.981 663.027 247.865 650.852L16.4107 514.802C10.8816 511.861 7.17603 506.097 7.17603 499.392C7.17603 495.627 8.41123 492.098 10.4111 489.216L9.94054 489.922C27.4099 463.453 58.5842 447.278 92.3466 450.689C105.463 451.983 117.757 455.924 128.226 462.394C150.343 476.099 213.926 521.625 280.51 521.625C342.388 521.625 382.209 486.922 382.209 486.922C404.737 469.453 419.265 435.867 419.265 405.163V405.281C419.265 376.4 401.56 351.696 376.386 341.403L278.216 299.347C253.277 288.877 234.454 265.29 234.454 236.469C234.454 217.823 242.042 201.001 254.277 188.884C244.16 199.001 237.925 213.117 237.925 228.528C237.925 252.585 253.1 273.113 274.393 281.054L413.618 333.756C466.556 353.578 504.259 404.692 504.259 464.57C504.259 517.155 475.202 562.975 432.205 586.797L316.155 650.852Z" fill="url(#paint2_linear_203_8)"/>
<path d="M547.668 135.358C552.785 138.77 556.138 144.593 556.138 151.181C556.138 153.769 555.609 156.239 554.667 158.533C543.551 187.178 519.258 199.883 518.552 200.236C501.083 209.118 480.261 210.059 461.968 203.824C456.027 201.824 449.734 198.589 444.675 194.884C426.441 181.59 361.269 137.24 296.509 137.24C235.631 137.24 196.398 170.238 196.398 170.238C175.223 186.061 161.342 215.882 160.107 243.939L159.989 249.821C159.989 277.231 177.458 300.759 202.221 310.523L299.979 350.637C324.507 360.637 343.094 382.988 343.094 410.398C343.094 445.572 313.567 474.041 277.157 474.041C268.099 474.041 259.335 472.453 251.571 469.1C198.81 446.043 43.2323 371.224 43.2323 371.224C16.4694 356.284 0 328.757 0 298.935V263.408V196.883C0 172.473 12.9991 149.945 34.1741 137.711L266.805 9.13172C287.921 -3.04391 313.978 -3.04391 335.094 9.13172L547.668 135.358Z" fill="#E81D33"/>
<path d="M547.668 135.358C552.785 138.77 556.138 144.593 556.138 151.181C556.138 153.769 555.609 156.239 554.667 158.533C543.551 187.178 519.258 199.883 518.552 200.236C501.083 209.118 480.261 210.059 461.968 203.824C456.027 201.824 449.734 198.589 444.675 194.884C426.441 181.59 361.269 137.24 296.509 137.24C235.631 137.24 196.398 170.238 196.398 170.238C175.223 186.061 161.342 215.882 160.107 243.939L159.989 249.821C159.989 277.231 177.458 300.759 202.221 310.523L299.979 350.637C324.507 360.637 343.094 382.988 343.094 410.398C343.094 445.572 313.567 474.041 277.157 474.041C268.099 474.041 259.335 472.453 251.571 469.1C198.81 446.043 43.2323 371.224 43.2323 371.224C16.4694 356.284 0 328.757 0 298.935V263.408V196.883C0 172.473 12.9991 149.945 34.1741 137.711L266.805 9.13172C287.921 -3.04391 313.978 -3.04391 335.094 9.13172L547.668 135.358Z" fill="url(#paint3_linear_203_8)"/>
<path d="M554.138 159.886C541.551 180.473 518.905 194.236 493.025 194.236C476.555 194.236 461.38 188.59 449.322 179.238C403.031 144.005 340.976 116.418 277.569 116.418H277.451C184.87 116.418 107.287 203.177 107.287 295.759C107.287 350.284 141.167 411.927 183.399 437.984C183.399 437.984 183.458 437.984 183.458 438.043C210.75 450.807 235.748 462.335 251.571 469.276C259.335 472.688 268.099 474.217 277.157 474.217C313.566 474.217 343.094 445.69 343.094 410.574C343.094 388.341 331.271 369.401 313.566 357.755C312.155 356.931 310.802 356.108 309.449 355.343C306.567 353.696 303.508 352.225 300.45 350.99L275.04 340.638L202.28 310.581C177.517 300.817 160.048 277.466 160.048 249.997L160.165 244.115C161.401 216.058 175.282 186.237 196.457 170.415C196.457 170.415 235.69 137.417 296.568 137.417C306.685 137.417 316.802 138.476 326.801 140.358C380.621 150.475 429.558 183.825 444.969 195.06C450.028 198.766 456.321 201.942 462.262 204C465.674 205.177 469.144 206.059 472.673 206.706C488.084 209.53 504.436 207.53 518.611 200.354C519.199 200.001 542.786 187.707 554.138 159.886Z" fill="url(#paint4_linear_203_8)"/>
<path d="M554.138 159.886C541.551 180.473 518.905 194.236 493.025 194.236C476.555 194.236 461.38 188.59 449.322 179.238C403.031 144.005 340.976 116.418 277.569 116.418H277.451C184.87 116.418 107.287 203.177 107.287 295.759C107.287 350.284 141.167 411.927 183.399 437.984C183.399 437.984 183.458 437.984 183.458 438.043C210.75 450.807 235.748 462.335 251.571 469.276C259.335 472.688 268.099 474.217 277.157 474.217C313.566 474.217 343.094 445.69 343.094 410.574C343.094 388.341 331.271 369.401 313.566 357.755C312.155 356.931 310.802 356.108 309.449 355.343C306.567 353.696 303.508 352.225 300.45 350.99L275.04 340.638L202.28 310.581C177.517 300.817 160.048 277.466 160.048 249.997L160.165 244.115C161.401 216.058 175.282 186.237 196.457 170.415C196.457 170.415 235.69 137.417 296.568 137.417C306.685 137.417 316.802 138.476 326.801 140.358C380.621 150.475 429.558 183.825 444.969 195.06C450.028 198.766 456.321 201.942 462.262 204C465.674 205.177 469.144 206.059 472.673 206.706C488.084 209.53 504.436 207.53 518.611 200.354C519.199 200.001 542.786 187.707 554.138 159.886Z" fill="url(#paint5_linear_203_8)"/>
<path d="M554.138 159.886C541.551 180.473 518.905 194.236 493.025 194.236C476.555 194.236 461.38 188.59 449.322 179.238C403.031 144.005 340.976 116.418 277.569 116.418H277.451C184.87 116.418 107.287 203.177 107.287 295.759C107.287 350.284 141.167 411.927 183.399 437.984C183.399 437.984 183.458 437.984 183.458 438.043C210.75 450.807 235.748 462.335 251.571 469.276C259.335 472.688 268.099 474.217 277.157 474.217C313.566 474.217 343.094 445.69 343.094 410.574C343.094 388.341 331.271 369.401 313.566 357.755C312.155 356.931 310.802 356.108 309.449 355.343C306.567 353.696 303.508 352.225 300.45 350.99L275.04 340.638L202.28 310.581C177.517 300.817 160.048 277.466 160.048 249.997L160.165 244.115C161.401 216.058 175.282 186.237 196.457 170.415C196.457 170.415 235.69 137.417 296.568 137.417C306.685 137.417 316.802 138.476 326.801 140.358C380.621 150.475 429.558 183.825 444.969 195.06C450.028 198.766 456.321 201.942 462.262 204C465.674 205.177 469.144 206.059 472.673 206.706C488.084 209.53 504.436 207.53 518.611 200.354C519.199 200.001 542.786 187.707 554.138 159.886Z" fill="url(#paint6_linear_203_8)"/>
<defs>
<linearGradient id="paint0_linear_203_8" x1="273.091" y1="532.157" x2="247.248" y2="229.841" gradientUnits="userSpaceOnUse">
<stop stop-color="#097A94" stop-opacity="0"/>
<stop offset="0.1165" stop-color="#15758B" stop-opacity="0.1106"/>
<stop offset="0.3135" stop-color="#236976" stop-opacity="0.2978"/>
<stop offset="0.5668" stop-color="#285555" stop-opacity="0.5385"/>
<stop offset="0.8637" stop-color="#213A2E" stop-opacity="0.8206"/>
<stop offset="1" stop-color="#192C1A" stop-opacity="0.95"/>
</linearGradient>
<linearGradient id="paint1_linear_203_8" x1="272.184" y1="531.559" x2="246.34" y2="229.243" gradientUnits="userSpaceOnUse">
<stop stop-color="#097A94" stop-opacity="0"/>
<stop offset="0.1165" stop-color="#15758B" stop-opacity="0.1106"/>
<stop offset="0.3135" stop-color="#236976" stop-opacity="0.2978"/>
<stop offset="0.5668" stop-color="#285555" stop-opacity="0.5385"/>
<stop offset="0.8637" stop-color="#213A2E" stop-opacity="0.8206"/>
<stop offset="1" stop-color="#192C1A" stop-opacity="0.95"/>
</linearGradient>
<linearGradient id="paint2_linear_203_8" x1="94.4423" y1="752.823" x2="317.128" y2="403.377" gradientUnits="userSpaceOnUse">
<stop stop-color="#ED1B32" stop-opacity="0"/>
<stop offset="0.4613" stop-color="#E91D30" stop-opacity="0.9"/>
<stop offset="0.5848" stop-color="#D91D2D" stop-opacity="0.9229"/>
<stop offset="0.7927" stop-color="#B91D26" stop-opacity="0.9615"/>
<stop offset="1" stop-color="#941A1D"/>
</linearGradient>
<linearGradient id="paint3_linear_203_8" x1="278.094" y1="-74.0919" x2="278.094" y2="523.124" gradientUnits="userSpaceOnUse">
<stop stop-color="#E81D33" stop-opacity="0"/>
<stop offset="0.5062" stop-color="#E71D2E" stop-opacity="0"/>
<stop offset="0.7711" stop-color="#B91D25" stop-opacity="0.5365"/>
<stop offset="1" stop-color="#941A1D"/>
</linearGradient>
<linearGradient id="paint4_linear_203_8" x1="144.453" y1="569.372" x2="356.435" y2="157" gradientUnits="userSpaceOnUse">
<stop stop-color="#ED1B32" stop-opacity="0"/>
<stop offset="0.3135" stop-color="#E91D30" stop-opacity="0.9"/>
<stop offset="0.5062" stop-color="#E71D2E" stop-opacity="0.94"/>
<stop offset="0.7711" stop-color="#B91D25" stop-opacity="0.9722"/>
<stop offset="1" stop-color="#941A1D"/>
</linearGradient>
<linearGradient id="paint5_linear_203_8" x1="333.147" y1="740.469" x2="330.862" y2="264.24" gradientUnits="userSpaceOnUse">
<stop stop-color="#ED1B32" stop-opacity="0"/>
<stop offset="0.4613" stop-color="#E91D30" stop-opacity="0.9"/>
<stop offset="0.5848" stop-color="#D91D2D" stop-opacity="0.9229"/>
<stop offset="0.7927" stop-color="#B91D26" stop-opacity="0.9615"/>
<stop offset="1" stop-color="#941A1D"/>
</linearGradient>
<linearGradient id="paint6_linear_203_8" x1="301.637" y1="262.397" x2="-109.497" y2="38.5578" gradientUnits="userSpaceOnUse">
<stop stop-color="#ED1B32" stop-opacity="0"/>
<stop offset="0.5062" stop-color="#E71D2E" stop-opacity="0"/>
<stop offset="0.6917" stop-color="#BC1C27" stop-opacity="0.3756"/>
<stop offset="1" stop-color="#7A1317"/>
</linearGradient>
</defs>
</svg>
