<?xml version="1.0" encoding="utf-8"?>
<!-- Generator: Adobe Illustrator 16.0.0, SVG Export Plug-In . SVG Version: 6.00 Build 0)  -->
<!DOCTYPE svg PUBLIC "-//W3C//DTD SVG 1.1//EN" "http://www.w3.org/Graphics/SVG/1.1/DTD/svg11.dtd">
<svg version="1.1" id="Слой_1" xmlns="http://www.w3.org/2000/svg" xmlns:xlink="http://www.w3.org/1999/xlink" x="0px" y="0px"
	 width="100.006px" height="11.99px" viewBox="0 0 100.006 11.99" enable-background="new 0 0 100.006 11.99" xml:space="preserve">
<g>
	<path fill="#FFFFFF" d="M9.272,0.899h6.992l0.181,2.349h-0.414c-0.155-0.98-0.181-1.162-0.544-1.549
		c-0.362-0.388-1.061-0.336-1.631-0.336h-1.787c-0.13,0-0.233,0.025-0.336,0.129c-0.078,0.104-0.13,0.232-0.104,0.361v2.994h0.777
		c0.388,0,0.776-0.155,1.009-0.439c0.285-0.387,0.44-0.877,0.415-1.394h0.414v4.206H13.83c-0.026-0.696-0.155-1.187-0.415-1.496
		c-0.285-0.312-0.673-0.465-1.087-0.465h-0.725v3.379c0,0.104,0.052,0.231,0.13,0.311c0.129,0.077,0.285,0.129,0.44,0.104h1.424
		c1.527,0,2.408-0.49,2.667-2.452h0.44l-0.155,2.916H9.273V9.053h0.389c0.181,0.024,0.363-0.026,0.518-0.13
		c0.104-0.104,0.155-0.231,0.155-0.36V1.827c0-0.129-0.026-0.259-0.129-0.36c-0.104-0.078-0.259-0.129-0.415-0.129H9.273
		L9.272,0.899L9.272,0.899z"/>
	<path fill="#FFFFFF" d="M16.134,3.763h3.159v0.413C19.06,4.151,18.801,4.2,18.568,4.28c-0.104,0.051-0.156,0.154-0.156,0.258
		c0,0.078,0.026,0.182,0.052,0.26l1.528,3.405l1.424-3.303c0.026-0.051,0.026-0.103,0.026-0.181c0-0.311-0.285-0.489-0.88-0.567
		V3.737h2.408V4.15c-0.208,0-0.415,0.078-0.57,0.207c-0.155,0.102-0.259,0.258-0.337,0.438L19.94,9.696h-0.337l-2.278-5.032
		c-0.052-0.153-0.155-0.282-0.311-0.387c-0.285-0.078-0.57-0.129-0.854-0.104L16.134,3.763z"/>
	<path fill="#FFFFFF" d="M25.197,3.581c0.75-0.024,1.449,0.284,1.968,0.853c0.543,0.594,0.829,1.395,0.803,2.219
		c0.026,0.567-0.104,1.109-0.362,1.625c-0.232,0.439-0.569,0.801-1.01,1.06c-0.439,0.258-0.932,0.387-1.424,0.387
		c-0.725,0-1.424-0.31-1.916-0.853c-1.036-1.29-1.036-3.122,0-4.413C23.747,3.892,24.446,3.581,25.197,3.581z M25.197,4.021
		c-0.466,0-0.881,0.231-1.14,0.619c-0.285,0.413-0.44,1.084-0.44,1.96c0,0.902,0.155,1.574,0.44,2.013
		C24.29,9,24.73,9.26,25.197,9.26c0.467,0,0.906-0.232,1.166-0.646c0.311-0.412,0.439-1.108,0.439-2.063
		c0-0.903-0.154-1.522-0.439-1.935C26.104,4.253,25.663,4.021,25.197,4.021L25.197,4.021z"/>
	<path fill="#FFFFFF" d="M29.857,0.796v7.895c0,0.103,0.026,0.18,0.104,0.258c0.104,0.077,0.232,0.129,0.389,0.129h0.363v0.464
		h-2.797V9.078h0.336c0.156,0,0.311-0.024,0.415-0.129c0.104-0.104,0.155-0.231,0.129-0.387V1.982
		c0.026-0.154-0.051-0.335-0.155-0.438c-0.156-0.129-0.361-0.205-0.568-0.205h-0.52V0.872L29.857,0.796z"/>
	<path fill="#FFFFFF" d="M32.811,3.659v3.819c-0.027,0.387,0.104,0.772,0.361,1.084c0.232,0.258,0.57,0.387,0.907,0.387
		c0.466,0,0.88-0.207,1.165-0.567c0.336-0.388,0.492-0.877,0.492-1.394V4.821c0-0.181-0.078-0.362-0.207-0.464
		c-0.26-0.129-0.543-0.207-0.83-0.182V3.737l2.046-0.103v4.747c0,0.182,0.052,0.36,0.182,0.516c0.155,0.13,0.336,0.182,0.517,0.182
		h0.363V9.49l-1.941,0.052l-0.129-1.136c-0.285,0.361-0.647,0.672-1.037,0.93c-0.311,0.206-0.698,0.312-1.062,0.312
		c-0.491,0.024-0.958-0.182-1.319-0.518c-0.363-0.336-0.545-0.929-0.545-1.755V4.872c0.026-0.207-0.076-0.414-0.258-0.516
		c-0.234-0.104-0.492-0.156-0.75-0.129V3.788L32.811,3.659z"/>
	<path fill="#FFFFFF" d="M38.973,1.414h0.414v2.349h3.521v0.566h-3.521v3.69c-0.025,0.258,0.053,0.516,0.233,0.748
		c0.155,0.182,0.362,0.259,0.569,0.259c0.285,0,0.543-0.155,0.725-0.388c0.232-0.388,0.363-0.825,0.336-1.289h0.414
		c-0.025,0.772-0.207,1.342-0.518,1.703c-0.31,0.36-0.776,0.565-1.269,0.565c-0.415,0.027-0.804-0.129-1.112-0.387
		C38.48,8.948,38.35,8.586,38.35,8.2V4.329h-1.009V3.892c0.414-0.052,0.776-0.258,1.035-0.568
		C38.791,2.757,38.998,2.085,38.973,1.414z"/>
	<path fill="#FFFFFF" d="M41.665,3.763l2.305-0.077v4.954c0,0.104,0.026,0.207,0.104,0.284c0.104,0.076,0.232,0.13,0.361,0.13h0.414
		v0.464h-2.822V9.053h0.363c0.155,0.024,0.285-0.026,0.389-0.13s0.129-0.231,0.129-0.389V5.027c0.025-0.18-0.053-0.387-0.207-0.516
		c-0.156-0.129-0.389-0.183-0.596-0.183h-0.467V3.763H41.665z M43.271,1.027c0.181,0,0.361,0.077,0.491,0.207
		c0.13,0.129,0.208,0.31,0.208,0.49c0,0.18-0.078,0.36-0.208,0.49c-0.284,0.258-0.698,0.258-0.983,0c-0.26-0.284-0.26-0.697,0-0.98
		C42.934,1.104,43.089,1.027,43.271,1.027L43.271,1.027z"/>
	<path fill="#FFFFFF" d="M47.751,3.581c0.75-0.024,1.45,0.284,1.968,0.853c0.543,0.594,0.828,1.395,0.803,2.219
		c0.024,0.567-0.104,1.109-0.363,1.625c-0.233,0.439-0.569,0.801-1.01,1.06c-0.439,0.258-0.932,0.387-1.424,0.387
		c-0.725,0-1.425-0.31-1.916-0.853c-1.035-1.29-1.035-3.122,0-4.413C46.299,3.892,47.025,3.581,47.751,3.581z M47.751,4.021
		c-0.468,0-0.881,0.231-1.14,0.619c-0.287,0.413-0.44,1.084-0.44,1.96c0,0.902,0.155,1.574,0.44,2.013
		C46.844,9,47.283,9.26,47.751,9.26c0.466,0,0.905-0.232,1.165-0.646c0.311-0.412,0.439-1.108,0.439-2.063
		c0-0.903-0.154-1.522-0.439-1.935C48.682,4.253,48.216,4.021,47.751,4.021L47.751,4.021z"/>
	<path fill="#FFFFFF" d="M50.391,3.763l1.918-0.128c0.075,0.412,0.153,0.851,0.182,1.264c0.229-0.387,0.543-0.697,0.906-0.929
		c0.36-0.207,0.774-0.311,1.19-0.311c0.336,0,0.674,0.077,0.957,0.232c0.285,0.181,0.492,0.412,0.623,0.723
		c0.153,0.335,0.229,0.724,0.229,1.083V8.51c-0.024,0.154,0.027,0.336,0.131,0.438c0.129,0.104,0.312,0.154,0.466,0.129h0.155v0.464
		h-2.514V9.078h0.053c0.207,0.025,0.39-0.024,0.572-0.129c0.104-0.104,0.178-0.231,0.152-0.387V6.085
		c0.025-0.413-0.076-0.825-0.258-1.188c-0.232-0.361-0.621-0.568-1.062-0.541c-0.467,0-0.881,0.205-1.166,0.566
		c-0.336,0.413-0.491,0.93-0.467,1.471v2.141c-0.024,0.156,0.026,0.336,0.155,0.439c0.13,0.103,0.312,0.153,0.492,0.129h0.156v0.465
		h-2.59V9.103h0.154c0.156,0,0.338-0.025,0.467-0.129c0.104-0.078,0.154-0.182,0.154-0.311V4.898
		c0.027-0.206-0.051-0.413-0.207-0.568c-0.154-0.129-0.361-0.205-0.568-0.18h-0.286V3.763H50.391z"/>
	<path fill="#FFFFFF" d="M64.686,1.62l0.518-0.902h0.414l0.232,3.64h-0.388c-0.313-1.033-0.676-1.807-1.088-2.271
		c-0.438-0.542-1.113-0.878-1.838-0.902c-0.519,0-1.035,0.155-1.451,0.465c-0.438,0.335-0.776,0.8-0.959,1.342
		c-0.258,0.723-0.36,1.522-0.336,2.296c-0.024,0.749,0.078,1.522,0.336,2.245c0.183,0.517,0.494,0.98,0.935,1.316
		c0.416,0.283,0.881,0.438,1.397,0.413c0.621,0.052,1.217-0.182,1.683-0.595c0.389-0.413,0.62-0.98,0.598-1.548V6.266
		c0-0.129-0.053-0.231-0.156-0.31c-0.156-0.078-0.338-0.129-0.52-0.104h-0.775V5.413h3.521v0.439H66.55
		c-0.185-0.025-0.336,0.024-0.491,0.129c-0.104,0.077-0.156,0.207-0.156,0.361v3.458h-0.416c-0.154-0.542-0.31-1.06-0.465-1.55
		c-0.261,0.466-0.646,0.853-1.113,1.137c-0.441,0.259-0.932,0.387-1.449,0.387c-0.752,0-1.502-0.206-2.15-0.593
		c-2.045-1.291-2.719-3.948-1.555-6.064c0.363-0.695,0.908-1.29,1.58-1.703c0.596-0.413,1.295-0.618,2.02-0.646
		c0.392,0,0.752,0.052,1.113,0.207C63.906,1.078,64.32,1.311,64.686,1.62z"/>
	<path fill="#FFFFFF" d="M72.97,9.078l0.104,0.182c0,0.335-0.387,0.282-0.752,0.282c-0.283,0-0.853-0.024-1.033-0.153
		c-0.182-0.129-0.26-0.311-0.414-0.696c-0.285,0.335-0.65,0.619-1.037,0.825c-0.338,0.154-0.699,0.206-1.063,0.206
		c-0.492,0.025-0.957-0.104-1.344-0.388c-0.314-0.231-0.47-0.594-0.47-0.979c0-0.594,0.362-1.109,1.063-1.497
		c0.879-0.437,1.838-0.722,2.824-0.799V5.183c0-0.311-0.132-0.594-0.392-0.8c-0.261-0.232-0.597-0.336-0.959-0.336
		c-0.31,0-0.646,0.077-0.933,0.231c-0.182,0.104-0.285,0.232-0.285,0.336c0.025,0.104,0.078,0.206,0.156,0.283
		c0.104,0.129,0.156,0.284,0.183,0.438c0,0.181-0.054,0.335-0.183,0.465c-0.131,0.13-0.285,0.181-0.465,0.181
		c-0.209,0-0.391-0.077-0.518-0.207c-0.131-0.154-0.209-0.335-0.209-0.541c0-0.413,0.234-0.775,0.701-1.109
		c0.543-0.361,1.164-0.543,1.811-0.517c0.57-0.026,1.115,0.129,1.58,0.438c0.338,0.258,0.543,0.671,0.543,1.084v3.121
		c0,0.182,0.027,0.388,0.131,0.542c0.078,0.104,0.182,0.206,0.336,0.232C72.529,9.053,72.766,9.078,72.97,9.078z M70.82,6.473
		c-1.037,0.154-1.787,0.386-2.227,0.695c-0.338,0.259-0.518,0.646-0.492,1.06c-0.024,0.283,0.076,0.541,0.258,0.748
		c0.183,0.181,0.414,0.258,0.648,0.258c0.49,0,0.932-0.206,1.268-0.541c0.363-0.362,0.545-0.878,0.545-1.395V6.473z"/>
	<path fill="#FFFFFF" d="M72.766,3.763l1.655-0.104c0.076,0.413,0.153,0.825,0.181,1.238c0.231-0.387,0.569-0.697,0.934-0.954
		c0.311-0.182,0.674-0.284,1.035-0.284c0.363-0.024,0.699,0.104,0.983,0.311c0.312,0.283,0.519,0.619,0.597,1.031
		c0.231-0.387,0.543-0.748,0.903-1.006c0.339-0.207,0.728-0.336,1.115-0.336c0.438-0.024,0.879,0.129,1.19,0.465
		c0.363,0.465,0.543,1.007,0.519,1.601v2.864c-0.026,0.129,0.024,0.258,0.129,0.36c0.156,0.104,0.338,0.154,0.519,0.129h0.26v0.464
		h-2.9V9.078h0.285c0.18,0.025,0.361-0.024,0.518-0.129c0.104-0.104,0.156-0.231,0.156-0.36V5.698
		c0.025-0.359-0.078-0.722-0.313-1.006c-0.207-0.233-0.519-0.362-0.828-0.362c-0.258,0-0.492,0.078-0.699,0.207
		c-0.207,0.155-0.389,0.361-0.492,0.595c-0.156,0.282-0.234,0.594-0.26,0.929v2.476c0,0.13,0.025,0.285,0.131,0.389
		c0.129,0.076,0.26,0.13,0.414,0.13h0.389v0.464h-2.951V9.054h0.336c0.156,0,0.338-0.026,0.468-0.13
		c0.104-0.077,0.153-0.182,0.153-0.311V5.982c0.025-0.438-0.078-0.852-0.309-1.238c-0.184-0.259-0.494-0.387-0.805-0.387
		c-0.389-0.027-0.75,0.154-1.01,0.438c-0.336,0.413-0.519,0.93-0.492,1.471v2.297c-0.025,0.129,0.025,0.258,0.131,0.36
		c0.152,0.104,0.334,0.154,0.518,0.13h0.312v0.488h-2.927V9.077h0.439c0.129,0,0.285-0.024,0.389-0.129
		c0.076-0.078,0.129-0.207,0.129-0.311v-3.79c0.025-0.183-0.053-0.336-0.153-0.465c-0.183-0.13-0.416-0.207-0.646-0.207V3.763
		H72.766z"/>
	<path fill="#FFFFFF" d="M82.941,3.763l2.067-0.077v4.954c0,0.104,0.027,0.207,0.104,0.284c0.104,0.076,0.232,0.13,0.363,0.13h0.646
		v0.488h-3.52V9.078h0.854c0.153,0.025,0.282-0.024,0.387-0.129c0.104-0.104,0.132-0.231,0.132-0.387V4.923
		c0.024-0.181-0.054-0.388-0.209-0.517c-0.154-0.129-0.388-0.18-0.597-0.18h-0.229V3.763z M84.311,1.027
		c0.182,0,0.364,0.077,0.493,0.207c0.13,0.129,0.205,0.31,0.205,0.49c0,0.18-0.075,0.36-0.205,0.49
		c-0.284,0.258-0.698,0.258-0.983,0c-0.258-0.284-0.258-0.697,0-0.98C83.977,1.104,84.132,1.027,84.311,1.027L84.311,1.027z"/>
	<path fill="#FFFFFF" d="M85.968,3.763l1.916-0.128c0.078,0.412,0.156,0.851,0.183,1.264c0.233-0.387,0.545-0.697,0.906-0.929
		c0.362-0.207,0.776-0.311,1.19-0.311c0.336,0,0.674,0.077,0.957,0.232c0.286,0.181,0.493,0.412,0.623,0.723
		c0.153,0.335,0.231,0.724,0.231,1.083V8.51C91.949,8.665,92,8.846,92.105,8.949c0.129,0.104,0.312,0.154,0.465,0.129h0.183v0.464
		h-2.563V9.078h0.051c0.207,0.025,0.39-0.024,0.57-0.129c0.104-0.104,0.182-0.231,0.156-0.387V6.085
		c0.025-0.413-0.078-0.825-0.26-1.188c-0.234-0.361-0.621-0.568-1.064-0.541c-0.465,0-0.877,0.205-1.164,0.566
		c-0.336,0.413-0.49,0.93-0.465,1.471v2.141c-0.025,0.156,0.025,0.336,0.156,0.439c0.129,0.104,0.309,0.153,0.465,0.129h0.156v0.465
		h-2.824V9.103h0.391c0.154,0,0.336-0.025,0.465-0.129c0.104-0.078,0.156-0.182,0.156-0.311V4.898
		c0.025-0.206-0.053-0.413-0.207-0.568c-0.156-0.129-0.365-0.205-0.57-0.18h-0.313L85.968,3.763z"/>
	<path fill="#FFFFFF" d="M97.154,4.073c0.414-0.413,1.554-1.032,1.939-1.032c0.209-0.025,0.416,0.025,0.596,0.154
		c0.131,0.129-0.102,0.439-0.102,0.619c0,0.13-0.051,0.284-0.129,0.387c-0.078,0.104-0.209,0.156-0.338,0.156
		c-0.232,0-0.389-0.156-0.467-0.439c-0.025-0.129-0.076-0.181-0.154-0.181c-0.361,0.129-0.725,0.336-1.01,0.593
		c0.156,0.183,0.285,0.414,0.361,0.646c0.077,0.18,0.104,0.387,0.104,0.566c0,0.335-0.076,0.672-0.258,0.955
		c-0.207,0.31-0.519,0.567-0.854,0.723c-0.36,0.206-0.752,0.31-1.166,0.31h-0.672c-0.338-0.024-0.649,0.025-0.959,0.154
		c-0.155,0.104-0.233,0.26-0.233,0.438c0,0.154,0.078,0.283,0.182,0.361c0.234,0.104,0.465,0.154,0.725,0.129l1.529-0.024
		c0.777,0,1.32,0.129,1.656,0.387c0.338,0.231,0.543,0.645,0.518,1.059c0,0.489-0.207,0.93-0.57,1.238
		c-0.543,0.465-1.344,0.723-2.406,0.723c-0.881,0-1.555-0.154-1.969-0.491c-0.311-0.181-0.49-0.515-0.518-0.852
		c0-0.257,0.129-0.489,0.336-0.671c0.313-0.231,0.699-0.387,1.088-0.438c-0.336-0.076-0.648-0.206-0.932-0.438
		c-0.207-0.181-0.313-0.438-0.313-0.723c0-0.259,0.105-0.49,0.261-0.697c0.233-0.23,0.543-0.412,0.854-0.517
		c-0.313-0.153-0.597-0.411-0.776-0.695c-0.183-0.283-0.261-0.619-0.261-0.93c0-0.542,0.233-1.059,0.647-1.394
		c0.49-0.388,1.089-0.594,1.709-0.568c0.283,0,0.57,0.054,0.83,0.129C96.663,3.788,96.923,3.917,97.154,4.073z M95.886,9.542
		c-0.752,0-1.295,0.104-1.631,0.311c-0.285,0.155-0.467,0.438-0.491,0.749c0,0.258,0.129,0.516,0.362,0.645
		c0.412,0.231,0.903,0.361,1.371,0.311c0.545,0.024,1.112-0.078,1.606-0.361c0.361-0.23,0.543-0.49,0.543-0.772
		c0-0.182-0.053-0.337-0.156-0.466c-0.129-0.153-0.311-0.283-0.518-0.336C96.609,9.568,96.249,9.516,95.886,9.542L95.886,9.542z
		 M95.523,3.97c-0.338,0-0.674,0.129-0.908,0.413c-0.26,0.31-0.387,0.723-0.36,1.135c-0.024,0.438,0.103,0.852,0.36,1.212
		c0.414,0.49,1.191,0.567,1.687,0.129c0.052-0.052,0.104-0.077,0.13-0.129c0.258-0.335,0.389-0.773,0.36-1.187
		c0.026-0.412-0.104-0.825-0.36-1.136C96.225,4.124,95.886,3.97,95.523,3.97L95.523,3.97z"/>
	<path fill="#FFFFFF" d="M99.304,3.092c0.183,0,0.361,0.077,0.492,0.207c0.129,0.129,0.207,0.31,0.207,0.489
		c0,0.181-0.078,0.361-0.207,0.49c-0.285,0.258-0.701,0.258-0.983,0c-0.261-0.283-0.261-0.697,0-0.979
		C98.968,3.169,99.122,3.092,99.304,3.092L99.304,3.092z"/>
	<path fill="#A3A3A3" d="M6.812,9.594H6.683V9.388h0.052c0.052,0,0.077,0,0.129,0C6.89,9.414,6.916,9.44,6.916,9.466
		C6.942,9.542,6.89,9.594,6.812,9.594L6.812,9.594 M7.046,9.49c0-0.051-0.026-0.129-0.078-0.154
		c-0.052-0.052-0.13-0.052-0.207-0.052H6.553v0.671h0.13V9.697h0.104l0.129,0.258h0.13L6.89,9.697
		C7.02,9.646,7.072,9.568,7.046,9.49 M6.812,10.136c-0.285,0-0.518-0.232-0.518-0.518c0-0.283,0.233-0.516,0.518-0.516
		s0.519,0.231,0.519,0.516S7.097,10.136,6.812,10.136 M6.812,8.974c-0.362,0-0.647,0.284-0.647,0.645
		c0,0.361,0.285,0.646,0.647,0.646c0.363,0,0.648-0.284,0.648-0.646C7.46,9.26,7.149,8.974,6.812,8.974L6.812,8.974"/>
	
		<linearGradient id="SVGID_1_" gradientUnits="userSpaceOnUse" x1="236.832" y1="-807.0569" x2="236.2179" y2="-812.7946" gradientTransform="matrix(1 0 0 -1 -233.2002 -803.8716)">
		<stop  offset="0" style="stop-color:#DADCDF"/>
		<stop  offset="1" style="stop-color:#A8A8A8"/>
	</linearGradient>
	<path fill="url(#SVGID_1_)" d="M0.003,0.615c3.082-1.65,7.069,0.077,7.354,4.258C1.66,5.31,0.961,2.757,0.003,0.615z"/>
	
		<linearGradient id="SVGID_2_" gradientUnits="userSpaceOnUse" x1="237.3291" y1="-807.1082" x2="236.7149" y2="-812.8482" gradientTransform="matrix(1 0 0 -1 -233.2002 -803.8716)">
		<stop  offset="0" style="stop-color:#DADCDF"/>
		<stop  offset="1" style="stop-color:#A8A8A8"/>
	</linearGradient>
	<path fill="url(#SVGID_2_)" d="M0.003,9.542c3.082,1.651,7.043-0.103,7.354-4.257C1.66,4.821,0.961,7.4,0.003,9.542z"/>
	
		<radialGradient id="SVGID_3_" cx="235.5898" cy="-809.3069" r="5.8899" gradientTransform="matrix(0.9984 0 0 -0.9949 -233.2867 -801.2817)" gradientUnits="userSpaceOnUse">
		<stop  offset="0" style="stop-color:#C2C2C2"/>
		<stop  offset="0.22" style="stop-color:#BDBDBD"/>
		<stop  offset="0.46" style="stop-color:#B0B0B0"/>
		<stop  offset="0.72" style="stop-color:#999999"/>
		<stop  offset="0.99" style="stop-color:#7A7A7A"/>
		<stop  offset="1" style="stop-color:#787878"/>
	</radialGradient>
	<path fill="url(#SVGID_3_)" d="M6.295,1.905c-1.476-1.91-4.169-2.477-6.292-1.29c0.854,1.908,1.501,4.182,5.722,4.31
		C6.243,4.021,6.45,2.963,6.295,1.905L6.295,1.905z M1.038,7.427c0.129,0,0.233,0.026,0.362,0.026c1.657,0,3.185-0.826,4.118-2.193
		C2.98,5.389,1.789,6.292,1.038,7.427L1.038,7.427z"/>
</g>
</svg>
