<?xml version="1.0" encoding="utf-8"?>
<!-- Generator: Adobe Illustrator 16.0.0, SVG Export Plug-In . SVG Version: 6.00 Build 0)  -->
<!DOCTYPE svg PUBLIC "-//W3C//DTD SVG 1.1//EN" "http://www.w3.org/Graphics/SVG/1.1/DTD/svg11.dtd">
<svg version="1.1" id="Слой_1" xmlns="http://www.w3.org/2000/svg" xmlns:xlink="http://www.w3.org/1999/xlink" x="0px" y="0px"
	 width="100px" height="33px" viewBox="0 0 100 33" enable-background="new 0 0 100 33" xml:space="preserve">
<title>743CEEC9-2564-40D2-900E-D8F91EEE2054</title>
<desc>Created with sketchtool.</desc>
<path fill="#FFFFFF" d="M34.4,18.3L28.7,32.9h2.7c0.3,0,0.5-0.101,0.7-0.2c0.2-0.2,0.3-0.3,0.4-0.5l0.9-2.601H39l0.9,2.5
	c0.1,0.2,0.2,0.4,0.4,0.5c0.2,0.101,0.4,0.2,0.7,0.2h2.6l-5.7-14.6h-3.5V18.3z M34.1,27.3l1.3-4c0.1-0.3,0.2-0.6,0.3-0.899
	c0.1-0.301,0.2-0.7,0.3-1.101c0.1,0.4,0.2,0.8,0.3,1.101c0.1,0.3,0.2,0.6,0.3,0.899l1.4,4H34.1z"/>
<path fill="#FFFFFF" d="M19.8,22.2c0.4-0.4,0.8-0.7,1.3-0.9s1.1-0.3,1.7-0.3c0.3,0,0.7,0,0.9,0.1c0.2,0.101,0.5,0.101,0.8,0.2
	c0.3,0.101,0.5,0.2,0.7,0.3C25.4,21.7,25.7,21.9,26,22c0.3,0.2,0.5,0.2,0.8,0.2c0.2-0.101,0.4-0.2,0.6-0.4l1-1.5
	c-0.3-0.3-0.6-0.5-1-0.8c-0.4-0.2-0.8-0.4-1.2-0.6c-0.4-0.2-0.9-0.301-1.5-0.4c-0.5-0.1-1.1-0.1-1.7-0.1c-1.2,0-2.3,0.199-3.2,0.6
	c-0.9,0.4-1.8,0.9-2.4,1.5c-0.7,0.7-1.2,1.4-1.6,2.4c-0.4,1-0.5,1.899-0.5,3c0,1.1,0.2,2.1,0.6,3c0.4,0.899,0.9,1.699,1.6,2.399
	s1.6,1.2,2.5,1.601c0.9,0.399,2.1,0.6,3.3,0.6c0.9,0,1.8-0.1,2.7-0.4c0.9-0.199,1.7-0.6,2.4-1.199v-6.2h-5.2V27.6
	c0,0.2,0.1,0.301,0.2,0.4s0.3,0.2,0.5,0.2h1.5v2.2c-0.3,0.1-0.6,0.199-1,0.3c-0.3,0.1-0.7,0.1-1.1,0.1c-0.7,0-1.3-0.1-1.8-0.3
	s-1-0.5-1.4-0.9c-0.4-0.399-0.7-0.899-0.9-1.5c-0.2-0.6-0.3-1.3-0.3-2.1c0-0.7,0.1-1.3,0.3-1.9C19.2,23.1,19.5,22.6,19.8,22.2z"/>
<path fill="#D13832" d="M59.8,0.2c-0.1,0-0.2,0-0.3,0.1c-0.1,0-0.2,0.1-0.2,0.2c-0.1,0.1-0.1,0.2-0.2,0.3L55.3,8
	C55.2,8.3,55,8.5,54.9,8.8c-0.101,0.3-0.2,0.6-0.4,0.9c-0.1-0.3-0.2-0.6-0.4-0.8C54,8.6,53.8,8.4,53.7,8.1L50,0.7
	c-0.1-0.1-0.1-0.2-0.2-0.3c-0.1-0.1-0.1-0.1-0.2-0.2c-0.1,0-0.2-0.1-0.3-0.1c-0.1,0-0.2,0-0.4,0h-2.6v14.6h3V6.4c0-0.2,0-0.4,0-0.6
	c0-0.2,0-0.5-0.1-0.7l3.899,7.5c0.101,0.2,0.301,0.4,0.5,0.5c0.2,0.1,0.4,0.2,0.7,0.2h0.5c0.3,0,0.5-0.1,0.7-0.2s0.4-0.3,0.5-0.5
	L59.9,5c0,0.2,0,0.5-0.101,0.7c0,0.2,0,0.4,0,0.6v8.4h3V0.2h-2.6C60.1,0.2,59.9,0.2,59.8,0.2z"/>
<path fill="#D13832" d="M19.8,14.6c0.1,0,0.8,0,1.1,0c0.3,0,0.6-0.1,0.9-0.2c0.4-0.1,0.8-0.3,0.8-0.3s0,0,0.1,0
	c0.1,0,0.2-0.1,0.3-0.1c0,0,0.1,0,0.1-0.1c0.1,0,0.2-0.1,0.3-0.1c0,0,0.1,0,0.1-0.1c0.3-0.1,0.5-0.3,0.8-0.5l0.1-0.1
	c0.1-0.1,0.2-0.1,0.3-0.2l0.1-0.1c0.1-0.1,0.2-0.1,0.3-0.2l0.1-0.1c0.1-0.1,0.2-0.2,0.3-0.2c0,0,0.1,0,0.1-0.1c0,0,0,0,0.1,0
	c0.2-0.1,0.3-0.3,0.5-0.4l0.1-0.1c0.1-0.1,0.3-0.2,0.4-0.3c0.1-0.1,0.1-0.1,0.2-0.1c0,0,0.1,0,0.1-0.1c0.1-0.1,0.2-0.2,0.3-0.3
	c0.1-0.1,1.5-1.5,2.5-2.7c1-1.2,2.1-2.6,3.2-3.9c0.9-1,2.1-1.6,3.6-1.6c1.1,0,2.2,0.4,3,1.1l-1.1,0.8L43.7,7l-0.5-5.6l-1.3,0.9
	C40.5,0.8,38.7,0,36.7,0c-2.3,0-4.3,1-5.6,2.6l0,0c-0.1,0.1-4.1,5-5.8,6.6c-0.1,0.1-0.2,0.2-0.3,0.2c0,0,0,0-0.1,0
	c-0.1,0.1-0.2,0.2-0.4,0.3c0,0-0.1,0-0.1,0.1c-0.1,0.1-0.2,0.2-0.3,0.3c0,0-0.1,0-0.1,0.1c-0.1,0.1-0.1,0.1-0.2,0.2
	c0,0-0.1,0-0.1,0.1c0,0-0.1,0-0.1,0.1c-0.1,0.1-0.2,0.1-0.3,0.2c0,0-0.1,0-0.1,0.1L23.1,11c0,0,0,0-0.1,0c-0.1,0.1-0.2,0.1-0.2,0.1
	s-0.1,0-0.1,0.1c-0.1,0-0.1,0.1-0.2,0.1c-0.5,0.3-0.9,0.4-1.2,0.5C21,11.9,20.6,12,20.1,12c-2.6-0.1-4.7-2.4-4.5-5
	c0.2-2.3,2.1-4.2,4.4-4.3c1.5-0.1,2.8,0.5,3.8,1.5c0.2,0.2,1.5,1.6,1.8,1.9c0.5-0.5,1.7-1.9,1.8-2c-0.2-0.3-1.2-1.4-1.3-1.4
	c-1.4-1.6-3.5-2.6-5.8-2.6c-3.8,0.1-7,3.1-7.2,6.9C12.8,11,15.9,14.4,19.8,14.6z"/>
<path fill="#FFFFFF" d="M58.2,18.3c-0.101,0-0.2,0-0.3,0.101c-0.101,0-0.2,0.1-0.2,0.199C57.6,18.7,57.6,18.8,57.5,18.9L53.7,26.3
	c-0.101,0.3-0.3,0.5-0.4,0.8C53.2,27.4,53.1,27.7,52.9,28c-0.101-0.3-0.2-0.6-0.4-0.8c-0.1-0.3-0.3-0.5-0.4-0.8L48.3,19
	c-0.1-0.1-0.1-0.2-0.2-0.3C48,18.6,48,18.6,47.9,18.5c-0.1,0-0.2-0.1-0.3-0.1s-0.2,0-0.4,0h-2.6V33h3v-8.4c0-0.199,0-0.399,0-0.6
	s0-0.5-0.1-0.7l3.9,7.5c0.1,0.2,0.3,0.4,0.5,0.5C52.1,31.4,52.3,31.5,52.6,31.5h0.5c0.301,0,0.5-0.1,0.7-0.2
	c0.2-0.1,0.4-0.3,0.5-0.5l3.9-7.5c0,0.2,0,0.5-0.101,0.7c-0.1,0.2,0,0.4,0,0.6V33h3V18.3h-2.6C58.5,18.3,58.4,18.3,58.2,18.3z"/>
<path fill="#D13832" d="M36.7,12h-0.1c-0.3,0-0.7,0-1.6-0.4s-1.1-0.6-1.7-1.1c-0.4-0.3-0.9-0.8-1.4-1.3c-0.5,0.6-1.7,1.9-1.8,2
	c0.5,0.5,1.6,1.4,2,1.8L32,12.9c1,0.8,2.2,1.4,3.5,1.6c0.4,0.1,0.8,0.1,1.1,0.1c0.4,0,0.7,0,1-0.1c2.9-0.4,5.4-2.4,6.2-5.2l-2.4-1.1
	C40.9,10.4,39,12,36.7,12z"/>
<path fill="#D13832" d="M94.7,9c0,0.2,0.1,0.3,0.2,0.4c0.1,0.1,0.3,0.2,0.5,0.2h1.5v2.2c-0.301,0.1-0.601,0.2-1,0.3
	c-0.301,0.1-0.7,0.1-1.101,0.1c-0.7,0-1.3-0.1-1.8-0.3c-0.5-0.2-1-0.5-1.4-0.9C91.2,10.6,90.9,10.1,90.7,9.5s-0.3-1.3-0.3-2.1
	c0-0.7,0.1-1.3,0.3-1.9c0.1-0.5,0.3-1,0.7-1.4c0.399-0.4,0.8-0.7,1.3-0.9c0.5-0.2,1.1-0.3,1.7-0.3c0.3,0,0.699,0,0.899,0.1
	s0.5,0.1,0.8,0.2c0.301,0.1,0.5,0.2,0.7,0.3s0.5,0.3,0.8,0.4C97.9,4.1,98.1,4.1,98.4,4.1C98.6,4,98.8,3.9,99,3.7l1-1.5
	c-0.3-0.3-0.6-0.5-1-0.8c-0.4-0.2-0.8-0.4-1.2-0.6C97.4,0.6,96.9,0.5,96.3,0.4C95.7,0.1,95.2,0,94.5,0c-1.2,0-2.3,0.2-3.2,0.6
	c-1,0.4-1.8,0.9-2.399,1.5c-0.7,0.7-1.2,1.4-1.601,2.4c-0.399,0.9-0.5,1.9-0.5,3s0.2,2.1,0.601,3c0.399,0.9,0.899,1.7,1.6,2.4
	c0.7,0.7,1.6,1.2,2.5,1.6c1,0.4,2.1,0.6,3.3,0.6c0.9,0,1.8-0.1,2.7-0.4c0.9-0.2,1.7-0.6,2.4-1.2V7.2h-5.2V9z"/>
<rect x="65.7" y="0.2" fill="#D13832" width="3.399" height="14.6"/>
<path fill="#D13832" d="M8.5,7.2C9,7,9.4,6.8,9.7,6.6c0.3-0.2,0.6-0.5,0.8-0.7c0.2-0.3,0.3-0.6,0.4-0.9S11,4.4,11,4.1
	c0-0.6-0.1-1.1-0.3-1.6c-0.2-0.5-0.5-0.9-1-1.2C9.3,0.9,8.7,0.6,8,0.4C7.3,0.2,6.4,0.2,5.4,0.2H0v14.6h5.9c0.9,0,1.7-0.1,2.3-0.3
	c0.7-0.2,1.3-0.5,1.7-0.9c0.5-0.4,0.8-0.9,1.1-1.4c0.2-0.5,0.4-1.1,0.4-1.7c0-0.8-0.2-1.5-0.7-2C10.2,7.8,9.5,7.4,8.5,7.2z M3.4,2.7
	L3.4,2.7h2c0.4,0,0.7,0,1,0.1C6.7,2.9,6.9,3,7.1,3.1c0.2,0.1,0.3,0.3,0.4,0.6c0.1,0.2,0.1,0.5,0.1,0.9S7.5,5.2,7.4,5.5
	C7.3,5.6,7.2,5.8,7,5.9C6.8,6.1,6.5,6.2,6.2,6.2c-0.3,0-0.6,0.1-1,0.1H3.4V2.7z M7.9,11c-0.1,0.2-0.2,0.4-0.3,0.6
	c-0.2,0.2-0.4,0.3-0.7,0.4c-0.3,0.1-0.7,0.2-1.1,0.2H3.4V8.6h2.4c0.4,0,0.8,0,1.1,0.1C7.1,8.8,7.4,8.9,7.5,9
	c0.2,0.1,0.3,0.3,0.4,0.5C8,9.8,8,10,8,10.3C8,10.5,8,10.7,7.9,11z"/>
<path fill="#D13832" d="M75,6.9c0-0.2,0-0.4,0-0.7c0-0.3,0-0.5-0.1-0.8l6.899,8.7c0.2,0.2,0.4,0.4,0.5,0.4c0.2,0.1,0.4,0.1,0.7,0.1
	h1.8V0.2h-3v7.7c0,0.2,0,0.5,0,0.7c0,0.3,0,0.5,0.101,0.8l-7-8.8C74.8,0.5,74.7,0.4,74.6,0.3c-0.1-0.1-0.1-0.1-0.199-0.2
	C74.3,0.1,74.2,0,74.1,0C74,0,73.9,0,73.7,0h-1.8v14.6h3V6.9H75z"/>
<path fill="#FFFFFF" d="M83.8,25.5c-0.3-0.3-0.7-0.6-1.1-0.7c-0.4-0.2-0.8-0.399-1.2-0.5c-0.4-0.1-0.8-0.3-1.2-0.399
	c-0.399-0.101-0.7-0.2-1.1-0.4c-0.4-0.2-0.601-0.3-0.7-0.5c-0.2-0.2-0.3-0.4-0.3-0.7c0-0.5,0.2-0.8,0.5-1.1s0.8-0.4,1.399-0.4
	c0.4,0,0.7,0.101,1,0.101C81.4,21,81.6,21.1,81.9,21.2c0.199,0.1,0.399,0.2,0.6,0.3s0.3,0.1,0.5,0.1s0.3,0,0.4-0.1
	c0.1-0.1,0.199-0.2,0.3-0.4l0.899-1.6C84.3,19.3,84,19,83.7,18.9C83.4,18.8,83,18.5,82.6,18.4C82.2,18.3,81.8,18.2,81.4,18.1
	C81,18,80.5,18,80.1,18c-0.8,0-1.5,0.1-2.1,0.4c-0.6,0.199-1.2,0.6-1.6,1C76,19.8,75.6,20.3,75.4,20.8
	C75.2,21.3,75.1,21.9,75.1,22.4c0,0.699,0.101,1.3,0.301,1.699C75.6,24.6,75.8,25,76.1,25.3c0.301,0.3,0.7,0.601,1,0.7
	c0.301,0.1,0.801,0.3,1.2,0.5c0.4,0.1,0.8,0.2,1.2,0.4c0.4,0.1,0.7,0.199,1,0.399c0.3,0.101,0.6,0.3,0.7,0.5
	c0.1,0.2,0.3,0.5,0.3,0.8c0,0.601-0.2,1-0.5,1.301c-0.3,0.3-0.8,0.399-1.4,0.399c-0.5,0-0.899-0.1-1.199-0.2
	C78.1,30,77.8,29.8,77.5,29.7c-0.3-0.2-0.5-0.3-0.7-0.4c-0.2-0.1-0.399-0.2-0.6-0.2s-0.3,0-0.4,0.101c-0.1,0.1-0.2,0.2-0.3,0.3
	l-1,1.6c0.3,0.301,0.6,0.5,1,0.801c0.4,0.199,0.8,0.399,1.3,0.6c0.4,0.2,0.9,0.3,1.4,0.4C78.7,33,79.1,33,79.6,33
	c0.801,0,1.601-0.1,2.2-0.4c0.7-0.199,1.2-0.6,1.7-1c0.4-0.399,0.8-0.899,1-1.5c0.2-0.6,0.4-1.199,0.4-1.899
	C84.9,27.6,84.8,27.1,84.6,26.6C84.3,26.2,84.1,25.8,83.8,25.5z"/>
<polygon fill="#FFFFFF" points="64.1,32.8 73.5,32.8 73.5,30.2 67.5,30.2 67.5,26.8 72.1,26.8 72.1,24.3 67.5,24.3 67.5,20.9 
	73.5,20.9 73.5,18.3 64.1,18.3 "/>
</svg>
