<?xml version="1.0" encoding="utf-8"?>
<!-- Generator: Adobe Illustrator 23.1.0, SVG Export Plug-In . SVG Version: 6.00 Build 0)  -->
<svg version="1.1" id="Слой_1" xmlns="http://www.w3.org/2000/svg" xmlns:xlink="http://www.w3.org/1999/xlink" x="0px" y="0px"
	 viewBox="0 0 93.2 26" style="enable-background:new 0 0 93.2 26;" xml:space="preserve">
<style type="text/css">
	.st0{fill:#FFFFFF;}
	.st1{fill:url(#SVGID_1_);}
</style>
<desc>Created with sketchtool.</desc>
<g>
	<path class="st0" d="M32.5,1.3h3l3.2,5.8h0.1L42,1.3h3v11.4h-1.9V3.8H43l-3.3,5.7h-1.8l-3.3-5.6h-0.1v8.8h-1.9L32.5,1.3z"/>
	<path class="st0" d="M45.1,12.8H43V3.9l0,0l-3.3,5.7h-1.9l0,0l-3.2-5.7v8.8h-2.1V1.3h3.1l0,0l3.2,5.8l0,0L42,1.3h3.1V12.8z
		 M43.2,12.6H45V1.4h-2.9l-3.2,5.8h-0.2l0,0l-3.2-5.8h-2.9v11.2h1.8V3.8h0.2l0,0l3.3,5.7h1.7l3.3-5.7h0.2L43.2,12.6z"/>
	<path class="st0" d="M49.1,12.8c-0.8,0-1.3-0.2-1.7-0.6c-0.4-0.5-0.6-1.1-0.6-1.7c0-0.8,0.3-1.4,0.8-1.9c0.5-0.4,1.3-0.7,2.4-0.8
		l1.9-0.1V7.4c0-0.3,0-0.5-0.1-0.8c0-0.2-0.1-0.4-0.3-0.5s-0.4-0.2-0.6-0.3c-0.3-0.1-0.6-0.1-0.9-0.1c-0.4,0-0.8,0-1.2,0.1
		S47.9,5.9,47.4,6l-0.1-1.5c1-0.2,2-0.3,3.1-0.3c1.2,0,2.1,0.2,2.7,0.7C53.7,5.3,54,6.1,54,7v5.6h-1.7l-0.2-1H52
		C51.1,12.4,50.1,12.8,49.1,12.8z M50,11.3c0.3,0,0.7-0.1,1-0.2c0.3-0.1,0.6-0.3,0.9-0.5V8.9L50.6,9c-0.6,0.1-1,0.2-1.3,0.4
		s-0.4,0.6-0.4,0.9C48.9,10.9,49.2,11.3,50,11.3z"/>
	<path class="st0" d="M49.1,12.9c-0.8,0-1.4-0.2-1.8-0.6c-0.4-0.4-0.6-1-0.6-1.8S47,9,47.5,8.6s1.3-0.7,2.4-0.8l1.9-0.1V7.5
		c0-0.2,0-0.5-0.1-0.7c0-0.2-0.1-0.3-0.3-0.4c-0.2-0.1-0.3-0.2-0.5-0.2c-0.7-0.1-1.4-0.1-2.1,0c-0.4,0-0.9,0.1-1.4,0.2h-0.1
		l-0.1-1.7h0.1c1-0.2,2.1-0.3,3.1-0.3c1.2,0,2.2,0.2,2.8,0.7s0.9,1.2,0.9,2.2V13h-1.9L52,12l0,0C51.1,12.5,50.1,12.8,49.1,12.9z
		 M50,5.8c0.3,0,0.6,0,0.9,0.1c0.2,0,0.4,0.1,0.6,0.3c0.2,0.1,0.3,0.3,0.3,0.5c0.1,0.3,0.1,0.5,0.1,0.8v0.3l-2,0.1
		C48.8,8,48,8.2,47.6,8.6c-0.5,0.4-0.7,1-0.7,1.8c0,0.6,0.2,1.2,0.6,1.7c0.4,0.4,0.9,0.6,1.7,0.6c1,0,2-0.4,2.8-1.1l0,0h0.2l0.2,1
		H54V7c0-0.9-0.3-1.6-0.9-2s-1.5-0.6-2.8-0.6c-1,0-2,0.1-3,0.3l0.1,1.4C47.8,6,48.3,6,48.7,5.9C49.2,5.8,49.6,5.8,50,5.8L50,5.8z
		 M50,11.4c-0.7,0-1.1-0.4-1.1-1.1c0-0.4,0.1-0.7,0.4-0.9C49.5,9.2,50,9.1,50.6,9L52,8.9v1.8l0,0c-0.3,0.2-0.6,0.4-0.9,0.5
		C50.6,11.3,50.3,11.3,50,11.4L50,11.4z M51.8,9l-1.2,0.1c-0.6,0-1,0.2-1.2,0.3c-0.2,0.2-0.4,0.5-0.3,0.8c0,0.6,0.3,1,1,1
		c0.3,0,0.6-0.1,0.9-0.2c0.3-0.1,0.6-0.3,0.9-0.5L51.8,9z"/>
	<path class="st0" d="M56,4.4h1.8l0.1,1H58c0.6-0.3,1.3-0.6,2-0.8c0.5-0.2,1-0.3,1.5-0.3c0.6,0,1.2,0.2,1.7,0.6
		c0.4,0.4,0.6,1,0.6,1.7v6.1h-2.2V7.3c0-0.4,0-0.7-0.2-1C61.2,6.1,60.9,6,60.6,6c-0.4,0-0.8,0.1-1.1,0.2c-0.5,0.1-0.9,0.3-1.3,0.5v6
		h-2.1L56,4.4z"/>
	<path class="st0" d="M63.8,12.8h-2.2V7.3c0-0.3-0.1-0.7-0.2-1C61.2,6.1,60.9,6,60.6,6c-0.4,0-0.7,0.1-1.1,0.2
		c-0.4,0.1-0.9,0.3-1.3,0.5v6.1h-2.3V4.3h1.9l0.1,1l0,0c0.6-0.3,1.3-0.6,2-0.8c0.5-0.2,1-0.3,1.6-0.3s1.3,0.2,1.7,0.6
		c0.4,0.4,0.6,1,0.6,1.8V12.8z M61.7,12.6h2V6.5c0-0.7-0.2-1.3-0.6-1.7s-1-0.6-1.6-0.6c-0.5,0-1,0.1-1.5,0.2c-0.7,0.2-1.4,0.5-2,0.8
		l0,0h-0.2l-0.1-1h-1.6v8.1h2v-6l0,0c0.4-0.2,0.9-0.4,1.3-0.5c0.4-0.1,0.8-0.2,1.1-0.2c0.3,0,0.6,0.1,0.9,0.3
		c0.2,0.3,0.3,0.7,0.3,1.1L61.7,12.6z"/>
	<path class="st0" d="M69.5,12.8c-2.8,0-4.1-1.4-4.1-4.3s1.4-4.3,4.1-4.3c0.4,0,0.8,0,1.2,0.1c0.4,0,0.7,0.1,1.1,0.2v1.7
		c-0.4-0.1-0.7-0.1-1.1-0.1c-0.3,0-0.7-0.1-1-0.1c-0.8,0-1.3,0.2-1.7,0.6c-0.3,0.4-0.5,1-0.5,1.9s0.2,1.6,0.5,1.9
		c0.3,0.4,0.9,0.6,1.7,0.6c0.4,0,0.8,0,1.1,0c0.3,0,0.7-0.1,1-0.1v1.7c-0.3,0.1-0.7,0.2-1.1,0.2S69.9,12.8,69.5,12.8z"/>
	<path class="st0" d="M69.5,12.9c-2.8,0-4.2-1.5-4.2-4.4s1.4-4.3,4.2-4.3c0.4,0,0.8,0,1.2,0.1c0.4,0,0.8,0.1,1.1,0.2h0.1v1.8h-0.1
		c-0.4-0.1-0.7-0.1-1.1-0.1c-0.3,0-0.7-0.1-1-0.1c-0.8,0-1.3,0.2-1.6,0.6c-0.3,0.4-0.5,1-0.5,1.9s0.2,1.5,0.5,1.9s0.9,0.6,1.6,0.6
		c0.4,0,0.8,0,1.1,0c0.3,0,0.7-0.1,1-0.1h0.1v1.8h-0.1c-0.4,0.1-0.7,0.2-1.1,0.2C70.3,12.9,69.9,12.9,69.5,12.9z M69.5,4.3
		c-2.7,0-4.1,1.4-4.1,4.2s1.3,4.2,4.1,4.2c0.4,0,0.8,0,1.2-0.1c0.3,0,0.7-0.1,1-0.2v-1.5C71.4,11,71.1,11,70.8,11s-0.7,0-1.1,0
		c-0.8,0-1.4-0.2-1.7-0.6c-0.4-0.4-0.5-1.1-0.5-2s0.2-1.6,0.5-2s0.9-0.6,1.7-0.6c0.3,0,0.7,0,1,0.1c0.4,0,0.7,0.1,1,0.1V4.6
		c-0.3-0.1-0.7-0.1-1-0.2C70.3,4.4,69.9,4.3,69.5,4.3z"/>
	<path class="st0" d="M75.3,12.8c-0.8,0-1.3-0.2-1.7-0.6c-0.4-0.4-0.6-1-0.6-1.7c0-0.8,0.3-1.4,0.8-1.9c0.5-0.4,1.3-0.7,2.4-0.8
		l1.9-0.1V7.4c0-0.3,0-0.5-0.1-0.8c0-0.2-0.1-0.4-0.3-0.5c-0.2-0.1-0.4-0.2-0.6-0.3c-0.3-0.1-0.6-0.1-0.9-0.1c-0.4,0-0.8,0-1.2,0.1
		c-0.5,0-0.9,0.1-1.4,0.2l-0.1-1.5c1-0.2,2-0.3,3.1-0.3c1.2,0,2.1,0.2,2.7,0.7c0.6,0.4,0.9,1.2,0.9,2.1v5.6h-1.8l-0.2-1h-0.1
		C77.3,12.4,76.3,12.8,75.3,12.8z M76.2,11.3c0.3,0,0.7-0.1,1-0.2c0.3-0.1,0.6-0.3,0.9-0.5V8.9L76.8,9c-0.6,0.1-1,0.2-1.3,0.4
		s-0.4,0.6-0.4,0.9C75.1,10.9,75.5,11.3,76.2,11.3L76.2,11.3z"/>
	<path class="st0" d="M75.3,12.9c-0.8,0-1.4-0.2-1.8-0.6s-0.6-1-0.6-1.8s0.3-1.5,0.8-1.9s1.3-0.7,2.4-0.8L78,7.7V7.5
		c0-0.2,0-0.5-0.1-0.7c0-0.2-0.1-0.3-0.3-0.4c-0.2-0.1-0.3-0.2-0.5-0.2c-0.7-0.1-1.4-0.1-2.1,0c-0.4,0-0.9,0.1-1.4,0.2V6.2l-0.1-1.7
		h0.1c1-0.2,2.1-0.3,3.1-0.3c1.2,0,2.2,0.2,2.8,0.7c0.6,0.5,0.9,1.2,0.9,2.2v5.7h-1.9l-0.2-1l0,0C77.3,12.5,76.3,12.8,75.3,12.9z
		 M76.2,5.8c0.3,0,0.6,0,0.9,0.1c0.2,0,0.4,0.1,0.6,0.3C77.9,6.3,78,6.5,78,6.7c0.1,0.3,0.1,0.5,0.1,0.8v0.3l-2,0.1
		C75,8,74.2,8.2,73.8,8.6c-0.5,0.4-0.7,1-0.7,1.8c0,0.6,0.2,1.2,0.6,1.6s0.9,0.6,1.7,0.6c1,0,2-0.4,2.8-1.1l0,0h0.2l0.2,1h1.6V6.9
		c0-0.9-0.3-1.6-0.9-2s-1.5-0.7-2.7-0.7c-1,0-2,0.1-3,0.3l0.1,1.4c0.4-0.1,0.9-0.1,1.3-0.2C75.4,5.8,75.8,5.8,76.2,5.8L76.2,5.8z
		 M76.2,11.4c-0.7,0-1.1-0.4-1.1-1.1c0-0.4,0.1-0.7,0.4-0.9c0.2-0.2,0.7-0.3,1.3-0.4l1.4-0.1v1.8l0,0c-0.3,0.2-0.6,0.4-0.9,0.5
		C76.8,11.3,76.5,11.3,76.2,11.4L76.2,11.4z M78,9l-1.2,0.1c-0.6,0-1,0.2-1.2,0.3c-0.2,0.2-0.4,0.5-0.3,0.8c0,0.6,0.3,1,1,1
		c0.3,0,0.6-0.1,0.9-0.2c0.3-0.1,0.6-0.3,0.9-0.5L78,9z"/>
	<path class="st0" d="M82.2,0.3h2.1v12.4h-2.1V0.3z"/>
	<path class="st0" d="M84.4,12.8h-2.3V0.2h2.3V12.8z M82.3,12.6h2V0.4h-2V12.6z"/>
	<path class="st0" d="M88.2,12.8c-0.8,0-1.3-0.2-1.7-0.6c-0.4-0.5-0.6-1.1-0.6-1.7c0-0.8,0.2-1.4,0.8-1.9c0.5-0.4,1.3-0.7,2.4-0.8
		l2-0.1V7.4c0-0.3,0-0.5-0.1-0.8c0-0.2-0.1-0.4-0.3-0.5c-0.2-0.1-0.4-0.2-0.6-0.3c-0.3-0.1-0.6-0.1-0.9-0.1c-0.4,0-0.8,0-1.2,0.1
		S87.1,5.9,86.6,6l-0.1-1.5c1-0.2,2-0.3,3.1-0.3c1.2,0,2.1,0.2,2.7,0.7c0.6,0.4,0.9,1.2,0.9,2.1v5.6h-1.7l-0.2-1h-0.1
		C90.2,12.4,89.2,12.8,88.2,12.8z M89.1,11.3c0.3,0,0.7-0.1,1-0.2c0.3-0.1,0.6-0.3,0.9-0.5V8.9L89.7,9c-0.6,0.1-1,0.2-1.3,0.4
		S88,10,88,10.3C88,10.9,88.4,11.3,89.1,11.3z"/>
	<path class="st0" d="M88.2,12.9c-0.8,0-1.4-0.2-1.8-0.6s-0.6-1-0.6-1.8s0.3-1.5,0.8-1.9s1.3-0.7,2.4-0.8l1.9-0.1V7.5
		c0-0.2,0-0.5-0.1-0.7c0-0.2-0.1-0.3-0.3-0.4c-0.2-0.1-0.3-0.2-0.5-0.2c-0.7-0.1-1.4-0.1-2.1,0c-0.4,0-0.9,0.1-1.4,0.2h-0.1
		l-0.1-1.7h0.1c1-0.2,2.1-0.3,3.1-0.3c1.2,0,2.2,0.2,2.8,0.7s0.9,1.2,0.9,2.2V13h-1.9l-0.2-1l0,0C90.3,12.4,89.2,12.8,88.2,12.9z
		 M89.1,5.8c0.3,0,0.6,0,0.9,0.1c0.2,0,0.4,0.1,0.6,0.3c0.2,0.1,0.3,0.3,0.3,0.5C91,7,91,7.2,91,7.5v0.3l-2,0.1
		c-1.1,0.1-1.9,0.3-2.3,0.7C86.2,9,86,9.6,86,10.4c0,0.6,0.2,1.2,0.6,1.7c0.4,0.4,0.9,0.6,1.7,0.6c1,0,2-0.4,2.8-1.1l0,0h0.2l0.2,1
		h1.6V7c0-0.9-0.3-1.6-0.9-2s-1.5-0.7-2.7-0.7c-1,0-2,0.1-3,0.3L86.6,6c0.4-0.1,0.9-0.1,1.3-0.2C88.3,5.8,88.7,5.8,89.1,5.8
		L89.1,5.8z M89.1,11.4c-0.7,0-1.1-0.4-1.1-1.1c0-0.4,0.1-0.7,0.4-0.9c0.2-0.2,0.7-0.3,1.3-0.4l1.4-0.1v1.8l0,0
		c-0.3,0.2-0.6,0.4-0.9,0.5C89.7,11.3,89.4,11.3,89.1,11.4L89.1,11.4z M90.9,9l-1.2,0.1c-0.6,0-1,0.2-1.2,0.3
		c-0.2,0.2-0.4,0.5-0.3,0.8c0,0.6,0.3,1,1,1c0.3,0,0.6-0.1,0.9-0.2c0.3-0.1,0.6-0.3,0.9-0.5L90.9,9z"/>
	
		<linearGradient id="SVGID_1_" gradientUnits="userSpaceOnUse" x1="119.5209" y1="819.868" x2="142.5748" y2="842.9219" gradientTransform="matrix(1 0 0 1 -118.42 -818.78)">
		<stop  offset="2.000000e-02" style="stop-color:#FFCE00"/>
		<stop  offset="0.44" style="stop-color:#FF1C03"/>
		<stop  offset="1" style="stop-color:#DE0021"/>
	</linearGradient>
	<path class="st1" d="M21.6,18c-3.2-0.2-5.2-2.2-5.2-5.4s2-5.2,5.2-5.4c2.1-0.1,3.7-1.7,3.6-3.7C25.1,1.6,23.6,0,21.6,0
		S17.9,1.5,18,3.5c0.1,2.5-1,4-3.2,4.8c-2.3,0.9-4.3,0.4-6.2-1.1C7.7,6.5,7.3,5.5,7.3,4.3c0-0.7-0.1-1.4-0.3-2
		C6.4,0.6,4.6-0.3,2.8,0.1C0.9,0.6-0.3,2.5,0.1,4.5C0.5,6,1.9,7.2,3.5,7.2c2.2,0.1,3.9,1,4.9,3c0.8,1.5,0.8,3.3,0,4.8
		c-1,2-2.8,2.9-4.9,3c-2,0.1-3.5,1.7-3.5,3.7c0.1,1.6,1.2,3,2.8,3.4c1.8,0.5,3.6-0.5,4.2-2.2c0.2-0.7,0.3-1.3,0.3-2
		c0-1.2,0.4-2.2,1.3-2.9c1.9-1.5,3.9-2,6.2-1.1c2.2,0.8,3.3,2.3,3.2,4.8c-0.1,2.1,1.6,3.6,3.6,3.5c1.9,0,3.5-1.6,3.6-3.5
		C25.2,19.7,23.7,18.1,21.6,18z"/>
	<path class="st0" d="M12.6,18c-2,0-3.6,1.7-3.6,3.6c0,2,1.7,3.6,3.6,3.6s3.6-1.7,3.6-3.6C16.2,19.6,14.6,18,12.6,18L12.6,18z"/>
	<path class="st0" d="M3.7,9c-2,0-3.6,1.6-3.6,3.6s1.6,3.6,3.6,3.6s3.6-1.6,3.6-3.6l0,0v-0.1C7.3,10.6,5.7,9,3.7,9L3.7,9z"/>
	<path class="st0" d="M25.2,12.5c-0.1-2-1.7-3.5-3.7-3.5c-2,0.1-3.6,1.8-3.5,3.8c0.1,1.9,1.6,3.4,3.5,3.5c2,0,3.6-1.5,3.7-3.5V12.5z
		"/>
	<path class="st0" d="M12.6,7.2c2,0,3.6-1.7,3.6-3.6S14.6,0.1,12.7,0C10.7-0.1,9,1.5,9,3.5c-0.1,2,1.5,3.7,3.5,3.7
		C12.5,7.2,12.6,7.2,12.6,7.2z"/>
	<path class="st0" d="M38.1,22.7c-0.3,0.4-0.7,0.7-1.2,0.8c-0.6,0.2-1.1,0.3-1.7,0.3c-0.6,0-1.2-0.1-1.7-0.4s-0.9-0.7-1.2-1.3
		c-0.3-0.6-0.4-1.3-0.4-1.9v-0.6c0-1.2,0.3-2.1,0.9-2.8c0.6-0.7,1.4-1,2.4-1c0.9,0,1.6,0.2,2.1,0.6c0.5,0.5,0.9,1.1,0.9,1.9h-1.3
		c-0.2-0.9-0.7-1.4-1.6-1.4c-0.5,0-1.1,0.2-1.4,0.7c-0.3,0.4-0.5,1.1-0.5,1.9v0.6c0,0.8,0.2,1.5,0.5,2c0.4,0.5,0.9,0.7,1.5,0.7
		c0.7,0,1.2-0.2,1.5-0.5v-1.5h-1.6v-1h3L38.1,22.7z"/>
	<path class="st0" d="M43.1,23.7c-0.1-0.2-0.1-0.4-0.2-0.5c-0.4,0.4-0.9,0.7-1.5,0.7c-0.5,0-1-0.2-1.4-0.5s-0.6-0.8-0.6-1.2
		c0-0.6,0.2-1.1,0.7-1.4s1.1-0.5,2-0.5h0.8v-0.4c0-0.3-0.1-0.5-0.2-0.7c-0.2-0.2-0.5-0.3-0.8-0.3s-0.5,0.1-0.7,0.2s-0.3,0.3-0.3,0.6
		h-1.3c0-0.3,0.1-0.6,0.3-0.9s0.5-0.5,0.9-0.7s0.8-0.3,1.2-0.2c0.6,0,1.2,0.2,1.6,0.5c0.4,0.4,0.6,0.9,0.6,1.4v2.6
		c0,0.4,0.1,0.9,0.2,1.3v0.1L43.1,23.7z M41.7,22.7c0.3,0,0.5-0.1,0.7-0.2s0.4-0.3,0.5-0.5v-1.1h-0.7c-0.4,0-0.8,0.1-1.1,0.2
		c-0.2,0.2-0.4,0.4-0.4,0.7c0,0.2,0.1,0.4,0.2,0.6C41.2,22.7,41.4,22.8,41.7,22.7z"/>
	<path class="st0" d="M46.9,17.9v0.6c0.4-0.5,1-0.7,1.7-0.7c0.8,0,1.3,0.3,1.6,0.9c0.4-0.6,1.1-0.9,1.8-0.9c0.6,0,1.1,0.2,1.4,0.5
		c0.3,0.4,0.5,0.9,0.5,1.6v3.8h-1.3v-3.8c0-0.3-0.1-0.6-0.2-0.8c-0.2-0.2-0.5-0.3-0.8-0.3s-0.5,0.1-0.7,0.2
		c-0.2,0.2-0.3,0.4-0.4,0.6v4h-1.3v-3.8c0-0.7-0.4-1-1-1c-0.5,0-0.9,0.2-1.1,0.6v4.2h-1.3v-5.8L46.9,17.9L46.9,17.9z"/>
	<path class="st0" d="M55.4,16.3c0-0.2,0.1-0.4,0.2-0.5c0.1-0.1,0.3-0.2,0.5-0.2s0.4,0.1,0.6,0.2c0.1,0.1,0.2,0.3,0.2,0.5
		s-0.1,0.4-0.2,0.5c-0.1,0.1-0.3,0.2-0.6,0.2c-0.2,0-0.4-0.1-0.5-0.2S55.4,16.5,55.4,16.3z M56.8,23.7h-1.3v-5.8h1.3V23.7z"/>
	<path class="st0" d="M59.6,17.9v0.7c0.4-0.5,1-0.8,1.7-0.8c1.2,0,1.8,0.7,1.9,2.1v3.9h-1.3V20c0-0.3-0.1-0.6-0.2-0.8
		c-0.2-0.2-0.5-0.3-0.8-0.3c-0.5,0-1,0.3-1.2,0.7v4.1h-1.3v-5.8C58.4,17.9,59.6,17.9,59.6,17.9z"/>
	<path class="st0" d="M64.4,20.7c0-0.9,0.2-1.6,0.6-2.2c0.4-0.5,1-0.8,1.7-0.8c0.6,0,1.2,0.2,1.6,0.7l0.1-0.6h1.2v5.7
		c0,0.7-0.2,1.3-0.7,1.8S67.7,26,67,26c-0.4,0-0.9-0.1-1.3-0.3c-0.4-0.1-0.7-0.4-0.9-0.7l0.6-0.8c0.4,0.5,0.9,0.7,1.5,0.7
		c0.4,0,0.7-0.1,1-0.4s0.4-0.7,0.4-1v-0.3c-0.4,0.4-0.9,0.7-1.5,0.6c-0.7,0-1.3-0.3-1.7-0.8C64.6,22.4,64.4,21.7,64.4,20.7z
		 M65.7,20.8c0,0.5,0.1,1,0.4,1.4c0.2,0.3,0.6,0.5,1,0.5c0.5,0,0.9-0.2,1.2-0.7v-2.5c-0.2-0.4-0.7-0.7-1.2-0.7c-0.4,0-0.8,0.2-1,0.5
		C65.7,19.8,65.6,20.3,65.7,20.8L65.7,20.8z"/>
</g>
</svg>
