<?xml version="1.0" encoding="utf-8"?>
<!-- Generator: Adobe Illustrator 21.0.1, SVG Export Plug-In . SVG Version: 6.00 Build 0)  -->
<svg version="1.1" id="Слой_1" xmlns="http://www.w3.org/2000/svg" xmlns:xlink="http://www.w3.org/1999/xlink" x="0px" y="0px"
	 width="100px" height="31.7px" viewBox="0 0 100 31.7" style="enable-background:new 0 0 100 31.7;" xml:space="preserve">
<style type="text/css">
	.st0{fill:#FFFFFF;}
</style>
<title>6AAB6F08-4537-4887-B5B1-77EDDD44343E</title>
<desc>Created with sketchtool.</desc>
<g>
	<path class="st0" d="M0.1,8.9c0-2.8,0-5.5,0-8.3c0-0.5,0.1-0.5,0.5-0.5c2.9,0,5.8,0,8.7,0c1,0,2,0.2,2.9,0.4c1.6,0.4,2.6,1.5,3,3.2
		c0.3,1.3,0.3,2.5-0.1,3.8c-0.5,1.5-1.5,2.4-2.9,2.8c-0.3,0.1-0.3,0.2-0.2,0.5c0.7,1.2,1.4,2.3,2.1,3.5c0.6,1,1.1,1.9,1.7,2.9
		c0.2,0.4,0.1,0.6-0.3,0.6c-0.9,0-1.8,0-2.8,0c-0.5,0-0.8-0.2-1-0.6c-0.5-0.9-1-1.7-1.5-2.6c-0.7-1.2-1.3-2.4-2-3.5
		c-0.1-0.1-0.3-0.3-0.4-0.3c-1.2,0-2.5,0-3.7,0c-0.3,0-0.4,0.1-0.4,0.4c0,2,0,4,0,6c0,0.4-0.2,0.6-0.5,0.6c-0.9,0-1.8,0-2.7,0
		c-0.3,0-0.5-0.1-0.5-0.5C0.1,14.5,0.1,11.7,0.1,8.9L0.1,8.9z M6.9,3.3L6.9,3.3C6,3.2,5.1,3.2,4.2,3.2c-0.2,0-0.5,0-0.4,0.3
		c0,1.2,0,2.5,0,3.7c0,0.3,0.1,0.4,0.4,0.4c1.4,0,2.9,0,4.3,0c0.7,0,1.4-0.1,2.1-0.3c1-0.3,1.3-1.2,1.1-2.5
		c-0.1-0.9-0.8-1.5-1.7-1.5C8.9,3.3,7.9,3.3,6.9,3.3z"/>
	<path class="st0" d="M30.4,10.3c-1.6,0-3.2,0-4.7,0c-0.2,0-0.4,0-0.4,0.3c0.1,1.3,0.3,2.7,1.5,3.5c0.7,0.5,1.5,0.6,2.3,0.6
		c2,0,4,0,6,0c0.5,0,0.6,0.1,0.6,0.6c0,0.6,0,1.3,0,1.9c0,0.3-0.1,0.5-0.5,0.5c-2.7,0-5.5,0.2-8.2-0.2c-2.4-0.3-4-1.7-5-3.8
		c-0.7-1.4-0.8-3-0.8-4.6c0-1.2,0.1-2.5,0.4-3.7c0.6-2.7,2.3-4.6,5.1-5.1c1.1-0.1,2.2-0.2,3.3-0.2c1.7-0.1,3.4,0,5.1,0
		c0.4,0,0.5,0.1,0.5,0.5c0,0.7,0,1.4,0,2c0,0.5-0.1,0.5-0.6,0.5c-1.7,0-3.5,0-5.2,0c-0.7,0-1.3,0.1-2,0.2c-1.2,0.3-1.9,1-2.3,2.2
		c-0.2,0.4-0.2,0.9-0.3,1.3c-0.1,0.3,0,0.4,0.3,0.4s0.6,0,0.9,0c2.6,0,5.2,0,7.8,0c0.1,0,0.2,0,0.2,0c1.2-0.1,1.1-0.2,1.1,1.1
		c0,0.5,0,0.9,0,1.4s-0.1,0.6-0.6,0.6C33.5,10.4,31.9,10.3,30.4,10.3L30.4,10.3z"/>
	<path class="st0" d="M67.7,13.6c-1.2,0-2.3,0-3.5,0c-0.3,0-0.4,0.1-0.5,0.4c-0.4,1.1-0.8,2.2-1.2,3.2c-0.2,0.4-0.4,0.6-0.9,0.6
		c-0.9,0-1.7,0-2.6,0c-0.6,0-0.7-0.2-0.4-0.7c0.9-2.1,1.8-4.1,2.7-6.2c1.1-2.5,2.2-5.1,3.2-7.6c0.4-0.9,0.8-1.8,1.2-2.8
		C65.8,0.2,66.1,0,66.4,0c0.9,0,1.8,0,2.8,0c0.4,0,0.6,0.2,0.8,0.5c0.8,2,1.7,4,2.5,6c0.9,2.1,1.8,4.3,2.8,6.4
		c0.6,1.4,1.2,2.9,1.8,4.3c0.2,0.4,0,0.6-0.4,0.6c-1,0-2,0-2.9,0c-0.4,0-0.6-0.2-0.7-0.5c-0.4-1.1-0.8-2.2-1.2-3.3
		c-0.1-0.3-0.3-0.4-0.6-0.4C70,13.6,68.8,13.6,67.7,13.6L67.7,13.6z M67.7,10.4L67.7,10.4c0.6,0,1.3,0,1.9,0c0.8,0,0.8,0,0.4-0.7
		c0-0.1,0-0.1-0.1-0.2c-0.7-1.8-1.4-3.7-2.1-5.5c0-0.1-0.1-0.2-0.2-0.2c0,0-0.1,0.1-0.2,0.2c-0.4,1.1-0.8,2.2-1.2,3.4
		c-0.3,0.9-0.7,1.7-1,2.6c-0.2,0.4-0.1,0.5,0.3,0.5C66.2,10.4,67,10.4,67.7,10.4z"/>
	<path class="st0" d="M45.4,6.4c0,1.8,0,3.6,0,5.4c0,1.6,0.9,2.7,2.5,2.9c0.5,0.1,0.9,0.1,1.4,0.1c1.3,0,2.7,0,4,0
		c0.3,0,0.5,0.1,0.5,0.4c0,0.7,0,1.4,0,2.1c0,0.3-0.2,0.5-0.5,0.5c-2.4,0-4.8,0.1-7.2-0.2c-1.5-0.2-2.6-1.1-3.4-2.3
		c-0.7-1-0.9-2-1-3.2c0-2.1,0-4.3,0-6.4c0-1.6,0-3.3,0-4.9c0-0.7,0.1-0.7,0.7-0.7c0.8,0,1.7,0,2.5,0c0.5,0,0.6,0.1,0.6,0.6
		C45.4,2.6,45.4,4.5,45.4,6.4L45.4,6.4z"/>
	<path class="st0" d="M81.2,15.3c-0.1-1.5,1.2-2.6,2.4-2.6c1.5,0,2.7,1.1,2.7,2.5s-1.1,2.6-2.4,2.7C82.6,18,81.2,16.8,81.2,15.3z"/>
	<path class="st0" d="M94.8,15.3c-0.1-1.5,1.3-2.6,2.5-2.6c1.5,0,2.7,1.1,2.7,2.6c0,1.4-1.1,2.6-2.5,2.6
		C96.1,17.9,94.7,16.7,94.8,15.3z"/>
	<path class="st0" d="M81.2,2.6c0-1.4,1.2-2.6,2.6-2.6s2.6,1.2,2.6,2.6s-1.2,2.6-2.6,2.6C82.5,5.3,81.2,4.2,81.2,2.6z"/>
	<path class="st0" d="M97.4,5.3c-1.1,0-2.6-1-2.6-2.7c0-1.4,1.2-2.5,2.6-2.5s2.6,1.2,2.6,2.6C100,4.1,98.8,5.3,97.4,5.3z"/>
	<path class="st0" d="M90.5,6.3c1.4,0,2.6,1.1,2.6,2.6c0,1.4-1.2,2.6-2.6,2.6c-1.5,0-2.6-1.2-2.6-2.6C87.9,7.5,89.1,6.3,90.5,6.3z"
		/>
	<path class="st0" d="M42,29.8c0.1-0.2,0.1-0.3,0.2-0.5c0.4-1.3,0.7-2.5,1.1-3.8c0.1-0.3,0.3-0.6,0.7-0.5c0.4,0,0.5,0.3,0.5,0.6
		c0.3,1.8,0.6,3.5,0.9,5.3c0,0.3,0,0.5-0.4,0.6c-0.3,0-0.4-0.2-0.4-0.5c-0.2-1.4-0.4-2.9-0.6-4.3c0-0.1-0.1-0.2-0.2-0.3
		c-0.1,0.1-0.2,0.2-0.2,0.3c-0.4,1.4-0.8,2.9-1.3,4.4c0,0.2-0.3,0.3-0.4,0.4c-0.1,0-0.3-0.2-0.4-0.3c-0.4-1.4-0.9-2.9-1.3-4.3
		c0-0.1,0-0.2-0.1-0.2c-0.1-0.1-0.1-0.1-0.2-0.2c0,0.1-0.1,0.1-0.1,0.2c-0.1,1-0.3,2-0.4,3c-0.1,0.5-0.1,1-0.2,1.5
		c0,0.3-0.2,0.5-0.5,0.5c-0.3-0.1-0.4-0.3-0.3-0.6c0.3-1.7,0.6-3.3,0.9-5c0.1-0.6,0.3-0.9,0.6-0.9s0.5,0.3,0.7,0.8
		c0.3,1.2,0.7,2.5,1.1,3.7c0,0.1,0.1,0.2,0.2,0.3C41.9,29.8,42,29.8,42,29.8z"/>
	<path class="st0" d="M74.9,28.2c0-0.9,0-1.7,0-2.6c0-0.2,0.1-0.4,0.2-0.6c0.2,0.1,0.4,0.2,0.6,0.3c0.7,0.9,1.3,1.9,2,2.9
		c0.3,0.5,0.6,1,1,1.4c0.1,0.1,0.2,0.1,0.3,0.2c0-0.1,0.1-0.2,0.1-0.3c0-1.3,0-2.6,0-3.9c0-0.2,0-0.4,0.1-0.5
		c0.2-0.2,0.5-0.1,0.6,0.1c0,0.1,0,0.2,0,0.4c0,1.7,0,3.5,0,5.2c0,0.2-0.1,0.5-0.2,0.6c-0.3,0.2-0.4-0.1-0.6-0.3
		c-1-1.4-2-2.8-2.9-4.2c-0.1-0.1-0.2-0.2-0.3-0.3c0,0.1-0.1,0.3-0.1,0.4c0,1.3,0,2.6,0,3.9c0,0.2-0.1,0.5-0.4,0.5s-0.4-0.2-0.4-0.5
		C74.9,30.1,74.9,29.1,74.9,28.2L74.9,28.2z"/>
	<path class="st0" d="M98.3,27.8c0.9-0.1,1.3-0.1,1.2,1.2c-0.1,1-0.4,1.8-1.4,2.2c-1,0.5-2.1,0.4-3-0.3c-0.4-0.3-0.7-0.8-0.9-1.3
		c-0.5-1.3-0.3-3.4,1.3-4.2c0.9-0.5,2.5-0.4,3.2,0.2c0.2,0.2,0.4,0.4,0.2,0.6c-0.2,0.3-0.4,0.1-0.7,0c-0.3-0.2-0.7-0.4-1.1-0.5
		c-0.8-0.2-1.5,0.2-2,0.8c-0.5,0.7-0.5,2.9,0.2,3.6c0.6,0.6,1.3,0.9,2,0.6c0.8-0.3,1.3-1,1.3-1.8c0-0.3-0.2-0.4-0.5-0.4
		c-0.2,0-0.4,0.1-0.6,0c-0.2,0-0.3-0.2-0.4-0.3c0.1-0.1,0.3-0.3,0.5-0.4C97.8,27.7,98.1,27.8,98.3,27.8z"/>
	<path class="st0" d="M4.5,27.8L4.5,27.8c1.4-0.1,1.2,0.4,1.2,1.2c-0.1,0.8-0.4,1.6-1.1,2.1c-0.9,0.7-2.7,0.5-3.5-0.3
		c-1.2-1.3-1.1-3.4-0.3-4.5c0.4-0.6,1-1,1.7-1.1c0.8-0.1,1.5-0.1,2.2,0.4c0.1,0.1,0.3,0.2,0.4,0.3c0.1,0,0.1,0.2,0,0.3
		s-0.3,0.1-0.5,0.1c-0.3-0.1-0.5-0.3-0.8-0.5c-1-0.5-2-0.1-2.5,0.8c-0.6,1.1-0.6,2.2,0,3.3c0.4,0.8,1.2,1.1,2,0.9
		c0.9-0.2,1.5-0.9,1.5-1.8c0-0.4-0.1-0.5-0.5-0.5c-0.2,0-0.5,0-0.7,0c-0.1,0-0.3-0.2-0.3-0.3s0.2-0.3,0.3-0.3
		C4,27.7,4.2,27.8,4.5,27.8L4.5,27.8z"/>
	<path class="st0" d="M19.3,31.1c0.1-0.4,0.3-0.6,0.4-0.9c0.6-1.6,1.2-3.1,1.8-4.7c0.1-0.2,0.3-0.5,0.5-0.5s0.5,0.2,0.6,0.4
		c0.4,1.1,0.8,2.1,1.2,3.2c0.3,0.8,0.6,1.5,0.9,2.3c0,0.1-0.1,0.3-0.1,0.5c-0.2-0.1-0.4-0.1-0.5-0.2c-0.2-0.3-0.3-0.6-0.4-0.9
		c-0.1-0.3-0.3-0.4-0.7-0.4c-0.7,0-1.3,0-2,0c-0.3,0-0.5,0.1-0.6,0.4c-0.1,0.3-0.2,0.6-0.3,0.9c-0.1,0.1-0.3,0.2-0.4,0.2
		C19.5,31.4,19.4,31.2,19.3,31.1z M22,29.4L22,29.4c0.3,0,0.6,0,0.9,0s0.4-0.1,0.3-0.4c-0.3-0.9-0.6-1.8-1-2.6
		c0-0.1-0.1-0.2-0.2-0.2c-0.1,0.1-0.2,0.1-0.2,0.2c-0.3,0.9-0.6,1.8-0.9,2.6c-0.1,0.3,0,0.4,0.3,0.4C21.5,29.4,21.7,29.4,22,29.4z"
		/>
	<path class="st0" d="M59.7,28.2c0-0.9,0-1.8,0-2.7c0-0.2,0-0.5,0.3-0.5s0.4,0.2,0.4,0.5c0,1.8,0,3.6,0,5.4c0,0.3,0,0.5-0.4,0.5
		c-0.3,0-0.3-0.3-0.3-0.5C59.6,30,59.6,29.1,59.7,28.2L59.7,28.2z"/>
</g>
</svg>
