<?xml version="1.0" encoding="utf-8"?>
<!-- Generator: Adobe Illustrator 16.0.0, SVG Export Plug-In . SVG Version: 6.00 Build 0)  -->
<!DOCTYPE svg PUBLIC "-//W3C//DTD SVG 1.1//EN" "http://www.w3.org/Graphics/SVG/1.1/DTD/svg11.dtd">
<svg version="1.1" id="Слой_1" xmlns="http://www.w3.org/2000/svg" xmlns:xlink="http://www.w3.org/1999/xlink" x="0px" y="0px"
	 width="100px" height="17px" viewBox="0 0 100 17" enable-background="new 0 0 100 17" xml:space="preserve">
<title>D41A1E93-A54C-4EB8-A439-D29FDBC2B901</title>
<desc>Created with sketchtool.</desc>
<g>
	<path fill="#FFFFFF" d="M35.3,7.4c-1.1,0-2,0.4-2.5,1.4V7.6H32V16h0.8v-3.6c0.5,1,1.3,1.399,2.5,1.399c1,0,1.8-0.3,2.3-1
		c0.5-0.6,0.8-1.3,0.8-2.2c0-0.899-0.3-1.7-0.8-2.3C37,7.7,36.3,7.4,35.3,7.4z M37.3,12.5c-0.5,0.5-1.1,0.8-2,0.8
		c-0.8,0-1.4-0.2-1.8-0.7s-0.7-1.1-0.7-1.8v-0.1c0-0.7,0.2-1.3,0.6-1.8C33.9,8.3,34.5,8,35.3,8c0.8,0,1.5,0.3,2,0.8
		c0.4,0.5,0.6,1.101,0.6,1.8C37.9,11.4,37.7,12,37.3,12.5z"/>
	<path fill="#FFFFFF" d="M95.4,8.9C94.8,8,94,7.6,93,7.6c-0.9,0-1.6,0.3-2.2,0.9C90.2,9.1,89.9,9.8,89.9,10.7
		c0,0.899,0.3,1.6,0.899,2.2C91.4,13.5,92.2,13.8,93,13.8c1.1,0,1.9-0.399,2.4-1.3v1.2h0.8V7.8h-0.8V8.9z M94.7,12.4
		C94.2,12.8,93.7,13.1,93,13.1S91.8,12.9,91.3,12.4s-0.7-1-0.7-1.7s0.2-1.2,0.7-1.7s1-0.7,1.7-0.7s1.2,0.2,1.7,0.7
		c0.5,0.4,0.7,1,0.7,1.7S95.1,11.9,94.7,12.4z"/>
	<path fill="#FFFFFF" d="M47.5,7.4c-0.5,0-0.9,0.1-1.3,0.3c-0.4,0.2-0.7,0.5-0.9,0.9v-1h-0.8v6.1h0.8V10c0-0.6,0.2-1.1,0.6-1.4
		C46.3,8.2,46.7,8,47.3,8c1.3,0,1.9,0.6,1.9,1.9V13.6H50V9.9C49.9,8.2,49.1,7.4,47.5,7.4z"/>
	<path fill="#FFFFFF" d="M55.8,7.4c-0.899,0-1.7,0.3-2.2,1C53,9,52.8,9.8,52.8,10.6c0,0.801,0.3,1.601,0.8,2.2
		c0.601,0.601,1.301,1,2.2,1c0.9,0,1.7-0.3,2.2-1c0.5-0.6,0.8-1.3,0.8-2.2C58.8,9.7,58.5,9,58,8.4C57.4,7.7,56.7,7.4,55.8,7.4z
		 M57.5,12.4c-0.4,0.5-1,0.8-1.7,0.8s-1.3-0.3-1.7-0.8C53.7,11.9,53.5,11.3,53.5,10.6c0-0.699,0.2-1.3,0.6-1.8C54.5,8.3,55,8,55.8,8
		s1.3,0.3,1.7,0.8s0.6,1.101,0.6,1.8C58,11.4,57.8,12,57.5,12.4z"/>
	<path fill="#FFFFFF" d="M68.2,7.4c-0.4,0-0.8,0.1-1.101,0.3c-0.3,0.2-0.6,0.5-0.8,0.9c-0.3-0.8-1-1.3-2-1.3
		c-0.8,0-1.399,0.4-1.8,1.1V7.6h-0.7v6.1h0.7V9.9c0-0.5,0.2-1,0.5-1.3C63.3,8.2,63.7,8,64.2,8c1,0,1.6,0.6,1.6,1.8v3.9h0.7V9.8
		c0-0.5,0.1-0.9,0.5-1.3C67.2,8.2,67.6,8,68.1,8c0.601,0,1,0.2,1.2,0.5s0.4,0.7,0.4,1.3v3.9h0.7v-4C70.4,9,70.2,8.4,69.8,8
		C69.4,7.6,68.9,7.4,68.2,7.4z"/>
	<path fill="#FFFFFF" d="M78.4,8.4c-0.5-0.7-1.2-1-2.2-1c-0.9,0-1.601,0.3-2.101,1c-0.5,0.6-0.8,1.4-0.8,2.3c0,1,0.3,1.8,0.8,2.3
		c0.5,0.6,1.2,0.9,2.101,0.9c0.8,0,1.399-0.2,2-0.7c0.399-0.4,0.7-0.9,0.8-1.5h-0.7c-0.2,0.5-0.399,0.8-0.7,1.1
		c-0.399,0.3-0.8,0.4-1.399,0.4C75.5,13.2,75,13,74.6,12.6C74.2,12.2,74,11.6,74,10.8h5.1C79.1,9.8,78.9,9,78.4,8.4z M74.1,10.3
		C74.2,9.6,74.4,9.1,74.8,8.7C75.1,8.2,75.6,8,76.2,8c1.3,0,2,0.7,2.2,2.2H74.1V10.3z"/>
	<path fill="#FFFFFF" d="M28.6,9.8c-0.4-0.2-1.2-0.5-2.4-0.8c-0.9-0.2-1.5-0.4-1.8-0.5c-0.6-0.3-0.9-0.6-0.9-1.1s0.2-0.9,0.7-1.2
		c0.4-0.2,1-0.4,1.8-0.4s1.4,0.2,1.9,0.5c0.5,0.3,0.7,0.8,0.8,1.5h0.8c-0.1-0.9-0.4-1.5-1-2c-0.6-0.4-1.4-0.7-2.4-0.7
		c-0.9,0-1.7,0.2-2.3,0.5c-0.7,0.4-1,0.9-1,1.7c0,0.7,0.4,1.2,1.1,1.6c0.3,0.2,1,0.4,2.1,0.7c1.1,0.301,1.7,0.5,2,0.601
		c0.6,0.3,0.9,0.8,0.9,1.3s-0.3,0.9-0.8,1.2s-1.2,0.399-2,0.399c-0.9,0-1.5-0.199-2-0.5c-0.5-0.399-0.8-1-0.9-1.8h-0.8
		c0.1,1,0.5,1.8,1.2,2.3c0.6,0.4,1.5,0.7,2.5,0.7c1.1,0,1.9-0.2,2.5-0.6c0.7-0.4,1-1,1-1.7C29.8,10.8,29.4,10.2,28.6,9.8z"/>
	
		<linearGradient id="SVGID_1_" gradientUnits="userSpaceOnUse" x1="0.0156" y1="8.1992" x2="16.9908" y2="8.1992" gradientTransform="matrix(1 0 0 -1 -0.0151 16.6992)">
		<stop  offset="0" style="stop-color:#78C7DC"/>
		<stop  offset="1" style="stop-color:#A568AE"/>
	</linearGradient>
	<path fill="url(#SVGID_1_)" d="M17,8.6c0-0.8-0.5-1.6-0.7-1.8C15.4,6,14.6,6,13.9,6C13.3,6,10.3,6,5,6V4.9c4.7,0,7.4,0,8,0
		c1,0,1.4,0,2.3,0.3c0.8,0.3,1.4,1.2,1.5,1c0.1-0.2-0.3-1.1-1.1-2.1c-0.6-0.6-1.6-1.6-2.4-2.3C11.6,0.4,8.8,0,7.6,0C5.4,0,2.9,0,0,0
		c0,5,0,7.6,0,8c0,0.6,0.1,1.5,1,2.2c0.8,0.6,1.5,0.6,2.6,0.7c1.1,0,3.9,0,8.3,0V12c-5.2,0-7.9,0-8,0c-1,0-1.5-0.1-1.9-0.2
		c-0.3-0.1-0.7-0.3-1-0.5c-0.5-0.3-0.9-0.7-1-0.7C-0.2,10.7,0.8,12.4,1.3,13.1c1.1,1.4,2.5,2.301,3,2.601c2.1,1.3,4,1.3,5,1.3
		c1.2,0,3.6,0,7.1,0c0.3,0,0.5-0.2,0.5-0.5l0,0C17,12.3,17,9.7,17,8.6z"/>
	<path fill="#FFFFFF" d="M41.3,5.4c-0.2,0-0.3,0.1-0.4,0.2S40.7,5.8,40.7,6s0.1,0.3,0.2,0.4s0.3,0.2,0.4,0.2c0.2,0,0.3-0.1,0.4-0.2
		c0.1-0.1,0.2-0.3,0.2-0.4c0-0.2-0.1-0.3-0.2-0.4C41.6,5.5,41.5,5.4,41.3,5.4z"/>
	<rect x="99.3" y="5.1" fill="#FFFFFF" width="0.7" height="8.6"/>
	<path fill="#FFFFFF" d="M84.6,7.4c-0.399,0-0.8,0.1-1.199,0.3C83,7.9,82.8,8.2,82.6,8.6v-1H81.9v6.1H82.6V10
		c0-0.6,0.2-1.1,0.601-1.4C83.5,8.2,84,8,84.5,8c1.2,0,1.8,0.6,1.8,1.9V13.6H87V9.9C87,8.3,86.2,7.4,84.6,7.4z"/>
	<rect x="40.9" y="7.6" fill="#FFFFFF" width="0.7" height="6.1"/>
</g>
</svg>
