<?xml version="1.0" encoding="utf-8"?>
<!-- Generator: Adobe Illustrator 16.0.0, SVG Export Plug-In . SVG Version: 6.00 Build 0)  -->
<!DOCTYPE svg PUBLIC "-//W3C//DTD SVG 1.1//EN" "http://www.w3.org/Graphics/SVG/1.1/DTD/svg11.dtd">
<svg version="1.1" id="Слой_1" xmlns="http://www.w3.org/2000/svg" xmlns:xlink="http://www.w3.org/1999/xlink" x="0px" y="0px"
	 width="100px" height="21px" viewBox="0 0 100 21" enable-background="new 0 0 100 21" xml:space="preserve">
<title>02C4DC81-8506-4D02-AAEE-90B5DC8DB0E0</title>
<desc>Created with sketchtool.</desc>
<path fill="#3E6FFB" d="M75,13.3c-0.4,0.101-0.7,0.3-1,0.601c-0.3,0.3-0.5,0.6-0.5,1.1c0,0.3,0,0.5,0.1,0.7
	c0.101,0.2,0.2,0.399,0.4,0.5c0.2,0.1,0.4,0.2,0.6,0.3c0.2,0.1,0.5,0.1,0.7,0.1c0.3,0,0.7-0.1,1-0.199
	C76.6,16.3,76.9,16.1,77.1,15.8l0,0L77,16.5h1.6l0.4-2.8c0.1-0.5,0.1-0.9,0.1-1.2s-0.1-0.6-0.3-0.9C78.6,11.4,78.4,11.2,78.1,11.1
	C77.8,11,77.4,10.9,76.9,10.9S76,11,75.6,11.1C75.2,11.2,74.8,11.5,74.4,11.8l0.8,0.9c0.2-0.2,0.399-0.4,0.7-0.5
	c0.3-0.101,0.5-0.2,0.8-0.2s0.5,0.1,0.7,0.3c0.199,0.2,0.3,0.4,0.199,0.7C77.2,13,76.9,13,76.4,13C75.8,13.1,75.4,13.2,75,13.3z
	 M76.8,14.1h0.4v0.4c0,0.2-0.101,0.3-0.2,0.5c-0.1,0.1-0.2,0.2-0.3,0.3C76.6,15.4,76.4,15.4,76.3,15.5c-0.1,0.1-0.3,0.1-0.5,0.1
	c-0.1,0-0.2,0-0.3,0s-0.2-0.1-0.2-0.1c-0.1-0.1-0.1-0.1-0.2-0.2c0-0.1,0-0.2,0-0.3c0-0.2,0.101-0.3,0.2-0.4
	c0.101-0.1,0.3-0.199,0.5-0.199C76,14.3,76.2,14.3,76.4,14.3C76.6,14.1,76.7,14.1,76.8,14.1z"/>
<path fill="#3E6FFB" d="M97.8,15.3C97.6,15.4,97.5,15.4,97.3,15.4c-0.3,0-0.5-0.101-0.7-0.2C96.4,15.1,96.3,15,96.1,14.8L94.9,15.9
	c0.199,0.3,0.5,0.5,0.899,0.6c0.4,0.1,0.8,0.2,1.101,0.2c0.3,0,0.6,0,0.899-0.101c0.3-0.1,0.601-0.199,0.9-0.3
	c0.3-0.1,0.5-0.3,0.7-0.6c0.199-0.3,0.3-0.5,0.399-0.9c0-0.3,0-0.6-0.1-0.8c-0.101-0.2-0.3-0.4-0.5-0.5s-0.4-0.2-0.7-0.3
	C98.3,13.1,98,13.1,97.8,13c-0.2,0-0.399-0.1-0.5-0.2c-0.1-0.1-0.2-0.2-0.2-0.3c0-0.2,0.101-0.3,0.2-0.3
	c0.101,0,0.3-0.101,0.4-0.101c0.399,0,0.7,0.2,0.899,0.5l1.2-1c-0.2-0.3-0.5-0.5-0.899-0.6c-0.4-0.1-0.7-0.2-1.101-0.2
	c-0.3,0-0.6,0-0.899,0.1C96.6,11,96.4,11.1,96.1,11.2c-0.199,0.1-0.399,0.3-0.6,0.6c-0.2,0.2-0.3,0.5-0.3,0.8
	C95.1,12.9,95.2,13.2,95.3,13.4c0.101,0.199,0.3,0.399,0.5,0.5c0.2,0.1,0.4,0.199,0.7,0.3c0.2,0.1,0.5,0.1,0.7,0.2
	c0.2,0,0.399,0.1,0.5,0.199c0.1,0.101,0.2,0.2,0.2,0.301C98,15.1,97.9,15.2,97.8,15.3z"/>
<path fill="#3E6FFB" d="M81.5,13.8c0-0.2,0.1-0.399,0.1-0.5c0-0.1,0.101-0.3,0.2-0.399C81.9,12.8,82,12.7,82.2,12.6
	c0.1-0.1,0.3-0.1,0.5-0.1s0.3,0,0.399,0.1C83.2,12.7,83.2,12.8,83.3,12.9c0,0.1,0,0.3,0,0.399c0,0.101,0,0.3,0,0.4L82.9,16.6H84.6
	L85,13.7c0-0.2,0.1-0.3,0.1-0.5c0.101-0.2,0.101-0.3,0.2-0.4c0.101-0.1,0.2-0.2,0.4-0.3s0.3-0.1,0.5-0.1c0.3,0,0.5,0.1,0.5,0.3
	c0.1,0.2,0.1,0.399,0.1,0.7L86.4,16.6H88l0.5-3.199c0-0.301,0.1-0.601,0-0.9c0-0.3-0.1-0.5-0.2-0.8c-0.1-0.3-0.3-0.4-0.5-0.5
	C87.6,11.1,87.3,11,86.9,11c-0.4,0-0.801,0.1-1.101,0.2C85.5,11.4,85.2,11.6,85,12c-0.1-0.3-0.3-0.6-0.6-0.7
	c-0.301-0.2-0.601-0.2-1-0.2c-0.2,0-0.4,0-0.601,0.101c-0.2,0.1-0.3,0.1-0.5,0.2C82.2,11.5,82,11.6,81.9,11.7
	C81.8,11.8,81.7,11.9,81.6,12l0,0l0.101-0.7H80.1l-0.8,5.5H81L81.5,13.8z"/>
<path fill="#FFFFFF" d="M49.1,8.4c-2.1,2.9-2.4,6.3,0.2,8.3c2,1.5,4.5,1,7.4-1.601c2.7,2.601,5.2,3.2,7.6,1.601
	c3-2.5,1.601-6.8-0.399-9C62.6,6.2,60.1,3.8,56.7,0.4c-0.7,0.7-1.4,1.4-2,2.1L52.6,0.4C52.4,0.2,52,0.2,51.7,0.4l-4.9,4.9l0,0
	c-0.2,0.2-0.2,0.6,0,0.9L49.1,8.4z M47.4,5.4L47.4,5.4L52,0.9c0.1-0.1,0.3-0.1,0.4,0L57,5.4c0.1,0.1,0.1,0.3,0,0.4l0,0l-4.6,4.5
	c-0.101,0.1-0.301,0.1-0.4,0l-4.6-4.5C47.3,5.7,47.3,5.5,47.4,5.4z"/>
<path fill="#3E6FFB" d="M89.6,15.9c0.2,0.3,0.5,0.399,0.9,0.6c0.4,0.1,0.7,0.2,1.2,0.2c0.399,0,0.899-0.101,1.3-0.3
	c0.4-0.2,0.8-0.5,1.1-0.801L93,14.7c-0.2,0.2-0.4,0.399-0.6,0.5c-0.2,0.1-0.4,0.2-0.7,0.2S91.1,15.3,90.9,15.1
	C90.7,14.9,90.6,14.7,90.6,14.3h3.9l0.1-0.5c0.101-0.399,0.101-0.8,0-1.2C94.5,12.2,94.4,11.9,94.2,11.7c-0.2-0.3-0.4-0.4-0.7-0.601
	c-0.3-0.1-0.6-0.2-1-0.2s-0.8,0.1-1.2,0.2C90.9,11.2,90.6,11.4,90.3,11.7s-0.6,0.6-0.8,0.899c-0.2,0.4-0.3,0.7-0.4,1.2
	c-0.1,0.4,0,0.8,0.101,1.2C89.3,15.4,89.4,15.6,89.6,15.9z M90.9,12.8c0.1-0.1,0.199-0.2,0.3-0.3c0.1-0.1,0.2-0.2,0.399-0.2
	c0.101-0.1,0.301-0.1,0.5-0.1c0.301,0,0.5,0.1,0.7,0.3s0.2,0.4,0.2,0.7h-2.2C90.8,13.1,90.8,12.9,90.9,12.8z"/>
<polygon fill="#FFFFFF" points="28.1,17.1 29.6,17.1 29.6,11.1 32.1,11.1 32.1,9.7 25.7,9.7 25.7,11.1 28.1,11.1 "/>
<path fill="#FFFFFF" d="M20.8,17.1l0.8-1.699h2.8l0.7,1.699h1.8l-3-7.399h-1.7L19,17.1H20.8z M22.9,11.6l1,2.5h-2L22.9,11.6z"/>
<path fill="#FFFFFF" d="M15.9,17.1h2.9v-1.3h-2.4c-0.6,0-1-0.5-1-1v-5h-1.6V15C13.7,16.1,14.7,17.1,15.9,17.1z"/>
<path fill="#FFFFFF" d="M55.3,18.3c0.7,0,2.2,0,2.8,0c-0.5-0.7-1-1.6-1.399-2.7C56.5,16.4,56.1,17.3,55.3,18.3z"/>
<path fill="#FFFFFF" d="M10,17.1c0.8,0,1.8,0,3,0v-1.3h-2.5c-0.9,0-1.7-0.8-1.7-1.7H13v-1.3H8.8c0-0.899,0.8-1.7,1.7-1.7H13V9.7
	c-1,0-2,0-3,0c-1.5,0-3,1.5-3,3.7C7,15.6,8.3,17.1,10,17.1z"/>
<path fill="#FFFFFF" d="M6.6,15.2c0-0.9-0.4-1.5-1.1-1.9c0.7-0.5,1.1-1.1,1.1-1.7c0-0.899-0.6-2-2.1-2c-0.8,0-2.3,0-4.5,0V17
	c2.4,0,4,0,4.7,0C6.2,17.1,6.6,15.9,6.6,15.2z M1.5,11c1,0,1.9,0,2.5,0c0.7,0,0.9,0.5,0.8,0.9C4.8,12.3,4.5,12.8,4,12.8
	c-0.4,0-1.2,0-2.5,0V11z M1.5,15.7V14c1.1,0,1.9,0,2.6,0C4.8,14,5,14.4,5,14.9C5,15.3,4.7,15.8,4.1,15.8C3.7,15.7,2.9,15.7,1.5,15.7
	z"/>
<path fill="#FFFFFF" d="M34,14.3c0.3,0,0.7,0,1.3,0c1.3,0,1.8,0.8,1.9,1.4c0.1,0.399,0.2,0.899,0.2,1.399h1.7
	C39,16.5,39,16,38.9,15.5c-0.1-0.7-0.5-1.2-1.2-1.6c0.9-0.301,1.3-1,1.3-2.101c0-0.9-0.6-2.1-2.1-2.1c-0.8,0-2.3,0-4.5,0V17.1H34
	V14.3z M34,11c1,0,1.9,0,2.5,0c0.7,0,0.9,0.5,0.8,1c0,0.5-0.3,1-0.8,1c-0.4,0-1.2,0-2.5,0V11z"/>
<path fill="#FFFFFF" d="M41.9,15.4h2.8l0.7,1.699h1.8l-3-7.399h-1.7L39.4,17.1h1.7L41.9,15.4z M43.3,11.6l1,2.5h-2L43.3,11.6z"/>
<path fill="#3E6FFB" d="M70.3,19.1c0.2-0.1,0.601-0.199,0.9-0.3c0.2-0.1,0.399-0.2,0.6-0.399c0.601-0.5,1-1.301,1.101-2.301l0.699-5
	H72l-0.1,0.7l0,0c-0.101-0.1-0.101-0.2-0.2-0.3c-0.101-0.1-0.2-0.2-0.4-0.3C71.2,11.1,71,11.1,70.8,11c-0.2-0.1-0.399-0.1-0.7-0.1
	C69.7,10.9,69.4,11,69,11.1c-0.3,0.2-0.6,0.4-0.9,0.601c-0.3,0.2-0.5,0.6-0.6,0.899c-0.2,0.301-0.3,0.7-0.3,1.101
	c-0.101,0.399-0.101,0.8,0,1.1c0.1,0.3,0.2,0.601,0.399,0.9c0.2,0.3,0.5,0.399,0.801,0.6c0.3,0.101,0.699,0.2,1.1,0.2
	c0.3,0,0.5-0.1,0.8-0.2c0.3-0.1,0.601-0.3,0.8-0.6l0,0L71,16.2c-0.1,0.399-0.2,0.7-0.5,1S69.8,17.6,69.3,17.6
	c-0.3,0-0.7-0.1-0.899-0.199C68.1,17.3,67.9,17.1,67.6,16.9L66.5,18.3c0.2,0.2,0.4,0.3,0.6,0.4H67c0.5,0.2,1.5,0.5,1.8,0.5
	C69.4,19.3,69.9,19.2,70.3,19.1z M71.1,14.7c-0.1,0.1-0.3,0.2-0.5,0.3c-0.199,0.1-0.399,0.1-0.5,0.1c-0.199,0-0.399,0-0.5-0.1
	c-0.199-0.1-0.3-0.2-0.399-0.3C69.1,14.6,69,14.4,69,14.3c0-0.1-0.1-0.3,0-0.5c0-0.2,0.1-0.3,0.2-0.5c0.1-0.2,0.2-0.3,0.3-0.399
	c0.1-0.101,0.3-0.2,0.5-0.301c0.2-0.1,0.4-0.1,0.6-0.1c0.2,0,0.4,0,0.5,0.1C71.2,12.7,71.4,12.8,71.5,12.9
	c0.1,0.1,0.2,0.3,0.2,0.399c0,0.2,0.1,0.3,0,0.5c0,0.2-0.101,0.3-0.2,0.5S71.3,14.6,71.1,14.7z"/>
<linearGradient id="SVGID_1_" gradientUnits="userSpaceOnUse" x1="0.0151" y1="1.2495" x2="100.0156" y2="1.2495" gradientTransform="matrix(1 0 0 -1 -0.0151 20.6992)">
	<stop  offset="0" style="stop-color:#DB42FB"/>
	<stop  offset="0.2519" style="stop-color:#2F54FB"/>
	<stop  offset="0.5697" style="stop-color:#05002A"/>
</linearGradient>
<path fill="url(#SVGID_1_)" d="M71.1,18.8C71.1,18.8,71.2,18.8,71.1,18.8c-0.3,0.101-0.6,0.3-0.8,0.3C69.9,19.2,69.4,19.2,68.9,19.3
	C68.6,19.3,67.6,19,67.1,18.8H0v1.3h100v-1.3H71.1z"/>
</svg>
