<?xml version="1.0" encoding="utf-8"?>
<!-- Generator: Adobe Illustrator 16.0.0, SVG Export Plug-In . SVG Version: 6.00 Build 0)  -->
<!DOCTYPE svg PUBLIC "-//W3C//DTD SVG 1.1//EN" "http://www.w3.org/Graphics/SVG/1.1/DTD/svg11.dtd">
<svg version="1.1" id="Слой_1" xmlns="http://www.w3.org/2000/svg" xmlns:xlink="http://www.w3.org/1999/xlink" x="0px" y="0px"
	 width="100px" height="40px" viewBox="0 0 100 40" enable-background="new 0 0 100 40" xml:space="preserve">
<title>20816139-8D1A-4A88-9642-B5B139794DE1</title>
<desc>Created with sketchtool.</desc>
<g id="Icons">
	<g>
		<g id="Artboard_8_" transform="translate(-252.000000, -226.000000)">
			<g id="Group-11_8_" transform="translate(252.000000, 226.000000)">
				<path id="Combined-Shape_8_" fill="#249CFF" d="M5.266,39.074c-1.222,0-2.136-0.465-2.721-1.119l0.532-0.676
					c0.556,0.643,1.367,1.014,2.22,1.013c1.265,0,1.668-0.675,1.668-1.225c0-1.816-4.197-0.802-4.197-3.315
					c0-1.161,1.042-1.964,2.444-1.964c1.074,0,1.913,0.37,2.507,0.993l-0.531,0.644c-0.531-0.591-1.275-0.845-2.05-0.845
					c-0.839,0-1.456,0.454-1.456,1.119c0,1.584,4.198,0.676,4.198,3.305C7.88,38.018,7.178,39.074,5.266,39.074z M20.267,38.947
					h-0.882v-6.262h-2.242v-0.781h5.376v0.781h-2.252V38.947z M35.078,39.074c-1.912,0-2.89-1.131-2.89-2.862v-4.308h0.892v4.287
					c0,1.287,0.691,2.101,1.998,2.101c1.307,0,2.008-0.813,2.008-2.101v-4.287h0.892v4.297
					C37.978,37.955,37.001,39.074,35.078,39.074z M50.557,38.166c1.723,0,2.721-1.225,2.721-2.734c0-1.521-0.967-2.746-2.721-2.746
					h-1.54v5.48H50.557z M50.557,38.947h-2.421v-7.043h2.421c2.211,0,3.635,1.531,3.635,3.527
					C54.191,37.438,52.768,38.947,50.557,38.947z M64.072,38.947v-7.043h0.881v7.043H64.072z M78.34,38.292
					c1.584,0,2.614-1.225,2.614-2.86c0-1.648-1.03-2.861-2.614-2.861c-1.594,0-2.603,1.213-2.603,2.861
					C75.737,37.067,76.746,38.292,78.34,38.292z M78.34,39.074c-2.093,0-3.516-1.563-3.516-3.643c0-2.082,1.423-3.644,3.516-3.644
					c2.094,0,3.527,1.562,3.527,3.644C81.867,37.512,80.434,39.074,78.34,39.074z M94.033,39.074c-1.223,0-2.137-0.465-2.721-1.119
					l0.531-0.676c0.557,0.643,1.367,1.014,2.221,1.013c1.265,0,1.668-0.675,1.668-1.225c0-1.816-4.197-0.802-4.197-3.315
					c0-1.161,1.041-1.964,2.444-1.964c1.073,0,1.913,0.37,2.507,0.993l-0.531,0.644c-0.531-0.591-1.274-0.845-2.051-0.845
					c-0.838,0-1.455,0.454-1.455,1.119c0,1.584,4.197,0.676,4.197,3.305C96.646,38.018,95.945,39.074,94.033,39.074z M72.479,17.181
					l9.372,7.801h13.826L81.576,13.221L95.531,1.755H82.154l-9.713,6.917l0.033-6.917H62.355v14.664H42.286V1.637L8.162,1.669
					c-0.711,0-3.155,0.131-4.717,1.816c-1.897,2.047-1.89,4.532-1.866,5.036l-0.003,9.946c-0.005,0.359,0.04,2.716,1.888,4.658
					c1.668,1.752,4,1.941,4.923,1.941c0.089,0,0.179-0.002,0.268-0.006h24.844v-0.001l30.667-0.078h8.3L72.479,17.181z
					 M84.034,13.23L100,26.545H81.279l-7.234-6.021l-0.011,6.021h-8.296L35.07,26.624v0.001L8.386,26.631
					c-1.127,0-3.978-0.236-6.066-2.43c-2.231-2.345-2.324-5.17-2.318-5.743l0.003-9.904c-0.034-0.876,0.05-3.72,2.282-6.128
					c1.996-2.153,5.001-2.321,5.875-2.321l35.698-0.032v14.782h16.923V0.192h13.273l-0.026,5.425l7.619-5.425h18.254L84.034,13.23z
					 M31.924,3.241v5.475H11.615c0,0-0.609-0.038-0.978,0.369c-0.349,0.384-0.32,0.913-0.32,0.913l-0.001,0.751h21.568v5.358H10.308
					l0.006,0.734c0,0,0.019,0.542,0.344,0.828c0.45,0.396,0.863,0.354,0.863,0.354h20.403v5.475H8.609c0,0-2.455,0.181-4.004-1.447
					c-1.502-1.578-1.458-3.571-1.458-3.571L3.151,8.48c0,0-0.15-2.208,1.45-3.935c1.287-1.388,3.626-1.312,3.626-1.312L31.924,3.241
					z M33.591,3.2h7.122v14.783h21.878v5.513h-29V3.2z M82.66,3.318h8.499l-12.041,9.894l12.237,10.207h-8.932l-11.512-9.582
					l-0.018,9.582H63.93V3.318h6.965l-0.041,8.408L82.66,3.318z"/>
			</g>
		</g>
	</g>
</g>
</svg>
