<?xml version="1.0" encoding="utf-8"?>
<!-- Generator: Adobe Illustrator 24.1.3, SVG Export Plug-In . SVG Version: 6.00 Build 0)  -->
<svg version="1.1" id="Слой_1" xmlns="http://www.w3.org/2000/svg" xmlns:xlink="http://www.w3.org/1999/xlink" x="0px" y="0px"
	 viewBox="0 0 100 35.6" style="enable-background:new 0 0 100 35.6;" xml:space="preserve">
<style type="text/css">
	.st0{fill-rule:evenodd;clip-rule:evenodd;fill:#FFCC29;}
	.st1{fill:#FFFFFF;}
</style>
<desc>Created with sketchtool.</desc>
<g id="Layer_x0020_1">
	<path class="st0" d="M-0.3,8.6h14.7V27H-0.3V8.6z M3.3,24.2V11.9h3.6c1.3,0,2.3,0.3,3,0.8s1.1,1.4,1.1,2.5c0,0.6-0.1,1.1-0.4,1.6
		c-0.3,0.5-0.7,0.8-1.2,1c0.7,0.1,1.1,0.5,1.4,1c0.3,0.5,0.5,1.1,0.5,1.8c0,1.2-0.3,2.1-1,2.7s-1.6,0.9-2.9,0.9
		C7.4,24.2,3.3,24.2,3.3,24.2z M5.5,18.8v3.5h1.7c0.5,0,0.9-0.1,1.1-0.4c0.2-0.3,0.4-0.7,0.4-1.3c0-0.6-0.1-1-0.3-1.3
		s-0.6-0.5-1-0.5C7.4,18.8,5.5,18.8,5.5,18.8z M5.5,17.1h1.3c0.5,0,0.9-0.2,1.1-0.4c0.2-0.2,0.4-0.7,0.4-1.2c0-0.6-0.1-1-0.4-1.3
		c-0.3-0.3-0.7-0.4-1.2-0.4H5.5V17.1z"/>
	<path class="st1" d="M25.2,22.2c-0.3,0.5-0.7,0.9-1.4,1.3c-0.6,0.4-1.4,0.6-2.4,0.6c-1.3,0-2.3-0.4-3.1-1.2
		c-0.8-0.8-1.2-1.9-1.2-3.3V16c0-1.4,0.4-2.5,1.1-3.3s1.7-1.2,3-1.2s2.2,0.3,2.9,0.9c0.7,0.6,1,1.5,1.1,2.7v0.1h-1.6
		c0-0.8-0.2-1.3-0.6-1.8c-0.4-0.4-0.9-0.6-1.7-0.6s-1.3,0.3-1.8,0.8c-0.4,0.5-0.6,1.3-0.6,2.4v3.7c0,1,0.2,1.8,0.7,2.4
		s1.1,0.8,1.9,0.8c0.6,0,1-0.1,1.4-0.3c0.3-0.2,0.6-0.5,0.7-0.8V19h-2.1v-1.2h3.8L25.2,22.2L25.2,22.2z"/>
	<path class="st1" d="M29.4,27h-0.9V8.6h0.9V27z M44.4,27h-0.9V8.6h0.9V27z M59.3,27h-0.8V8.6h0.8V27z M89.3,27h-0.9V8.6h0.9V27z
		 M74.3,27h-0.9V8.6h0.9V27z"/>
	<path class="st1" d="M34.7,19.7h3.1l-1.5-5.4h-0.1L34.7,19.7z M38.3,21.1h-3.9l-0.9,3.1h-1.8l3.8-12.3h1.6l3.8,12.3h-1.7L38.3,21.1
		z"/>
	<polygon class="st1" points="48.5,11.9 51.4,21.9 51.4,21.9 54.3,11.9 56.5,11.9 56.5,24.2 54.8,24.2 54.8,19.5 55,14.7 54.9,14.7 
		52,24.2 50.8,24.2 47.9,14.7 47.8,14.7 48,19.5 48,24.2 46.3,24.2 46.3,11.9 	"/>
	<polygon class="st1" points="67.2,24.2 65.5,24.2 65.5,11.9 67.2,11.9 	"/>
	<polygon class="st1" points="85.6,24.2 83.9,24.2 79.3,15 79.2,15 79.2,24.2 77.5,24.2 77.5,11.9 79.2,11.9 83.9,21 83.9,21 
		83.9,11.9 85.6,11.9 	"/>
	<path class="st1" d="M100,22.3c-0.3,0.5-0.7,0.9-1.4,1.3c-0.6,0.4-1.4,0.6-2.4,0.6c-1.3,0-2.3-0.4-3.1-1.2s-1.2-1.9-1.2-3.3V16
		c0-1.4,0.4-2.5,1.1-3.3s1.8-1.2,3-1.2s2.2,0.3,2.9,0.9c0.7,0.6,1,1.5,1.1,2.7v0.1h-1.6c0-0.8-0.2-1.4-0.6-1.8
		c-0.4-0.4-0.9-0.6-1.7-0.6s-1.3,0.3-1.8,0.8c-0.4,0.5-0.7,1.3-0.7,2.4v3.7c0,1.1,0.2,1.9,0.7,2.4s1.1,0.8,1.9,0.8
		c0.6,0,1-0.1,1.4-0.3c0.3-0.2,0.6-0.5,0.7-0.8V19h-2.1v-1.3h3.8C100,17.7,100,22.3,100,22.3z"/>
</g>
</svg>
