<svg width="1711" height="376" viewBox="0 0 1711 376" fill="none" xmlns="http://www.w3.org/2000/svg">
<path d="M373.919 184.98H193.585V248.815H297.398C287.476 269.853 274.427 285.307 258.245 295.175C242.061 305.045 222.177 309.98 198.595 309.98C162.328 309.98 131.833 298.007 107.112 274.059C82.3932 250.113 70.0337 220.903 70.0337 186.437C70.0337 153.104 81.9441 124.786 105.765 101.485C129.586 78.1847 159.137 66.5343 194.427 66.5343C234.914 66.5343 270.36 82.5539 300.768 114.592L348.819 67.2629C326.886 43.6382 304.466 26.9709 281.558 17.2622C254.424 5.77502 225.265 0.0294308 194.072 0.0294308C142.748 0.0294308 99.7405 15.4571 65.0313 46.2728C65.1952 47.2921 65.0419 48.4919 64.4956 49.3347C64.4876 49.3479 64.4836 49.3612 64.4756 49.3745C64.2757 51.7635 62.3435 53.5088 59.9369 53.6163C59.8276 53.6216 59.717 53.615 59.6051 53.6083C59.5958 53.6163 59.5891 53.6243 59.5798 53.6322C54.4814 57.8701 50.2638 62.9122 46.3608 68.2344C45.4933 76.4991 37.3154 82.4437 32.0531 88.6884C31.0497 90.6394 30.0356 92.5771 28.9642 94.4645C26.0832 99.5411 24.4109 104.94 22.7105 110.491C21.1288 115.655 19.0793 120.586 17.1897 125.638C13.272 136.113 11.7182 147.085 8.37882 157.714C6.59719 163.384 4.31317 169.031 3.94271 175.01C3.57893 180.898 3.76948 186.695 2.75407 192.536C2.69011 192.905 2.56352 193.233 2.41028 193.541C8.06966 231.448 20.3932 268.655 43.2892 299.837C63.728 327.668 94.2277 346.824 125.881 359.703C158.87 373.127 196.715 375.326 231.673 369.636C265.592 364.116 298.273 350.107 321.316 324.035C344.724 297.549 360.385 265.786 369.048 231.688C369.504 229.892 370.695 228.906 372.065 228.574C373.623 219.213 374.406 209.7 374.406 200.028L373.919 184.98Z" fill="black"/>
<path d="M334.674 263.578C310.505 284.264 274.779 306.058 236.646 316.723C199.15 327.209 153.888 328.897 119.729 326.177C76.9649 322.77 49.4888 313.378 52.2005 316.313C64.9425 330.096 79.6993 341.619 96.4735 350.879C125.633 366.977 158.817 375.029 196.021 375.029C230.786 375.029 261.089 367.662 286.919 352.942C312.751 338.219 333.788 316.859 350.037 288.863C362.219 267.869 369.836 245.966 372.883 223.148C372.895 223.067 372.88 223.027 372.843 223.027C372 223.028 359.12 242.657 334.674 263.578" fill="url(#paint0_linear_108_28)"/>
<path d="M46.0949 64.812C31.2288 81.6824 19.7555 101.466 11.6708 124.162C0.238786 156.255 -2.41701 188.993 3.70877 222.367C7.27336 241.799 13.5537 259.762 22.5498 276.254C31.2235 292.157 40.2302 302.679 46.1095 309.489C55.1109 319.912 68.3926 335.046 90.2599 348.294C109.501 359.949 128.351 365.883 143.64 368.94C128.587 355.883 108.019 335.133 89.9028 305.309C83.3759 294.562 68.0314 267.601 58.5263 229.501C58.5263 229.501 44.8103 177.086 52.8403 118.991C58.509 77.994 65.8154 45.5977 65.8154 45.5977C65.8154 45.5977 55.9078 53.6725 46.0949 64.812" fill="url(#paint1_linear_108_28)"/>
<path d="M510.362 135.906L467.645 244.771H552.824L510.362 135.906ZM479.252 51.8342H540.713L663.165 368.939H600.182L575.272 303.622H445.359L419.459 368.939H356.476L479.252 51.8342Z" fill="black"/>
<path d="M740.907 51.8339H799.954L873.759 273.01L948.232 51.8339H1007.24L1060.65 368.938H1002.05L967.909 168.674L900.272 368.938H846.863L779.826 168.674L744.871 368.938H685.783L740.907 51.8339Z" fill="black"/>
<path d="M1092.04 51.8339H1284.67L1171.3 310.95H1277.31V368.938H1082.73L1195.57 111.547H1092.04V51.8339Z" fill="black"/>
<path d="M1326.22 51.8342H1386.39V368.939H1326.22V51.8342Z" fill="black"/>
<path d="M1433.9 51.8339H1502.08L1568.99 153.644L1636.05 51.8339H1704.15L1603.13 205.579L1710.5 368.938H1642.33L1569.05 257.451L1495.8 368.938H1427.19L1534.87 205.451L1433.9 51.8339Z" fill="black"/>
<path d="M1409.06 46.0376C1408.48 39.1426 1400.05 0.0291776 1355.47 0.0291776C1312.73 0.0291776 1303.36 46.0376 1303.36 46.0376C1307.5 41.0592 1326.62 28.5686 1356.21 28.5686C1385.8 28.5686 1404.92 41.0592 1409.06 46.0376Z" fill="#F1A409"/>
<defs>
<linearGradient id="paint0_linear_108_28" x1="68.8031" y1="350.96" x2="383.263" y2="278.741" gradientUnits="userSpaceOnUse">
<stop stop-color="#352711"/>
<stop offset="0.00735868" stop-color="#352711"/>
<stop offset="1" stop-color="#F1A409"/>
</linearGradient>
<linearGradient id="paint1_linear_108_28" x1="30.3211" y1="79.4045" x2="82.4935" y2="341.819" gradientUnits="userSpaceOnUse">
<stop stop-color="#352711"/>
<stop offset="0.00735868" stop-color="#352711"/>
<stop offset="1" stop-color="#F1A409"/>
</linearGradient>
</defs>
</svg>
