<?xml version="1.0" encoding="utf-8"?>
<!-- Generator: Adobe Illustrator 22.1.0, SVG Export Plug-In . SVG Version: 6.00 Build 0)  -->
<svg version="1.1" id="Слой_1" xmlns="http://www.w3.org/2000/svg" xmlns:xlink="http://www.w3.org/1999/xlink" x="0px" y="0px"
	 width="100px" height="34px" viewBox="0 0 100 34" style="enable-background:new 0 0 100 34;" xml:space="preserve">
<style type="text/css">
	.st0{fill:#FFFFFF;}
	.st1{fill:#21B3E8;}
	.st2{fill:none;}
	.st3{clip-path:url(#SVGID_2_);fill:url(#SVGID_3_);}
	.st4{clip-path:url(#SVGID_5_);fill:url(#SVGID_6_);}
</style>
<title>588E8379-9A6A-4647-B0C0-93E84769F522</title>
<desc>Created with sketchtool.</desc>
<g>
	<path class="st0" d="M39.4,19c0,0.9,0.7,1.7,1.7,1.7c0.2,0,0.4,0,0.9-0.2l0.7,1.7c-0.7,0.3-1.1,0.4-1.6,0.4c-2,0-3.6-1.6-3.6-3.6
		V7.6h1.9v2.9h3.3v1.9h-3.3C39.4,12.4,39.4,19,39.4,19z"/>
	<path class="st0" d="M43.8,19v-5.7c0-2,1.6-3.6,3.6-3.6c2,0,3.6,1.6,3.6,3.6V19c0,2-1.6,3.6-3.6,3.6C45.4,22.6,43.8,21,43.8,19
		 M47.4,11.7c-0.9,0-1.7,0.8-1.7,1.7v5.7c0,0.9,0.8,1.7,1.7,1.7c0.9,0,1.7-0.7,1.7-1.7v-5.7C49,12.4,48.3,11.7,47.4,11.7"/>
	<path class="st0" d="M61.5,13c0-0.7-0.6-1.3-1.3-1.3s-1.3,0.6-1.3,1.3v9.3H57V13c0-0.7-0.6-1.3-1.3-1.3s-1.3,0.6-1.3,1.3v9.3h-1.9
		V13c0-1.8,1.4-3.2,3.2-3.2c0.9,0,1.7,0.3,2.2,0.9c0.6-0.6,1.3-0.9,2.2-0.9c1.8,0,3.2,1.4,3.2,3.2v9.3h-1.9L61.5,13L61.5,13z"/>
	<path class="st0" d="M73.3,13.3c0-0.9-0.7-1.7-1.7-1.7c-0.9,0-1.7,0.7-1.7,1.7v9H68V5.4h2v4.9c0.5-0.3,1.1-0.4,1.7-0.4
		c2,0,3.6,1.6,3.6,3.6v9h-1.9L73.3,13.3L73.3,13.3z"/>
	<path class="st0" d="M76.8,19v-5.7c0-2,1.6-3.6,3.6-3.6c2,0,3.6,1.6,3.6,3.6V19c0,2-1.6,3.6-3.6,3.6C78.4,22.6,76.8,21,76.8,19
		 M80.4,11.7c-0.9,0-1.7,0.8-1.7,1.7v5.7c0,0.9,0.8,1.7,1.7,1.7c0.9,0,1.7-0.7,1.7-1.7v-5.7C82,12.4,81.3,11.7,80.4,11.7"/>
	<path class="st0" d="M89,11.7c-0.9,0-1.7,0.8-1.7,1.7v9h-1.9v-9c0-2,1.6-3.6,3.5-3.6c1.2,0,2.4,0.7,3.2,2l-1.6,0.9
		C90.2,12,89.6,11.7,89,11.7"/>
	<path class="st0" d="M97.8,13.3c0-0.9-0.8-1.7-1.7-1.7s-1.7,0.7-1.7,1.7v9h-1.9v-9c0-2,1.6-3.6,3.6-3.6c2,0,3.5,1.6,3.5,3.6v9h-1.9
		L97.8,13.3L97.8,13.3z"/>
	<path class="st1" d="M53.1,31.2v-3.3c0-0.8,0.6-1.4,1.4-1.4c0.6,0,1.1,0.3,1.3,0.9l-0.6,0.3c-0.1-0.4-0.4-0.5-0.7-0.5
		c-0.4,0-0.7,0.3-0.7,0.7v3.3c0,0.4,0.3,0.7,0.7,0.7s0.7-0.3,0.7-0.7v-0.7h-1v-0.7h1.7v1.4c0,0.8-0.6,1.4-1.4,1.4
		C53.8,32.5,53.1,31.9,53.1,31.2"/>
	<path class="st1" d="M60.9,30.6h-1.4v1.8h-0.7v-4.6c0-0.8,0.6-1.4,1.4-1.4s1.4,0.6,1.4,1.4v4.6h-0.7V30.6L60.9,30.6z M60.1,27.3
		c-0.4,0-0.7,0.3-0.7,0.7V30h1.4v-2.1C60.9,27.6,60.5,27.3,60.1,27.3"/>
	<polygon class="st1" points="67.3,28.6 66.4,31.2 66,31.2 65.1,28.6 65.1,32.5 64.5,32.5 64.5,26.7 65.1,26.7 66.2,29.7 67.3,26.7 
		68,26.7 68,32.5 67.3,32.5 	"/>
	<rect x="71.5" y="26.7" class="st1" width="0.7" height="5.8"/>
	<polygon class="st1" points="76.2,28.5 76.2,32.5 75.6,32.5 75.6,26.7 76.2,26.7 77.7,30.5 77.7,26.7 78.3,26.7 78.3,32.5 
		77.7,32.5 	"/>
	<path class="st1" d="M81.4,31.2v-3.3c0-0.8,0.6-1.4,1.4-1.4c0.6,0,1.1,0.3,1.3,0.9l-0.6,0.3c-0.1-0.4-0.4-0.5-0.7-0.5
		c-0.4,0-0.7,0.3-0.7,0.7v3.3c0,0.4,0.3,0.7,0.7,0.7c0.4,0,0.7-0.3,0.7-0.7v-0.7h-1.1v-0.7h1.7v1.4c0,0.8-0.6,1.4-1.4,1.4
		C82,32.5,81.4,31.9,81.4,31.2"/>
	<rect x="0.7" y="1.4" class="st2" width="99" height="31.1"/>
	<g>
		<g>
			<g>
				<g>
					<defs>
						<path id="SVGID_1_" d="M5.2,6c-6,6-6.1,15.8-0.1,21.9c-1.1-1.1-1.1-3,0-4.1c1.1-1.1,3-1.1,4.1,0c-3.8-3.8-3.8-10,0-13.8
							s10-3.8,13.8,0l0,0c1.1,1.1,3,1.2,4.1,0c1.1-1.1,1.2-3,0-4.1c-3.1-3.1-7-4.6-11-4.6C12.3,1.4,8.3,2.9,5.2,6"/>
					</defs>
					<clipPath id="SVGID_2_">
						<use xlink:href="#SVGID_1_"  style="overflow:visible;"/>
					</clipPath>
					
						<linearGradient id="SVGID_3_" gradientUnits="userSpaceOnUse" x1="-298.0068" y1="-95.5403" x2="-297.8014" y2="-95.5403" gradientTransform="matrix(-126.7927 79.2289 79.2289 126.7927 -30188.1953 35730.7031)">
						<stop  offset="0" style="stop-color:#C7E3F8"/>
						<stop  offset="0.28" style="stop-color:#26B1E7"/>
						<stop  offset="1" style="stop-color:#223B86"/>
					</linearGradient>
					<polygon class="st3" points="20.1,-11.7 -12.7,8.8 7.3,41 40.2,20.4 					"/>
				</g>
			</g>
		</g>
	</g>
	<g>
		<g>
			<g>
				<g>
					<defs>
						<path id="SVGID_4_" d="M27.2,10.1c-1.1,1.1-3,1.1-4.1,0c3.8,3.8,3.8,10,0,13.8s-10,3.8-13.8,0l0,0l0,0
							c-0.1-0.1-0.1-0.1-0.2-0.2l0,0C9.1,23.6,9,23.6,9,23.5l0,0c-0.1,0-0.2-0.1-0.2-0.1l0,0C8,23,6.9,23,6.1,23.4H6
							c-0.4,0-0.5,0.1-0.6,0.2c-0.1,0.1-0.2,0.1-0.2,0.2c-1.1,1.1-1.2,3,0,4.1c6,6,15.8,6.1,21.9,0.1s6.1-15.8,0.1-21.9
							C28.3,7.1,28.3,9,27.2,10.1"/>
					</defs>
					<clipPath id="SVGID_5_">
						<use xlink:href="#SVGID_4_"  style="overflow:visible;"/>
					</clipPath>
					
						<linearGradient id="SVGID_6_" gradientUnits="userSpaceOnUse" x1="-295.2074" y1="-97.0643" x2="-295.0019" y2="-97.0643" gradientTransform="matrix(126.7927 -79.2289 -79.2289 -126.7927 29745.1992 -35667.6836)">
						<stop  offset="0" style="stop-color:#C7E3F8"/>
						<stop  offset="0.28" style="stop-color:#26B1E7"/>
						<stop  offset="1" style="stop-color:#223B86"/>
					</linearGradient>
					<polygon class="st4" points="12.3,47.1 45.8,26.2 25,-7.1 -8.5,13.9 					"/>
				</g>
			</g>
		</g>
	</g>
</g>
</svg>
