<?xml version="1.0" encoding="utf-8"?>
<!-- Generator: Adobe Illustrator 16.0.0, SVG Export Plug-In . SVG Version: 6.00 Build 0)  -->
<!DOCTYPE svg PUBLIC "-//W3C//DTD SVG 1.1//EN" "http://www.w3.org/Graphics/SVG/1.1/DTD/svg11.dtd">
<svg version="1.1" id="Слой_1" xmlns="http://www.w3.org/2000/svg" xmlns:xlink="http://www.w3.org/1999/xlink" x="0px" y="0px"
	 width="100px" height="40px" viewBox="0 0 100 40" enable-background="new 0 0 100 40" xml:space="preserve">
<title>20816139-8D1A-4A88-9642-B5B139794DE1</title>
<desc>Created with sketchtool.</desc>
<linearGradient id="SVGID_1_" gradientUnits="userSpaceOnUse" x1="14.8115" y1="44.2334" x2="57.8088" y2="-21.9767" gradientTransform="matrix(1 0 0 -1 -0.0151 39.6992)">
	<stop  offset="0" style="stop-color:#30FDD9"/>
	<stop  offset="1" style="stop-color:#5AF596"/>
</linearGradient>
<path fill="url(#SVGID_1_)" d="M29.3,12.6c0-0.6-0.5-1.1-1.2-1.2c-0.5-0.1-1.1,0.3-1.3,0.8c-0.1,0.3-0.1,0.7-0.1,1
	c0,3.8,0,7.6,0,11.399c0,0.601,0.4,1.2,0.9,1.301c0.7,0.1,1.3-0.101,1.6-0.7c0.1-0.2,0.1-0.5,0.2-0.8c0.2,0.199,0.3,0.3,0.3,0.399
	c1,0.8,2.1,1.2,3.4,1c1.7-0.3,2.8-1.399,3.5-2.899c1-2.2,0.6-5-1.3-6.8c-1.6-1.4-4-1.5-5.6,0c-0.1,0.1-0.2,0.2-0.4,0.3
	c0-0.2,0-0.3,0-0.4C29.3,14.9,29.3,13.7,29.3,12.6z M29.4,19.9c0.1-0.9,0.5-1.6,1.1-2.2c0.8-0.8,2-0.7,2.7,0.1c0.7,0.7,1,1.6,1,2.9
	c0,0.6-0.3,1.399-0.9,2.2c-0.8,1-2.1,1.1-3,0.1C29.5,22.1,29.3,21.1,29.4,19.9z"/>
<linearGradient id="SVGID_2_" gradientUnits="userSpaceOnUse" x1="22.8105" y1="49.4248" x2="65.8052" y2="-16.781" gradientTransform="matrix(1 0 0 -1 -0.0151 39.6992)">
	<stop  offset="0" style="stop-color:#30FDD9"/>
	<stop  offset="1" style="stop-color:#5AF596"/>
</linearGradient>
<path fill="url(#SVGID_2_)" d="M43.6,17.4c0.6,0.1,1.1-0.5,1.1-1.1c0-0.6-0.5-1.2-1.1-1.2c-0.8,0-1.5,0.1-2.1,0.4
	c-2.1,1-3.2,2.7-3.2,5c-0.1,1.1,0.2,2.2,1,3.2c1,1.399,2.4,2.3,4.2,2.3c0.7,0,1.2-0.6,1.2-1.2c0-0.7-0.5-1.2-1.2-1.2
	c-0.6,0-1-0.199-1.4-0.6c-1.2-1.1-1.3-3.1-0.6-4.3C41.9,17.9,42.6,17.4,43.6,17.4z"/>
<linearGradient id="SVGID_3_" gradientUnits="userSpaceOnUse" x1="-0.0205" y1="34.6016" x2="42.977" y2="-31.6088" gradientTransform="matrix(1 0 0 -1 -0.0151 39.6992)">
	<stop  offset="0" style="stop-color:#30FDD9"/>
	<stop  offset="1" style="stop-color:#5AF596"/>
</linearGradient>
<path fill="url(#SVGID_3_)" d="M1.7,25.8c-0.5-0.1-1.1,0.101-1.4,0.5c-0.3,0.4-0.3,1,0.1,1.4c0.6,0.6,1.2,1.1,1.8,1.6
	c1.3,1,2.7,1.7,4.3,2c0.9,0.2,1.8,0.2,2.7,0.3c1.1,0,2.2-0.1,3.2-0.699c1.6-0.4,3-1.101,4.2-2.101c2.7-2.1,4.3-4.899,4.6-8.4
	c0.1-2-0.1-4-1-5.9c-1.9-3.9-5-6.4-9.5-7C9.2,7.3,7.8,7.4,6.4,7.7C4.7,8.1,3.1,8.9,1.7,10c-0.6,0.5-1.1,1-1.6,1.6
	c-0.3,0.5-0.1,1.1,0.4,1.5C1,13.4,1.6,13.4,2,13c1.7-1.8,3.7-2.9,6.3-3.2c1.5-0.1,3,0,4.4,0.5c1.9,0.7,3.4,1.9,4.6,3.6
	c2.1,3.1,2.4,6.4,0.8,9.7c-1.5,3.101-4,5-7.4,5.5C9.3,29.3,8,29.2,6.7,28.9c-1.8-0.5-3.3-1.4-4.6-2.801C2,26,1.8,25.9,1.7,25.8z"/>
<linearGradient id="SVGID_4_" gradientUnits="userSpaceOnUse" x1="-0.7632" y1="34.1191" x2="42.2348" y2="-32.0921" gradientTransform="matrix(1 0 0 -1 -0.0151 39.6992)">
	<stop  offset="0" style="stop-color:#30FDD9"/>
	<stop  offset="1" style="stop-color:#5AF596"/>
</linearGradient>
<path fill="url(#SVGID_4_)" d="M7.7,12.6c-0.4-0.4-0.9-0.4-1.3-0.2c-0.4,0.1-0.6,0.5-0.6,1c0,0.8,0,1.5,0,2.2c0,0.7,0,1.5-0.1,2.2
	c0,0.8,0.6,1.3,1.3,1.3c1,0,1.9,0,2.9,0c0.2,0,0.4,0,0.6,0.1c1.4,0.4,2.3,2.3,1.5,3.6c-0.4,0.7-1,1.3-2,1.3c-1-0.1-2,0-3,0.101
	c-0.6,0-1.1,0.5-1.1,1.1C5.9,25.8,6.4,26.4,7,26.4c1.1,0,2.3,0.1,3.4,0c3.6-0.2,5.7-4.101,3.9-7.3c-1.2-2.1-3.5-2.9-5.7-2.1
	c-0.5,0.2-0.5,0.2-0.5-0.3c0-1.1,0-2.3,0-3.4C8.1,13,8,12.8,7.7,12.6z"/>
<linearGradient id="SVGID_5_" gradientUnits="userSpaceOnUse" x1="29.2764" y1="53.627" x2="72.2739" y2="-12.5835" gradientTransform="matrix(1 0 0 -1 -0.0151 39.6992)">
	<stop  offset="0" style="stop-color:#30FDD9"/>
	<stop  offset="1" style="stop-color:#5AF596"/>
</linearGradient>
<path fill="url(#SVGID_5_)" d="M52.9,25.8c2.399-0.7,4-2.899,4-5.3c-0.101-0.7-0.2-1.3-0.301-1.9C55.7,16,52.9,14.4,50,15.3
	c-2.4,0.8-3.8,3-3.7,5.4c0,1.3,0.5,2.399,1.3,3.399C48.8,25.6,51.1,26.3,52.9,25.8z M50.3,17.7c0.8-0.6,1.9-0.5,2.601,0.2
	c1.6,1.4,1.6,4.1-0.101,5.5C52,24,50.9,24,50.1,23.3S49,21.7,49,20.5S49.4,18.3,50.3,17.7z"/>
<linearGradient id="SVGID_6_" gradientUnits="userSpaceOnUse" x1="-2.1055" y1="33.2422" x2="40.8823" y2="-32.9533" gradientTransform="matrix(1 0 0 -1 -0.0151 39.6992)">
	<stop  offset="0" style="stop-color:#30FDD9"/>
	<stop  offset="1" style="stop-color:#5AF596"/>
</linearGradient>
<path fill="url(#SVGID_6_)" d="M8.9,21.6c0-0.6-0.5-1.2-1.2-1.2c-0.7,0-1.2,0.5-1.2,1.2c0,0.601,0.6,1.2,1.2,1.2
	C8.3,22.8,8.9,22.2,8.9,21.6z"/>
<linearGradient id="SVGID_7_" gradientUnits="userSpaceOnUse" x1="50.8506" y1="67.6377" x2="93.8479" y2="1.4276" gradientTransform="matrix(1 0 0 -1 -0.0151 39.6992)">
	<stop  offset="0" style="stop-color:#30FDD9"/>
	<stop  offset="1" style="stop-color:#5AF596"/>
</linearGradient>
<path fill="url(#SVGID_7_)" d="M80.7,27c-0.2-0.2-0.3-0.4-0.5-0.6C79.7,25.8,79.1,25.8,78.6,26.2C78.1,26.6,78,27.4,78.4,27.9
	c0.8,1.1,1.8,1.8,3.1,2.1c2.2,0.4,4.1-0.2,5.6-2c0.601-0.7,1-1.6,1-2.5c0-3.1,0-6.1,0-9.1c0-0.6-0.5-1.2-1.1-1.3
	c-0.7-0.1-1.3,0.3-1.5,0.9c-0.2,0.4-0.2,0.4-0.5,0.1c-1.1-1-2.5-1.3-4-0.8c-1.6,0.5-2.5,1.6-3,3.1c-0.7,2.1-0.5,4.1,1,5.9
	c1.4,1.7,3.7,2.101,5.5,0.9c0.2-0.2,0.5-0.4,0.7-0.601c0,0,0.1,0,0.2,0c0,0.5,0.199,1.2-0.101,1.7C84.4,28,82,28.4,80.7,27z
	 M84,23.2c-0.7,0.6-1.6,0.6-2.3,0c-0.9-0.8-1.2-1.7-1.2-2.8c0-1,0.2-2,1-2.7c0.9-0.8,2.1-0.8,2.9,0.2c0.6,0.7,1,1.6,0.899,2.5
	C85.3,21.6,84.9,22.5,84,23.2z"/>
<linearGradient id="SVGID_8_" gradientUnits="userSpaceOnUse" x1="42.8457" y1="62.4346" x2="85.84" y2="-3.7708" gradientTransform="matrix(1 0 0 -1 -0.0151 39.6992)">
	<stop  offset="0" style="stop-color:#30FDD9"/>
	<stop  offset="1" style="stop-color:#5AF596"/>
</linearGradient>
<path fill="url(#SVGID_8_)" d="M73.5,25.2c0.3,0.5,0.9,0.8,1.6,0.6c0.601-0.2,1-0.8,1-1.399c0-1.9,0-3.801,0-5.7
	c0-1.6-0.699-2.7-2.1-3.4c-1.4-0.7-2.8-0.5-4.1,0.4c-0.2,0.2-0.4,0.3-0.601,0.5c-0.1-0.1-0.1-0.2-0.1-0.5c-0.3-0.5-0.9-0.8-1.5-0.7
	c-0.601,0.2-1,0.7-1,1.3c0,2.8,0,5.5,0,8.3c0,0.4,0.1,0.7,0.399,1c0.4,0.301,0.9,0.4,1.4,0.2s0.9-0.6,0.9-1.2c0-1.899,0-3.699,0-5.5
	c0-0.3,0-0.6,0.1-0.8c0.3-0.9,1.3-1.4,2.3-1.2c0.7,0.1,1.601,1,1.601,2c0,1.8,0,3.6,0,5.4C73.4,24.7,73.4,25,73.5,25.2z"/>
<linearGradient id="SVGID_9_" gradientUnits="userSpaceOnUse" x1="35.6938" y1="57.8037" x2="78.6894" y2="-8.4037" gradientTransform="matrix(1 0 0 -1 -0.0151 39.6992)">
	<stop  offset="0" style="stop-color:#30FDD9"/>
	<stop  offset="1" style="stop-color:#5AF596"/>
</linearGradient>
<path fill="url(#SVGID_9_)" d="M59.7,23.5c-0.7,0-1.2,0.5-1.2,1.2s0.5,1.2,1.2,1.2c0.899,0,1.7-0.101,2.399-0.601
	c1.7-1.2,2.7-2.7,2.7-4.6c0-1.8-0.5-3.1-1.6-4.3c-1-0.9-2.101-1.4-3.5-1.4c-0.7,0-1.2,0.5-1.2,1.2c0,0.6,0.5,1.1,1.2,1.1
	c0.3,0,0.7,0.1,1,0.3c1.399,0.8,1.899,3.3,0.899,4.7C61.1,22.9,60.6,23.5,59.7,23.5z"/>
<linearGradient id="SVGID_10_" gradientUnits="userSpaceOnUse" x1="59.5664" y1="73.2949" x2="102.5611" y2="7.0889" gradientTransform="matrix(1 0 0 -1 -0.0151 39.6992)">
	<stop  offset="0" style="stop-color:#30FDD9"/>
	<stop  offset="1" style="stop-color:#5AF596"/>
</linearGradient>
<path fill="url(#SVGID_10_)" d="M94.5,14.9c-2.7,0.1-5.3,2.5-5.2,5.7C89.4,23.4,91.9,26.1,94.7,25.9c2.6,0.199,5.6-2.4,5.2-6.101
	C99.7,17.5,97.5,14.8,94.5,14.9z M96,23.3c-0.9,0.8-2.2,0.7-3-0.3c-1.1-1.3-1.2-3.6-0.1-4.9c1-1.2,2.399-1.2,3.399-0.1
	c0.601,0.7,0.9,1.6,0.9,2.5C97.2,21.6,96.8,22.5,96,23.3z"/>
</svg>
