<?xml version="1.0" encoding="utf-8"?>
<!-- Generator: Adobe Illustrator 16.0.0, SVG Export Plug-In . SVG Version: 6.00 Build 0)  -->
<!DOCTYPE svg PUBLIC "-//W3C//DTD SVG 1.1//EN" "http://www.w3.org/Graphics/SVG/1.1/DTD/svg11.dtd">
<svg version="1.1" id="Слой_1" xmlns="http://www.w3.org/2000/svg" xmlns:xlink="http://www.w3.org/1999/xlink" x="0px" y="0px"
	 width="100px" height="65px" viewBox="0 0 100 65" enable-background="new 0 0 100 65" xml:space="preserve">
<title>1570A065-C75C-4E32-B5CD-E262C4FB39CE</title>
<desc>Created with sketchtool.</desc>
<g id="MCRbUx_1_" enable-background="new    ">
	<g>
		<path fill="#FFFFFF" d="M31.4,23.4c0,4.5,0,9.1,0,13.6c0,0.8-0.4,1.4-1.1,1.7c-0.7,0.3-1.3,0.1-1.8-0.5c-3.2-3.2-6.5-6.4-9.7-9.7
			c-3.7-3.7-7.4-7.4-11.1-11.1c-2.2-2.2-4.3-4.4-6.5-6.5C0.3,10,0.4,8.6,1.5,8.1c0.3-0.2,0.7-0.2,1.1-0.2c8.9,0,17.8,0,26.7,0
			c0.9,0,1.6,0.2,1.9,1.1c0.1,0.2,0.1,0.4,0.1,0.6C31.4,14.2,31.4,18.8,31.4,23.4z"/>
		<path fill="#FFFFFF" d="M84,7.9c4.6,0,9.2,0,13.9,0C98.6,7.9,99.1,8.4,99.3,9c0.2,0.5,0.101,1.3-0.399,1.7
			c-1.801,1.9-3.699,3.7-5.5,5.6c-2.101,2.1-4.199,4.2-6.301,6.3C83.4,26.3,79.7,30,76.1,33.7C74.6,35.2,73.2,36.6,71.8,38.1
			c-0.2,0.2-0.3,0.301-0.5,0.4c-1.1,0.7-2.5,0-2.6-1.3c0-0.3,0-0.5,0-0.8c0-8.9,0-17.7,0-26.602c0-0.4,0.1-0.8,0.3-1.1
			C69.3,8.2,69.8,8,70.4,8C74.9,8,79.5,8,84,7.9C84,8,84,8,84,7.9z"/>
		<path fill="#FFFFFF" d="M50,7.9c4.6,0,9.3,0,13.9,0c0.6,0,1.3,0.6,1.5,1.2c0.1,0.6,0,1.2-0.5,1.7c-2.7,2.7-5.301,5.4-8,8
			C52.7,23,48.5,27.2,44.3,31.4c-2.2,2.2-4.4,4.5-6.6,6.7c-0.7,0.7-1.3,0.801-2,0.5c-0.7-0.3-1-0.8-1-1.5c0-0.3,0-0.6,0-0.898
			c0-8.8,0-17.7,0-26.5c0-1,0.6-1.9,1.8-1.8C41,8,45.5,8,50,7.9C50,8,50,7.9,50,7.9z"/>
		<path fill="#FFFFFF" d="M37.2,52c0.1-0.1,0.1-0.2,0.2-0.3c0.7-1.5,1.5-2.9,2.2-4.4c0.1-0.2,0.2-0.3,0.5-0.3c0.2,0,0.4,0,0.6,0
			c0.4-0.1,0.7,0.1,0.9,0.5c0.6,1.2,1.2,2.4,1.8,3.6c0.1,0.301,0.3,0.602,0.4,0.801h0.1c0-0.101,0-0.199,0-0.301
			c0-2.199,0-4.398,0-6.5c0-0.3,0.1-0.3,0.4-0.3c0.5,0,1.1,0,1.6,0c0.3,0,0.5,0.101,0.5,0.4c0,1.2,0,2.399,0,3.6
			c0,2.601,0,5.2,0,7.9c0,0.3-0.1,0.399-0.4,0.399c-0.5,0-1.1,0-1.6,0c-0.3,0-0.4-0.101-0.5-0.301c-1-2-2-3.898-3-5.898
			c-0.1-0.102-0.2-0.2-0.3-0.301c-0.1,0.101-0.1,0.199-0.2,0.301c-0.5,1-1,2.1-1.6,3.1c-0.5,0.9-0.9,1.8-1.4,2.7
			C37.3,57,37.1,57.1,36.7,57.1c-0.5,0-1.1,0-1.6,0c-0.3,0-0.4-0.1-0.4-0.398c0-3.801,0-7.602,0-11.4c0-0.5,0-0.5,0.5-0.5
			s1.1,0,1.6,0c0.3,0,0.4,0.102,0.4,0.301s0,0.5,0,0.699c0,2,0,3.9,0,5.9C37,51.8,37.1,51.9,37.2,52C37.1,52,37.1,52,37.2,52z"/>
		<path fill="#FFFFFF" d="M97,52.2c0-0.101,0-0.2,0-0.2c0-2.2,0-4.5,0-6.7c0-0.3,0.1-0.399,0.4-0.399c0.6,0,1.199,0,1.699,0
			c0.199,0,0.301,0.101,0.301,0.301c0,0.3,0,0.699,0,1c0,3.5,0,7,0,10.5c0,0.398,0,0.398-0.5,0.398c-0.4,0-0.9,0-1.301,0
			c-0.301,0-0.399-0.1-0.601-0.3c-1.399-2.2-2.8-4.399-4.101-6.6C92.8,50.1,92.7,49.9,92.6,49.7c0,0.2-0.1,0.2-0.1,0.3
			c0,2.2,0,4.4,0,6.7c0,0.3-0.1,0.399-0.4,0.399c-0.6,0-1.1,0-1.699,0C90.1,57.1,90,57,90,56.7c0-3.8,0-7.601,0-11.4
			c0-0.5,0-0.5,0.5-0.5c0.4,0,0.8,0,1.2,0c0.3,0,0.399,0.101,0.6,0.3C93.4,46.9,94.5,48.7,95.6,50.4c0.301,0.5,0.602,1,1,1.6
			c0.102,0.1,0.102,0.2,0.102,0.3C96.9,52.2,96.9,52.2,97,52.2z"/>
		<path fill="#FFFFFF" d="M68.6,50.9c0-1.9,0-3.801,0-5.7c0-0.3,0.102-0.4,0.4-0.4c1.4,0,2.8,0,4.2,0c1.2,0,2.3,0.3,3.2,1.2
			c0.699,0.7,1.1,1.6,1.199,2.6c0.101,1.5,0.101,3.102,0,4.7c-0.199,1.7-1.101,3-2.801,3.601C74.4,57,73.9,57.1,73.5,57.1
			c-1.5,0-3,0-4.5,0c-0.3,0-0.4-0.1-0.4-0.398C68.6,54.8,68.6,52.9,68.6,50.9L68.6,50.9z M71.1,51L71.1,51c0,1.2,0,2.4,0,3.6
			c0,0.301,0.102,0.4,0.4,0.4c0.4,0,0.8,0,1.2,0c0.7,0,1.3-0.1,1.8-0.7C74.8,53.9,75,53.4,75,52.9c0-1.301,0.1-2.7,0-4
			c-0.1-1.301-0.8-2-2.2-2c-0.5,0-1,0-1.399,0C71.1,46.9,71,47,71,47.3C71.1,48.6,71.1,49.8,71.1,51z"/>
		<path fill="#FFFFFF" d="M56.9,57.1c-0.301,0-0.602,0-1,0c-0.301,0-0.4-0.1-0.5-0.3c-0.102-0.5-0.301-1-0.5-1.399
			c-0.2-0.5-0.2-0.5-0.7-0.5c-1,0-2,0-3,0c-0.3,0-0.5,0.101-0.601,0.399c-0.101,0.5-0.301,1-0.5,1.5c-0.1,0.3-0.2,0.4-0.6,0.4
			c-0.6,0-1.2,0-1.9,0c-0.4,0-0.4-0.101-0.3-0.4c0.6-1.7,1.2-3.5,1.8-5.2c0.6-1.6,1.1-3.199,1.7-4.8c0.2-0.5,0.301-1,0.5-1.5
			C51.4,45,51.5,44.9,51.8,44.9c0.601,0,1.101,0,1.7,0c0.3,0,0.4,0.1,0.5,0.3c0.7,1.899,1.3,3.899,2,5.8c0.6,1.6,1.1,3.2,1.7,4.8
			c0.1,0.3,0.2,0.601,0.3,0.9c0.1,0.299,0,0.399-0.3,0.399C57.5,57.1,57.2,57.1,56.9,57.1L56.9,57.1z M52.8,48.6
			c-0.1,0.2-0.2,0.301-0.2,0.301C52.2,50,51.9,51.2,51.5,52.3c-0.1,0.3,0,0.4,0.3,0.4c0.7,0,1.3,0,2,0c0.3,0,0.3-0.2,0.2-0.4
			c-0.2-0.7-0.5-1.5-0.7-2.2C53.2,49.6,53,49.1,52.8,48.6z"/>
		<path fill="#FFFFFF" d="M87.7,57.1c-0.3,0-0.601,0-0.9,0c-0.299,0-0.399-0.1-0.5-0.399c-0.1-0.5-0.3-1-0.5-1.4
			c-0.1-0.399-0.3-0.5-0.7-0.5c-1,0-2.1,0-3.1,0c-0.3,0-0.4,0.101-0.5,0.4c-0.1,0.5-0.4,1.1-0.5,1.6c-0.1,0.2-0.2,0.3-0.4,0.3
			c-0.699,0-1.3,0-2,0c-0.3,0-0.398-0.1-0.3-0.398c0.5-1.4,1-2.801,1.5-4.2s1-2.899,1.5-4.3c0.3-1,0.7-2,1-3
			c0.101-0.301,0.2-0.4,0.601-0.4c0.5,0,1.101,0,1.601,0c0.3,0,0.399,0.102,0.5,0.4c0.7,2,1.399,4,2,5.898
			c0.601,1.602,1.101,3.2,1.7,4.801c0.1,0.301,0.199,0.5,0.3,0.801c0.101,0.3,0,0.398-0.3,0.398C88.3,57.1,88,57.1,87.7,57.1
			L87.7,57.1z M83.6,48.7L83.6,48.7C83.4,48.8,83.4,48.9,83.3,49.1c-0.3,1-0.7,2.102-1,3.102C82.2,52.6,82.2,52.6,82.6,52.6
			c0.602,0,1.301,0,1.9,0c0.3,0,0.3-0.1,0.3-0.398c-0.2-0.7-0.399-1.301-0.6-2C84,49.8,83.8,49.2,83.6,48.7z"/>
		<path fill="#FFFFFF" d="M62.9,57.1c-1.2,0-2.5,0-3.7,0c-0.4,0-0.4-0.1-0.5-0.5C58.6,55.7,59,54.9,59.4,54.2
			c1.398-2.3,2.699-4.601,4-6.9c0-0.1,0.1-0.2,0.1-0.3c-0.1,0-0.2,0-0.3,0c-1.4,0-2.8,0-4.2,0c-0.3,0-0.4-0.1-0.4-0.4
			c0-0.5,0-0.898,0-1.398c0-0.301,0.102-0.4,0.4-0.4c2.3,0,4.6,0,7,0c0.8,0,0.7-0.199,0.8,0.801c0.101,1-0.5,1.601-0.899,2.301
			C64.6,50.1,63.3,52.3,62,54.6c0,0.301,0,0.4,0.3,0.4c1.4,0,2.8,0,4.3,0c0.301,0,0.5,0.1,0.4,0.4c0,0.398,0,0.898,0,1.3
			c0,0.3-0.1,0.399-0.4,0.399C65.4,57.1,64.1,57.1,62.9,57.1L62.9,57.1z"/>
	</g>
</g>
</svg>
