<?xml version="1.0" encoding="utf-8"?>
<!-- Generator: Adobe Illustrator 16.0.0, SVG Export Plug-In . SVG Version: 6.00 Build 0)  -->
<!DOCTYPE svg PUBLIC "-//W3C//DTD SVG 1.1//EN" "http://www.w3.org/Graphics/SVG/1.1/DTD/svg11.dtd">
<svg version="1.1" id="Слой_1" xmlns="http://www.w3.org/2000/svg" xmlns:xlink="http://www.w3.org/1999/xlink" x="0px" y="0px"
	 width="100px" height="40px" viewBox="0 0 100 40" enable-background="new 0 0 100 40" xml:space="preserve">
<title>20816139-8D1A-4A88-9642-B5B139794DE1</title>
<desc>Created with sketchtool.</desc>
<g>
	<path fill="#232020" d="M31.2,30.2c0,0,0,0.1,0,0.2v0.1l-0.1,1.1C31,31.7,30.8,31.7,30.8,31.7c-0.1,0-0.2,0-0.3,0
		c-0.3,0-0.5-0.101-0.7-0.4c-0.2-0.3-0.3-0.6-0.3-1c0-0.6,0.1-1,0.4-1.3c0.2-0.3,0.5-0.5,0.9-0.5c0.3,0,0.5,0.1,0.7,0.2
		c0.1,0,0.1,0.1,0.1,0.1c0.1,0.101,0.1,0.2,0.2,0.2v-0.8h-0.2h-0.1L31.2,28.1H31h-0.2c-0.5,0-1,0.2-1.3,0.601
		C29.1,29.1,29,29.6,29,30.1s0.1,0.9,0.4,1.2c0.3,0.3,0.6,0.4,1.1,0.4c0.2,0,0.4,0,0.5,0c0.2,0,0.4-0.101,0.6-0.101l0.2-0.1
		c0,0,0-0.1,0-0.2v-0.1l0.1-1c0-0.101,0-0.2,0.1-0.2c0-0.1,0.1-0.2,0.1-0.2h-0.9V30.2z"/>
	<path fill="#232020" d="M31.1,29.4L31.1,29.4L31.1,29.4C31,29.3,31,29.3,30.8,29.3c-0.1,0-0.2,0-0.3,0.101H31.1
		C31.2,29.4,31.2,29.4,31.1,29.4z"/>
	<path fill="#232020" d="M30.2,30.4c0,0.3,0,0.5,0.1,0.6c0,0,0.1,0.1,0.2,0.1l0.1-0.699l-0.3-0.5C30.3,30.1,30.2,30.3,30.2,30.4z"/>
	<path fill="#232020" d="M33.7,30.8c0,0.101,0,0.101,0,0.2l0,0l0,0C33.7,31,33.7,30.9,33.7,30.8L34,30l0,0
		C33.8,30.2,33.7,30.5,33.7,30.8z"/>
	<path fill="#232020" d="M24.2,29c-0.1,0-0.2,0-0.3,0l-0.2,0.1L23.5,29.2l-0.2,0.2l0.1-0.4h-0.7c0,0.1,0.1,0.2,0.1,0.3v0.2l-0.3,2
		c0,0.1,0,0.2-0.1,0.3c0,0.101-0.1,0.101-0.1,0.2h0.8L23,31.9V31.8v-0.2l0.2-1.399c0-0.2,0.1-0.4,0.2-0.5c0.1-0.101,0.2-0.2,0.4-0.2
		c0.1,0,0.2,0,0.2,0.1c0.1,0,0.1,0.101,0.2,0.2V29z"/>
	<path fill="#232020" d="M25.8,28.9c-0.5,0-0.9,0.199-1.2,0.5c-0.3,0.399-0.5,0.8-0.5,1.3c0,0.399,0.1,0.7,0.3,0.899
		c0.2,0.2,0.5,0.301,0.9,0.301c0.3,0,0.6-0.101,0.9-0.301l0.2-0.1l0.2-0.5c-0.1,0.1-0.1,0.1-0.2,0.2l-0.2,0.1
		c-0.3,0.101-0.5,0.2-0.7,0.2c-0.5,0-0.8-0.3-0.8-0.9v-0.3l0.1-0.399h2.1v-0.2c0-0.3-0.1-0.5-0.3-0.7C26.4,29,26.1,28.9,25.8,28.9z
		 M26.2,29.8L26.1,29.9h-1.3l0.1-0.301c0.1-0.1,0.1-0.1,0.2-0.199c0.2-0.2,0.4-0.2,0.6-0.2c0.2,0,0.3,0,0.4,0.1
		c0.1,0.101,0.2,0.2,0.2,0.3C26.3,29.7,26.3,29.8,26.2,29.8z"/>
	<path fill="#232020" d="M25.4,31h0.1c0.1,0,0.2,0,0.4-0.1l0.2-0.101l0,0h-0.7l0,0C25.3,30.9,25.4,31,25.4,31z"/>
	<path fill="#232020" d="M43.9,28.9c-0.3,0-0.6,0.1-0.8,0.3l-0.2,0.1L43,29h-0.7c0,0.1,0.1,0.2,0.1,0.3v0.2l-0.3,2
		c0,0.1,0,0.2-0.1,0.3c0,0-0.1,0.101-0.1,0.2h0.8c-0.1-0.1-0.1-0.2-0.1-0.2v-0.2l0.2-1.399c0-0.2,0.1-0.3,0.1-0.4
		c0-0.1,0.1-0.2,0.2-0.2l0.1-0.1l0.2-0.1h0.2h0.2c0.3,0,0.5,0.1,0.5,0.5v0.3l-0.2,1c0,0.2-0.1,0.3-0.1,0.5L43.9,32.1h0.7L44.5,32
		v-0.1v-0.2l0.3-1.601v-0.3c0-0.2-0.1-0.3-0.2-0.399C44.5,29.3,44.1,28.9,43.9,28.9z"/>
	<path fill="#232020" d="M43.4,30c0,0.1,0,0.1,0,0.2l-0.2,1.3v-0.1c0-0.101,0.1-0.301,0.1-0.4L43.4,30L43.4,30L43.4,30z"/>
	<path fill="#232020" d="M41.9,28c0-0.1,0-0.2-0.1-0.3C41.7,27.6,41.7,27.6,41.6,27.6s-0.2,0-0.3,0.101c-0.1,0.1-0.1,0.2-0.1,0.3
		s0,0.2,0.1,0.2c0.1,0.1,0.1,0.1,0.2,0.1s0.1,0,0.2,0c0,0,0.1,0,0.1-0.1C41.9,28.2,41.9,28.1,41.9,28z"/>
	<path fill="#232020" d="M22,29h-0.7c0,0.1,0.1,0.2,0.1,0.3v0.2l-0.2,1.4c0,0.199-0.1,0.3-0.1,0.3c0,0.1-0.1,0.1-0.1,0.2
		c-0.1,0.1-0.2,0.1-0.3,0.199c-0.1,0-0.2,0.101-0.4,0.101c-0.4,0-0.6-0.2-0.6-0.5V31v-0.2L20,29h-0.7c0.1,0.1,0.1,0.2,0.1,0.3v0.2
		L19.2,31c0,0.1,0,0.2,0,0.3c0,0,0,0.101,0,0.2c0,0.2,0.1,0.3,0.2,0.4C19.6,32,19.8,32.1,20,32.1c0.4,0,0.6-0.1,0.8-0.3l0.2-0.2
		V31.9h0.7c-0.1-0.101-0.1-0.2-0.1-0.2v-0.2L22,29z"/>
	<path fill="#232020" d="M34.8,29c-0.1,0-0.3,0-0.4,0c-0.6,0-1,0.2-1.4,0.5c-0.4,0.4-0.5,0.8-0.5,1.4c0,0.399,0.1,0.6,0.3,0.8
		c0.2,0.2,0.4,0.3,0.7,0.3c0.1,0,0.1,0,0.2,0c0.1,0,0.1,0,0.2-0.1c0.1-0.101,0.3-0.101,0.4-0.2l0.1-0.101l0.1-0.1c0,0.1,0,0.1,0,0.2
		v0.2H35c0,0,0,0,0-0.101l0,0v-0.2l0.3-2l0.1-0.3c0,0,0-0.1,0.1-0.1c0,0,0,0,0-0.101h-0.2L34.8,29z M34.7,29.7l-0.2,1.1
		c0,0.2-0.1,0.3-0.1,0.4c0,0.1-0.1,0.1-0.1,0.2c-0.2,0.199-0.4,0.3-0.6,0.3c-0.2,0-0.4-0.101-0.5-0.2c-0.1-0.1-0.2-0.4-0.2-0.7
		c0-0.399,0.1-0.8,0.4-1.1c0.2-0.3,0.5-0.5,0.9-0.5c0.3,0,0.4,0.1,0.4,0.3V29.7z"/>
	<path fill="#232020" d="M41.7,29H41c0,0,0,0.1,0.1,0.1V29.2v0.2l-0.3,2c0,0.199-0.1,0.3-0.2,0.5h0.8c-0.1-0.101-0.1-0.2-0.1-0.2
		v-0.2L41.7,29z"/>
	<path fill="#232020" d="M39.4,28.9c-0.3,0-0.6,0.1-0.9,0.3l-0.2,0.2c-0.1-0.101-0.1-0.2-0.2-0.301c0,0,0-0.1-0.1-0.1
		s-0.2-0.1-0.4-0.1c-0.3,0-0.5,0.1-0.8,0.199l-0.2,0.2l0.1-0.3H36c0,0.1,0.1,0.2,0.1,0.3v0.2l-0.3,2c0,0.1,0,0.2-0.1,0.2l-0.1,0.1
		c0,0,0,0.101-0.1,0.101h0.8L36.2,31.8v-0.1v-0.2l0.2-1.5c0-0.2,0.1-0.3,0.1-0.3c0-0.101,0.1-0.101,0.2-0.2c0.2-0.1,0.4-0.2,0.6-0.2
		c0.3,0,0.5,0.2,0.5,0.5v0.4l-0.2,1L37.4,32h0.7L38,31.9V31.8v-0.2l0.2-1.5c0-0.199,0.1-0.399,0.3-0.6c0.2-0.1,0.3-0.2,0.6-0.2
		c0.1,0,0.3,0,0.4,0.101c0.1,0.1,0.1,0.199,0.1,0.399v0.3l-0.2,1l-0.1,0.4L39.2,32H40c-0.1-0.1-0.1-0.2-0.1-0.3v-0.2l0.3-1.6v-0.4
		c0-0.2-0.1-0.3-0.2-0.4C39.9,29,39.7,28.9,39.4,28.9z"/>
	<path fill="#232020" d="M18.7,28.2l-0.6,0.2L18,29h-0.2l-0.1,0.3H18l-0.3,1.9V31.6c0,0.101,0,0.2,0.1,0.301C17.9,32,18,32,18.2,32
		c0.2,0,0.4-0.1,0.6-0.2l0.1-0.399c-0.1,0.1-0.2,0.199-0.4,0.199c-0.1,0-0.2-0.1-0.2-0.199v-0.2l0.3-2H19l0.1-0.3h-0.6L18.7,28.2z"
		/>
	<path fill="#232020" d="M16.4,13.5L16.4,13.5L16.4,13.5z"/>
	<path fill="#232020" d="M18.5,24.5c2.6,0,5.3,0,7.9,0c2,0,3-0.8,3.4-2.8c0.1-0.4,0.1-0.8,0.2-1.101c0.4-2.399,0.8-4.8,1.3-7.3h-2.1
		c-0.1,0.3-0.1,0.6-0.2,0.9c-0.4,2.4-0.9,4.9-1.3,7.3c-0.1,0.7-0.5,1.3-1.2,1.3c-2.6,0-5.2,0-7.7,0c-0.7,0-1-0.399-0.9-1.1
		c0.2-1.101,0.4-2.2,0.6-3.2c0.3-1.7,0.6-3.4,0.9-5.2h-2.1c-0.1,0.1-0.1,0.3-0.1,0.4c-0.4,2.5-0.8,5.1-1.3,7.6
		C15.3,23.3,16.1,24.4,18.5,24.5z"/>
	<path fill="#232020" d="M46.4,30.8c0,0.101,0,0.2,0,0.2l0,0l0,0C46.4,31,46.4,30.9,46.4,30.8l0.1-0.7l0,0
		C46.4,30.2,46.4,30.4,46.4,30.8z"/>
	<path fill="#232020" d="M12.8,18.2H4C4.2,17,4.4,16,4.6,14.9c0.4,0,0.7,0,1,0c2.3,0,4.6,0,6.9,0c1.9,0,1.4,0.3,1.7-1.6H2.8
		c-0.7,3.7-1.3,7.4-2,11.2h2.1c0.3-1.5,0.5-3,0.8-4.6h8.8C12.7,19.3,12.7,18.8,12.8,18.2z"/>
	<path fill="#232020" d="M49.3,24.5h0.1c0.7,0,1.2-0.3,1.7-1c0.9-1,1.7-2.1,2.601-3.1c1.3-1.6,2.7-3.2,4-4.8c0.2,0.4,0.3,0.7,0.5,1
		c1.2,2.4,2.3,4.9,3.5,7.3c0.1,0.199,0.399,0.6,0.6,0.6c0.601,0.1,1.3,0,2,0c-0.1-0.2-0.2-0.4-0.2-0.5c-1.6-3.3-3.199-6.6-4.8-9.9
		c-0.5-1.1-1.6-1.2-2.399-0.3c-2.801,3.4-5.7,6.7-8.5,10.101c-0.1,0.199-0.3,0.399-0.5,0.6C48.4,24.5,49.2,24.5,49.3,24.5z"/>
	<path fill="#232020" d="M35.2,24.3c1.6,0.2,3.1,0.2,4.7,0.2c1.3,0,2.5,0,3.8-0.2c1-0.1,2-0.6,2.3-1.7c0.4-1.399,0.6-2.8,0.9-4.3
		c-0.5,0-0.9,0-1.3,0c-0.6-0.1-1,0.1-1,0.8c-0.1,0.7-0.2,1.5-0.4,2.2c-0.2,1.101-0.5,1.4-1.6,1.4c-2.1,0-4.2,0-6.2,0
		c-1,0-1.2-0.3-1-1.3c0.3-1.601,0.6-3.3,0.9-4.9c0.3-1.5,0.5-1.7,2.1-1.7c2.5,0,5,0,7.5,0c1.6,0,1.6,0,1.7-1.6l0,0l0,0
		c-0.1,0-0.3,0-0.4,0c-3,0-5.9,0-8.9,0c-0.8,0-1.5,0.2-2.2,0.5c-1,0.3-1.5,1.1-1.7,2.1c-0.3,1.9-0.7,3.8-1,5.8
		C33,23.3,33.5,24.1,35.2,24.3z"/>
	<path fill="#232020" d="M7.4,23.7L7.4,23.7L7.4,23.7z"/>
	<path fill="#232020" d="M15.7,31c0,0,0-0.1,0-0.2l0.2-1.399V29.3c0,0,0,0,0-0.1l0,0L15.7,31L15.7,31L15.7,31z"/>
	<path fill="#232020" d="M20.5,31c0,0,0-0.1,0-0.2l0.2-1.399V29.3c0,0,0,0,0-0.1l0,0L20.5,31L20.5,31L20.5,31z"/>
	<path fill="#232020" d="M17.3,29h-0.7c0,0.1,0.1,0.2,0.1,0.3v0.2l-0.2,1.4c0,0.199-0.1,0.3-0.1,0.3s-0.1,0.1-0.1,0.2
		c-0.1,0.1-0.2,0.1-0.3,0.199c-0.1,0-0.2,0.101-0.4,0.101c-0.4,0-0.6-0.2-0.6-0.5V31v-0.2l0.3-1.8h-0.7c0.1,0.1,0.1,0.2,0.1,0.3v0.2
		L14.5,31c0,0.1,0,0.2,0,0.3c0,0,0,0.101,0,0.2c0,0.2,0.1,0.3,0.2,0.4c0.2,0.1,0.4,0.199,0.6,0.199c0.4,0,0.6-0.1,0.8-0.3l0.2-0.2
		L16.2,32H17c-0.1-0.1-0.1-0.2-0.1-0.2v-0.2L17.3,29z"/>
	<path fill="#232020" d="M11.9,27.2H12h0.1c0,0,0,0,0.1,0h0.1c0.1,0,0.1,0,0.2-0.101c0.1,0,0.2,0,0.3-0.1h0.1l0.2-0.1v-0.2V26.6
		c0-0.1,0-0.1,0-0.199c0-0.2,0-0.301,0-0.5c0-0.2,0-0.4,0-0.601s0-0.399,0-0.6s0-0.4,0-0.601c0-0.199,0-0.399,0-0.6
		c0-0.1,0-0.1,0-0.2v-0.1c0.1,0,0.1-0.101,0.2-0.101c0.1-0.1,0.2-0.199,0.2-0.3c0-0.2,0-0.3-0.1-0.5S13.1,22,12.9,22
		c-0.1,0-0.2,0-0.3,0.1c-0.1,0.101-0.1,0.101-0.2,0.2c-0.1,0.2-0.1,0.4-0.1,0.601c0,0,0,0.1,0.1,0.1c0,0,0,0,0,0.1
		c0,0,0,0.101-0.1,0.101c-0.1,0.1-0.2,0.2-0.3,0.399c-0.1,0.101-0.1,0.101-0.2,0.2l0,0c0,0,0,0-0.1,0c-0.1,0-0.1,0-0.2-0.1
		c-0.1-0.101-0.1-0.101-0.1-0.2c0,0,0,0,0-0.1L11.3,23.3c0-0.1,0-0.1-0.1-0.2c0,0,0.1-0.1,0.1-0.199c0-0.101,0.1-0.2,0.1-0.301
		c0-0.1,0-0.3-0.1-0.3c-0.1-0.1-0.2-0.2-0.4-0.2c-0.2,0-0.3,0-0.4,0.101c-0.1,0.1-0.2,0.2-0.3,0.399c0,0.101,0,0.101,0,0.2
		c0,0.101,0,0.101,0.1,0.2l0,0c0,0.1,0.1,0.1,0.2,0.2c0,0.1,0,0.1,0,0.2c0,0.1-0.1,0.199-0.1,0.3l0,0c0,0.1-0.1,0.1-0.1,0.2
		c0,0,0,0-0.1,0l0,0h-0.1c-0.1,0-0.1-0.101-0.2-0.2c-0.1-0.101-0.2-0.2-0.3-0.3C9.4,23.2,9.3,23.1,9.2,23c0-0.1-0.1-0.1-0.1-0.2l0,0
		v-0.1c0-0.2,0-0.3-0.1-0.5C8.5,22.1,8.4,22,8.2,22c-0.1,0-0.2,0-0.3,0.1c0,0,0,0-0.1,0l0,0c-0.1,0-0.1,0.101-0.1,0.101
		c-0.1,0.1-0.1,0.2-0.2,0.3c0,0.1,0,0.2,0,0.3c0,0.101,0.1,0.2,0.2,0.3C7.8,23.2,7.8,23.2,7.9,23.2l0,0c0,0,0,0,0,0.1
		c0,0.101,0,0.101,0.1,0.2c0,0.2,0.1,0.3,0.1,0.4c0,0.3,0,0.5,0,0.699c0,0.101,0,0.101,0,0.2C8.1,24.9,8,24.9,8,24.9l0,0
		c-0.1,0-0.1,0-0.2,0H7.7H7.6c-0.1,0-0.2-0.101-0.3-0.101c-0.1,0-0.1-0.1-0.2-0.1c0-0.101,0-0.2-0.1-0.3C7,24.3,7,24.3,7,24.2
		C7,24.1,6.9,24.1,6.9,24.1C6.8,24,6.7,24,6.6,24s-0.3,0-0.4,0.1C6,24.2,5.9,24.4,5.9,24.6c0,0.101,0,0.301,0.2,0.4
		c0.1,0.1,0.2,0.2,0.3,0.2s0.1,0,0.2,0c0,0,0,0.1,0.1,0.1c0,0,0,0.101,0.1,0.101c0,0,0,0,0,0.1l0,0c0,0,0,0,0,0.1V25.7
		c0,0.1,0,0.1,0,0.2c0,0,0,0.1-0.1,0.1c0,0-0.1,0-0.1,0.1l0,0c0,0,0,0-0.1,0c-0.2,0-0.3,0-0.4,0s-0.3,0-0.4-0.1l0,0
		c0-0.1-0.1-0.2-0.2-0.3C5.3,25.6,5.2,25.6,5,25.6c-0.1,0-0.3,0.101-0.3,0.301C4.6,26,4.6,26.1,4.6,26.3c0,0.101,0,0.2,0.1,0.3
		C4.8,26.7,4.9,26.8,5.1,26.9c0.1,0,0.2,0,0.3,0L5.6,27.1L5.8,27l0.1,0.1L6,27.2l0.1,0.1L6.2,27.4l0.1,0.1l0.1,0.1L6.5,27.7l0.1,0.1
		L6.7,27.9C6.9,28,6.9,28.1,7,28.1L7.1,28.2l0.1,0.1L7.3,28.4l0.1,0.1l0.1,0.1L7.6,28.7c0.1,0,0.1,0.1,0.2,0.1L7.9,28.9L8,29
		c0.1,0.1,0.2,0.1,0.3,0.1c0,0,0,0,0.1,0l0,0c0,0,0,0,0.1,0L8.6,29c0.1-0.1,0.2-0.1,0.3-0.2c0.1-0.1,0.2-0.1,0.3-0.2L9,28.5
		c0.1-0.1,0.1-0.1,0.2-0.1c0.1,0,0.2-0.101,0.3-0.101s0.1-0.1,0.2-0.1l0,0c0,0,0.1-0.101,0.2-0.101H10c0.1,0,0.2-0.1,0.2-0.1l0,0
		c0.1,0,0.2-0.1,0.3-0.1l0.1-0.101h0.1c0.1,0,0.2-0.1,0.3-0.1c0,0,0,0,0.1,0l0,0c0.1,0,0.1-0.101,0.2-0.101h0.1h0.1h0.1h0.1h0.1
		C11.8,27.3,11.8,27.3,11.9,27.2C11.9,27.3,11.9,27.2,11.9,27.2z M11.8,26.8C11.8,26.8,11.7,26.8,11.8,26.8c-0.1,0-0.1,0-0.1,0h-0.1
		h-0.1h-0.1h-0.1h-0.1L11,27.1l0,0h-0.1c-0.1,0-0.2,0.101-0.3,0.101h-0.1l-0.1,0.1c-0.1,0-0.2,0.101-0.3,0.101l0,0
		c-0.1,0-0.2,0.1-0.3,0.1H9.7c-0.1,0-0.1,0.1-0.2,0.1l0,0c-0.1,0-0.1,0.101-0.2,0.101C9.2,27.9,9.1,28,9,28s-0.1,0.1-0.2,0.1
		c0,0-0.1,0-0.1,0.101c-0.1,0.1-0.2,0.1-0.3,0.2c-0.1,0.1-0.2,0.1-0.3,0.199l0,0l0,0c-0.1,0-0.1-0.1-0.2-0.1l-0.1-0.1L7.7,28.3
		l-0.1-0.1L7.5,28.1L7.4,28l-0.1-0.1C7.2,27.8,7.2,27.8,7.1,27.7L7,27.6l-0.1-0.1l-0.1-0.1L6.7,27.3l-0.1-0.1L6.4,27l-0.1-0.1
		L6.2,26.8l-0.1-0.1L6,26.6l-0.1-0.1c0.1,0,0.2,0,0.3,0c0.1,0,0.3,0,0.4,0s0.2,0,0.2,0s0,0,0.1,0s0.1-0.1,0.2-0.1
		C7.2,26.3,7.3,26.2,7.3,26c0-0.1,0-0.3,0-0.3V25.6c0,0,0,0,0-0.1v-0.1c0,0,0,0,0-0.101c0-0.1,0-0.1-0.1-0.2h0.1
		C7.4,25.2,7.6,25.2,7.7,25.2c0,0,0,0,0.1,0h0.1c0.2,0,0.3,0,0.4,0C8.4,25.1,8.5,25,8.6,24.9c0-0.101,0.1-0.2,0.1-0.301
		c0-0.199,0-0.5,0-0.8c0-0.2,0-0.3-0.1-0.399c0-0.101,0-0.101,0-0.2c0,0,0,0.1,0.1,0.1c0.1,0.101,0.2,0.3,0.4,0.5
		c-0.1,0.2,0,0.3,0.1,0.4c0.1,0.1,0.2,0.2,0.4,0.2c0.1,0,0.2,0.1,0.4,0h0.1c0.1,0,0.1-0.101,0.2-0.101c0.1-0.1,0.2-0.2,0.2-0.3l0,0
		c0-0.1,0.1-0.2,0.1-0.3c0-0.101,0-0.101,0.1-0.2c0,0,0,0.1,0.1,0.1c0,0.101,0.1,0.101,0.1,0.2c0,0,0,0,0,0.101
		C11,24,11,24.1,11.1,24.2c0.1,0.1,0.3,0.2,0.5,0.2c0.1,0,0.2,0,0.2,0l0,0c0.2-0.101,0.3-0.2,0.3-0.301c0.1-0.199,0.3-0.3,0.3-0.5
		c0,0,0-0.1,0.1-0.1l0,0l0,0c0,0.1,0,0.2,0,0.2c0,0.2,0,0.399,0,0.6s0,0.4,0,0.601c0,0.199,0,0.399,0,0.699c0,0.2,0,0.4,0,0.601
		s0,0.3,0,0.5v0.1c-0.1,0-0.2,0-0.2,0.101c-0.1,0-0.2,0-0.2,0.1H12c0,0,0,0-0.1,0c0,0,0,0-0.1,0C11.9,26.8,11.8,26.8,11.8,26.8z"/>
	<path fill="#232020" d="M12.2,28.6c0,0.101,0,0.101,0,0.2V28.9L12,31.5c0,0.1,0,0.2-0.1,0.3L11.8,32h0.9l-0.1-0.2
		c0-0.1,0-0.1,0-0.2v-0.1l0.1-1.2h0.4c0.2,0,0.3,0,0.4,0.101c0.1,0,0.2,0.1,0.2,0.199l0.1-0.8L13.7,29.9c0,0-0.1,0.1-0.2,0.1
		l-0.2,0.1H13h-0.4l0.1-1.199h0.5c0.2,0,0.4,0,0.5,0.1c0.1,0.1,0.2,0.2,0.3,0.3l0.1-0.6H12C12.2,28.5,12.2,28.6,12.2,28.6z"/>
	<path fill="#232020" d="M54.5,28.9c-0.2,0-0.4,0-0.7,0.1c-0.2,0.1-0.399,0.2-0.6,0.3C52.8,29.6,52.6,30,52.6,30.4V30.6
		c0,0.4,0.101,0.7,0.4,1c0.2,0.2,0.6,0.4,1,0.4c0.5,0,0.9-0.2,1.3-0.5c0.4-0.3,0.5-0.8,0.5-1.3c0-0.4-0.1-0.7-0.399-0.9
		C55.2,29,54.8,28.9,54.5,28.9z M54.8,31.4C54.6,31.7,54.3,31.8,54,31.8c-0.2,0-0.4-0.1-0.5-0.2C53.4,31.4,53.3,31.2,53.2,30.9v-0.2
		c0-0.5,0.1-0.8,0.3-1.101c0.2-0.3,0.5-0.5,0.8-0.5S54.7,29.2,54.9,29.4C55,29.6,55.1,29.9,55.1,30.2C55.2,30.7,55,31.1,54.8,31.4z"
		/>
	<path fill="#232020" d="M65.2,28.9c-0.2,0-0.4,0-0.7,0.1c-0.2,0.1-0.4,0.2-0.6,0.3C63.5,29.6,63.3,30,63.3,30.4l0,0V30.6
		c0,0.4,0.101,0.7,0.4,1c0.2,0.2,0.6,0.4,1,0.4c0.5,0,0.899-0.2,1.3-0.5c0.4-0.4,0.5-0.8,0.5-1.3c0-0.4-0.1-0.7-0.4-0.9
		C65.9,29,65.6,28.9,65.2,28.9z M65.6,31.4C65.4,31.7,65.1,31.8,64.8,31.8c-0.2,0-0.399-0.1-0.5-0.2C64.2,31.4,64.1,31.2,64,30.9
		v-0.2c0-0.5,0.1-0.8,0.3-1.101c0.2-0.3,0.5-0.5,0.8-0.5c0.301,0,0.4,0.101,0.601,0.301c0.1,0.199,0.2,0.5,0.2,0.8
		C65.9,30.7,65.8,31.1,65.6,31.4z"/>
	<path fill="#232020" d="M68.4,30c0,0.1,0,0.1,0,0.2l-0.2,1.3v-0.1c0-0.101,0.1-0.301,0.1-0.4L68.4,30L68.4,30L68.4,30z"/>
	<path fill="#232020" d="M65.2,29.8L65.2,29.8c-0.101,0-0.2,0-0.3,0.2c-0.101,0.2-0.2,0.4-0.2,0.7v0.1c0,0.101,0,0.2,0.1,0.3l0,0
		l0,0c0.101,0,0.2,0,0.3-0.199c0.101-0.2,0.2-0.4,0.2-0.7C65.3,30,65.2,29.8,65.2,29.8L65.2,29.8z"/>
	<path fill="#232020" d="M68.8,28.9c-0.3,0-0.6,0.1-0.8,0.3l-0.2,0.1L67.9,29h-0.7c0,0.1,0.1,0.2,0.1,0.3v0.2l-0.3,2
		c0,0.1,0,0.2-0.1,0.3c0,0-0.101,0.101-0.101,0.2h0.8c-0.1-0.1-0.1-0.2-0.1-0.2v-0.2l0.2-1.399c0-0.2,0.1-0.3,0.1-0.4
		c0-0.1,0.101-0.2,0.2-0.2l0.1-0.1l0.2-0.1h0.2h0.2c0.3,0,0.5,0.1,0.5,0.5v0.3l-0.2,1c0,0.2-0.1,0.3-0.1,0.5L68.8,32.1h0.7L69.4,32
		v-0.1v-0.2l0.3-1.601v-0.3c0-0.2-0.101-0.3-0.2-0.399C69.3,29,69.1,28.9,68.8,28.9z"/>
	<path fill="#232020" d="M63,27.7c-0.1,0-0.2,0-0.3,0.1C62.6,27.9,62.6,28,62.6,28.1c0,0.101,0,0.2,0.101,0.2
		c0.1,0.101,0.1,0.101,0.2,0.101c0.1,0,0.1,0,0.199,0c0,0,0.101,0,0.101-0.101c0.1-0.1,0.1-0.2,0.1-0.3s0-0.2-0.1-0.3
		C63.2,27.7,63.1,27.7,63,27.7z"/>
	<path fill="#232020" d="M63.1,29H62.4c0,0,0,0.1,0.1,0.1V29.2v0.2l-0.3,2c0,0.199-0.101,0.3-0.2,0.5h0.9
		C62.8,31.8,62.8,31.7,62.8,31.7v-0.2L63.1,29z"/>
	<path fill="#232020" d="M96.5,13.3c-2.8-0.1-5.6,0-8.4,0c-1.8,0-3.1,0.8-3.399,2.2c-0.5,2.2-0.9,4.5-1.2,6.8c-0.1,1,0.4,1.7,1.3,2
		c0.5,0.2,1,0.2,1.601,0.3c1.3,0,2.6,0,3.899,0c1.4,0,2.7,0,4.101,0c2.1,0,3.399-1,3.699-2.899C98.4,20,98.7,18.2,99,16.4
		C99.4,14.3,98.6,13.3,96.5,13.3z M96.9,16.1C96.6,17.9,96.3,19.8,96,21.6C95.9,22.4,95.3,22.7,94.5,22.7c-1.3,0-2.6,0-3.9,0
		c-1.3,0-2.6,0-3.8,0c-0.899,0-1.2-0.4-1.1-1.2c0.3-1.8,0.7-3.6,1-5.4c0.1-0.9,0.7-1.2,1.5-1.2c2.6,0,5.2,0,7.8,0
		C96.8,14.9,97.1,15.2,96.9,16.1z"/>
	<path fill="#232020" d="M61.2,31.4v-0.2l0.3-2H62l0.1-0.3h-0.6l0.1-0.801L61,28.3l0.1,0.7H60.9L60.8,29.3H61l-0.3,1.9V31.6
		c0,0.101,0,0.2,0.1,0.301C60.9,32,61,32,61.2,32s0.399-0.1,0.6-0.2L61.9,31.4C61.8,31.5,61.7,31.6,61.5,31.6
		C61.3,31.7,61.2,31.6,61.2,31.4z"/>
	<path fill="#232020" d="M71.7,29c-0.101,0-0.101,0-0.2,0h-0.1C71.1,29,70.8,29.1,70.6,29.3c-0.199,0.2-0.3,0.4-0.3,0.7
		c0,0.1,0.101,0.3,0.2,0.4c0.1,0.1,0.3,0.199,0.5,0.399l0.3,0.2l0.101,0.1c0.1,0.101,0.1,0.2,0.1,0.301c0,0.199-0.1,0.3-0.2,0.399
		C71.2,31.9,71.1,32,70.9,32c-0.2,0-0.301-0.1-0.4-0.2c-0.1-0.1-0.2-0.3-0.3-0.5L70.1,32c0.2,0.1,0.301,0.2,0.5,0.2
		c0.101,0,0.2,0,0.301,0c0.3,0,0.6-0.101,0.899-0.3c0.2-0.2,0.4-0.5,0.4-0.801c0-0.1,0-0.3-0.101-0.399C72,30.6,71.9,30.5,71.7,30.4
		L71.5,30.3c-0.1-0.1-0.2-0.2-0.3-0.2C71.1,30,71.1,30,71.1,29.9c0-0.101,0.101-0.301,0.2-0.4c0.101-0.1,0.3-0.2,0.4-0.2
		c0.2,0,0.3,0.101,0.399,0.2c0.101,0.1,0.101,0.2,0.2,0.3l0.101-0.6C72,29,71.9,29,71.9,29C71.8,29,71.8,29,71.7,29z"/>
	<path fill="#232020" d="M70.9,13.3c-2.301,0.1-3.4,1.3-3.601,3.6c-0.1,1.1,0.4,1.9,1.5,2.2c0.5,0.1,1,0.2,1.5,0.2
		c2.101,0,4.101,0,6.2,0c1.9,0,2,0.2,1.7,2c-0.2,1.2-0.5,1.5-1.8,1.5c-2.601,0-5.2,0-7.801,0H66.7C66.6,23.4,66.5,24,66.4,24.5
		c0.1,0,1.3,0,3.1,0c1.6,0,3.7,0,5.4,0c0.5,0,1,0,1.399,0c0.2,0,0.3,0,0.5,0c2.101-0.1,3.2-1.1,3.5-3.2c0-0.2,0.101-0.399,0.101-0.6
		c0.3-1.9-0.4-2.9-2.301-3C75.7,17.6,73.4,17.6,71,17.6c-1.4,0-1.8-0.4-1.3-1.8c0.2-0.8,0.899-0.9,1.6-0.9c2.8,0,5.5,0,8.3,0
		c1.5,0,1.5-0.1,1.4-1.7C77.6,13.2,74.3,13.2,70.9,13.3z"/>
	<path fill="#232020" d="M58.8,31c0,0,0-0.1,0-0.2L59,29.4V29.3c0,0,0,0,0-0.1l0,0L58.8,31C58.7,31,58.8,31,58.8,31L58.8,31z"/>
	<path fill="#232020" d="M51.9,28.5L51.6,28.4c-0.1,0-0.199,0-0.3,0c-0.3,0-0.6,0.1-0.8,0.3s-0.3,0.399-0.3,0.7
		c0,0.199,0,0.3,0.1,0.5c0.1,0.1,0.3,0.3,0.5,0.5l0.3,0.199L51.2,30.7l0.1,0.1C51.4,30.9,51.4,31,51.4,31.2S51.3,31.6,51.2,31.7
		c-0.101,0.1-0.3,0.2-0.5,0.2s-0.4-0.101-0.5-0.2c-0.1-0.101-0.1-0.101-0.1-0.2c0,0,0-0.1-0.1-0.1c0,0,0-0.101-0.1-0.2l-0.1,0.7
		l0.3,0.1l0.3,0.1c0.1,0,0.2,0,0.4,0c0.4,0,0.7-0.1,0.9-0.3C52,31.6,52.1,31.3,52.1,31c0-0.1,0-0.3-0.1-0.4
		c-0.1-0.1-0.2-0.3-0.4-0.399L51.3,30c-0.2-0.1-0.3-0.3-0.399-0.4C50.8,29.5,50.8,29.4,50.8,29.3c0-0.2,0.101-0.3,0.2-0.399
		c0.1-0.101,0.2-0.101,0.4-0.101C51.8,28.8,52,29,52.1,29.4L52.2,28.6c-0.101,0-0.101,0-0.101,0H51.9V28.5z"/>
	<path fill="#232020" d="M54.4,29.8L54.4,29.8c-0.101,0-0.2,0-0.301,0.2C54,30.2,53.9,30.4,53.9,30.7v0.1c0,0.101,0,0.2,0.1,0.3l0,0
		l0,0c0.1,0,0.2,0,0.3-0.199c0.101-0.2,0.2-0.4,0.2-0.7C54.5,30,54.4,29.8,54.4,29.8L54.4,29.8z"/>
	<path fill="#232020" d="M59.7,29.3v0.2l-0.2,1.4c0,0.199-0.1,0.3-0.1,0.3S59.3,31.3,59.3,31.4c-0.1,0.1-0.2,0.1-0.3,0.199
		c-0.1,0-0.2,0.101-0.4,0.101c-0.399,0-0.6-0.2-0.6-0.5V31v-0.2l0.3-1.8h-0.7c0.101,0.1,0.101,0.2,0.101,0.3v0.2L57.5,31
		c0,0.1,0,0.2,0,0.3c0,0,0,0.101,0,0.2c0,0.2,0.1,0.3,0.2,0.4C57.9,32,58.1,32.1,58.3,32.1c0.4,0,0.601-0.1,0.8-0.3l0.2-0.2L59.2,32
		H60c-0.1-0.1-0.1-0.2-0.1-0.2v-0.2l0.399-2.5h-0.7C59.7,29.1,59.7,29.2,59.7,29.3z"/>
	<path fill="#232020" d="M47.4,29c-0.1,0-0.3,0-0.4,0c-0.6,0-1,0.2-1.4,0.5s-0.5,0.8-0.5,1.4c0,0.3,0.1,0.6,0.3,0.8
		c0.2,0.2,0.4,0.3,0.7,0.3c0.3,0,0.6-0.1,0.8-0.3l0.2-0.2l-0.2,0.9c0,0.3-0.2,0.5-0.3,0.699C46.4,33.3,46.2,33.4,46,33.4
		c-0.3,0-0.5-0.2-0.5-0.601L45,33.2c0.1,0.1,0.2,0.2,0.3,0.3c0,0,0.1,0,0.1,0.1c0,0,0.1,0,0.2,0.101c0.1,0,0.3,0.1,0.4,0.1
		c0.4,0,0.7-0.1,1-0.399c0.3-0.301,0.5-0.7,0.5-1.101l0.4-2.5l0.1-0.3l0.1-0.2h-0.2L47.4,29z M47.3,29.7l-0.2,1.1
		c0,0.2-0.1,0.3-0.1,0.4c0,0.1-0.1,0.1-0.2,0.2c-0.2,0.199-0.4,0.3-0.6,0.3c-0.2,0-0.4-0.101-0.5-0.2c-0.1-0.1-0.2-0.4-0.2-0.7
		c0-0.399,0.1-0.8,0.4-1.1c0.3-0.3,0.5-0.5,0.9-0.5c0.3,0,0.4,0.1,0.4,0.399L47.3,29.7z"/>
	<path fill="#232020" d="M50.7,31C50.7,31,50.7,31.1,50.7,31L50.7,31C50.7,31.1,50.7,31.1,50.7,31c0.1,0.1,0.1,0.1,0.1,0l0,0H50.7
		L50.6,30.9C50.6,30.9,50.7,30.9,50.7,31L50.7,31L50.7,31z"/>
	<path fill="#232020" d="M57.3,27.3h-0.7c0,0.101,0,0.101,0.101,0.2v0.1v0.2L56.1,31.4c0,0.1-0.1,0.199-0.1,0.3
		c0,0.1-0.1,0.1-0.1,0.2h0.8c0-0.101-0.101-0.2-0.101-0.2v-0.2L57.3,27.3z"/>
	<path fill="#DCDCDC" d="M95.9,14.9c-2.601,0-5.2,0-7.801,0c-0.8,0-1.3,0.4-1.5,1.2c-0.3,1.8-0.699,3.6-1,5.4
		c-0.1,0.9,0.101,1.2,1.101,1.2c1.3,0,2.6,0,3.8,0c1.3,0,2.6,0,3.9,0c0.8,0,1.3-0.3,1.5-1.101c0.3-1.8,0.6-3.7,0.899-5.5
		C97.1,15.2,96.8,14.9,95.9,14.9z M96.3,16c-0.3,1.7-0.6,3.5-0.899,5.5c-0.101,0.4-0.2,0.6-0.801,0.6l0,0c-0.899,0-1.8,0-2.8,0h-1.2
		c-0.399,0-0.8,0-1.199,0c-0.9,0-1.801,0-2.7,0c-0.3,0-0.4,0-0.4-0.1c0,0,0-0.1,0-0.4c0.101-0.8,0.3-1.6,0.4-2.399
		c0.2-1,0.399-2,0.5-3c0.1-0.5,0.3-0.7,0.8-0.7h1.1c2.2,0,4.4,0,6.601,0c0.2,0,0.399,0,0.399,0C96.3,15.7,96.3,15.8,96.3,16z"/>
	<path fill="#DCDCDC" d="M99.2,13.6c-0.5-0.6-1.4-1-2.7-1c-2.4-0.1-5.1-0.1-8.4,0c-2.199,0-3.699,1-4,2.7
		c-0.5,2.4-0.899,4.8-1.199,6.9c-0.2,1.2,0.5,2.3,1.8,2.7c0.6,0.199,1.2,0.3,1.7,0.3c0.899,0,1.899,0,2.8,0c0.8,0,1.6,0,2.399,0
		c0.4,0,0.801,0,1.301,0s1.1,0,1.6,0c2.4,0,3.9-1.3,4.3-3.4c0.4-2.1,0.7-3.7,0.9-5.3C99.9,15.2,99.7,14.3,99.2,13.6z M99.1,16.4
		c-0.3,1.8-0.6,3.5-0.899,5.3C97.9,23.6,96.6,24.5,94.5,24.6c-1.4,0-2.7,0-4.1,0c-1.301,0-2.601,0-3.9,0c-0.5,0-1.1-0.1-1.6-0.3
		c-0.9-0.3-1.5-1-1.301-2c0.301-2.3,0.7-4.6,1.2-6.8c0.3-1.4,1.601-2.2,3.4-2.2c2.8,0,5.6-0.1,8.399,0
		C98.6,13.3,99.4,14.3,99.1,16.4z"/>
	<path fill="#DCDCDC" d="M81.6,12.6H81c-1,0-2,0-3,0c-2.3,0-4.7,0-7.1,0c-2.601,0.1-4,1.5-4.2,4.2c-0.101,1.5,0.6,2.5,2,2.9
		c0.5,0.1,1.1,0.2,1.7,0.2c1.5,0,3,0,4.5,0c0.6,0,1.1,0,1.699,0c0.2,0,0.9,0,1.101,0.1c0,0.2-0.101,0.9-0.101,1.1
		c-0.1,0.5-0.199,0.7-0.3,0.801C77.2,22,76.9,22,76.4,22c-1.801,0-3.7,0-5.5,0c-0.801,0-1.5,0-2.301,0H66.2l-0.5,2.7l0,0L65.6,25
		c0.601,0,1,0,1.101,0c0.899,0,1.899,0,2.8,0c1.1,0,2.2,0,3.3,0c1.3,0,2.601,0,3.9,0c2.399-0.1,3.8-1.3,4.2-3.7c0-0.1,0-0.2,0-0.3
		s0-0.2,0.1-0.3c0.2-1.2,0.1-2.1-0.5-2.7c-0.5-0.6-1.3-1-2.4-1C76.4,17,74.7,17,73,17c-0.7,0-1.3,0-2,0s-0.8-0.1-0.8-0.1
		s-0.101-0.2,0.1-0.8c0.101-0.3,0.2-0.4,0.9-0.4l0,0c2.1,0,4.2,0,6.3,0h2c0.7,0,1.4,0,1.8-0.4c0.4-0.4,0.4-1.1,0.3-1.9V12.6z
		 M79.5,14.9c-2.8,0-5.5,0-8.3,0c-0.7,0-1.3,0.1-1.601,0.9c-0.399,1.3-0.1,1.8,1.301,1.8c2.399,0,4.8,0,7.1,0.1
		c1.9,0.1,2.6,1.1,2.3,3c0,0.2-0.1,0.399-0.1,0.6c-0.3,2.101-1.4,3.101-3.5,3.2c-0.2,0-0.3,0-0.5,0c-0.5,0-1,0-1.4,0
		c-1.7,0-3.7,0-5.399,0c-1.7,0-3,0-3.101,0c0.101-0.5,0.2-1.1,0.3-1.7h1.9c2.6,0,5.2,0,7.8,0c1.2,0,1.601-0.3,1.8-1.5
		c0.301-1.8,0.2-2-1.699-2c-2,0-4.101,0-6.2,0c-0.5,0-1-0.1-1.5-0.2C67.6,18.8,67.1,18,67.2,16.9c0.2-2.3,1.3-3.6,3.6-3.6
		c3.3-0.1,6.7,0,10.101,0C81.1,14.8,81,14.9,79.5,14.9z"/>
	<path fill="#DCDCDC" d="M35.2,25c1.4,0.1,2.7,0.2,4.1,0.2c0.2,0,0.3,0,0.5,0H40c1.1,0,2.5,0,3.9-0.2c1.5-0.2,2.6-0.9,2.9-2.1
		c0.3-1,0.4-1.9,0.6-3c0.1-0.4,0.2-0.9,0.3-1.4l0.2-0.8h-0.8c-0.1,0-0.9,0-1.5,0c-0.1,0-0.3,0-0.5,0.1c-0.2,0.1-0.4,0.1-0.5,0.3
		c-0.3,0.3-0.5,0.6-0.5,1.2c0,0.5-0.1,1-0.2,1.5c0,0.2-0.1,0.4-0.1,0.601c0,0.199-0.1,0.6-0.2,0.699C43.5,22.2,43.3,22.2,42.9,22.2
		c-2.1,0-4.2,0-6.2,0c-0.3,0-0.4,0-0.4,0c0-0.101,0-0.2,0-0.5c0.3-1.6,0.6-3.3,0.9-4.9c0.1-0.4,0.2-0.9,0.3-1
		c0.2-0.1,0.7-0.1,1.1-0.1c1.7,0,3.5,0,5.2,0h2.3c0.9,0,1.5,0,1.9-0.4c0.4-0.4,0.4-0.9,0.5-1.9l0.1-0.8c-0.7,0-1.1,0-1.2,0
		c-0.7,0-1.5,0-2.2,0c-2.2,0-4.5,0-6.7,0c-0.9,0-1.8,0.3-2.4,0.5c-1.2,0.4-1.9,1.3-2.1,2.6c-0.2,1.4-0.5,2.8-0.7,4.2
		c-0.1,0.5-0.2,1-0.3,1.5c-0.2,1.1-0.1,1.899,0.4,2.5C33.4,24.5,34.1,24.9,35.2,25z M33.3,21.6c0.3-1.899,0.7-3.8,1-5.8
		c0.2-1,0.7-1.8,1.7-2.1c0.7-0.2,1.5-0.5,2.2-0.5c3-0.1,5.9,0,8.9,0c0.1,0,0.3,0,0.4,0l0,0l0,0c-0.1,1.6-0.1,1.6-1.7,1.6
		c-2.5,0-5,0-7.5,0c-1.5,0-1.8,0.2-2.1,1.7c-0.3,1.6-0.6,3.3-0.9,4.9c-0.2,0.899,0,1.3,1,1.3c2.1,0,4.2,0,6.2,0
		c1.1,0,1.4-0.3,1.6-1.4c0.1-0.7,0.3-1.5,0.4-2.2c0-0.7,0.4-0.9,1-0.8c0.4,0,0.8,0,1.3,0c-0.3,1.5-0.5,2.9-0.9,4.3
		c-0.3,1.101-1.3,1.5-2.3,1.7c-1.3,0.2-2.5,0.2-3.8,0.2c-1.6,0-3.1,0-4.7-0.2S33,23.3,33.3,21.6z"/>
	<line fill="none" x1="16.4" y1="13.5" x2="16.4" y2="13.5"/>
	<path fill="#DCDCDC" d="M15.5,24c0.6,0.7,1.6,1.1,3,1.1c1.2,0,2.3,0,3.5,0c1.3,0,2.5,0,3.8,0h0.7c2.3,0,3.5-1,4-3.3
		c0.1-0.3,0.1-0.7,0.2-1v-0.2c0.3-1.8,0.6-3.6,0.9-5.399l0.5-2.7h-3.4L28.6,13c0,0.1,0,0.2-0.1,0.3c0,0.2-0.1,0.4-0.1,0.6l-0.3,1.4
		c-0.3,1.9-0.7,4-1,5.9c-0.1,0.7-0.4,0.7-0.6,0.7c-2.5,0-5.1,0-7.7,0c-0.2,0-0.3,0-0.3-0.101c0,0,0-0.1,0-0.3c0.2-1,0.4-2.1,0.6-3.2
		c0.2-1.2,0.4-2.4,0.6-3.6c0.1-0.5,0.2-1,0.3-1.6l0.1-0.8h-3.5l-0.2,0.9l0,0l0,0c-0.1,0.8-0.3,1.6-0.4,2.4c-0.3,1.7-0.6,3.5-1,5.2
		C14.8,22.3,15,23.3,15.5,24z M15.7,21.2c0.6-2.5,0.9-5.1,1.3-7.6c0-0.1,0-0.3,0.1-0.4h2.1c-0.3,1.7-0.6,3.4-0.9,5.2
		c-0.2,1.1-0.4,2.2-0.6,3.2c-0.1,0.7,0.2,1.101,0.9,1.101c2.6,0,5.2,0,7.7,0c0.8,0,1.1-0.601,1.2-1.3c0.4-2.5,0.9-4.9,1.3-7.3
		c0.1-0.3,0.1-0.6,0.2-0.9h2.1c-0.4,2.5-0.8,4.9-1.3,7.3c-0.1,0.4-0.1,0.8-0.2,1.1c-0.4,2-1.3,2.801-3.4,2.801c-2.6,0-5.3,0-7.9,0
		C16.1,24.4,15.3,23.3,15.7,21.2z"/>
	<path fill="#DCDCDC" d="M13.2,20.5l0.4-3H4.8l0.3-1.9h0.5c0.7,0,1.4,0,2.1,0c1.6,0,3.2,0,4.9,0c0.3,0,0.5,0,0.7,0
		c0.5,0,0.9,0,1.2-0.2c0.3-0.3,0.4-0.6,0.4-1.2c0-0.2,0.1-0.5,0.1-0.8l0.1-0.8H2.2L0,25.1h3.5l0.8-4.6H13.2z M2.9,24.4H0.8
		c0.7-3.7,1.3-7.5,2-11.2h11.6c-0.3,1.9,0.1,1.6-1.7,1.6c-2.3,0-4.6,0-6.9,0c-0.3,0-0.6,0-1,0C4.4,16,4.2,17,4,18.2h8.8
		c-0.1,0.6-0.2,1.1-0.2,1.7H3.7C3.5,21.5,3.2,22.9,2.9,24.4z"/>
	<path fill="#DCDCDC" d="M46.5,25.1h1.4c0.2,0,1.2,0,1.4,0c0.9,0,1.601-0.399,2.2-1.199c0.6-0.7,1.2-1.5,1.8-2.2
		c0.3-0.3,0.5-0.601,0.8-0.9l3.4-4c0,0,0,0,0,0.1c0.3,0.6,0.6,1.2,0.9,1.8c0.899,1.8,1.699,3.6,2.6,5.5c0.2,0.3,0.6,0.899,1.1,1
		c0.5,0.1,1,0.1,1.5,0c0.2,0,0.4,0,0.601,0h1l-0.2-1c0-0.101-0.1-0.2-0.1-0.2C64.8,23.9,64.8,23.8,64.8,23.7L64,22.2
		c-1.3-2.8-2.7-5.6-4.1-8.4C59.6,13.1,59,12.6,58.3,12.5S56.9,12.7,56.4,13.4c-2.5,3-8.9,10.6-9,10.7L46.5,25.1z M48.4,23.9
		c2.8-3.4,5.7-6.7,8.5-10.101c0.8-0.9,1.899-0.8,2.399,0.3c1.601,3.3,3.2,6.6,4.8,9.9c0.101,0.1,0.101,0.3,0.2,0.5
		c-0.7,0-1.399,0.1-2,0c-0.2,0-0.5-0.3-0.6-0.6c-1.2-2.4-2.3-4.9-3.5-7.3c-0.101-0.3-0.3-0.6-0.5-1c-1.4,1.6-2.7,3.2-4,4.8
		c-0.9,1-1.7,2.1-2.601,3.1c-0.5,0.6-1,1-1.7,1h-0.1c-0.1,0-0.9,0-1.4-0.1C48.1,24.2,48.3,24,48.4,23.9z"/>
	<path fill="#DCDCDC" d="M12,26.8L12,26.8c0.1,0,0.1,0,0.2-0.1c0.1,0,0.2,0,0.2-0.101c0.1,0,0.2,0,0.2-0.1v-0.1c0-0.2,0-0.301,0-0.5
		c0-0.2,0-0.4,0-0.601s0-0.399,0-0.7c0-0.199,0-0.399,0-0.6s0-0.4,0-0.6c0-0.101,0-0.2,0-0.2l0,0l0,0c0,0,0,0.1-0.1,0.1
		c-0.1,0.101-0.2,0.3-0.3,0.5C12.1,23.9,12,24,11.9,24.1l0,0c-0.1,0-0.2,0-0.2,0c-0.2,0-0.3-0.1-0.5-0.199
		C11.1,23.8,11,23.7,11,23.6c0,0,0,0,0-0.1s-0.1-0.1-0.1-0.2c0,0,0-0.1-0.1-0.1c0,0.1,0,0.1-0.1,0.2c0,0.1-0.1,0.199-0.1,0.3l0,0
		c-0.1,0.1-0.1,0.2-0.2,0.3s-0.1,0.1-0.2,0.1h-0.1c-0.1,0-0.2,0-0.4,0C9.5,24,9.4,23.9,9.3,23.9C9.1,24.1,9,24,8.9,23.8
		c-0.2-0.2-0.3-0.3-0.4-0.5c0,0,0-0.1-0.1-0.1c0,0.1,0,0.1,0,0.2c0,0.1,0.1,0.3,0.1,0.399c0,0.3,0,0.5,0,0.8
		c0,0.101,0,0.2-0.1,0.301C8.3,25,8.2,25.1,8.1,25.2c-0.1,0.1-0.3,0.1-0.4,0H7.6H7.5c-0.1,0-0.3-0.101-0.4-0.101H7
		C7,25.2,7.1,25.2,7.1,25.3c0,0,0,0,0,0.101v0.1c0,0,0,0,0,0.1V25.7c0,0.1,0.1,0.2,0,0.3c0,0.2-0.1,0.3-0.2,0.4
		c-0.1,0-0.1,0.1-0.2,0.1c0,0,0,0-0.1,0c0,0-0.1,0-0.2,0c-0.2,0-0.3,0-0.4,0s-0.2,0-0.3,0L6,26.6V26.7l0.1,0.1L6.2,26.9L6.3,27
		l0.1,0.1L6.5,27.2l0.1,0.1L6.7,27.4L7,27.5l0.1,0.1C7.2,27.7,7.2,27.7,7.3,27.8L7.4,27.9L7.5,28l0.1,0.1L7.7,28.2l0.1,0.1L7.9,28.4
		c0.1,0,0.1,0.1,0.2,0.1l0,0l0,0c0.1-0.1,0.2-0.1,0.3-0.2c0.1-0.1,0.2-0.1,0.3-0.2c0,0,0.1,0,0.1-0.1C8.9,28.1,9,28.1,9,28
		c0.1,0,0.2-0.1,0.3-0.2c0.1,0,0.2-0.1,0.2-0.1l0,0c0.1,0,0.1-0.101,0.2-0.101h0.1c0.1,0,0.2-0.1,0.3-0.1l0,0c0.1,0,0.2-0.1,0.3-0.1
		l0.1-0.101h0.1c0.1,0,0.2-0.1,0.3-0.1H11l0,0l0.2-0.101h0.1h0.1h0.1h0.1h0.1c0,0,0,0,0.1,0h0.1C11.8,26.8,11.9,26.8,12,26.8
		L12,26.8z M11.7,26.2h-0.1h-0.1l0,0l-0.2,0.1h-0.1l-0.4,0.2h-0.1c-0.1,0-0.2,0.1-0.3,0.1L10.2,26.7c-0.1,0-0.2,0.1-0.3,0.1l0,0
		C9.7,27,9.6,27,9.5,27H9.4c-0.1,0-0.1,0.1-0.2,0.1l0,0C9.1,27.1,9,27.2,9,27.2c-0.1,0.1-0.2,0.1-0.3,0.2c-0.1,0-0.2,0.1-0.2,0.199
		L8.4,27.7c-0.1,0-0.1,0.1-0.2,0.1l0,0l-0.1-0.1l-0.3-0.3C7.7,27.3,7.7,27.3,7.6,27.2L7.5,27.1L7.4,27c0.1,0,0.1-0.1,0.2-0.1
		C7.8,26.7,8,26.4,8,26.1l0,0c0.2,0,0.4,0,0.5-0.1c0.3-0.1,0.5-0.3,0.6-0.6C9.2,25.3,9.2,25.1,9.2,25c0,0,0.1,0,0.2,0
		c0.2,0.1,0.5,0.1,0.7,0.1c0.1,0,0.2,0,0.3-0.1s0.3-0.2,0.4-0.3c0,0,0,0,0.1-0.101c0.2,0.2,0.4,0.2,0.7,0.301c0.1,0,0.3,0,0.4-0.101
		c0,0.2,0,0.4,0,0.5c0,0.2,0,0.4,0,0.601c0,0,0,0,0,0.1h-0.1L11.7,26.2z"/>
	<path fill="#DCDCDC" d="M27.5,29.8c0-0.1,0-0.2-0.1-0.5c0-0.1-0.1-0.2-0.2-0.3c-0.1-0.1-0.2-0.2-0.2-0.3c-0.3-0.3-0.7-0.4-1.2-0.4
		h-4h-2.4l0.2-1l-2,0.601L17.5,28.3H15l0.1-0.5h-0.3h-0.3h-2l0,0h0.1c0.1,0,0.1,0,0.2-0.1c0.1,0,0.2,0,0.3-0.101h0.1l0.4-0.1
		c0.2,0,0.4-0.2,0.3-0.4V26.4c0-0.101,0-0.301,0-0.4c0-0.2,0-0.4,0-0.6c0-0.2,0-0.4,0-0.601s0-0.399,0-0.6s0-0.3,0-0.5
		c0.2-0.2,0.3-0.4,0.3-0.7s0-0.7-0.2-0.9c-0.1-0.199-0.3-0.3-0.5-0.399L13,21.6h-0.1c-0.2,0-0.5,0.101-0.7,0.2
		c-0.2,0.101-0.3,0.3-0.4,0.4l0,0c-0.2-0.2-0.5-0.4-0.8-0.5c-0.1,0-0.1,0-0.2,0h-0.2c-0.2,0-0.3,0.1-0.5,0.2
		c-0.3,0.199-0.5,0.5-0.5,0.8c0,0.1,0,0.2,0,0.2l0,0c0-0.101,0-0.101,0-0.2c0-0.2-0.1-0.4-0.1-0.5L9,21.7c-0.2-0.2-0.4-0.3-0.7-0.3
		l0,0c-0.1,0-0.2,0-0.3,0s-0.3,0-0.4,0.1l-0.2,0.2l-0.1,0.1C7.1,22,7,22.2,7,22.4c0,0.1,0,0.1,0,0.199V22.7c0,0.1,0,0.2,0,0.2V23.3
		c0.1,0.101,0.1,0.2,0.2,0.3c0,0,0,0-0.1,0c-0.1-0.1-0.2-0.1-0.4-0.1c-0.3-0.1-0.7,0-0.9,0.2l-0.1,0.1L5.6,23.9
		C5.4,24.1,5.3,24.4,5.3,24.8c0,0.101,0,0.2,0,0.4c-0.2,0-0.3,0-0.5,0.1c-0.3,0.101-0.5,0.3-0.7,0.5L4,25.7c0,0.2-0.1,0.399,0,0.6
		c0,0.2,0.1,0.4,0.2,0.5c0.2,0.3,0.5,0.5,0.8,0.5c0.1,0,0.2,0,0.3,0l0.5,0.5L5.9,27.9L6,28.1l0.2,0.2L6.3,28.4
		c0.1,0,0.1,0.1,0.2,0.1l1,0.9c0.2,0.199,0.4,0.3,0.6,0.3c0.1,0,0.2,0,0.3-0.101c0.1,0,0.1-0.1,0.2-0.1l0,0l0,0l0.1-0.1
		C8.8,29.3,8.9,29.3,8.9,29.2C9,29.1,9.1,29.1,9.2,29l0.1-0.1C9.5,29,9.5,29,9.6,29s0.2-0.1,0.2-0.1c0.1,0,0.1-0.101,0.2-0.101l0,0
		c0,0,0.1,0,0.1-0.1h0.1c0.1,0,0.1-0.101,0.2-0.101l0,0c0.1,0,0.2-0.1,0.3-0.1l0.2-0.1c0.1,0,0.2-0.101,0.3-0.101l0.4,0.601l0,0V29
		l-0.2,2.5l0,0l-0.9,1.1H14l-0.7-1.1v-0.6l0.6,1l0,0l0,0l0,0c0.1,0.1,0.2,0.199,0.3,0.3c0.3,0.2,0.6,0.3,1,0.3c0.2,0,0.4,0,0.5-0.1
		h1.9c0.1,0,0.2,0.1,0.4,0.1c0.3,0,0.6-0.1,0.9-0.3c0.3,0.2,0.6,0.3,1,0.3c0.2,0,0.4,0,0.5-0.1h0.1h2.2H24l-0.4-0.9l0,0
		c0.1,0.2,0.2,0.3,0.3,0.5c0.2,0.2,0.7,0.5,1.4,0.5c0.4,0,0.8,0,1.3-0.3c0.2-0.101,0.4-0.5,0.7-1l0.1-0.4l0.3-0.899L27.5,30.1
		C27.5,30.1,27.5,29.9,27.5,29.8z M7.4,23.7L7.4,23.7L7.4,23.7L7.4,23.7z M11.7,27.3h-0.1h-0.1h-0.1h-0.1
		c-0.1,0-0.1,0.101-0.2,0.101l0,0c0,0,0,0-0.1,0s-0.2,0.1-0.3,0.1h-0.1l-0.1,0.1c-0.1,0-0.2,0.101-0.3,0.101l0,0
		c-0.1,0-0.2,0.1-0.2,0.1H9.9c-0.1,0-0.1,0.101-0.2,0.101l0,0c-0.1,0-0.1,0.1-0.2,0.1c-0.1,0.1-0.2,0.1-0.3,0.1
		C9.1,28.1,9.1,28.2,9,28.2V28.6C8.9,28.7,8.8,28.7,8.7,28.8C8.6,28.9,8.5,28.9,8.4,29l-0.1,0.1c0,0,0,0-0.1,0l0,0c0,0,0,0-0.1,0
		c0,0-0.2,0.101-0.3-0.1h0.1c0,0-0.1,0-0.1-0.1c-0.1,0-0.1-0.101-0.2-0.101l-0.1-0.1L7.4,28.6l-0.1-0.1l-0.1-0.1L7.1,28.3L7,28.1
		c-0.1,0-0.1-0.1-0.2-0.1l-0.1-0.1L6.6,27.8l-0.1-0.1L6.4,27.6l-0.1-0.1l-0.1-0.1L6,27.2L5.9,27.1L5.8,27l-0.1-0.1l-0.2-0.2
		c-0.1,0-0.2,0.1-0.3,0c-0.2,0-0.3-0.101-0.4-0.3C4.7,26.3,4.7,26.2,4.7,26.1c0-0.1,0-0.199,0.1-0.399C4.9,25.6,5,25.5,5.1,25.4
		c0.2-0.101,0.4,0,0.5,0.1s0.2,0.2,0.2,0.3l0,0c0.1,0,0.3,0,0.4,0.101c0.1,0,0.2,0,0.4,0c0,0,0,0,0.1,0l0,0c0,0,0.1,0,0.1-0.101
		l0.1-0.1c0,0,0-0.101,0-0.2v-0.1c0,0,0,0,0-0.101l0,0c0,0,0,0,0-0.1c0,0,0-0.101-0.1-0.101c0,0,0-0.1-0.1-0.1c-0.1,0-0.1,0-0.2,0
		s-0.2-0.1-0.3-0.2C6.1,24.7,6,24.5,6,24.4c0-0.2,0.1-0.4,0.3-0.5C6.3,24,6.5,24,6.6,24s0.1,0,0.2,0.1c0.1,0,0.1,0.101,0.1,0.101
		c0,0.1,0.1,0.1,0.1,0.2c0,0.1,0.1,0.199,0.1,0.3c0.1,0.1,0.1,0.1,0.2,0.1c0.1,0,0.2,0.101,0.3,0.101h0.1h0.1c0.1,0,0.1,0,0.2,0l0,0
		c0,0,0.1,0,0.1-0.101c0-0.1,0-0.1,0-0.2c0-0.199,0-0.399,0-0.699c0-0.101,0-0.301-0.1-0.4c0-0.1,0-0.1-0.1-0.2c0,0,0,0,0-0.1l0,0
		c-0.1,0-0.2-0.101-0.2-0.101C7.6,23,7.5,22.9,7.5,22.8c0-0.1,0-0.2,0-0.3s0.1-0.2,0.2-0.3L7.8,22.1l0,0c0,0,0,0,0.1,0
		C8,22,8.1,22,8.2,22c0.2,0,0.3,0.1,0.4,0.3c0.1,0.101,0.1,0.3,0.1,0.5c0,0.101,0,0.101,0,0.101l0,0C8.7,23,8.8,23,8.8,23.1
		C8.9,23.2,9,23.4,9.2,23.5c0.1,0.1,0.2,0.2,0.3,0.3C9.6,23.9,9.7,24,9.7,24h0.1l0,0h0.1c0.1-0.1,0.1-0.1,0.1-0.2l0,0
		c0-0.1,0.1-0.2,0.1-0.3s0-0.1,0-0.2c-0.1,0-0.1-0.1-0.2-0.2l0,0C9.9,23,9.8,23,9.8,22.9c0-0.101,0-0.2,0-0.2c0-0.2,0.1-0.3,0.3-0.4
		c0.1-0.1,0.3-0.1,0.4-0.1c0.2,0,0.3,0.1,0.4,0.2C11,22.5,11,22.6,11,22.7c0,0.1,0,0.2-0.1,0.3c0,0.1-0.1,0.1-0.1,0.2
		c0,0.1,0,0.1,0.1,0.2c0,0,0,0.1,0.1,0.1c0,0,0,0,0,0.1c0,0.101,0.1,0.101,0.1,0.2c0.1,0.101,0.1,0.101,0.2,0.101c0,0,0,0,0.1,0l0,0
		c0.1,0,0.1-0.101,0.2-0.2c0.1-0.2,0.2-0.3,0.3-0.4c0,0,0-0.1,0.1-0.1c0,0,0,0,0-0.101L11.9,23c-0.1-0.2-0.1-0.4,0.1-0.6
		c0-0.101,0.1-0.101,0.2-0.2c0.1-0.101,0.2-0.101,0.3-0.101c0.2,0,0.4,0.101,0.5,0.301c0.1,0.1,0.1,0.3,0.1,0.5
		c0,0.1-0.1,0.199-0.2,0.3c-0.1,0-0.1,0.1-0.2,0.1V23.4c0,0.1,0,0.1,0,0.199c0,0.2,0,0.4,0,0.601s0,0.399,0,0.6s0,0.4,0,0.601
		c0,0.199,0,0.399,0,0.6s0,0.3,0,0.5c0,0.1,0,0.1,0,0.2v0.1V27h0.2h-0.1c-0.1,0-0.2,0-0.3,0.1c-0.1,0-0.2,0-0.2,0.101h-0.1
		c0,0,0,0-0.1,0H12h-0.1c0,0,0,0-0.1,0c0,0,0,0-0.1,0V27.3z M14.2,29.1C14.1,29,14,28.9,13.9,28.8c-0.1-0.1-0.3-0.1-0.5-0.1h-0.5
		l-0.1,1.2h0.4h0.3l0.2-0.101c0.1,0,0.1-0.1,0.2-0.1L14,29.6L13.9,30.4c-0.1-0.101-0.1-0.2-0.2-0.2c-0.1,0-0.2-0.101-0.4-0.101h-0.4
		l-0.1,1.2V31.4c0,0.1,0,0.199,0,0.199l0.1,0.2H12l0.1-0.2c0-0.1,0.1-0.199,0.1-0.3l0.2-2.5v-0.1c0-0.101,0-0.101,0-0.2
		s-0.1-0.1-0.1-0.2h2.1L14.2,29.1z M17,31.9h-0.7l0.1-0.4l-0.2,0.2C16,31.9,15.7,32,15.4,32c-0.3,0-0.5-0.1-0.6-0.2
		c-0.2-0.1-0.2-0.3-0.2-0.399c0-0.101,0-0.101,0-0.2c0,0,0-0.101,0-0.3l0.2-1.5v-0.2c0-0.101,0-0.2-0.1-0.3h0.7l-0.3,1.8v0.2V31.1
		c0,0.301,0.2,0.5,0.6,0.5c0.1,0,0.3,0,0.4-0.1c0.1,0,0.2-0.1,0.3-0.2c0.1-0.1,0.1-0.1,0.1-0.2c0-0.1,0.1-0.199,0.1-0.3l0.2-1.399
		v-0.2c0-0.101,0-0.2-0.1-0.3h0.7L17,31.4V31.6C16.9,31.7,16.9,31.8,17,31.9z M19,29.3h-0.5l-0.3,2v0.2c0,0.1,0.1,0.2,0.2,0.2
		s0.2-0.101,0.4-0.2l-0.1,0.4C18.5,32,18.3,32.1,18.1,32.1c-0.2,0-0.3,0-0.4-0.1c-0.1-0.1-0.1-0.2-0.1-0.3v-0.4l0.3-1.899h-0.3
		l0.1-0.301H18l0.1-0.6l0.6-0.2L18.6,29h0.6L19,29.3z M21.7,31.9H21l0.1-0.4l-0.2,0.2C20.7,31.9,20.4,32,20,32
		c-0.3,0-0.5-0.1-0.6-0.2c-0.2-0.1-0.2-0.3-0.2-0.399c0-0.101,0-0.101,0-0.2c0,0,0-0.101,0-0.3l0.2-1.5v-0.2c0-0.101,0-0.2-0.1-0.3
		H20l-0.3,1.8v0.2V31.1c0,0.301,0.2,0.5,0.6,0.5c0.1,0,0.3,0,0.4-0.1c0.1,0,0.2-0.1,0.3-0.2c0.1-0.1,0.1-0.1,0.1-0.2
		c0-0.1,0.1-0.199,0.1-0.3l0.2-1.399v-0.2c0-0.101,0-0.2-0.1-0.3H22l-0.4,2.5V31.6C21.6,31.7,21.6,31.8,21.7,31.9z M23.7,29.4
		c-0.2,0-0.3,0.1-0.4,0.199c-0.1,0.101-0.2,0.301-0.2,0.5l-0.2,1.4v0.2v0.1L23,31.9h-0.8c0.1-0.101,0.1-0.2,0.1-0.2
		c0-0.101,0-0.101,0.1-0.3l0.3-2v-0.2c0-0.101,0-0.2-0.1-0.3h0.7L23.2,29.3l0.2-0.2l0.2-0.1l0.2-0.1c0.1,0,0.2,0,0.3,0L24,29.7
		c-0.1-0.101-0.1-0.2-0.2-0.2C23.9,29.4,23.8,29.4,23.7,29.4z M26.9,30.1h-2.1l-0.1,0.4v0.3c0,0.601,0.3,0.9,0.8,0.9
		c0.2,0,0.5-0.101,0.7-0.2l0.2-0.1c0.1,0,0.1-0.101,0.2-0.2l-0.2,0.5l-0.2,0.1c-0.3,0.2-0.6,0.3-0.9,0.3c-0.4,0-0.7-0.1-0.9-0.3
		c-0.2-0.2-0.3-0.5-0.3-0.899c0-0.5,0.2-0.9,0.5-1.301c0.3-0.399,0.7-0.5,1.2-0.5c0.3,0,0.6,0.101,0.8,0.301
		C26.8,29.6,26.9,29.8,26.9,30.1L26.9,30.1z"/>
	<path fill="#DCDCDC" d="M25.7,29.2c-0.2,0-0.4,0.1-0.6,0.2C25,29.5,25,29.5,24.9,29.6L24.8,29.9h1.3c0.1,0,0.1,0,0.1-0.101
		c0,0,0.1-0.1,0.1-0.2c0-0.1-0.1-0.3-0.2-0.3C26.1,29.2,25.9,29.2,25.7,29.2z"/>
	<path fill="#DCDCDC" d="M34.3,29.1c-0.3,0-0.6,0.2-0.9,0.5C33.2,29.9,33,30.3,33,30.7c0,0.3,0.1,0.5,0.2,0.7
		c0.1,0.199,0.3,0.199,0.5,0.199c0.2,0,0.4-0.1,0.6-0.3c0.1-0.1,0.1-0.2,0.1-0.2c0-0.1,0.1-0.199,0.1-0.399l0.2-1.101V29.4
		C34.7,29.2,34.6,29.1,34.3,29.1z"/>
	<path fill="#DCDCDC" d="M46.9,29.1c-0.3,0-0.6,0.2-0.9,0.5c-0.3,0.301-0.4,0.7-0.4,1.101c0,0.3,0.1,0.5,0.2,0.7
		c0.1,0.199,0.3,0.199,0.5,0.199c0.2,0,0.4-0.1,0.6-0.3c0.1-0.1,0.1-0.2,0.2-0.2c0-0.1,0-0.199,0.1-0.399l0.2-1.101V29.4
		C47.3,29.2,47.2,29.1,46.9,29.1z"/>
	<path fill="#DCDCDC" d="M47.6,28.3L47.6,28.3c-0.2,0-0.4-0.1-0.5-0.1c-0.7,0-1.3,0.2-1.8,0.7c-0.1-0.2-0.2-0.301-0.4-0.4
		c-0.3-0.2-0.6-0.3-1-0.3c-0.2,0-0.3,0-0.5,0.1h-0.9c0-0.1,0-0.2,0-0.3c0-0.3-0.1-0.5-0.3-0.7C42,27.1,41.8,27,41.5,27
		s-0.5,0.1-0.7,0.3c-0.2,0.2-0.3,0.5-0.3,0.7c0,0.1,0,0.2,0,0.3h-0.7l0,0c-0.1,0-0.3-0.1-0.5-0.1c-0.3,0-0.7,0.1-1,0.2
		C38.2,28.3,38.1,28.3,38,28.3c-0.3-0.1-0.7-0.1-1.1,0H35h-0.1l0,0c-0.2,0-0.4,0-0.5,0c-0.7,0-1.4,0.2-1.8,0.7c0,0,0,0-0.1,0.1
		l0.1-1.399l-0.9,0.1l0,0l-0.5-0.1h-0.3c-0.7,0-1.3,0.3-1.8,0.8s-0.7,1.2-0.7,1.9c0,0.699,0.2,1.199,0.6,1.6s0.9,0.6,1.6,0.6
		c0.2,0,0.4,0,0.6,0c0.2,0,0.4-0.1,0.6-0.1l0.7-0.2c0.3,0.3,0.6,0.4,1,0.4c0.1,0,0.2,0,0.4,0H34h0.6h2.9h2l0,0h1h2.1h2.2L44,33.1
		l0.4,0.5c0.2,0.2,0.3,0.301,0.4,0.4l0,0c0.1,0,0.2,0.1,0.2,0.1c0.1,0,0.2,0.101,0.2,0.101c0.2,0.1,0.4,0.1,0.6,0.1
		c0.6,0,1.1-0.2,1.5-0.6c0.4-0.4,0.6-0.9,0.7-1.5l0.4-2.5v-0.2l0.5-0.9L48,28.4L47.6,28.3z M31.9,30.3c0,0.101,0,0.2-0.1,0.2l-0.1,1
		v0.1c0,0.101,0,0.101,0,0.2L31.5,31.9C31.3,32,31.1,32,30.9,32c-0.2,0-0.4,0-0.5,0c-0.5,0-0.8-0.1-1.1-0.4
		C29,31.3,28.9,30.9,28.9,30.4c0-0.601,0.2-1,0.5-1.4c0.4-0.4,0.8-0.6,1.3-0.6H31h0.2l0.3,0.1h0.1h0.2v0.8c0-0.1-0.1-0.2-0.2-0.2
		c0-0.1-0.1-0.1-0.1-0.1c-0.2-0.1-0.4-0.2-0.7-0.2c-0.4,0-0.7,0.2-0.9,0.5c-0.2,0.3-0.4,0.8-0.4,1.3c0,0.4,0.1,0.7,0.3,1
		C30,31.9,30.2,32,30.5,32c0.1,0,0.2,0,0.3,0c0.1,0,0.2-0.1,0.3-0.1l0.1-1.101v-0.1c0-0.101,0-0.2,0-0.2l-0.1-0.2H32
		C32,30.1,31.9,30.2,31.9,30.3z M35.4,29.2c0,0,0,0.1-0.1,0.1l-0.1,0.3l-0.3,2v0.2l0,0V31.9h-0.6v-0.2c0-0.101,0-0.101,0-0.2
		l-0.1,0.1L34.1,31.7c-0.1,0.1-0.2,0.2-0.4,0.2c-0.1,0-0.1,0-0.2,0.1c-0.1,0-0.1,0-0.2,0c-0.3,0-0.5-0.1-0.7-0.3
		c-0.2-0.2-0.3-0.5-0.3-0.8c0-0.5,0.2-1,0.5-1.4c0.4-0.4,0.8-0.5,1.4-0.5c0.1,0,0.3,0,0.4,0l0.4,0.1L35.4,29.2
		C35.4,29.1,35.4,29.2,35.4,29.2z M40.2,29.9L40,31.5v0.2c0,0.1,0,0.2,0.1,0.3h-0.8l0.1-0.5l0.1-0.4l0.2-1v-0.3
		c0-0.1,0-0.3-0.1-0.399C39.5,29.3,39.4,29.3,39.2,29.3c-0.2,0-0.4,0.101-0.6,0.2c-0.2,0.1-0.2,0.3-0.3,0.6l-0.2,1.5v0.2V31.9
		l0.1,0.1h-0.7l0.2-0.8l0.2-1v-0.4c0-0.3-0.2-0.5-0.5-0.5c-0.2,0-0.4,0.101-0.6,0.2c-0.1,0.1-0.1,0.1-0.2,0.2c0,0.1-0.1,0.2-0.1,0.3
		l-0.2,1.5v0.2v0.1l0.1,0.101h-0.8c0,0,0-0.101,0.1-0.101l0.1-0.1c0,0,0-0.101,0.1-0.2l0.3-2v-0.2c0-0.1,0-0.1-0.1-0.3h0.7l-0.1,0.3
		l0.2-0.2c0.2-0.1,0.5-0.199,0.8-0.199c0.1,0,0.2,0,0.4,0.1c0.1,0,0.2,0.1,0.2,0.1c0.1,0.101,0.1,0.101,0.2,0.301l0.2-0.2
		c0.3-0.2,0.5-0.3,0.9-0.3c0.2,0,0.4,0.1,0.6,0.199c0.2,0.101,0.2,0.2,0.2,0.4L40.2,29.9z M41.3,31.9h-0.8
		c0.1-0.101,0.2-0.301,0.2-0.5l0.3-2v-0.2V29.1c0,0,0-0.1-0.1-0.1h0.7l-0.4,2.5v0.2C41.2,31.8,41.3,31.8,41.3,31.9z M41.5,28.4
		c-0.1,0-0.2,0-0.2-0.101c-0.1-0.1-0.1-0.1-0.1-0.2c0-0.1,0-0.199,0.1-0.3c0.1-0.1,0.2-0.1,0.3-0.1s0.2,0,0.2,0.1
		c0.1,0.101,0.1,0.101,0.1,0.3c0,0.101,0,0.2-0.1,0.301l-0.1,0.1C41.6,28.4,41.6,28.4,41.5,28.4z M44.7,29.9l-0.3,1.6v0.2
		c0,0.1,0,0.1,0,0.1l0.1,0.101h-0.7l0.1-0.4c0-0.2,0.1-0.3,0.1-0.5l0.2-1v-0.3c0-0.3-0.2-0.5-0.5-0.5h-0.2h-0.2l-0.2,0.1L43,29.4
		c-0.1,0.1-0.1,0.1-0.2,0.199c0,0.101-0.1,0.2-0.1,0.4l-0.2,1.4V31.6c0,0,0,0.101,0.1,0.2h-0.8c0.1-0.1,0.1-0.2,0.1-0.2
		s0-0.1,0.1-0.3l0.3-2v-0.2c0-0.1,0-0.199-0.1-0.3h0.7l-0.1,0.3L43,29c0.2-0.2,0.5-0.3,0.8-0.3c0.3,0,0.5,0.1,0.6,0.2
		c0.1,0.1,0.2,0.3,0.2,0.399L44.7,29.9z M47.9,29.3l-0.1,0.3l-0.4,2.5c-0.1,0.5-0.2,0.801-0.5,1.101c-0.3,0.3-0.6,0.399-1,0.399
		c-0.1,0-0.3,0-0.4-0.1c-0.1,0-0.1,0-0.2-0.1c0,0-0.1,0-0.1-0.101c-0.1,0-0.1-0.1-0.3-0.3l0.5-0.4c0,0.4,0.2,0.601,0.5,0.601
		c0.2,0,0.4-0.101,0.6-0.3c0.2-0.2,0.3-0.4,0.3-0.7l0.2-0.9l-0.2,0.2c-0.2,0.2-0.5,0.3-0.8,0.3s-0.5-0.1-0.7-0.3
		C45.1,31.3,45,31,45,30.7c0-0.601,0.2-1,0.5-1.4c0.3-0.399,0.8-0.5,1.4-0.5c0.1,0,0.3,0,0.4,0l0.4,0.101h0.2V29.3z"/>
	<path fill="#DCDCDC" d="M54.4,29.1c-0.301,0-0.601,0.2-0.801,0.5C53.4,29.9,53.3,30.3,53.3,30.7v0.2c0,0.3,0.101,0.5,0.3,0.699
		c0.101,0.2,0.301,0.2,0.5,0.2c0.301,0,0.601-0.1,0.801-0.399c0.199-0.301,0.3-0.7,0.3-1.101c0-0.399-0.101-0.6-0.2-0.8
		C54.8,29.2,54.6,29.1,54.4,29.1z"/>
	<path fill="#DCDCDC" d="M65.2,29.1c-0.3,0-0.601,0.2-0.8,0.5C64.2,29.9,64.1,30.3,64.1,30.7v0.2c0,0.3,0.101,0.5,0.301,0.699
		c0.1,0.2,0.3,0.2,0.5,0.2c0.3,0,0.6-0.1,0.8-0.399C65.9,31.1,66,30.7,66,30.3c0-0.399-0.1-0.6-0.2-0.8
		C65.6,29.2,65.4,29.1,65.2,29.1z"/>
	<path fill="#DCDCDC" d="M72.3,28.5c-0.1,0-0.2-0.1-0.3-0.1s-0.1,0-0.2-0.101c-0.1,0-0.2,0-0.3,0h-0.1c-0.5,0-0.9,0.101-1.301,0.4
		c0,0-0.1,0-0.1,0.1c-0.1-0.1-0.2-0.2-0.2-0.2c-0.3-0.199-0.6-0.3-1-0.3c-0.1,0-1,0-2.6,0.101l0.1,0.199c-0.3-0.199-0.7-0.3-1.1-0.3
		c-0.3,0-0.601,0.101-0.9,0.2c-0.2,0.1-0.399,0.2-0.5,0.3v-0.1C64,28.4,64,28.2,64,28c0-0.3-0.1-0.5-0.3-0.7S63.3,27,63,27
		s-0.5,0.1-0.7,0.3c0,0,0,0-0.1,0.101l-1.7,0.5L60.4,28.3H57.8l0.3-1.6H55.7L56.1,27.6c0,0,0,0,0,0.101v0.1L55.9,28.9l0,0
		c-0.4-0.4-0.801-0.5-1.4-0.5c-0.3,0-0.6,0.1-0.9,0.199C53.3,28.7,53.1,28.9,52.8,29l0,0l0.101-1.6l-1,0.5h-0.2
		c-0.2,0-0.3-0.101-0.5-0.101c-0.5,0-0.9,0.101-1.2,0.4l0,0c-0.1,0.1-0.2,0.3-0.3,0.5c-0.1,0.399-0.1,1-0.1,2l-0.3-0.4l-0.2,2
		l0.7,0.4l0.3,0.1l0,0c0.2,0,0.3,0.101,0.5,0.101c0.5,0,0.9-0.2,1.301-0.5L52.1,32.1c0,0.101,0.101,0.101,0.2,0.2
		c0.4,0.4,0.9,0.601,1.4,0.601c0.2,0,0.399,0,0.6-0.101h3.2h0.1c0.2,0,0.301,0.101,0.5,0.101c0.2,0,0.4,0,0.5-0.101H60l0,0h0.5
		c0.1,0,0.2,0.101,0.4,0.101c0.1,0,0.3,0,0.399-0.101h2.3h0.2C64,32.9,64.2,32.9,64.4,32.9c0.199,0,0.399,0,0.6-0.101h4.7
		c0.1,0,0.1,0,0.2,0c0.199,0,0.3,0,0.5,0c0.5,0,0.899-0.2,1.3-0.5c0.1-0.1,0.2-0.1,0.2-0.2L72,32c0.2-0.3,0.3-0.6,0.3-0.9
		c0-0.1,0-0.3-0.1-0.399l0.3-1.9L72.3,28.5z M52.1,29.2C52,28.8,51.8,28.6,51.4,28.6c-0.2,0-0.301,0-0.4,0.101
		c-0.1,0.1-0.2,0.2-0.2,0.399c0,0.101,0,0.2,0.101,0.301C51,29.5,51.1,29.6,51.3,29.8l0.3,0.2c0.2,0.1,0.301,0.2,0.4,0.4
		c0.1,0.1,0.1,0.3,0.1,0.399c0,0.3-0.1,0.601-0.399,0.8C51.4,31.8,51.1,31.9,50.8,31.9c-0.1,0-0.2,0-0.4,0L50.1,31.8l-0.3-0.1L50,31
		c0,0.1,0,0.1,0.1,0.2c0,0,0,0.1,0.1,0.1c0,0.101,0.1,0.101,0.1,0.2c0.1,0.1,0.3,0.2,0.5,0.2s0.4-0.101,0.5-0.2
		c0.101-0.1,0.2-0.3,0.2-0.5c0-0.1,0-0.3-0.1-0.4L51.3,30.5l-0.1-0.1l-0.3-0.2c-0.2-0.2-0.4-0.3-0.5-0.5c-0.1-0.101-0.1-0.3-0.1-0.5
		c0-0.3,0.1-0.5,0.3-0.7c0.2-0.2,0.5-0.3,0.801-0.3c0.1,0,0.199,0,0.3,0l0.3,0.1l0,0h0.1V29.2z M55.2,31.5C54.9,31.8,54.5,32,54,32
		c-0.4,0-0.7-0.1-1-0.4c-0.3-0.199-0.4-0.6-0.4-1V30.4C52.7,30,52.9,29.6,53.2,29.3c0.2-0.1,0.399-0.3,0.6-0.3
		c0.2-0.1,0.4-0.1,0.7-0.1c0.4,0,0.7,0.1,0.9,0.399c0.199,0.2,0.399,0.5,0.399,0.9C55.8,30.7,55.6,31.1,55.2,31.5z M56.7,31.9h-0.8
		C56,31.8,56,31.8,56,31.7c0-0.101,0-0.101,0.1-0.3L56.7,27.8v-0.2v-0.1c0-0.1,0-0.1-0.101-0.2h0.7L56.7,31.4V31.6
		C56.7,31.7,56.7,31.8,56.7,31.9z M59.9,31.5v0.2c0,0.1,0,0.1,0.1,0.2h-0.7l0.101-0.4l-0.2,0.2C59,31.9,58.7,32,58.3,32
		c-0.3,0-0.5-0.1-0.6-0.2c-0.2-0.1-0.2-0.3-0.2-0.399c0-0.101,0-0.101,0-0.2c0,0,0-0.101,0-0.3l0.2-1.5v-0.2
		c0-0.101,0-0.2-0.101-0.3h0.7L58,30.7v0.2V31.1c0,0.301,0.2,0.5,0.6,0.5c0.101,0,0.301,0,0.4-0.1c0.1,0,0.2-0.1,0.3-0.2
		c0.101-0.1,0.101-0.1,0.101-0.2c0-0.1,0.1-0.199,0.1-0.3l0.2-1.399v-0.2c0-0.101,0-0.2-0.101-0.3h0.7L59.9,31.5z M61.7,31.8
		C61.5,31.9,61.3,32,61.1,32c-0.199,0-0.3,0-0.399-0.1C60.6,31.8,60.6,31.7,60.6,31.6V31.2l0.301-1.9H60.6L60.7,29h0.2l0.1-0.6
		l0.6-0.2V29H62.2L62.1,29.3h-0.5l-0.3,2v0.2c0,0.1,0.101,0.2,0.2,0.2s0.2-0.101,0.4-0.2L61.7,31.8z M62.8,31.9H61.9
		C62,31.8,62.1,31.6,62.1,31.4l0.301-2v-0.2V29.1c0,0,0-0.1-0.101-0.1H63l-0.4,2.5v0.2C62.7,31.8,62.7,31.8,62.8,31.9z M63.2,28.3
		L63.1,28.4c-0.1,0-0.1,0-0.199,0c-0.101,0-0.2,0-0.2-0.101C62.6,28.2,62.6,28.2,62.6,28.1c0-0.1,0-0.199,0.101-0.3
		c0.1-0.1,0.2-0.1,0.3-0.1s0.2,0,0.2,0.1c0.1,0.101,0.1,0.101,0.1,0.3C63.4,28.1,63.3,28.2,63.2,28.3z M66,31.5
		c-0.4,0.4-0.8,0.5-1.3,0.5c-0.4,0-0.7-0.1-1-0.4c-0.3-0.199-0.4-0.6-0.4-1V30.4l0,0C63.4,30,63.6,29.6,63.9,29.3
		C64.1,29.2,64.3,29,64.5,29c0.2-0.1,0.4-0.1,0.7-0.1c0.399,0,0.7,0.1,0.899,0.399c0.2,0.2,0.4,0.5,0.4,0.9
		C66.6,30.7,66.4,31.1,66,31.5z M69.7,29.9l-0.3,1.6v0.2c0,0.1,0,0.1,0,0.1l0.1,0.101h-0.7l0.101-0.4c0-0.2,0.1-0.3,0.1-0.5l0.2-1
		v-0.3c0-0.3-0.2-0.5-0.5-0.5h-0.2h-0.2l-0.2,0.1L68,29.4c-0.1,0.1-0.1,0.1-0.2,0.199c0,0.101-0.1,0.2-0.1,0.4l-0.2,1.4V31.6
		c0,0,0,0.101,0.1,0.2h-0.8c0.101-0.1,0.101-0.2,0.101-0.2s0-0.1,0.1-0.3l0.3-2v-0.2c0-0.1,0-0.199-0.1-0.3h0.7L67.8,29.1L68,29
		c0.2-0.2,0.5-0.3,0.8-0.3s0.5,0.1,0.601,0.2C69.6,29,69.6,29.2,69.6,29.3L69.7,29.9z M72,29.7c-0.1-0.101-0.1-0.3-0.2-0.3
		c-0.1-0.101-0.3-0.2-0.399-0.2c-0.101,0-0.301,0.1-0.4,0.2c-0.1,0.1-0.2,0.199-0.2,0.399c0,0.101,0,0.2,0.101,0.2
		c0.1,0.1,0.199,0.1,0.3,0.2l0.2,0.1C71.6,30.4,71.8,30.5,71.8,30.6C71.9,30.7,71.9,30.8,71.9,31c0,0.3-0.101,0.6-0.4,0.8
		c-0.2,0.2-0.5,0.3-0.9,0.3c-0.1,0-0.199,0-0.3,0c-0.1,0-0.3-0.1-0.5-0.199l0.101-0.7c0.1,0.2,0.199,0.399,0.3,0.5
		c0.1,0.1,0.3,0.2,0.399,0.2c0.2,0,0.301-0.101,0.4-0.2c0.1-0.101,0.2-0.3,0.2-0.4c0-0.1,0-0.2-0.101-0.3L71,30.9l-0.3-0.2
		c-0.2-0.101-0.4-0.3-0.5-0.4C70.1,30.2,70,30,70,29.9c0-0.301,0.1-0.5,0.3-0.7s0.5-0.3,0.8-0.3H71.2c0.1,0,0.1,0,0.2,0
		c0.1,0,0.1,0,0.199,0c0.101,0,0.101,0,0.2,0.1L72,29.7z"/>
</g>
</svg>
