<?xml version="1.0" encoding="utf-8"?>
<!-- Generator: Adobe Illustrator 16.0.0, SVG Export Plug-In . SVG Version: 6.00 Build 0)  -->
<!DOCTYPE svg PUBLIC "-//W3C//DTD SVG 1.1//EN" "http://www.w3.org/Graphics/SVG/1.1/DTD/svg11.dtd">
<svg version="1.1" id="Слой_1" xmlns="http://www.w3.org/2000/svg" xmlns:xlink="http://www.w3.org/1999/xlink" x="0px" y="0px"
	 width="100px" height="43px" viewBox="0 0 100 43" enable-background="new 0 0 100 43" xml:space="preserve">
<title>76691215-8656-4DDC-A668-3D8F57579FA6</title>
<desc>Created with sketchtool.</desc>
<linearGradient id="SVGID_1_" gradientUnits="userSpaceOnUse" x1="18.1646" y1="25.0342" x2="18.1646" y2="41.9534" gradientTransform="matrix(1 0 0 -1 -0.0151 42.6992)">
	<stop  offset="0" style="stop-color:#161B60"/>
	<stop  offset="0.0355" style="stop-color:#14266B"/>
	<stop  offset="0.1871" style="stop-color:#0E4F93"/>
	<stop  offset="0.3423" style="stop-color:#0971B4"/>
	<stop  offset="0.4995" style="stop-color:#058CCE"/>
	<stop  offset="0.6595" style="stop-color:#029FE0"/>
	<stop  offset="0.824" style="stop-color:#01AAEB"/>
	<stop  offset="1" style="stop-color:#00AEEF"/>
</linearGradient>
<path fill="url(#SVGID_1_)" d="M2.6,11c2,1.5,3.5,2.1,6,3.3c1.8,0.8,5.2,2.1,7.8,3.4c-3.3-2-7.2-4.5-7.2-8.9c0-6.9,17.8-6.4,26.3,0
	c0,0-5.5-8.1-17.8-8.1C9.6,0.7,3,4.5,0.8,7.7l0.1,0.2C0.9,7.8,0.6,9.5,2.6,11z"/>
<linearGradient id="SVGID_2_" gradientUnits="userSpaceOnUse" x1="18.2656" y1="16.2651" x2="18.2656" y2="-0.0347" gradientTransform="matrix(1 0 0 -1 -0.0151 42.6992)">
	<stop  offset="0" style="stop-color:#4E0900"/>
	<stop  offset="0.0923" style="stop-color:#6D2505"/>
	<stop  offset="0.2404" style="stop-color:#984B0C"/>
	<stop  offset="0.3908" style="stop-color:#BC6B11"/>
	<stop  offset="0.5415" style="stop-color:#D78415"/>
	<stop  offset="0.6928" style="stop-color:#EB9619"/>
	<stop  offset="0.8451" style="stop-color:#F7A01A"/>
	<stop  offset="1" style="stop-color:#FBA41B"/>
</linearGradient>
<path fill="url(#SVGID_2_)" d="M9.3,34.7c0-4,3.2-6.4,6.2-8.2c-3.6,1.8-9.7,4.1-11.1,4.9C3,32.2,2.2,32.3,1.6,33.5
	C1.2,34.2,1,35.3,0.9,36c2.3,3.2,8.8,6.8,16.9,6.8c12.3,0,17.8-8.1,17.8-8.1C27.2,41.1,9.3,41.6,9.3,34.7z"/>
<linearGradient id="SVGID_3_" gradientUnits="userSpaceOnUse" x1="10.4146" y1="6.7173" x2="10.4145" y2="35.0271" gradientTransform="matrix(1 0 0 -1 -0.0151 42.6992)">
	<stop  offset="0" style="stop-color:#660308"/>
	<stop  offset="0.4381" style="stop-color:#DE1A23"/>
	<stop  offset="0.6237" style="stop-color:#DE1A23"/>
	<stop  offset="1" style="stop-color:#660308"/>
</linearGradient>
<path fill="url(#SVGID_3_)" d="M4.4,31.4c1.4-0.801,7.5-3.101,11.1-4.9c2.7-1.7,5.3-3,5.3-4.7c0-1.5-2-2.7-4.3-4.1
	c-2.6-1.3-6.1-2.6-7.8-3.4c-2.5-1.2-4-1.8-6-3.3S1,7.9,1,7.9L0.8,7.7C0.3,8.4,0,9.2,0,9.8c0,3.9,7.7,5.9,7.7,11.9
	C7.7,27.6,0,29.8,0,33.6c0,0.7,0.3,1.5,0.9,2.301C1,35.2,1.1,34.1,1.5,33.4C2.2,32.3,3,32.2,4.4,31.4z"/>
<linearGradient id="SVGID_4_" gradientUnits="userSpaceOnUse" x1="18.2056" y1="18.8691" x2="18.2056" y2="23.5316" gradientTransform="matrix(1 0 0 -1 -0.0151 42.6992)">
	<stop  offset="0" style="stop-color:#DE1A22"/>
	<stop  offset="1" style="stop-color:#F9D7D8"/>
</linearGradient>
<path fill="url(#SVGID_4_)" d="M18.6,20.1c0,0,1.1,0.7,1.3,1.3c0.2,0.6-0.5,1.6-1.1,2c-0.6,0.399-1.5,0.5-1.6,0.3
	c-0.3-0.601,1.2-1,1-1.9c-0.2-0.9-0.8-1.3-1.2-1.6c-0.3-0.4-0.7-0.8-0.5-0.9C16.6,19,18.6,20.1,18.6,20.1z"/>
<g>
	<path fill-rule="evenodd" clip-rule="evenodd" fill="#FFFFFF" d="M45.591,19.106c0-0.373,0-0.707,0-1.04c0-0.325,0-0.65,0-0.977
		c0-0.33-0.001-0.661,0-0.999c0.171,0.045,0.317,0.094,0.467,0.118c0.168,0.026,0.34,0.027,0.509,0.045
		c0.122,0.012,0.243,0.024,0.362,0.043c0.223,0.036,0.359,0.177,0.443,0.377c0.073,0.175,0.097,0.36,0.11,0.547
		c0.006,0.098,0.005,0.195,0.005,0.294c0,2.399,0,4.798,0,7.199c0,0.041-0.002,0.081,0,0.121c0.005,0.078-0.025,0.139-0.07,0.2
		c-0.203,0.28-0.477,0.462-0.79,0.593c-0.311,0.131-0.639,0.185-0.97,0.229c-0.655,0.089-1.313,0.112-1.972,0.052
		c-0.439-0.041-0.868-0.122-1.28-0.287c-0.657-0.261-1.111-0.719-1.367-1.378c-0.149-0.382-0.233-0.778-0.271-1.185
		c-0.039-0.42-0.059-0.843-0.016-1.265c0.043-0.435,0.144-0.85,0.323-1.247c0.228-0.506,0.59-0.891,1.058-1.18
		c0.42-0.261,0.875-0.425,1.367-0.49c0.455-0.062,0.907-0.065,1.361,0c0.203,0.028,0.396,0.083,0.582,0.172
		C45.479,19.066,45.517,19.078,45.591,19.106z M45.577,24.077c0.005-0.061,0.017-0.124,0.017-0.188c0-1.049-0.002-2.096-0.005-3.147
		c0-0.046-0.011-0.093-0.018-0.139c-0.046-0.021-0.083-0.039-0.121-0.049c-0.414-0.104-0.835-0.148-1.258-0.104
		c-0.529,0.059-1.174,0.336-1.4,1.143c-0.103,0.366-0.12,0.737-0.092,1.111c0.014,0.188,0.062,0.368,0.131,0.543
		c0.176,0.447,0.496,0.729,0.957,0.864c0.399,0.117,0.802,0.129,1.208,0.085C45.187,24.177,45.384,24.164,45.577,24.077z"/>
	<path fill-rule="evenodd" clip-rule="evenodd" fill="#FFFFFF" d="M66.447,25.721c-0.012,0.338-0.006,0.655-0.007,0.972
		c-0.001,0.324,0,0.65,0,0.977c0,0.316,0,0.633,0,0.946c-0.032,0.004-0.052,0.013-0.063,0.007c-0.286-0.14-0.595-0.155-0.904-0.169
		c-0.082-0.005-0.162-0.006-0.243-0.006c-0.165,0.001-0.299-0.068-0.41-0.185c-0.117-0.121-0.19-0.267-0.22-0.429
		c-0.027-0.167-0.05-0.339-0.053-0.508c-0.008-0.398-0.004-0.798-0.004-1.196c0-2.043,0.003-4.085-0.003-6.129
		c-0.001-0.183,0.049-0.324,0.175-0.456c0.258-0.274,0.575-0.452,0.932-0.553c0.242-0.067,0.491-0.111,0.74-0.147
		c0.648-0.093,1.299-0.101,1.95-0.05c0.438,0.035,0.867,0.121,1.279,0.285c0.657,0.26,1.113,0.717,1.37,1.376
		c0.162,0.412,0.246,0.842,0.282,1.281c0.033,0.388,0.04,0.781,0.008,1.17c-0.039,0.491-0.159,0.962-0.389,1.401
		c-0.213,0.405-0.507,0.731-0.895,0.979c-0.548,0.351-1.146,0.538-1.79,0.578c-0.433,0.026-0.863,0.021-1.291-0.051
		C66.769,25.79,66.627,25.757,66.447,25.721z M66.456,24.11c0.053,0.018,0.097,0.038,0.143,0.051
		c0.245,0.065,0.497,0.081,0.746,0.115c0.486,0.066,0.917-0.063,1.323-0.316c0.168-0.106,0.307-0.244,0.396-0.421
		c0.067-0.13,0.125-0.265,0.171-0.403c0.109-0.338,0.117-0.688,0.103-1.039c-0.015-0.34-0.124-0.651-0.308-0.938
		c-0.15-0.235-0.354-0.403-0.616-0.494c-0.316-0.109-0.642-0.195-0.978-0.171c-0.284,0.021-0.566,0.062-0.85,0.096
		c-0.046,0.007-0.088,0.033-0.128,0.048C66.433,20.831,66.43,23.803,66.456,24.11z"/>
	<path fill-rule="evenodd" clip-rule="evenodd" fill="#FFFFFF" d="M75.029,19.01c0.028-0.004,0.062-0.003,0.09-0.012
		c0.423-0.133,0.861-0.171,1.3-0.196c0.301-0.017,0.603-0.018,0.903-0.007c0.464,0.017,0.896,0.146,1.292,0.393
		c0.255,0.159,0.457,0.364,0.595,0.634c0.201,0.396,0.333,0.811,0.331,1.261c-0.002,1.253-0.002,2.506-0.005,3.76
		c0,0.276,0,0.554,0,0.829c0,0.056-0.008,0.112-0.013,0.176c-0.248,0.061-0.489,0.071-0.732,0.043
		c-0.151-0.019-0.308-0.044-0.452-0.093c-0.358-0.123-0.586-0.374-0.658-0.75c-0.024-0.135-0.038-0.274-0.04-0.411
		c-0.005-0.757-0.004-1.514-0.008-2.271c-0.003-0.366-0.043-0.729-0.087-1.093c-0.046-0.391-0.275-0.591-0.635-0.675
		c-0.384-0.09-0.774-0.094-1.164-0.036c-0.248,0.036-0.496,0.083-0.74,0.207c-0.003,0.093-0.007,0.188-0.007,0.285
		c0,1.196,0,2.392-0.001,3.588c0,0.115,0.001,0.229-0.012,0.341c-0.044,0.363-0.22,0.629-0.579,0.741
		c-0.155,0.048-0.314,0.086-0.474,0.113c-0.265,0.045-0.533,0.031-0.811,0.021c-0.009-0.058-0.021-0.104-0.023-0.151
		c-0.003-0.064-0.001-0.13-0.001-0.194c0-3.077,0-6.154,0-9.229c0-0.097,0-0.194,0-0.289c0.03-0.005,0.048-0.016,0.06-0.011
		c0.264,0.124,0.546,0.156,0.832,0.166c0.097,0.004,0.195,0.01,0.292,0.008c0.226-0.008,0.388,0.101,0.516,0.275
		c0.123,0.171,0.168,0.37,0.187,0.573c0.013,0.137,0.013,0.275,0.013,0.414c0.002,0.448,0,0.896,0.002,1.343
		C74.999,18.843,74.98,18.925,75.029,19.01z"/>
	<path fill-rule="evenodd" clip-rule="evenodd" fill="#FFFFFF" d="M26.145,23.437c-0.009,0.24,0.105,0.399,0.283,0.52
		c0.15,0.102,0.32,0.163,0.496,0.197c0.159,0.031,0.322,0.055,0.483,0.06c0.57,0.018,1.139-0.006,1.704-0.087
		c0.37-0.053,0.741-0.101,1.112-0.148c0.048-0.006,0.097-0.001,0.156-0.001c0.008,0.046,0.022,0.092,0.024,0.138
		c0.009,0.287-0.016,0.568-0.102,0.844c-0.124,0.4-0.375,0.675-0.774,0.814c-0.318,0.113-0.646,0.168-0.979,0.184
		c-0.537,0.026-1.074,0.028-1.608-0.046c-0.42-0.058-0.83-0.154-1.222-0.322c-0.699-0.3-1.167-0.809-1.411-1.527
		c-0.131-0.388-0.203-0.788-0.231-1.195c-0.04-0.585-0.032-1.169,0.084-1.749c0.068-0.337,0.173-0.66,0.341-0.963
		c0.168-0.304,0.396-0.552,0.687-0.746c0.42-0.279,0.885-0.442,1.381-0.518c0.574-0.089,1.151-0.097,1.728-0.045
		c0.349,0.031,0.69,0.106,1.018,0.238c0.621,0.248,1.03,0.692,1.23,1.33c0.156,0.497,0.184,1.007,0.143,1.521
		c-0.013,0.154-0.058,0.303-0.125,0.443c-0.141,0.295-0.362,0.497-0.676,0.595c-0.25,0.076-0.506,0.122-0.765,0.146
		c-0.356,0.033-0.713,0.048-1.072,0.036c-0.545-0.018-1.088,0.027-1.62,0.169C26.335,23.345,26.237,23.359,26.145,23.437z
		 M26.088,22.038c0.022-0.002,0.048,0,0.069-0.01c0.258-0.111,0.53-0.15,0.808-0.166c0.276-0.015,0.552-0.031,0.829-0.046
		c0.238-0.012,0.461-0.076,0.677-0.181c0.322-0.157,0.486-0.673,0.047-0.956c-0.152-0.098-0.315-0.168-0.488-0.219
		c-0.445-0.132-0.884-0.113-1.31,0.077c-0.198,0.089-0.363,0.218-0.483,0.398C26.045,21.224,25.983,21.674,26.088,22.038z"/>
	<path fill-rule="evenodd" clip-rule="evenodd" fill="#FFFFFF" d="M56.487,22.328c0,0.138,0,0.276,0,0.414
		c0.002,0.377-0.053,0.748-0.159,1.107c-0.242,0.82-0.74,1.417-1.553,1.73c-0.398,0.153-0.811,0.242-1.235,0.266
		c-0.768,0.043-1.527-0.019-2.272-0.227c-0.424-0.119-0.792-0.329-1.099-0.648c-0.26-0.269-0.449-0.576-0.56-0.934
		c-0.127-0.412-0.21-0.835-0.252-1.265c-0.007-0.073-0.012-0.146-0.022-0.219c-0.08-0.55-0.012-1.087,0.146-1.616
		c0.127-0.426,0.351-0.804,0.646-1.137c0.269-0.305,0.602-0.517,0.976-0.671c0.502-0.208,1.028-0.303,1.568-0.327
		c0.589-0.025,1.169,0.029,1.74,0.184c0.566,0.153,1.037,0.457,1.419,0.901c0.094,0.11,0.184,0.231,0.249,0.36
		c0.222,0.439,0.373,0.901,0.397,1.397c0.011,0.228,0.02,0.456,0.03,0.682C56.5,22.327,56.493,22.328,56.487,22.328z M54.67,22.452
		c0.014-0.34-0.022-0.676-0.145-1.001c-0.155-0.413-0.442-0.691-0.86-0.835c-0.187-0.064-0.38-0.093-0.574-0.102
		c-0.429-0.022-0.844,0.029-1.23,0.23c-0.216,0.113-0.384,0.272-0.484,0.497c-0.087,0.193-0.156,0.397-0.17,0.607
		c-0.03,0.439-0.013,0.879,0.106,1.305c0.121,0.431,0.362,0.766,0.818,0.89c0.469,0.128,0.946,0.168,1.424,0.063
		c0.513-0.113,0.875-0.403,1.03-0.927C54.655,22.941,54.681,22.703,54.67,22.452z"/>
	<path fill-rule="evenodd" clip-rule="evenodd" fill="#FFFFFF" d="M94.014,20.545c-0.056-0.446,0.005-0.841,0.229-1.199
		c0.178-0.29,0.462-0.428,0.778-0.501c0.14-0.034,0.289-0.049,0.434-0.051c0.627-0.01,1.253-0.015,1.878,0.041
		c0.477,0.042,0.932,0.166,1.35,0.391c0.503,0.27,0.824,0.702,1.018,1.233c0.12,0.33,0.185,0.676,0.19,1.028
		c0.009,0.658,0.009,1.316,0.003,1.976c-0.005,0.302-0.065,0.597-0.162,0.885c-0.254,0.77-0.791,1.229-1.574,1.41
		c-0.312,0.069-0.625,0.104-0.944,0.1c-0.528-0.005-1.059-0.003-1.586,0c-0.246,0.001-0.485-0.036-0.726-0.087
		c-0.284-0.06-0.535-0.188-0.768-0.359c-0.36-0.266-0.548-0.64-0.62-1.069c-0.083-0.489-0.037-0.974,0.097-1.449
		c0.141-0.5,0.451-0.854,0.923-1.074c0.339-0.155,0.696-0.22,1.064-0.244c0.228-0.013,0.455-0.009,0.683-0.016
		c0.35-0.009,0.7-0.018,1.045-0.083c0.118-0.022,0.237-0.058,0.35-0.104c0.072-0.028,0.143-0.077,0.202-0.132
		c0.157-0.155,0.169-0.382,0.022-0.551c-0.058-0.064-0.132-0.123-0.211-0.159c-0.125-0.059-0.257-0.108-0.39-0.139
		c-0.511-0.112-1.028-0.149-1.552-0.12c-0.447,0.024-0.891,0.072-1.328,0.17C94.291,20.471,94.168,20.506,94.014,20.545z
		 M98.047,22.565c-0.046,0.008-0.066,0.006-0.074,0.014c-0.384,0.309-0.818,0.454-1.311,0.451c-0.185-0.001-0.373,0.024-0.558,0.054
		s-0.363,0.087-0.522,0.192c-0.158,0.104-0.222,0.25-0.196,0.439c0.027,0.204,0.139,0.351,0.32,0.429
		c0.126,0.054,0.263,0.089,0.397,0.108c0.381,0.054,0.764,0.051,1.146,0.037c0.065-0.002,0.129-0.011,0.192-0.023
		c0.327-0.068,0.493-0.24,0.553-0.567C98.063,23.329,98.054,22.956,98.047,22.565z"/>
	<path fill-rule="evenodd" clip-rule="evenodd" fill="#FFFFFF" d="M34.372,20.67c-0.006,0.042-0.015,0.065-0.014,0.089
		c0.006,0.61,0.016,1.221,0.02,1.831c0.004,0.708,0.005,1.415,0.004,2.124c0,0.112-0.01,0.229-0.032,0.34
		c-0.063,0.316-0.235,0.552-0.548,0.66c-0.153,0.054-0.312,0.092-0.471,0.124c-0.213,0.042-0.626,0.034-0.838-0.005
		c-0.005-0.067-0.014-0.139-0.014-0.21c-0.001-1.953,0.001-3.906-0.004-5.858c0-0.289,0.122-0.48,0.364-0.612
		c0.269-0.145,0.561-0.216,0.859-0.264c0.823-0.131,1.652-0.151,2.482-0.091c0.438,0.032,0.871,0.112,1.282,0.279
		c0.127,0.053,0.255,0.108,0.375,0.175c0.654,0.369,0.998,0.936,1.063,1.678c0.013,0.138,0.015,0.276,0.015,0.415
		c0.001,1.398,0.001,2.798,0,4.198c0,0.096,0.014,0.194-0.026,0.3c-0.046,0.006-0.093,0.017-0.14,0.018
		c-0.276,0.002-0.554,0.018-0.826-0.049c-0.119-0.03-0.237-0.062-0.351-0.104c-0.283-0.104-0.451-0.313-0.513-0.604
		c-0.029-0.134-0.042-0.274-0.043-0.412c-0.002-1.073,0-2.147-0.001-3.221c0-0.112-0.005-0.229-0.036-0.337
		c-0.067-0.229-0.222-0.395-0.437-0.5c-0.186-0.091-0.384-0.131-0.589-0.145c-0.343-0.021-0.682,0.021-1.02,0.072
		C34.75,20.59,34.563,20.601,34.372,20.67z"/>
	<path fill-rule="evenodd" clip-rule="evenodd" fill="#FFFFFF" d="M87.124,20.677c-0.004,0.033-0.013,0.056-0.013,0.08
		c0.009,0.275,0.026,0.553,0.026,0.828c0.005,1.033,0.005,2.067,0,3.1c0,0.138-0.014,0.278-0.043,0.412
		c-0.066,0.298-0.244,0.508-0.533,0.618c-0.198,0.077-0.404,0.127-0.616,0.139c-0.194,0.012-0.39,0.006-0.586,0.005
		c-0.03,0-0.061-0.011-0.096-0.018c-0.033-0.102-0.022-0.199-0.022-0.295c0-1.547,0-3.093,0-4.639c0-0.391,0.009-0.781-0.003-1.172
		c-0.008-0.261,0.107-0.433,0.319-0.56c0.198-0.12,0.416-0.184,0.638-0.235c0.351-0.083,0.706-0.125,1.063-0.144
		c0.521-0.031,1.041-0.047,1.563-0.009c0.439,0.031,0.871,0.103,1.289,0.247c0.231,0.08,0.451,0.184,0.654,0.322
		c0.5,0.34,0.784,0.816,0.872,1.409c0.028,0.193,0.04,0.39,0.04,0.584c0.003,1.399,0.002,2.798,0.001,4.2
		c0,0.096,0.016,0.194-0.029,0.298c-0.457,0.035-0.907,0.029-1.342-0.147c-0.298-0.122-0.453-0.358-0.506-0.668
		c-0.019-0.103-0.022-0.21-0.022-0.315c0-1.075,0.002-2.149,0.002-3.223c0-0.081,0.003-0.163-0.012-0.243
		c-0.054-0.28-0.209-0.488-0.469-0.617c-0.186-0.092-0.383-0.131-0.589-0.145c-0.335-0.021-0.665,0.021-0.995,0.067
		c-0.162,0.022-0.321,0.052-0.481,0.08C87.196,20.644,87.159,20.665,87.124,20.677z"/>
	<path fill-rule="evenodd" clip-rule="evenodd" fill="#FFFFFF" d="M62.957,18.809c0.059,0.423,0.048,0.826-0.088,1.216
		c-0.108,0.31-0.35,0.459-0.657,0.511c-0.113,0.02-0.229,0.015-0.343,0.021c-0.22,0.011-0.438,0.02-0.657,0.032
		c-0.181,0.012-0.351,0.063-0.511,0.147c-0.215,0.114-0.353,0.287-0.405,0.523c-0.029,0.125-0.046,0.255-0.056,0.385
		c-0.011,0.146-0.01,0.293-0.01,0.439c-0.001,1.219,0,2.439-0.001,3.66c0,0.085-0.004,0.173-0.007,0.257
		c-0.034,0.003-0.055,0.012-0.065,0.006c-0.348-0.187-0.733-0.257-1.114-0.338c-0.183-0.039-0.336-0.117-0.463-0.252
		c-0.141-0.147-0.212-0.326-0.234-0.524c-0.012-0.096-0.014-0.195-0.014-0.292c0-1.122,0-2.245,0-3.367
		c0-0.212,0.011-0.422,0.055-0.63c0.185-0.886,0.693-1.469,1.576-1.708c0.229-0.061,0.464-0.095,0.698-0.096
		c0.726-0.004,1.449-0.001,2.172-0.001C62.866,18.798,62.898,18.804,62.957,18.809z"/>
	<path fill-rule="evenodd" clip-rule="evenodd" fill="#FFFFFF" d="M81.443,18.705c0.128,0.045,0.225,0.086,0.325,0.111
		c0.103,0.027,0.208,0.044,0.313,0.052c0.171,0.015,0.341,0.025,0.513,0.022c0.299-0.005,0.487,0.148,0.614,0.399
		c0.083,0.163,0.109,0.342,0.124,0.521c0.008,0.104,0.008,0.211,0.008,0.317c0,1.521,0.002,3.043-0.002,4.565
		c0,0.145-0.014,0.293-0.044,0.436c-0.059,0.283-0.237,0.475-0.506,0.578c-0.23,0.09-0.472,0.132-0.715,0.148
		c-0.202,0.014-0.403,0.02-0.603-0.004c-0.012-0.038-0.026-0.061-0.026-0.083C81.443,23.424,81.443,21.082,81.443,18.705z"/>
	<path fill-rule="evenodd" clip-rule="evenodd" fill="#FFFFFF" d="M82.405,18.346c-0.559,0.017-1.016-0.449-1.017-1.018
		c-0.002-0.465,0.397-1.003,1.011-1.004c0.546-0.002,1.025,0.44,1.018,1.022C83.409,17.982,82.863,18.372,82.405,18.346z"/>
</g>
</svg>
