<?xml version="1.0" encoding="utf-8"?>
<!-- Generator: Adobe Illustrator 24.1.0, SVG Export Plug-In . SVG Version: 6.00 Build 0)  -->
<svg version="1.1" id="Слой_1" xmlns="http://www.w3.org/2000/svg" xmlns:xlink="http://www.w3.org/1999/xlink" x="0px" y="0px"
	 width="100px" height="35.6px" viewBox="0 0 100 35.6" style="enable-background:new 0 0 100 35.6;" xml:space="preserve">
<style type="text/css">
	.st0{fill:#FF002A;}
	.st1{fill:#FFFFFF;}
</style>
<desc>Created with sketchtool.</desc>
<path class="st0" d="M3.6,26.2V11.9l12.1,6l-6.8,3.4v-3.4c0-0.8-0.6-1.4-1.4-1.4s-1.4,0.6-1.4,1.4v5.6c0,0.8,0.6,1.4,1.4,1.4
	c0.2,0,0.4,0,0.6-0.1l11.3-5.6c0.7-0.3,1-1.2,0.6-1.8c-0.1-0.3-0.3-0.5-0.6-0.6L2.9,8.4C2.2,8.1,1.4,8.3,1,9
	C0.9,9.2,0.9,9.4,0.9,9.6v16.5c0,0.8,0.6,1.4,1.4,1.4S3.6,26.9,3.6,26.2z"/>
<path class="st1" d="M34.8,14.9c-0.3-0.8-1.1-1.2-1.9-1.2h-5.6c-0.5,0-0.9,0.4-0.9,0.9l0,0v6.8c0,0.5,0.4,0.9,0.9,0.9
	c0.5,0,0.9-0.4,0.9-0.9v-2h4.8c1.1,0,2-0.9,2-2c0,0,0,0,0,0v-1.6C34.9,15.4,34.9,15.1,34.8,14.9z M33.2,17.3c0,0,0,0.1,0,0.1
	c0,0.1-0.1,0.1-0.1,0.2c-0.1,0-0.1,0.1-0.2,0.1h-4.8v-2.3h4.8c0,0,0.1,0,0.1,0c0.1,0,0.2,0.1,0.2,0.2c0,0,0,0.1,0,0.1V17.3z"/>
<path class="st1" d="M75.5,17.4c-0.3-0.2-0.7-0.3-1.1-0.3h-5c0,0-0.1,0-0.1,0c-0.1,0-0.1-0.1-0.2-0.1c0-0.1-0.1-0.1-0.1-0.2v-1
	c0,0,0-0.1,0-0.1c0-0.1,0.1-0.1,0.1-0.2c0,0,0.1,0,0.1,0c0,0,0.1,0,0.1,0h5.9c0.5,0,0.9-0.4,0.9-0.9s-0.4-0.9-0.9-0.9h-5.9
	c-1.1,0-2,0.9-2,2c0,0,0,0,0,0v1c0,1.1,0.9,2,2,2c0,0,0,0,0,0h5c0,0,0.1,0,0.1,0c0.1,0,0.2,0.1,0.2,0.2c0,0,0,0.1,0,0.1v1
	c0,0,0,0.1,0,0.1c0,0.1-0.1,0.1-0.1,0.2c-0.1,0-0.1,0.1-0.2,0.1h-5.9c-0.5,0-0.9,0.4-0.9,0.9c0,0.5,0.4,0.9,0.9,0.9h5.9
	c1.1,0,2-0.9,2-2c0,0,0,0,0,0v-1C76.4,18.4,76,17.8,75.5,17.4L75.5,17.4z"/>
<path class="st1" d="M65.2,13.9c-0.4-0.3-0.9-0.3-1.2,0.1l0,0l-3.3,3.8l-3.3-3.8c-0.3-0.4-0.8-0.4-1.2-0.1c-0.4,0.3-0.4,0.8-0.1,1.2
	c0,0,0,0,0,0l3.8,4.3v1.9c0,0.5,0.4,0.9,0.9,0.9s0.9-0.4,0.9-0.9v-1.9l3.8-4.3C65.6,14.7,65.6,14.2,65.2,13.9
	C65.2,13.9,65.2,13.9,65.2,13.9z"/>
<path class="st1" d="M87.5,14.9c-0.3-0.8-1.1-1.2-1.9-1.2h-5c-1.1,0-2,0.9-2,2c0,0,0,0,0,0v4.4c0,1.1,0.9,2,2,2c0,0,0,0,0,0h5
	c1.1,0,2-0.9,2-2c0,0,0,0,0,0v-4.4C87.7,15.4,87.6,15.1,87.5,14.9z M86,20.1c0,0,0,0.1,0,0.1c0,0.1-0.1,0.2-0.2,0.2c0,0-0.1,0-0.1,0
	h-5c0,0-0.1,0-0.1,0c-0.1,0-0.2-0.1-0.2-0.2c0,0,0-0.1,0-0.1v-4.4c0,0,0-0.1,0-0.1c0-0.1,0.1-0.1,0.1-0.2c0.1,0,0.1-0.1,0.2-0.1h5
	c0,0,0.1,0,0.1,0c0.1,0,0.1,0.1,0.2,0.1c0,0,0,0.1,0,0.1c0,0,0,0.1,0,0.1V20.1z"/>
<path class="st1" d="M98.3,13.6c-0.5,0-0.9,0.4-0.9,0.9l0,0v4.9l-5.9-5.5c-0.3-0.3-0.9-0.3-1.2,0c-0.1,0.2-0.2,0.4-0.2,0.6v6.8
	c0,0.5,0.4,0.9,0.9,0.9s0.9-0.4,0.9-0.9v-4.9l5.9,5.5c0.3,0.3,0.9,0.3,1.2,0c0.1-0.2,0.2-0.4,0.2-0.6v-6.8
	C99.1,14,98.7,13.6,98.3,13.6L98.3,13.6z"/>
<path class="st1" d="M43.9,20.4h-5.1v-6c0-0.5-0.4-0.9-0.9-0.9s-0.9,0.4-0.9,0.9l0,0v6.8c0,0.5,0.4,0.9,0.9,0.9h6
	c0.5,0,0.9-0.4,0.9-0.9S44.4,20.4,43.9,20.4z"/>
<path class="st1" d="M55.5,22.1c-0.3,0-0.6-0.2-0.7-0.4l-3.2-5.5l-3.2,5.5c-0.2,0.4-0.8,0.5-1.2,0.3c-0.4-0.2-0.5-0.8-0.3-1.2l0,0
	l4-6.8c0.2-0.4,0.8-0.5,1.2-0.3c0.1,0.1,0.2,0.2,0.3,0.3l4,6.8c0.2,0.4,0.1,0.9-0.3,1.2C55.8,22.1,55.6,22.1,55.5,22.1z"/>
</svg>
