<svg width="486" height="167" viewBox="0 0 486 167" fill="none" xmlns="http://www.w3.org/2000/svg">
<path d="M1.51416 166.112C1.51416 164.654 1.51416 163.683 1.51416 162.711C1.51416 141.815 1.51416 120.919 1.51416 100.022C1.51416 76.6966 19.4962 59.2023 42.8242 60.6601C48.6562 61.1461 54.4882 64.0618 60.3202 66.0056C62.7502 66.9775 63.2362 68.4354 62.2642 70.8652C61.2922 73.7809 59.8342 76.2107 58.8622 79.6124C51.5722 74.2669 44.2822 71.8371 35.5342 73.2949C23.3842 75.7247 14.1502 85.9298 13.6642 98.5646C13.1782 116.059 13.6642 133.553 13.6642 151.534C59.8342 151.534 106.004 151.534 152.174 151.534C152.174 150.076 152.174 149.104 152.174 147.646C152.174 133.067 152.174 118.003 152.174 103.424C152.174 101.48 153.146 99.5365 154.604 98.0786C157.034 95.1629 159.95 92.2472 162.866 88.8455C163.352 93.2191 164.324 96.6208 164.324 100.022C164.324 121.404 164.324 143.272 164.324 164.654C164.324 165.14 164.324 165.626 164.324 166.598C109.892 166.112 55.4602 166.112 1.51416 166.112Z" fill="white"/>
<path d="M163.352 1.37358C163.352 2.34549 163.352 3.3174 163.352 3.80336C163.352 24.2135 163.352 44.6236 163.352 65.0337C162.866 94.677 131.276 113.143 105.032 98.5647C102.116 97.1068 101.63 95.6489 102.602 92.7332C103.574 90.3034 105.032 87.8736 106.004 84.9579C112.322 89.8175 118.64 91.7613 125.93 91.2753C138.566 90.7894 150.716 80.0984 150.716 67.4635C151.202 49.4832 150.716 31.9888 150.716 14.0084C150.716 14.0084 150.716 13.5225 150.23 13.0365C104.546 13.0365 58.376 13.0365 12.206 13.0365C12.206 14.4944 12.206 15.9522 12.206 16.9242C12.206 31.5028 12.206 46.5674 12.206 61.1461C12.206 62.604 11.234 64.5478 10.262 66.0056C7.83199 68.9214 4.91599 71.8371 1.99999 75.2388C1.51399 71.3512 0.541992 67.9495 0.541992 64.5478C0.541992 43.6517 0.541992 22.7556 0.541992 1.85954C0.541992 1.37358 0.541992 1.37358 1.02799 0.401672C55.46 1.37358 109.406 1.37358 163.352 1.37358Z" fill="white"/>
<path d="M21.9259 85.4438C41.3659 99.0505 59.3479 88.3595 65.1799 75.7247C71.4979 61.632 64.6939 45.1095 50.5999 40.25C47.6839 42.1938 45.7399 44.1376 43.3099 44.6236C39.9079 46.0814 36.0199 45.1095 34.5619 42.1938C31.6459 36.8483 22.8979 34.9045 25.3279 27.1292C25.8139 24.6994 27.7579 21.7837 29.7019 21.2977C34.5619 19.3539 39.9079 18.382 45.2539 17.896C49.6279 17.4101 53.0299 21.2977 53.0299 25.6713C53.0299 27.6151 53.5159 28.5871 55.4599 29.559C76.3579 38.7921 85.1059 63.0899 74.8999 83.014C64.6939 102.452 39.9079 109.742 20.4679 98.5646C18.5239 97.5927 17.5519 96.1348 18.5239 94.191C19.4959 91.2753 20.4679 88.3595 21.9259 85.4438Z" fill="white"/>
<path d="M115.238 124.32C122.042 116.545 127.874 117.517 133.22 125.292C133.706 126.264 134.678 126.75 135.65 127.236C139.052 129.666 140.996 133.553 139.538 137.927C138.08 142.301 134.678 144.73 130.304 144.73C128.846 144.73 127.388 145.216 125.93 145.702C120.098 148.618 112.808 145.216 112.322 138.899C111.836 135.983 110.378 135.011 108.434 134.039C93.3676 126.264 85.5916 114.115 86.0776 97.5927C86.5636 81.5562 94.8256 70.3792 109.406 63.5759C121.07 58.2304 132.734 59.2023 144.398 65.0337C147.314 66.4916 147.8 68.4354 146.828 70.8652C145.856 73.295 144.398 75.7247 143.426 78.6405C132.248 70.8652 121.07 69.4073 110.378 76.6966C101.144 82.5281 97.2556 91.7613 98.7136 102.452C99.1996 113.143 105.518 119.947 115.238 124.32Z" fill="white"/>
<path d="M87.5356 75.7247C81.7036 57.7444 90.9376 37.8202 108.434 29.559C110.864 28.5871 111.836 27.6152 111.836 25.1854C112.322 18.868 119.612 15.4663 125.444 18.382C126.902 18.868 128.36 19.3539 129.818 19.3539C134.192 19.3539 138.08 22.2697 139.052 26.1573C140.024 30.045 138.566 34.4186 135.164 36.8483C134.192 37.3343 133.22 37.8202 132.734 38.7922C127.388 47.0534 121.07 47.5393 114.752 39.7641C104.546 44.1377 99.1996 51.427 97.2556 62.118C96.7696 63.5759 95.7976 65.5197 94.8256 66.4916C92.8816 69.8933 90.4516 72.809 87.5356 75.7247Z" fill="white"/>
<path d="M50.1142 124.32C59.8342 119.947 65.6662 112.657 67.6102 101.966C68.0962 100.022 69.0682 98.0786 70.5262 96.6208C72.9562 93.7051 75.3862 90.7893 78.3022 87.8736C81.7042 98.5646 80.2462 108.284 74.9002 118.003C71.0122 125.292 64.6942 130.638 56.9182 134.039C54.9742 135.011 53.5162 135.983 53.5162 138.413C53.0302 144.73 45.7402 148.132 39.9082 145.702C38.4502 145.216 36.5062 144.73 35.0482 144.73C30.6742 144.73 26.7862 141.815 25.8142 137.927C24.8422 134.039 26.3002 129.666 29.7022 127.236C30.6742 126.75 31.6462 126.264 32.1322 125.292C36.9922 117.517 43.3102 117.031 50.1142 124.32Z" fill="white"/>
<path d="M188.138 94.677V69.4073H192.512L200.774 86.4158L209.036 69.4073H213.41V94.677H209.036V79.6124L201.746 94.677H200.288L192.512 79.6124V94.677H188.138Z" fill="white"/>
<path d="M216.812 94.677L224.588 69.4073H231.878L239.654 94.677H234.794L227.99 72.3231H228.962L222.158 94.677H216.812ZM221.672 89.3315V84.9579H235.28V89.3315H221.672Z" fill="white"/>
<path d="M251.464 94.8772C249.52 94.8772 248.402 94.677 246.944 94.191C245.486 93.7051 244.028 92.7332 243.056 91.2753C242.084 89.8174 241.598 88.3596 241.112 86.9017L245.972 85.9298C246.458 87.3877 246.944 88.3596 248.402 89.3315C249.374 90.3034 250.832 90.3034 252.29 90.3034C253.262 90.3034 253.748 90.3034 254.72 89.8175C255.692 89.3315 256.178 89.3315 256.664 88.8455C257.15 88.3596 257.15 87.8736 257.15 86.9017C257.15 86.4158 257.15 86.4158 257.15 85.9298C257.15 85.9298 257.049 85.6642 256.664 85.4439C256.278 85.2235 256.12 85.1134 255.692 84.9579C255.182 84.7729 254.234 84.4719 254.234 84.4719L247.43 82.5281C246.944 82.5281 245.486 82.0422 245.486 82.0422C245.486 82.0422 244.028 81.5562 243.542 81.0703C243.056 80.5843 242.57 80.0983 242.084 79.1264C241.598 78.1545 241.598 77.1826 241.598 76.2107C241.598 74.2669 242.084 73.295 243.056 71.8371C244.028 70.3792 245 69.8933 246.458 69.4073C247.916 68.9214 249.374 68.4354 251.318 68.4354C253.262 68.4354 254.72 68.9214 256.178 69.4073C257.636 69.8933 258.608 70.8652 259.58 71.8371C260.552 72.809 261.038 74.2669 261.524 75.7248L256.178 76.6967C256.178 75.7247 255.692 75.2388 255.206 74.7528C254.72 74.2669 254.234 73.7809 253.262 73.295C252.776 72.809 251.804 72.809 250.832 72.809C249.86 72.809 249.374 72.809 248.888 73.295C248.402 73.295 247.916 73.7809 247.43 74.2669C246.944 74.7528 246.944 75.2388 246.944 75.7248C246.944 76.2107 246.944 76.6967 247.43 77.1826C247.916 77.6686 248.402 77.6686 248.888 78.1545C249.374 78.1545 249.86 78.6405 250.346 78.6405L254.72 79.6124C255.206 79.6124 256.178 80.0983 256.664 80.0983C257.636 80.5843 258.122 80.5843 259.094 81.0703C260.066 81.5562 260.552 82.0422 261.038 83.0141C261.524 83.986 261.524 84.9579 261.524 86.4158C261.524 87.8736 261.038 88.8455 260.552 89.8175C260.066 90.7894 259.16 91.6129 258.154 92.2976C257.228 92.9284 256.9 93.1537 255.047 94.0774C253.193 95.0011 252.436 94.8772 251.464 94.8772Z" fill="white"/>
<path d="M276.589 95.163C274.159 95.163 271.729 94.677 269.785 93.7051C267.841 92.7332 266.383 91.2753 265.411 88.8455C264.925 86.9017 264.439 84.472 264.439 82.0422C264.439 79.6124 264.925 77.1826 265.897 75.2388C266.869 73.295 268.327 71.8371 270.271 70.3793C272.215 69.4073 274.159 68.9214 277.075 68.9214C279.991 68.9214 282.422 69.4073 284.366 70.8652C286.31 72.3231 287.768 74.2669 288.74 76.6967L283.88 78.1545C283.394 76.6967 282.422 75.2388 281.45 74.7528C280.478 73.7809 279.019 73.295 277.075 73.295C275.617 73.295 274.159 73.7809 273.187 74.2669C272.215 74.7528 271.243 76.2107 270.757 77.1826C270.271 78.6405 269.785 80.0984 269.785 81.5562C269.785 83.0141 270.271 84.9579 270.757 85.9298C271.243 87.3877 272.215 88.3596 273.187 88.8455C274.159 89.3315 275.617 89.8175 277.075 89.8175C279.019 89.8175 280.478 89.3315 281.45 88.3596C282.422 87.3877 283.394 86.4158 283.88 84.9579L288.74 86.4158C287.768 88.8455 286.31 90.7894 284.366 92.2472C282.422 93.7051 279.506 95.163 276.589 95.163Z" fill="white"/>
<path d="M302.834 95.163C300.404 95.163 297.974 94.677 296.03 93.7051C294.086 92.7332 292.628 91.2753 291.656 88.8455C290.684 86.9017 290.198 84.472 290.198 82.0422C290.198 79.6124 290.684 77.1826 291.656 75.2388C292.628 73.295 294.086 71.8371 296.03 70.3793C297.974 69.4073 299.918 68.9214 302.834 68.9214C305.264 68.9214 307.694 69.4073 309.638 70.3793C311.582 71.3512 313.04 72.809 314.012 75.2388C314.984 77.1826 315.47 79.6124 315.47 82.0422C315.47 84.472 314.984 86.9017 314.012 88.8455C313.04 90.7894 311.582 92.2472 309.638 93.7051C307.694 94.677 305.75 95.163 302.834 95.163ZM302.834 90.7894C304.292 90.7894 305.75 90.3034 306.722 89.8175C307.694 89.3315 308.666 87.8736 309.152 86.9017C309.638 85.4439 310.124 83.986 310.124 82.0422C310.124 80.0984 309.638 78.6405 309.152 77.6686C308.666 76.2107 307.694 75.2388 306.722 74.7528C305.75 74.2669 304.292 73.7809 302.834 73.7809C301.376 73.7809 299.918 74.2669 298.946 74.7528C297.974 75.2388 297.002 76.6967 296.516 77.6686C296.03 79.1264 295.544 80.5843 295.544 82.5281C295.544 84.472 296.03 85.9298 296.516 86.9017C297.002 87.8736 297.974 89.3315 298.946 89.8175C299.918 90.3034 301.376 90.7894 302.834 90.7894Z" fill="white"/>
<path d="M324.218 94.677V73.7809H315.956V69.4073H336.854V73.7809H329.078V94.677H324.218Z" fill="white"/>
<path d="M356.293 95.1629C354.835 95.1629 353.377 94.677 351.919 94.191C350.461 93.7051 349.003 92.7332 348.031 91.7613C347.059 90.7894 346.087 89.3315 345.601 87.3877C345.115 85.9298 344.629 83.986 344.629 81.5562C344.629 78.6405 345.115 76.2107 346.087 74.2669C347.059 72.3231 348.517 70.8652 350.461 69.8933C352.405 68.9214 354.349 68.4354 356.293 68.4354C359.695 68.4354 362.125 69.4073 364.069 70.8652C366.013 72.3231 366.985 74.7528 367.957 77.1826L363.097 77.6686C362.611 76.2107 362.125 75.2388 360.667 74.2669C359.695 73.295 358.237 72.809 356.779 72.809C355.321 72.809 353.863 73.295 352.891 73.7809C351.919 74.2669 350.947 75.7247 350.461 76.6967C349.975 78.1545 349.489 79.6124 349.489 81.5562C349.489 83.5 349.975 84.9579 350.461 85.9298C350.947 86.9017 351.919 88.3596 352.891 88.8455C353.863 89.3315 355.321 89.8174 356.779 89.8174C357.751 89.8174 358.723 89.8174 359.695 89.3315C360.667 88.8455 361.153 88.3596 362.125 87.3877C363.097 86.4158 363.097 85.4438 363.583 83.986H359.695V80.0983H368.929C368.929 80.0983 368.929 80.5843 368.929 81.0702C368.929 81.5562 368.929 81.5562 368.929 81.5562C368.929 83.986 368.443 85.9298 367.471 87.8736C366.499 89.8174 365.041 91.2753 363.097 92.2472C360.667 94.677 358.723 95.1629 356.293 95.1629Z" fill="white"/>
<path d="M369.416 94.677L377.192 69.4073H384.482L392.258 94.677H387.398L380.594 72.3231H381.08L374.276 94.677H369.416ZM374.276 89.3315V84.9579H387.884V89.3315H374.276Z" fill="white"/>
<path d="M395.174 94.677V69.4073H399.548L407.81 86.4158L416.072 69.4073H420.446V94.677H416.072V79.6124L408.782 94.677H407.324L399.548 79.6124V94.677H395.174Z" fill="white"/>
<path d="M425.792 94.677V69.4073H430.651V94.677H425.792Z" fill="white"/>
<path d="M435.998 94.677V69.4073H440.858L452.036 86.4158V69.4073H456.896V94.677H452.036L440.858 77.6686V94.677H435.998Z" fill="white"/>
<path d="M472.448 95.1629C470.99 95.1629 469.532 94.677 468.074 94.191C466.616 93.7051 465.158 92.7332 464.186 91.7613C463.214 90.7894 462.242 89.3315 461.756 87.3877C461.27 85.9298 460.784 83.986 460.784 81.5562C460.784 78.6405 461.27 76.2107 462.242 74.2669C463.214 72.3231 464.672 70.8652 466.616 69.8933C468.56 68.9214 470.504 68.4354 472.448 68.4354C475.85 68.4354 478.28 69.4073 480.224 70.8652C482.168 72.3231 483.14 74.7528 484.112 77.1826L479.252 77.6686C478.766 76.2107 478.28 75.2388 476.822 74.2669C475.85 73.295 474.392 72.809 472.934 72.809C471.476 72.809 470.018 73.295 469.046 73.7809C468.074 74.2669 467.102 75.7247 466.616 76.6967C466.13 78.1545 465.644 79.6124 465.644 81.5562C465.644 83.5 466.13 84.9579 466.616 85.9298C467.102 86.9017 468.074 88.3596 469.046 88.8455C470.018 89.3315 471.476 89.8174 472.934 89.8174C473.906 89.8174 474.878 89.8174 475.85 89.3315C476.822 88.8455 477.308 88.3596 478.28 87.3877C479.252 86.4158 479.252 85.4438 479.738 83.986H475.85V80.0983H485.084C485.084 80.0983 485.084 80.5843 485.084 81.0702C485.084 81.5562 485.084 81.5562 485.084 81.5562C485.084 83.986 484.598 85.9298 483.626 87.8736C482.654 89.8174 481.196 91.2753 479.252 92.2472C476.822 94.677 474.878 95.1629 472.448 95.1629Z" fill="white"/>
</svg>
