<?xml version="1.0" encoding="utf-8"?>
<!-- Generator: Adobe Illustrator 23.1.0, SVG Export Plug-In . SVG Version: 6.00 Build 0)  -->
<svg version="1.1" id="Слой_1" xmlns="http://www.w3.org/2000/svg" xmlns:xlink="http://www.w3.org/1999/xlink" x="0px" y="0px"
	 viewBox="0 0 81.2 33" style="enable-background:new 0 0 81.2 33;" xml:space="preserve">
<style type="text/css">
	.st0{fill:#FFFFFF;}
</style>
<desc>Created with sketchtool.</desc>
<g>
	<path class="st0" d="M0,33c0-1.3,0-2.4,0-3.7c27.1,0,54.1,0,81.2,0c0,1.2,0,2.4,0,3.7C54.2,33,27.1,33,0,33z"/>
	<path class="st0" d="M53.6,0.4c2.7,0,5.4-0.2,8,0c2.7,0.2,4.3,1.7,4.6,4.4c0.2,1.4,0.1,2.9,0,4.3c-0.2,1.6-1,2.9-2.6,3.8
		c2.5,1.2,3.1,3.3,3.1,5.8c0,0.9,0,1.8,0,2.7c-0.1,3.7-2.1,5.8-5.8,6c-2.4,0.1-4.9,0-7.4,0C53.6,18.5,53.6,9.5,53.6,0.4z M57.9,23.6
		c1,0,2,0,3,0c0.8,0,1.4-0.5,1.5-1.3c0.1-1.8,0.1-3.6-0.1-5.5c0-0.5-0.8-1.1-1.3-1.3c-0.9-0.3-2-0.2-3-0.3
		C57.9,18.1,57.9,20.8,57.9,23.6z M57.9,11.4c0.8,0,1.5,0.1,2.1,0c0.9-0.1,1.8-0.5,1.9-1.5c0.1-1.4,0.1-2.7,0-4.1
		c-0.1-0.9-0.8-1.4-1.7-1.5c-0.8-0.1-1.5,0-2.4,0C57.9,6.6,57.9,8.9,57.9,11.4z"/>
	<path class="st0" d="M43.5,27.5c-1.4,0-2.7,0-4.3,0c-0.1-0.9-0.3-1.8-0.3-2.8c-0.1-1.4,0-2.9,0-4.4c0-3.4-0.8-4.1-4.3-3.8
		c0,3.6,0,7.2,0,10.9c-1.5,0-2.8,0-4.3,0c0-9,0-18,0-27c2.8,0,5.6-0.2,8.3,0.1c2.6,0.2,4,1.7,4.3,4.3c0.2,1.8,0.2,3.7,0,5.5
		c-0.1,1.7-1,3-2.6,3.9c2,1.1,2.7,3,2.7,5c0,1.7,0,3.5,0.1,5.2C43.2,25.5,43.4,26.4,43.5,27.5z M34.6,12.5c0.7,0,1.4,0,2,0
		c1.4-0.1,2.1-0.7,2.2-2.1c0.1-1.4,0.1-2.8,0-4.1c-0.1-1-0.5-1.8-1.6-2c-0.8-0.1-1.7,0-2.6,0C34.6,7,34.6,9.7,34.6,12.5z"/>
	<path class="st0" d="M15.5,27.5c0-9,0-18,0-27.1c0.8,0,1.5,0,2.2,0c1.6,0,3.2,0,4.8,0c3.1,0.1,5.2,1.7,5.5,4.8
		c0.3,2.4,0.3,4.9,0,7.3c-0.4,3.1-2.4,4.7-5.7,4.9c-0.8,0-1.6,0-2.5,0c0,3.4,0,6.8,0,10.1C18.3,27.5,17,27.5,15.5,27.5z M19.8,4.3
		c0,3,0,6,0,9.1c0.6,0,1.2,0,1.7,0c1.6,0,2.3-0.6,2.3-2.3c0-1.1,0-2.3,0-3.4c0-3.3-0.4-3.7-3.8-3.6C20.1,4.2,20,4.2,19.8,4.3z"/>
	<path class="st0" d="M4.4,19.3c0.1,1,0.1,2,0.2,2.9c0.2,1.2,0.9,1.8,2,1.8s1.7-0.6,1.9-1.7c0.3-1.5,0-2.9-1-4
		c-1.5-1.7-3-3.3-4.6-4.9C0.6,11-0.4,8.2,0.3,4.8C0.9,1.9,3.2,0.1,6.5,0c3.2-0.1,5.4,1.5,6.1,4.5c0.2,1,0.3,2,0.4,3.1
		c-1.5,0-2.7,0-4.1,0c-0.1-0.7-0.1-1.4-0.2-2c-0.2-1.1-0.8-1.7-2-1.7S4.8,4.4,4.6,5.5C4.2,7.2,4.7,8.8,5.8,10s2.3,2.3,3.5,3.4
		c2.7,2.5,4.1,5.5,3.5,9.3c-0.6,3.3-2.8,5-6.3,5c-3.5-0.1-5.9-2.1-6.3-5.3c-0.1-1,0-2,0-3.2c0.7,0,1.4,0,2.1,0
		C3,19.3,3.6,19.3,4.4,19.3z"/>
	<path class="st0" d="M73.8,23.6c2.4,0,4.8,0,7.3,0c0,1.3,0,2.6,0,3.9c-3.9,0-7.7,0-11.7,0c0-9,0-18,0-27.1c3.9,0,7.7,0,11.7,0
		c0,1.2,0,2.4,0,3.7c-2.4,0-4.8,0-7.3,0c0,2.6,0,5,0,7.6c1.9,0,3.8,0,5.8,0c0,1.4,0,2.6,0,3.9c-1.9,0-3.8,0-5.7,0
		C73.8,18.3,73.8,20.9,73.8,23.6z"/>
	<path class="st0" d="M46.1,27.5c0-9,0-18,0-27.1c1.4,0,2.7,0,4.2,0c0,9,0,18,0,27.1C48.9,27.5,47.6,27.5,46.1,27.5z"/>
</g>
</svg>
