<svg fill="none" xmlns="http://www.w3.org/2000/svg" viewBox="0 0 109 25"><g opacity=".8"><path d="M14.72 12.16a12.24 12.24 0 014.5-9.53A11.59 11.59 0 0011.88 0C5.31 0 0 5.44 0 12.16s5.31 12.16 11.87 12.16c2.79 0 5.35-.98 7.37-2.62a12.28 12.28 0 01-4.52-9.54z" fill="#E30D17"/><path d="M14.72 12.16a12.24 12.24 0 004.5 9.53 12.24 12.24 0 004.51-9.53 12.24 12.24 0 00-4.5-9.52 12.22 12.22 0 00-4.5 9.52z" fill="#EB610A"/><path d="M37.66 18.72v-.36h-.13v-.09h.38v.1h-.16v.35h-.09zm.73 0v-.3l-.1.26h-.11l-.1-.27v.31h-.11v-.45h.15l.1.3.11-.3h.15v.45h-.09zM26.6 0c-2.78 0-5.34.98-7.36 2.62a12.24 12.24 0 014.5 9.52 12.24 12.24 0 01-4.5 9.53 11.68 11.68 0 007.37 2.62c6.56 0 11.87-5.44 11.87-12.16A12 12 0 0026.6 0z" fill="#F69F00"/><path d="M73.41 20.87h-5.1l3.2-17.41h5.11l-3.2 17.41zM64 3.46l-4.9 11.96-.57-2.56L56.78 5s-.2-1.58-2.42-1.58H46.3l-.11.33s2.47.46 5.37 2l4.47 15.13h5.32l8.16-17.41h-5.53zm40.27 17.41h4.69l-4.11-17.41h-4.1c-1.9 0-2.37 1.3-2.37 1.3l-7.58 16.11h5.31l1.06-2.6h6.52l.58 2.6zm-5.63-6.2l2.68-6.5 1.53 6.5h-4.21zm-7.47-7.02l.73-3.73s-2.26-.74-4.63-.74c-2.53 0-8.58.98-8.58 5.77 0 4.52 7.1 4.57 7.1 6.94s-6.36 1.96-8.47.47l-.74 3.9s2.27.99 5.8.99c3.47 0 8.79-1.59 8.79-5.96 0-4.52-7.16-4.94-7.16-6.94 0-2.05 5-1.77 7.16-.7z" fill="#fff"/><path d="M58.52 12.82l-1.74-7.83s-.21-1.58-2.42-1.58H46.3l-.1.33s3.9.7 7.58 3.4a13.38 13.38 0 014.74 5.68z" fill="#F7A823"/></g></svg>
