<svg width="94" height="19" viewBox="0 0 94 19" fill="none" xmlns="http://www.w3.org/2000/svg">
<path d="M91.3138 5.22952L89.1286 10.4017C89.066 10.4621 89.066 10.5827 89.066 10.643L89.0034 10.7636L88.9407 10.643C88.9407 10.5827 88.8781 10.4621 88.8781 10.4017L86.6929 5.22952H83.8846L87.5664 14.069L86.0073 17.4348H88.8155L93.9969 5.22952H91.3138Z" fill="white"/>
<path d="M70.5916 5.71206C70.0938 5.35016 69.4676 5.1119 68.7194 5.05159C67.4702 4.93095 66.2837 5.35317 65.4728 6.13428V5.17222H62.915V14.0117H65.4728V9.37936C65.4728 8.35698 65.6607 8.05539 65.8485 7.81714C66.1616 7.33762 66.722 7.09635 67.4076 7.09635C68.0932 7.09635 68.7194 7.39793 69.0293 7.87746C69.2172 8.23936 69.2798 8.71889 69.2798 8.96016C69.2798 9.74127 69.2798 14.0117 69.2798 14.0117H71.8376V8.65857C71.8407 7.27428 71.465 6.31222 70.5916 5.71206Z" fill="white"/>
<path d="M58.1094 5.28984C56.8602 4.86762 55.489 4.92793 54.2398 5.47079C53.4289 5.8327 52.6807 6.43286 52.2424 7.21397C51.8072 7.87444 51.6194 8.71587 51.6194 9.61762C51.6194 10.5194 51.8072 11.3608 52.2424 12.0213C52.6807 12.6817 53.2411 13.2849 53.9893 13.6438C54.7376 14.0057 55.6111 14.244 56.425 14.244C56.8633 14.244 57.2985 14.1836 57.7368 14.063C58.1125 13.9424 58.4851 13.8217 58.8607 13.6408C59.609 13.2186 60.2351 12.6787 60.6077 12.0183C61.046 11.3578 61.2307 10.5163 61.2307 9.6146C61.2307 7.63619 60.0442 5.95333 58.1094 5.28984ZM58.795 9.74127C58.7324 10.5224 58.4819 11.1829 57.9841 11.6051C57.6085 11.9067 57.0481 12.0846 56.3624 12.1449C55.6768 12.1449 55.1759 11.964 54.7407 11.6051C54.2398 11.1829 53.9925 10.5224 53.9299 9.74127C53.8672 8.83952 54.2429 8.11873 54.9286 7.63619C55.3042 7.39492 55.802 7.21397 56.3029 7.21397C56.8633 7.21397 57.3016 7.39492 57.7399 7.63619C58.4851 8.05841 58.8576 8.83952 58.795 9.74127Z" fill="white"/>
<path d="M48.6233 5.71205C48.1224 5.35015 47.4994 5.11189 46.7511 5.05157C46.6259 5.05157 46.438 5.05157 46.3128 5.05157C45.3141 5.05157 44.4406 5.4738 43.6924 6.31523L43.5672 6.49618H43.3167C43.1289 6.19459 42.8784 5.95634 42.6311 5.77538C42.1302 5.41348 41.5071 5.17523 40.7589 5.11491C39.5724 4.99427 38.6363 5.35618 37.8254 6.19761V5.29586H35.2676V14.1354H37.8254V9.49999V9.37935C37.8254 8.41729 37.9506 8.17602 38.1385 7.87745C38.4516 7.39792 39.012 7.09634 39.635 7.15665C40.258 7.15665 40.8215 7.45824 41.1315 7.93777C41.3819 8.29967 41.3819 8.71888 41.3819 9.1411V14.0721H43.9397V9.31904C43.9397 8.41729 44.0649 8.1157 44.2528 7.81713C44.5659 7.33761 45.1263 7.09634 45.7524 7.09634C46.3754 7.09634 46.8763 7.39792 47.1863 7.87745C47.3741 8.17904 47.4367 8.53792 47.4367 8.77919C47.4367 8.89983 47.4367 9.02046 47.4367 9.08078V14.0117H49.9945V8.59824C49.9945 8.1157 49.9319 7.63618 49.8067 7.21396C49.5594 6.6138 49.1837 6.07396 48.6233 5.71205Z" fill="white"/>
<path d="M81.4521 11.3638C81.0764 11.7257 80.2029 12.3862 79.0164 12.4465C78.0177 12.5068 77.2694 12.2052 76.7059 11.6654C76.4554 11.4241 76.2707 11.0652 76.1455 10.7033H83.199V10.643C83.2616 10.2811 83.3242 9.98255 83.3242 9.62064C83.3242 9.31906 83.2616 8.89985 83.1364 8.35699C82.8233 7.33461 82.2003 6.5535 81.3895 5.95334C80.4534 5.29287 79.5799 5.11191 79.3294 5.11191C77.5199 4.81033 75.4599 5.59144 74.3985 7.21699C73.6503 8.36001 73.7129 9.50302 73.7129 9.86191C73.7129 10.2841 73.7755 11.6051 74.8995 12.8084C76.2112 14.1927 78.0208 14.25 78.5812 14.3103C81.0764 14.3706 82.7638 12.8687 83.1364 12.5672L81.4521 11.3638ZM77.0847 7.6362C77.4604 7.39493 77.8956 7.21398 78.4591 7.21398C79.0195 7.21398 79.4578 7.39493 79.893 7.6362C80.2687 7.93779 80.5786 8.29667 80.7664 8.7189H76.2738C76.3959 8.29667 76.6464 7.87747 77.0847 7.6362Z" fill="white"/>
<path d="M17.914 0C12.4227 0 8.05222 4.27048 8.05222 9.5C8.05222 14.7898 12.4853 19 17.914 19C23.3458 19 27.7758 14.7295 27.7758 9.5C27.7758 4.27048 23.3427 0 17.914 0ZM17.914 12.9864C15.9166 12.9864 14.2323 11.3638 14.2323 9.43968C14.2323 7.51556 15.9166 5.89302 17.914 5.89302C19.9114 5.89302 21.5957 7.51556 21.5957 9.43968C21.5331 11.4241 19.9114 12.9864 17.914 12.9864Z" fill="white"/>
<path d="M7.98961 2.70523V16.533H4.49259L0 2.70523H7.98961Z" fill="white"/>
</svg>
