<svg width="100" height="60" viewBox="0 0 100 60" fill="none" xmlns="http://www.w3.org/2000/svg">
<path d="M57.6158 16.3677H42.5556V43.2042H57.6158V16.3677Z" fill="#FF5F00"/>
<path d="M43.4469 29.7897C43.4441 27.2048 44.0345 24.6531 45.1735 22.3279C46.3124 20.0028 47.97 17.9651 50.0208 16.3691C47.4816 14.3905 44.4323 13.1601 41.2213 12.8185C38.0103 12.477 34.7672 13.0381 31.8626 14.4377C28.958 15.8373 26.5091 18.019 24.7958 20.7333C23.0825 23.4477 22.174 26.5852 22.174 29.7873C22.174 32.9894 23.0825 36.127 24.7958 38.8413C26.5091 41.5556 28.958 43.7373 31.8626 45.1369C34.7672 46.5365 38.0103 47.0976 41.2213 46.7561C44.4323 46.4145 47.4816 45.1842 50.0208 43.2055C47.9707 41.6101 46.3135 39.5731 45.1745 37.2488C44.0356 34.9245 43.4448 32.3738 43.4469 29.7897V29.7897Z" fill="#EB001B"/>
<path d="M78 29.7883C77.9999 32.9907 77.0911 36.1284 75.3775 38.8428C73.6639 41.5573 71.2147 43.7389 68.3097 45.1383C65.4047 46.5377 62.1613 47.0984 58.9501 46.7564C55.7389 46.4144 52.6896 45.1834 50.1506 43.2042C52.1999 41.6073 53.8567 39.5697 54.9959 37.2453C56.1351 34.9209 56.727 32.3703 56.727 29.7859C56.727 27.2016 56.1351 24.651 54.9959 22.3265C53.8567 20.0021 52.1999 17.9646 50.1506 16.3677C52.6896 14.3885 55.7389 13.1575 58.9501 12.8155C62.1613 12.4734 65.4047 13.0342 68.3097 14.4336C71.2147 15.833 73.6639 18.0146 75.3775 20.729C77.0911 23.4435 77.9999 26.5812 78 29.7836V29.7883Z" fill="#F79E1B"/>
</svg>
