<?xml version="1.0" encoding="UTF-8"?>
<svg version="1.1" viewBox="0 0 696 197" xmlns="http://www.w3.org/2000/svg">
    <defs>
        <linearGradient id="a" x1="3.0616e-15%" y1="50%" y2="50%">
            <stop stop-color="#00A0E5" offset="0"/>
            <stop stop-color="#0077C3" offset="1"/>
        </linearGradient>
    </defs>
    <g fill="none" fill-rule="evenodd">
        <g transform="translate(-91 -154)">
            <g transform="translate(91 154)">
                <path id="Combined-Shape" d="m502 89v108h60v-64h68c28.62-0.2125 52.931-18.494 62.098-44h-190.1z" fill="#37A72E"/>
                <path id="Combined-Shape" d="m494 0c3.4949 44.144 45.258 79 96.263 79h104.33c0.76983-4.0486 1.1727-8.2272 1.1727-12.5 0-36.568-29.503-66.229-66-66.498l-135.76-0.0018399z" fill="url(#a)"/>
                <path id="b" d="m405.2 77.95 0.04698-0.10075 0.006279 0.0015355c0.61498-1.1037 1.7938-1.8503 3.147-1.8503 1.9547 0 3.5455 1.5578 3.5986 3.4997l0.001371 3.353e-4v116.5h60v-196h-60c-7.6088 0.25325-16.205 5.8366-19.401 12.69l-47.748 102.4c-0.11794 0.41857-0.3023 0.80931-0.54097 1.1601l-0.015928 0.034158-0.006219-0.001945c-0.72235 1.0398-1.9254 1.7205-3.2874 1.7205-2.2091 0-4-1.7909-4-4v-114h-60v196h60v-0.02238c7.5254-0.39303 15.92-5.9136 19.07-12.668l49.007-105.1c0.037559-0.089928 0.078661-0.17801 0.12313-0.26406z" fill="#37A72E"/>
                <path d="m181.15 81.3-35.067 114.7h-43.163l-35.089-114.77c-0.33835-1.8379-1.9489-3.2303-3.8846-3.2303-2.1815 0-3.95 1.7685-3.95 3.95 0 0.01667 1.033e-4 0.033316 3.092e-4 0.049938l-3.092e-4 114h-60v-196h51.5 15.338c11.04 0 22.61 8.5678 25.836 19.12l29.2 95.51c1.4529 4.7521 3.81 4.747 5.2613 0l29.2-95.51c3.2285-10.56 14.794-19.12 25.836-19.12l15.333-2.8422e-14h51.495v196h-60v-114c-1.03e-4 -0.016684 0-0.03333 0-0.05 0-2.1815-1.7685-3.95-3.95-3.95-1.9601 0-3.5867 1.4277-3.8968 3.2999z" fill="#37A72E"/>
            </g>
        </g>
    </g>
</svg>
