<svg width="76" height="34" viewBox="0 0 76 34" fill="none" xmlns="http://www.w3.org/2000/svg">
<path d="M37.2331 19.2748H38.427V21.9351H39.2766L40.8214 19.2748H42.1168L40.2587 22.3855V22.403L42.2271 25.8081H40.8766L39.2766 22.9544H38.427V25.8081H37.2331V19.2748ZM44.9018 21.0059C46.345 21.0059 47.4992 22.0274 47.4992 23.4641C47.4992 24.9096 46.3428 25.9223 44.9106 25.9223C43.4784 25.9223 42.322 24.9096 42.322 23.4641C42.322 22.0274 43.4762 21.0059 44.9018 21.0059ZM44.9106 24.9272C45.6786 24.9272 46.3163 24.3384 46.3163 23.4641C46.3163 22.5986 45.6786 22.001 44.9106 22.001C44.1426 22.001 43.5137 22.5986 43.5137 23.4641C43.5137 24.3362 44.1426 24.9272 44.9106 24.9272ZM48.4415 21.1157H49.5603V24.8151H51.0301V21.1157H52.1489V24.8151H53.6186V21.1157H54.7375V25.8103H48.4415V21.1157ZM58.1051 21.0059C59.4556 21.0059 60.1949 21.99 60.1949 23.2334C60.1949 23.3806 60.1772 23.5366 60.1574 23.6838H56.9134C56.9862 24.5032 57.6151 24.9272 58.3279 24.9272C58.809 24.9272 59.2989 24.7163 59.6785 24.4109L60.1419 25.2479C59.6609 25.6719 58.9216 25.9201 58.2463 25.9201C56.6839 25.9201 55.7041 24.7976 55.7041 23.4619C55.7019 22.0164 56.6905 21.0059 58.1051 21.0059ZM59.0209 22.8819C59.0121 22.2559 58.6038 21.8868 58.0786 21.8868C57.4783 21.8868 57.0524 22.2822 56.9421 22.8819H59.0209ZM60.751 24.8239C61.3336 24.7404 61.7397 24.2528 61.7397 22.5876V21.1135H65.1801V25.8081H64.006V22.0625H62.8585V22.5876C62.8585 24.6306 62.3134 25.8081 60.751 25.8564V24.8239ZM68.5388 21.0059C69.8894 21.0059 70.6287 21.99 70.6287 23.2334C70.6287 23.3806 70.611 23.5366 70.5911 23.6838H67.3449C67.42 24.5032 68.0467 24.9272 68.7595 24.9272C69.2406 24.9272 69.7305 24.7163 70.1101 24.4109L70.5735 25.2479C70.0924 25.6719 69.3531 25.9201 68.6778 25.9201C67.1154 25.9201 66.1356 24.7976 66.1356 23.4619C66.1334 22.0164 67.1243 21.0059 68.5388 21.0059ZM69.4546 22.8819C69.4458 22.2559 69.0375 21.8868 68.5123 21.8868C67.9121 21.8868 67.4862 22.2822 67.3758 22.8819H69.4546ZM71.6173 21.1157H72.7913V22.9105H73.3651L74.5126 21.1157H75.8168L74.3184 23.3521V23.3696L76.0022 25.8081H74.6428L73.4048 23.9035H72.7935V25.8081H71.6195V21.1157H71.6173Z" fill="white"/>
<path d="M53.7069 5.00652V16.107C53.7069 16.2739 53.5723 16.408 53.4046 16.408H51.1272C50.9594 16.408 50.8248 16.2739 50.8248 16.107V5.00652C50.8248 4.83957 50.9594 4.70556 51.1272 4.70556H53.4046C53.5723 4.70556 53.7069 4.83957 53.7069 5.00652ZM71.4562 4.70556H68.9073C68.7749 4.70556 68.6558 4.79124 68.6183 4.91645L66.6012 11.4761L64.3856 4.90986C64.3437 4.78684 64.2289 4.70556 64.0987 4.70556H62.32C62.1898 4.70556 62.0729 4.78904 62.0332 4.90986L59.8175 11.4761L57.8005 4.91645C57.7608 4.79124 57.6438 4.70556 57.5114 4.70556H54.9626C54.8655 4.70556 54.7728 4.75169 54.7176 4.83078C54.6602 4.90767 54.6448 5.00872 54.6757 5.10099L58.4184 16.2058C58.4604 16.3289 58.5751 16.4102 58.7053 16.4102H60.7289C60.8591 16.4102 60.9761 16.3267 61.0158 16.2058L63.2116 9.71868L65.4074 16.2058C65.4493 16.3289 65.564 16.4102 65.6942 16.4102H67.7179C67.8481 16.4102 67.965 16.3267 68.0048 16.2058L71.7475 5.10099C71.7784 5.01092 71.7629 4.90986 71.7056 4.83078C71.646 4.75169 71.5533 4.70556 71.4562 4.70556ZM75.2894 4.70556H73.012C72.8443 4.70556 72.7097 4.83957 72.7097 5.00652V16.107C72.7097 16.2739 72.8443 16.408 73.012 16.408H75.2894C75.4571 16.408 75.5917 16.2739 75.5917 16.107V5.00652C75.5917 4.83957 75.4571 4.70556 75.2894 4.70556ZM49.5052 16.0279C49.6376 16.1751 49.5294 16.4102 49.3286 16.4102H46.537C46.4245 16.4102 46.3163 16.3596 46.2435 16.2739L45.7712 15.7072C44.8069 16.3289 43.6593 16.6913 42.4279 16.6913C39.0295 16.6913 36.2666 13.9387 36.2666 10.5579C36.2666 7.17697 39.0317 4.42437 42.4279 4.42437C45.8264 4.42437 48.5893 7.17697 48.5893 10.5579C48.5893 11.7771 48.2296 12.9128 47.6095 13.8684L49.5052 16.0279ZM43.9727 13.5543L42.7501 12.0912C42.6221 11.9375 42.7325 11.7046 42.9311 11.7046H45.4888C45.6102 11.3443 45.6786 10.9577 45.6786 10.5579C45.6786 8.72352 44.3081 7.14402 42.4257 7.14402C40.5433 7.14402 39.1729 8.72572 39.1729 10.5579C39.1729 12.39 40.5433 13.9497 42.4257 13.9497C42.9995 13.9497 43.5203 13.8047 43.9727 13.5543ZM26.2675 21.4101C25.9762 21.3002 25.7445 21.3881 25.6342 21.588C25.4665 21.8912 25.5901 22.4909 25.9277 23.0159C26.2698 23.5454 26.5588 23.8156 26.7884 23.8156C27.0002 23.8156 27.2098 23.541 27.1105 22.8776C27.051 22.4799 26.8303 21.621 26.2675 21.4101ZM22.9 23.8837C22.5954 23.8837 22.3394 23.9891 22.1828 24.1825C21.7811 24.6745 21.9621 25.5423 22.5756 26.0761C22.8448 26.309 23.231 26.4496 23.6084 26.4496C23.9945 26.4496 24.3167 26.3046 24.5153 26.0431C24.8728 25.5664 24.6676 24.8898 23.9923 24.3209C23.6591 24.0397 23.2707 23.8837 22.9 23.8837ZM15.1894 30.2412C6.80136 30.2412 0 23.4707 0 15.1206C0 6.77056 6.80136 0 15.1894 0C23.5775 0 30.3788 6.77056 30.3788 15.1206C30.3788 17.9589 29.5932 20.6126 28.2294 22.8819C28.1853 22.9566 28.0727 22.9303 28.0617 22.8446C27.5409 19.1276 25.259 17.0802 21.94 16.4848C21.6531 16.4321 21.598 16.2564 21.9797 16.2234C22.9927 16.1355 24.4359 16.1509 25.1686 16.2827C25.2127 15.9027 25.2326 15.5139 25.2326 15.1206C25.2326 9.60005 20.7373 5.12515 15.1916 5.12515C9.64592 5.12515 5.15067 9.60005 5.15067 15.1206C5.15067 20.6412 9.64592 25.1161 15.1916 25.1161C15.3505 25.1161 15.5072 25.1183 15.6639 25.1117C15.4962 24.1407 15.4454 23.1543 15.4741 22.4096C15.4984 21.7989 15.6219 21.7154 15.9 22.19C17.2903 24.5735 19.283 26.7461 23.1604 27.5963C26.3293 28.2905 29.5071 29.1143 32.9431 33.431C33.2477 33.8155 32.782 34.1977 32.4311 33.8901C28.9356 30.8058 25.7776 29.8129 22.8669 29.8129C19.6229 29.8107 17.4139 30.2412 15.1894 30.2412Z" fill="#FF8C00"/>
</svg>
