<svg width="58" height="20" viewBox="0 0 58 20" fill="none" xmlns="http://www.w3.org/2000/svg">
<path fill-rule="evenodd" clip-rule="evenodd" d="M29.9784 6.71823C29.9459 9.25361 32.2621 10.6685 34.0067 11.5097C35.7994 12.3729 36.4015 12.9264 36.3947 13.6982C36.381 14.8795 34.9646 15.4008 33.639 15.4211C31.3263 15.4566 29.9818 14.8033 28.9127 14.3091L28.0797 18.1663C29.1522 18.6555 31.1382 19.082 33.1977 19.1006C38.0317 19.1006 41.1943 16.7395 41.2116 13.0787C41.2304 8.43281 34.7167 8.17551 34.7611 6.09879C34.7765 5.46921 35.3837 4.79721 36.7145 4.62629C37.373 4.54005 39.1913 4.47397 41.2526 5.41327L42.0616 1.68143C40.9532 1.28195 39.5283 0.899384 37.7546 0.899384C33.2045 0.899384 30.0041 3.29259 29.9784 6.71823ZM49.8361 1.22094C48.9535 1.22094 48.2094 1.73047 47.8775 2.51237L40.972 18.8264H45.8026L46.7639 16.1979H52.667L53.2246 18.8264H57.4821L53.7668 1.22094H49.8361ZM50.5117 5.97691L51.9058 12.5878H48.0879L50.5117 5.97691ZM24.1216 1.22094L20.3139 18.8264H24.9169L28.7229 1.22094H24.1216ZM17.3119 1.22094L12.5207 13.2039L10.5826 3.015C10.3552 1.87772 9.45712 1.22094 8.45982 1.22094H0.627374L0.51786 1.73216C2.12582 2.07738 3.95266 2.63426 5.05934 3.23002C5.73664 3.59385 5.93004 3.91202 6.15234 4.77692L9.82312 18.8264H14.688L22.1459 1.22094H17.3119Z" fill="white"/>
</svg>
